<?xml version="1.0" encoding="iso-8859-1"?>
<svg fill="#000000" width="16" height="16" version="1.1" id="Layer_1" xmlns="http://www.w3.org/2000/svg" xmlns:xlink="http://www.w3.org/1999/xlink" viewBox="0 0 463 463" xml:space="preserve">
	<g>
		<g>
			<g>
				<path d="M351.5,32h-72h-9.214c-3.514-18.205-19.57-32-38.786-32c-19.216,0-35.271,13.795-38.786,32H183.5h-72
				C89.72,32,72,49.72,72,71.5v352c0,21.78,17.72,39.5,39.5,39.5h240c21.78,0,39.5-17.72,39.5-39.5v-352
				C391,49.72,373.28,32,351.5,32z M175,55.5c0-4.687,3.813-8.5,8.5-8.5h15.999c4.143,0,7.501-3.357,7.501-7.5
				c0-13.51,10.991-24.5,24.5-24.5c13.509,0,24.5,10.99,24.5,24.5c0,4.143,3.358,7.5,7.5,7.5h16c4.687,0,8.5,3.813,8.5,8.5v16
				c0,4.687-3.813,8.5-8.5,8.5h-96c-4.679,0-8.485-3.801-8.499-8.476c0,0,0.001-0.016,0.001-0.024c0-0.016-0.002-0.032-0.002-0.048
				V55.5z M183.5,95h96c10.336,0,19.128-6.71,22.266-16H344v337H119V79h42.234C164.372,88.29,173.164,95,183.5,95z M376,423.5
				c0,13.51-10.991,24.5-24.5,24.5h-240C97.991,448,87,437.01,87,423.5v-352C87,57.99,97.991,47,111.5,47h50.097
				C160.57,49.638,160,52.503,160,55.5V64h-48.5c-4.142,0-7.5,3.357-7.5,7.5v352c0,4.143,3.358,7.5,7.5,7.5h240
				c4.142,0,7.5-3.357,7.5-7.5v-352c0-4.143-3.358-7.5-7.5-7.5H303v-8.5c0-2.997-0.57-5.862-1.597-8.5H351.5
				c13.509,0,24.5,10.99,24.5,24.5V423.5z" />
				<path d="M231.5,55c4.142,0,7.5-3.357,7.5-7.5v-8c0-4.143-3.358-7.5-7.5-7.5c-4.142,0-7.5,3.357-7.5,7.5v8
				C224,51.643,227.358,55,231.5,55z" />
				<path d="M144,143.5c0,4.143,3.358,7.5,7.5,7.5h104c4.142,0,7.5-3.357,7.5-7.5s-3.358-7.5-7.5-7.5h-104
				C147.358,136,144,139.357,144,143.5z" />
				<path d="M151.5,183h80c4.142,0,7.5-3.357,7.5-7.5s-3.358-7.5-7.5-7.5h-80c-4.142,0-7.5,3.357-7.5,7.5S147.358,183,151.5,183z" />
				<path d="M255.5,200h-104c-4.142,0-7.5,3.357-7.5,7.5s3.358,7.5,7.5,7.5h104c4.142,0,7.5-3.357,7.5-7.5S259.642,200,255.5,200z" />
				<path d="M151.5,247h80c4.142,0,7.5-3.357,7.5-7.5s-3.358-7.5-7.5-7.5h-80c-4.142,0-7.5,3.357-7.5,7.5S147.358,247,151.5,247z" />
				<path d="M255.5,264h-104c-4.142,0-7.5,3.357-7.5,7.5s3.358,7.5,7.5,7.5h104c4.142,0,7.5-3.357,7.5-7.5S259.642,264,255.5,264z" />
				<path d="M151.5,311h80c4.142,0,7.5-3.357,7.5-7.5s-3.358-7.5-7.5-7.5h-80c-4.142,0-7.5,3.357-7.5,7.5S147.358,311,151.5,311z" />
				<path d="M255.5,328h-104c-4.142,0-7.5,3.357-7.5,7.5s3.358,7.5,7.5,7.5h104c4.142,0,7.5-3.357,7.5-7.5S259.642,328,255.5,328z" />
				<path d="M231.5,360h-80c-4.142,0-7.5,3.357-7.5,7.5s3.358,7.5,7.5,7.5h80c4.142,0,7.5-3.357,7.5-7.5S235.642,360,231.5,360z" />
				<path d="M284.826,179.859c1.408,1.971,3.681,3.141,6.103,3.141s4.695-1.17,6.103-3.141l28.571-40
				c2.408-3.371,1.627-8.055-1.744-10.462c-3.37-2.408-8.054-1.626-10.462,1.743l-22.468,31.456l-5.326-7.456
				c-2.408-3.372-7.092-4.152-10.462-1.743c-3.371,2.407-4.151,7.091-1.744,10.462L284.826,179.859z" />
				<path d="M284.826,243.859c1.408,1.971,3.681,3.141,6.103,3.141s4.695-1.17,6.103-3.141l28.571-40
				c2.408-3.371,1.627-8.055-1.744-10.462c-3.37-2.408-8.054-1.626-10.462,1.743l-22.468,31.456l-5.326-7.456
				c-2.408-3.372-7.092-4.153-10.462-1.743c-3.371,2.407-4.151,7.091-1.744,10.462L284.826,243.859z" />
				<path d="M284.826,307.859c1.408,1.971,3.681,3.141,6.103,3.141s4.695-1.17,6.103-3.141l28.571-40
				c2.408-3.371,1.627-8.055-1.744-10.462c-3.37-2.408-8.054-1.626-10.462,1.743l-22.468,31.456l-5.326-7.456
				c-2.408-3.371-7.092-4.153-10.462-1.743c-3.371,2.407-4.151,7.091-1.744,10.462L284.826,307.859z" />
				<path d="M284.826,371.859c1.408,1.971,3.681,3.141,6.103,3.141s4.695-1.17,6.103-3.141l28.571-40
				c2.408-3.371,1.627-8.055-1.744-10.462c-3.37-2.408-8.054-1.627-10.462,1.743l-22.468,31.456l-5.326-7.456
				c-2.408-3.371-7.092-4.153-10.462-1.743c-3.371,2.407-4.151,7.091-1.744,10.462L284.826,371.859z" />
			</g>
		</g>
	</g>
</svg>
