<svg width="24" height="24" viewBox="0 0 24 24" fill="none" xmlns="http://www.w3.org/2000/svg">
<path d="M3.75 5.25C3.33579 5.25 3 4.91421 3 4.5C3 4.08579 3.33579 3.75 3.75 3.75H20.25C20.6642 3.75 21 4.08579 21 4.5C21 4.91421 20.6642 5.25 20.25 5.25H3.75Z" fill="#00AEC7"/>
<path d="M6.75 2.25C6.33579 2.25 6 1.91421 6 1.5C6 1.08579 6.33579 0.75 6.75 0.75H17.25C17.6642 0.75 18 1.08579 18 1.5C18 1.91421 17.6642 2.25 17.25 2.25H6.75Z" fill="#00AEC7"/>
<path d="M0 19.5C0 20.7426 1.00736 21.75 2.25 21.75H21.75C22.9926 21.75 24 20.7426 24 19.5V9C24 7.75736 22.9926 6.75 21.75 6.75H2.25C1.00736 6.75 0 7.75736 0 9V19.5ZM2.25 20.25C1.83579 20.25 1.5 19.9142 1.5 19.5V9C1.5 8.58579 1.83579 8.25 2.25 8.25H21.75C22.1642 8.25 22.5 8.58579 22.5 9V19.5C22.5 19.9142 22.1642 20.25 21.75 20.25H2.25Z" fill="#00AEC7"/>
</svg>
