<svg width="24" height="24" viewBox="0 0 24 24" fill="none" xmlns="http://www.w3.org/2000/svg">
<path d="M0 19.5C0 20.7426 1.00736 21.75 2.25 21.75H21.75C22.9926 21.75 24 20.7426 24 19.5V9C24 7.75736 22.9926 6.75 21.75 6.75H2.25C1.00736 6.75 0 7.75736 0 9V19.5Z" fill="#00AEC7"/>
<path d="M3 4.5C3 4.91421 3.33579 5.25 3.75 5.25H20.25C20.6642 5.25 21 4.91421 21 4.5C21 4.08579 20.6642 3.75 20.25 3.75H3.75C3.33579 3.75 3 4.08579 3 4.5ZM6 1.5C6 1.91421 6.33579 2.25 6.75 2.25H17.25C17.6642 2.25 18 1.91421 18 1.5C18 1.08579 17.6642 0.75 17.25 0.75H6.75C6.33579 0.75 6 1.08579 6 1.5Z" fill="#00AEC7"/>
</svg>
