<svg width="24" height="24" viewBox="0 0 24 24" fill="none" xmlns="http://www.w3.org/2000/svg">
<path fill-rule="evenodd" clip-rule="evenodd" d="M9 5.25C9 4.00736 10.0074 3 11.25 3H12.75C13.9926 3 15 4.00736 15 5.25V6.75C15 7.99264 13.9926 9 12.75 9V10.5H16.5C16.9142 10.5 17.25 10.8358 17.25 11.25V12.75C17.25 13.1642 16.9142 13.5 16.5 13.5C16.0858 13.5 15.75 13.1642 15.75 12.75V12H8.25V12.75C8.25 13.1642 7.91421 13.5 7.5 13.5C7.08579 13.5 6.75 13.1642 6.75 12.75V11.25C6.75 10.8358 7.08579 10.5 7.5 10.5H11.25V9C10.0074 9 9 7.99264 9 6.75V5.25ZM4.5 17.25C4.5 16.0074 5.50736 15 6.75 15H8.25C9.49264 15 10.5 16.0074 10.5 17.25V18.75C10.5 19.9926 9.49264 21 8.25 21H6.75C5.50736 21 4.5 19.9926 4.5 18.75V17.25ZM13.5 17.25C13.5 16.0074 14.5074 15 15.75 15H17.25C18.4926 15 19.5 16.0074 19.5 17.25V18.75C19.5 19.9926 18.4926 21 17.25 21H15.75C14.5074 21 13.5 19.9926 13.5 18.75V17.25Z" fill="#00AEC7"/>
</svg>
