<svg width="83" height="100" viewBox="0 0 83 100" fill="none" xmlns="http://www.w3.org/2000/svg">
<path d="M70.2875 35.3634C63.4391 42.1755 56.5866 48.9838 49.7302 55.7882L17.5425 87.9284L17.4635 87.8497C15.6203 89.6965 13.7892 91.5556 12.0117 93.4641C11.0752 94.4698 10.7294 95.7484 11.8093 96.9097C12.9391 98.1256 14.3006 98.0521 15.5482 97.1292C16.4818 96.4387 17.2956 95.5776 18.1222 94.7527C35.5151 77.3912 52.8926 60.014 70.2547 42.621L80.829 40.7806C79.1033 39.0315 71.924 33.7358 70.2877 35.3634H70.2875Z" fill="#00AEC7"/>
<path d="M75.3226 50.9002C75.3305 50.416 75.1811 49.9422 74.8968 49.5499C74.6124 49.1576 74.2085 48.8678 73.7454 48.7239C72.061 48.116 70.9048 49.0999 69.8208 50.1816C55.6687 64.307 41.5185 78.4344 27.3702 92.5637C26.1181 93.8146 24.8248 95.3056 26.3602 96.9588C28.0548 98.7838 29.6424 97.477 30.9865 96.1364C45.2929 81.8648 59.5949 67.5886 73.8925 53.3079C74.5724 52.6291 75.2514 51.9444 75.3228 50.9002H75.3226ZM47.029 49.1816L50.0059 46.2092C49.7643 45.459 49.1536 44.7502 48.5105 44.1075C34.899 30.5086 21.2826 16.9148 7.66105 3.32597C6.89919 2.56576 6.08506 1.87959 4.90503 1.92606C3.97958 1.97375 3.23839 2.36877 2.88707 3.2358C2.26605 4.76767 3.05986 5.88857 4.0836 6.91115C17.697 20.5081 31.3112 34.104 44.9263 47.6989C45.57 48.3416 46.2801 48.944 47.029 49.1816ZM73.7958 67.9972C75.056 66.7239 76.1749 65.2014 74.4762 63.5996C72.9511 62.1616 71.4944 63.1644 70.2958 64.3546C64.8542 69.7574 59.4453 75.1932 54.0029 80.595C52.0996 82.4839 52.1875 84.2464 54.0726 86.0956C57.2653 89.2286 60.4536 92.3684 63.5519 95.5933C65.2892 97.4015 67.1867 98.5325 69.6374 98.0546C70.2034 98.091 70.6337 98.1744 71.0528 98.1354C72.842 97.9695 75.1003 98.0867 75.1571 95.6248C75.2153 93.0855 73.0155 93.0744 71.1728 93.143C69.3012 93.2127 67.928 92.4439 66.6844 91.1376C64.7757 89.1328 62.8656 87.1163 60.8025 85.2751C58.9768 83.6451 59.2364 82.4499 60.898 80.8537C65.275 76.6486 69.5251 72.3115 73.7959 67.9974L73.7958 67.9972ZM37.4418 54.824C38.1048 55.4833 38.8995 56.157 39.7596 56.4403L42.7228 53.4815C42.3472 52.4085 41.4523 51.692 40.6764 50.9155C32.3334 42.5658 23.9828 34.2238 15.6247 25.8894C13.894 24.1623 12.1735 22.4225 10.3888 20.7514C9.33985 19.7687 8.09417 19.5161 6.97595 20.6227C5.9114 21.6758 5.98781 22.9152 6.82678 24.095C7.2041 24.6089 7.62368 25.0905 8.08114 25.5348C17.8595 35.3064 27.6464 45.0695 37.4418 54.824ZM26.3258 58.382C27.9061 59.9558 29.4783 61.5404 31.1163 63.0527C31.4786 63.3986 31.9203 63.6506 32.4028 63.7867L35.5026 60.6914C35.2991 59.8936 34.7687 59.2622 34.1776 58.6712C27.8684 52.3599 21.5523 46.0557 15.2293 39.7585C14.7123 39.2266 14.0976 38.799 13.4188 38.499C12.3821 38.0744 11.313 38.1429 10.4888 39.0493C9.65644 39.9647 9.66738 41.0179 10.3132 41.9812C10.9128 42.8549 11.5945 43.6695 12.3489 44.4139C16.993 49.0846 21.6519 53.7406 26.3258 58.382Z" fill="#00AEC7"/>
</svg>
