<svg width="32" height="32" viewBox="0 0 32 32" fill="none" xmlns="http://www.w3.org/2000/svg">
<path d="M10.1433 1.11931C12.3148 0.530686 14.621 0 16 0C17.379 0 19.6852 0.530686 21.8567 1.1193C24.0769 1.72113 26.3137 2.42922 27.6294 2.85857C28.7275 3.21687 29.558 4.18718 29.7175 5.38419C30.9108 14.3388 28.1439 20.9737 24.788 25.364C23.1163 27.5508 21.2995 29.1807 19.7538 30.2707C18.9815 30.8154 18.2657 31.2331 17.6579 31.5192C17.0963 31.7836 16.4954 32 16 32C15.5046 32 14.9037 31.7836 14.3421 31.5192C13.7343 31.2331 13.0185 30.8154 12.2462 30.2707C10.7005 29.1807 8.88366 27.5508 7.212 25.364C3.85608 20.9737 1.08922 14.3388 2.28246 5.38419C2.44197 4.18718 3.27251 3.21687 4.37056 2.85857C5.68633 2.42922 7.92312 1.72113 10.1433 1.11931Z" fill="#00AEC7"/>
</svg>
