<svg id="Layer_1" data-name="Layer 1" xmlns="http://www.w3.org/2000/svg" viewBox="0 0 525 210"><defs><style>.cls-1{fill:#00b4c8;}.cls-2{fill:#0a1429;stroke:#0a1429;stroke-linejoin:round;stroke-width:4.88px;}</style></defs><title>Artboard 20</title><path class="cls-1" d="M127.77,166.06c9.16,0,19.82-14.53,21.94-30.21C138.15,137.06,131.79,146,127.77,166.06Z"/><path class="cls-1" d="M70,65.68C87.54,69,105.16,71.92,122.77,75c11.66,2,23.33,4,35.59,6.12C153.86,67.68,149,57,137.67,53.44c-21.18-6.7-42.13-14.77-63.18-22.26L7.94,7.5l-.69,1c1.31,2.13,2.5,4.42,3.94,6.37C25,33.6,40.55,49.22,58,61.11A31.61,31.61,0,0,0,70,65.68Z"/><path class="cls-1" d="M102.75,111.88c17.76-1.12,35.53-1.8,53.3-2.7,4.72-.24,9.43-.67,14.61-1-3.78-10.16-6.61-19.38-16.5-20.92-31-4.84-61.89-10.8-92.83-16.28-5.91-1-11.84-1.92-17.76-2.88,11.54,16,24.27,28.85,38.8,38.26A32.66,32.66,0,0,0,102.75,111.88Z"/><path class="cls-1" d="M127.11,115c11.37-.55,22.71-1.39,34.06-2.09,3-.18,6-.25,9.35-.38-1.67,6.72-2.81,12.78-9,14.47-19.35,5.29-38.55,11.28-57.82,17-3.67,1.08-7.38,2.06-11.07,3.09C98.84,136.07,106,127,114.56,120A21,21,0,0,1,127.11,115Z"/><path class="cls-1" d="M152.18,149.42c-.49,2.75-1,5.48-1.5,8.24-1.31,7.57-2.61,15.16-4,23.05,13.16-2.85,25.25-29.22,23.75-50.54C157,130.48,155.29,132.26,152.18,149.42Z"/><path class="cls-2" d="M215.68,74.53a52.51,52.51,0,0,1,11.95,1.22,65.33,65.33,0,0,1,7.76,2.18l-3.72,16.16a30.6,30.6,0,0,0-6.38-2.1,36,36,0,0,0-7.84-.81,20.31,20.31,0,0,0-7.91,1.37,12.9,12.9,0,0,0-5.17,3.8,14.45,14.45,0,0,0-2.75,5.9,33,33,0,0,0-.81,7.51v5.66h30.7v16.32h-30.7v68.19H181.26V109.44q0-16.32,8.56-25.61T215.68,74.53Z"/><path class="cls-2" d="M270.36,113.32a47.76,47.76,0,0,1,16.32,2.42,26.06,26.06,0,0,1,10.58,6.79,25.45,25.45,0,0,1,5.66,10.58,51.88,51.88,0,0,1,1.7,13.66V198q-4.53,1-13.66,2.34a138.69,138.69,0,0,1-20.6,1.38,61.78,61.78,0,0,1-13.9-1.46,29.25,29.25,0,0,1-10.74-4.68,22.14,22.14,0,0,1-6.95-8.4,29.18,29.18,0,0,1-2.51-12.77,24.59,24.59,0,0,1,2.83-12.28,23.09,23.09,0,0,1,7.68-8.16A33.28,33.28,0,0,1,258,149.43a63.56,63.56,0,0,1,13.33-1.37,60,60,0,0,1,14.38,1.78V146.6a25.24,25.24,0,0,0-.81-6.46,13,13,0,0,0-8.16-9,23.11,23.11,0,0,0-8.32-1.29,73.48,73.48,0,0,0-12.44,1,55,55,0,0,0-9.21,2.26l-2.43-15.84a77.26,77.26,0,0,1,10.83-2.58A85.05,85.05,0,0,1,270.36,113.32ZM272,186.2a73.34,73.34,0,0,0,13.74-1V163.57a40.09,40.09,0,0,0-4.69-1,44,44,0,0,0-6.78-.48,45.63,45.63,0,0,0-6.55.48,20.67,20.67,0,0,0-6,1.78,10.92,10.92,0,0,0-4.28,3.64,10.12,10.12,0,0,0-1.61,5.89q0,7,4.36,9.62T272,186.2Z"/><path class="cls-2" d="M354.19,201.55a53.32,53.32,0,0,1-14.46-1.94,22.29,22.29,0,0,1-9.13-5.09,18.13,18.13,0,0,1-4.77-8.24A42.19,42.19,0,0,1,324.46,175V77.77L344,74.53v96.8a26.64,26.64,0,0,0,.57,6,9.6,9.6,0,0,0,2,4.12,9.06,9.06,0,0,0,4,2.58,30.93,30.93,0,0,0,6.38,1.38Z"/><path class="cls-2" d="M364.42,157.75a51.84,51.84,0,0,1,2.91-17.53,41.65,41.65,0,0,1,8.32-14.14,38.19,38.19,0,0,1,13.17-9.37,43.16,43.16,0,0,1,17.46-3.39,59.13,59.13,0,0,1,22.62,4.36l-4.2,16a44.78,44.78,0,0,0-7.68-2.43,41.63,41.63,0,0,0-9.13-1q-11.47,0-17.45,7.19t-6,20.28q0,12.62,5.66,20t19.06,7.35a49.88,49.88,0,0,0,9.86-1,45.8,45.8,0,0,0,8.4-2.42l2.75,16.16a40.38,40.38,0,0,1-9.77,2.91,69.76,69.76,0,0,1-13.5,1.29,48.92,48.92,0,0,1-18.82-3.31,35.61,35.61,0,0,1-13.25-9.21A38,38,0,0,1,367,175.45,58.12,58.12,0,0,1,364.42,157.75Z"/><path class="cls-2" d="M517.74,157.59a54.52,54.52,0,0,1-2.91,18.26,40.32,40.32,0,0,1-8.24,14.06A36.93,36.93,0,0,1,493.74,199a41.36,41.36,0,0,1-16.56,3.23A40.8,40.8,0,0,1,460.7,199a37.18,37.18,0,0,1-12.77-9.05,41.42,41.42,0,0,1-8.32-14.06,53.27,53.27,0,0,1-3-18.26,52.6,52.6,0,0,1,3-18.18,40.7,40.7,0,0,1,8.4-14,37.09,37.09,0,0,1,12.85-9,41.37,41.37,0,0,1,16.32-3.15,42,42,0,0,1,16.4,3.15,36.18,36.18,0,0,1,12.85,9,41.49,41.49,0,0,1,8.32,14A52.6,52.6,0,0,1,517.74,157.59Zm-20,0q0-12.6-5.41-20t-15.11-7.36q-9.69,0-15.11,7.36t-5.41,20q0,12.76,5.41,20.2t15.11,7.44q9.69,0,15.11-7.44T497.7,157.59Z"/></svg>