<?xml version="1.0" encoding="utf-8"?>
<!-- Generator: Adobe Illustrator 24.0.1, SVG Export Plug-In . SVG Version: 6.00 Build 0)  -->
<svg version="1.1" id="Layer_2_1_" xmlns="http://www.w3.org/2000/svg" xmlns:xlink="http://www.w3.org/1999/xlink" x="0px" y="0px"
	 viewBox="0 0 364 188" style="enable-background:new 0 0 364 188;" xml:space="preserve">
<style type="text/css">
	.st0{fill:#738C97;}
	.st1{fill:#9DB3BA;}
	.st2{fill:#FFFFFF;stroke:#9DB3BA;stroke-width:1.2363;stroke-linecap:round;stroke-linejoin:round;stroke-miterlimit:15.1181;}
	.st3{fill:none;stroke:#9DB3BA;stroke-width:1.2363;stroke-miterlimit:15.1181;}
	.st4{fill:none;stroke:#738C97;stroke-width:1.2363;stroke-linecap:round;stroke-linejoin:round;stroke-miterlimit:15.1181;}
</style>
<g>
	<g>
		<path class="st0" d="M181.1,111.6c-3.3,0-6-1.1-8.4-3.3c-2.3-2.2-3.5-5.1-3.5-8.7c0-3.6,1.2-6.5,3.6-8.7c2.5-2.3,5.4-3.4,9-3.4
			c3.5,0,6.5,1.2,8.9,3.6l-2.9,3.6c-2-1.8-4.1-2.6-6.1-2.6c-2.1,0-3.8,0.7-5.4,2.1c-1.5,1.3-2.2,3.1-2.2,5.3c0,2.1,0.7,4,2.2,5.4
			c1.5,1.5,3.3,2.2,5.5,2.2c2.2,0,4.3-1,6.2-3l2.9,3.2C188.1,110.2,184.8,111.6,181.1,111.6L181.1,111.6z M208.2,92.5
			c-2.4,0-4.3,0.8-5.5,2.4c-1.2,1.6-1.8,3.7-1.8,6.4v10H196V87.9h4.9v4.7c0.8-1.5,1.9-2.7,3.2-3.6c1.4-0.9,2.8-1.4,4.3-1.4l0,5
			H208.2L208.2,92.5z M218.3,111.3h-4.9V87.9h4.9V111.3z M213.7,83.3c-0.6-0.6-0.9-1.3-0.9-2.2c0-0.8,0.3-1.6,0.9-2.2
			c0.6-0.6,1.3-0.9,2.2-0.9c0.8,0,1.6,0.3,2.2,0.9s0.9,1.3,0.9,2.2c0,0.8-0.3,1.6-0.9,2.2s-1.3,0.9-2.2,0.9
			C215.1,84.2,214.3,83.9,213.7,83.3z"/>
		<path class="st1" d="M222.9,100.5v-4.6h14.6v4.6H222.9z"/>
		<path class="st0" d="M247.8,105.1c1.4,1.4,3.2,2.1,5.3,2.1c2.1,0,3.9-0.7,5.3-2.1c1.4-1.4,2.1-3.3,2.1-5.5c0-2.3-0.7-4.1-2.1-5.5
			c-1.4-1.4-3.1-2.2-5.3-2.2c-2.1,0-3.9,0.7-5.3,2.2c-1.4,1.4-2.1,3.2-2.1,5.5C245.7,101.9,246.4,103.7,247.8,105.1L247.8,105.1z
			 M261.9,108.2c-2.3,2.3-5.3,3.5-8.8,3.5c-3.5,0-6.4-1.2-8.8-3.5c-2.3-2.3-3.5-5.2-3.5-8.6c0-3.4,1.2-6.2,3.5-8.5
			c2.3-2.3,5.3-3.5,8.8-3.5c3.5,0,6.4,1.2,8.8,3.5c2.3,2.3,3.5,5.2,3.5,8.5C265.4,103,264.2,105.8,261.9,108.2L261.9,108.2z"/>
	</g>
	<path class="st2" d="M126.8,127.1l-22.6-10.8l-5.6-24.4l15.5-19.6l25-0.1l15.6,19.5l-5.5,24.4L126.8,127.1z"/>
	<path class="st3" d="M124.4,81l-2.9,6.5L124.4,81z M139.2,86.1l-7,1.5L139.2,86.1z M111.7,89.8l3.4,6.3L111.7,89.8z M138.4,96.1
		l5.5,4.6L138.4,96.1z M111.5,104.8l7.1,1.3L111.5,104.8z M135.7,106.1l-0.2,7.2L135.7,106.1z M126.7,110.1l-5.6,4.5L126.7,110.1z"
		/>
	<path class="st0" d="M117,77.3l-1.1,0.6l4.5,8.8l-5.7-1.2l-0.3,1.2l6.6,1.4l2,3.9l0.4-0.5l0.7,0L117,77.3z M136.7,77.3l-4.4,8.8
		l-2.4-5.3l-1.1,0.5l2.8,6.2l-1.9,3.8h0.3l0.7,0.9l7.2-14.4L136.7,77.3z M141.3,89.5l-3.2,6l-4.3,0.8l0.1,0.1l-0.3,1.2l16-3.1
		l-0.2-1.2l-9.7,1.9l2.7-5.1L141.3,89.5z M104.2,93.3l-0.2,1.2l9.8,1.9l-4.5,3.8l0.8,0.9l5.3-4.4l4.5,0.9l-0.3-1.1l0.1-0.1
		L104.2,93.3z M132.5,102.5l0,0.2l-1.1,0.5l12.4,10.7l0.8-0.9l-7.5-6.5l5.7-1l-0.2-1.2l-6.7,1.2L132.5,102.5z M120.9,102.6
		L109,112.9l0.8,0.9l7.5-6.5l0.2,5.9l1.2,0l-0.2-6.9l3.6-3.1L120.9,102.6L120.9,102.6z M126,105.1v16.2h1.2v-9.9l4.5,3.6l0.8-1
		l-5.3-4.3v-4.6l-0.6,0.3L126,105.1z"/>
	<path class="st4" d="M126.7,105.4l-5.8-2.8l-1.4-6.2l4-5l6.4,0l4,5l-1.4,6.2L126.7,105.4z"/>
</g>
</svg>
