<svg id="Layer_2" data-name="Layer 2" xmlns="http://www.w3.org/2000/svg" viewBox="0 0 364 188"><defs><style>.cls-3{fill:#738c97}</style><clipPath id="clip-path"><path fill="none" d="M58.09 60h119.36v101H58.09z"/></clipPath></defs><g clip-path="url(#clip-path)"><path class="cls-3" d="M83.18 88v4.16c0 .33 0 .52.44.52h8.5c.36 0 .48-.13.48-.49v-8.44c0-.37-.12-.47-.48-.47h-8.43c-.4 0-.52.12-.51.51V88zm36.56-6.11h4.22c.39 0 .57-.08.57-.53v-8.38c0-.42-.12-.55-.75-.47a29.17 29.17 0 0 1-7.64 0c-.87-.13-1 0-1 .47v8.32a.5.5 0 0 0 .52.51h4.09zm-25.82-4.71v4.22c0 .32 0 .52.44.52h8.49c.36 0 .49-.12.49-.49V73c0-.37-.11-.48-.48-.48h-8.43c-.39 0-.52.11-.51.51v4.15zm21.46 10.73v4.1c0 .49.11.65.63.64h8c.65 0 .78-.23.77-.79v-8.07c0-.4-.1-.55-.54-.55h-8.31c-.39 0-.51.11-.51.51v4.15zm10.73 0v4.22c0 .39.11.52.51.52h8.37c.39 0 .53-.12.53-.52v-8.37c0-.4-.12-.52-.52-.51h-8.37c-.4 0-.52.11-.52.51v4.15zm-16.71-4.65h-4.28c-.36 0-.48.1-.48.47v8.44c0 .35.09.49.47.49h8.43c.39 0 .53-.12.52-.52v-8.37c0-.39-.1-.52-.5-.51h-4.16zm-10.77 0h-4.21c-.34 0-.51 0-.51.45v8.49c0 .34.1.46.44.46h8.5c.36 0 .48-.13.48-.49v-8.44c0-.37-.12-.48-.48-.47h-4.22zm26.14-16.8v-4.15c0-.38-.08-.53-.5-.53h-8.37c-.44 0-.53.16-.53.56v8.31c0 .44.15.54.55.54h8.26c.5 0 .6-.18.6-.63v-4.1zm-10.71 10.8V73.1c0-.43-.09-.59-.56-.59h-8.32c-.41 0-.55.09-.55.53v8.31c0 .4.09.56.53.56h8.37c.45 0 .53-.17.52-.56v-4.1zm47.32 8.12v-.28a11.5 11.5 0 0 0-.43-3.91 16.73 16.73 0 0 0-5.42-7.57c-.34-.29-.52-.05-.68.17a8.76 8.76 0 0 0-1.11 2.12 15.17 15.17 0 0 0-.74 7 11.22 11.22 0 0 0 2.54 6.16c.22.26.73.43.63.76s-.52.47-.82.67a22 22 0 0 1-12.2 3.58q-32.26.06-64.55 0h-4.24c-.31 0-.53 0-.56.43a33.68 33.68 0 0 0 .07 5.94c0 .45.22.5.6.5a17.63 17.63 0 0 0 3.41-.26 12.44 12.44 0 0 0 5.48-2c.24-.18.35 0 .48.1a4.49 4.49 0 0 0 1.5 1.09 18.22 18.22 0 0 0 7 1.4 33.27 33.27 0 0 0 5.28-.2 25.37 25.37 0 0 0 6.5-1.43 4.85 4.85 0 0 0 2.43-1.59c.2-.28.32-.09.46 0a10.13 10.13 0 0 0 4.27 2.37 19.62 19.62 0 0 0 8.75.58 12.62 12.62 0 0 0 6.29-2.49c.26-.21.5-.59.78-.62s.42.46.7.67a9 9 0 0 0 2.92 1.38A33.5 33.5 0 0 0 145 101a8.2 8.2 0 0 0 5.13-2.24c.2-.21.31-.06.45 0a12 12 0 0 0 4.19 1.74.68.68 0 0 0 .9-.41 54.71 54.71 0 0 0 3.46-7.4.81.81 0 0 1 1-.61 18.26 18.26 0 0 0 6.21-.38 11.71 11.71 0 0 0 8-5.58c.23-.41.21-.6-.23-.81a14.5 14.5 0 0 0-9.33-1 18.16 18.16 0 0 0-3.45 1.09zm-7 16.59H74.94a2.94 2.94 0 0 1-.42 0c-.83-.08-.11 1 .38 2.5a43.68 43.68 0 0 0 3.63 8.43c.31.53.44.89.92.9 1.45.06 2.89.17 4.33.19a70.14 70.14 0 0 0 7.8-.3 31.75 31.75 0 0 0 6.76-1.34c.45-.15.82 0 1 .39a.73.73 0 0 1-.49 1c-.53.18-1.06.38-1.59.52a34.93 34.93 0 0 1-5.84 1 65.62 65.62 0 0 1-7.93.29 21.85 21.85 0 0 0-3 0 2.73 2.73 0 0 0 .23.27 32.68 32.68 0 0 0 12.78 8.08c5.41 1.79 11 2 16.61 1.91a59.73 59.73 0 0 0 6.93-.66 61.4 61.4 0 0 0 12-2.91 49.73 49.73 0 0 0 18.41-11.48 44.83 44.83 0 0 0 3.83-4.31 42.25 42.25 0 0 0 3.13-4.48zm-28-42v20.55c0 .64.2.73.77.73h9.2c.53 0 .7.11.7.67v9.62c0 .47.11.62.6.61 2.28-.07 4.58.1 6.86-.12a22.68 22.68 0 0 0 8.49-2.49c.3-.16.34-.28.14-.58a14.48 14.48 0 0 1-2.23-9.51 13.76 13.76 0 0 1 1.85-6.22 16.29 16.29 0 0 1 1.64-2.06.33.33 0 0 1 .54-.06 19.75 19.75 0 0 1 7.06 8.82 13.81 13.81 0 0 1 .67 2.75 17.84 17.84 0 0 1 8.81-.23 3.76 3.76 0 0 1 .73.27c3.94 1.91 4.38 1.71 4.12 2.31a13.74 13.74 0 0 1-11.08 8.32 17.7 17.7 0 0 1-4.93.23.11.11 0 0 0-.1.06 62.68 62.68 0 0 1-3.29 6.91c4.42.28 8.5-.14 11.86-3.38-.09 2.61 1.9 3.16 3.72 3.83 1.06.39 2.17.61 3.26 1H156.7a.91.91 0 0 0-.91.49 49.88 49.88 0 0 1-25.39 20.89 60.94 60.94 0 0 1-14.4 3.49 68 68 0 0 1-11.14.54c-7.25-.29-14.1-2-20.1-6.27a28.13 28.13 0 0 1-11.91-18.53c-.08-.45-.24-.61-.72-.61H58.16v-.07c1.08-.3 2.17-.58 3.24-.89a8 8 0 0 0 2.39-1.07 2.62 2.62 0 0 0 1.34-2.75A13.19 13.19 0 0 0 67.57 99a14.05 14.05 0 0 0 4.87 1.48.09.09 0 0 0 .1-.1 35 35 0 0 1 .06-7.73c0-.43.18-.52.57-.51h7.89c.51 0 .68-.1.67-.65v-9.62c0-.49.11-.64.62-.64h9.92a.12.12 0 0 0 .12-.12v-9.8c0-.56.12-.73.71-.73h20.46a.15.15 0 0 0 .14-.15V59.91z"/></g><path class="cls-3" d="M104.38 109.57c-.38.27-.77.5-1.17.08s-.23-.79.08-1.15a1.8 1.8 0 0 0-2.19.71 1.86 1.86 0 0 0 2.6 2.55 1.82 1.82 0 0 0 .68-2.19zm-4.18.81c-.06-2 1.14-2.67 2.69-2.73a2.58 2.58 0 0 1-.2 5.15 2.46 2.46 0 0 1-2.49-2.42zM109 77.23v3.31c0 .26 0 .49-.36.48s-.35-.24-.35-.48v-6.69c0-.25 0-.47.36-.47s.35.23.35.48v3.37zM113.18 77.21v3.31c0 .24 0 .51-.34.49s-.28-.28-.28-.48v-6.68c0-.21-.07-.45.3-.45s.32.21.32.44v3.37zM111.76 77.19v3.37c0 .22 0 .46-.31.45s-.31-.24-.31-.46v-6.68c0-.24 0-.49.35-.47s.27.29.27.48v3.31zM110.56 77.24v3.3c0 .24 0 .49-.34.48s-.29-.27-.29-.47v-6.67c0-.24-.05-.5.34-.48s.29.27.29.47v3.37zM105.31 77.19v-3.37c0-.19-.06-.41.27-.42s.33.2.33.43v6.79c0 .21 0 .4-.3.4s-.3-.2-.3-.41v-3.42zM107.53 73.51v7c0 .21.1.51-.3.52s-.32-.28-.32-.5v-6.61c0-.4.12-.56.52-.49l.1.1zM107.53 73.51l-.1-.1c.08 0 .11 0 .1.1zM118.43 66.39v-3.25c0-.24-.05-.48.34-.49s.37.2.37.46v6.69c0 .24.05.48-.34.49s-.36-.27-.36-.53v-3.37zM116.4 66.51v3.3c0 .2.09.46-.28.47s-.31-.22-.31-.44v-6.73c0-.22 0-.46.31-.44s.28.27.28.47v3.37zM118.27 66.49v3.31c0 .2.08.47-.28.48s-.34-.26-.34-.49v-6.62c0-.23-.07-.5.33-.5s.29.3.29.51v3.31zM121.05 66.45v3.36c0 .24 0 .49-.34.48s-.28-.27-.28-.47v-6.67c0-.24 0-.5.35-.48s.28.27.28.47v3.31zM122.49 62.78v7c0 .22.11.52-.29.53s-.32-.28-.33-.5v-6.62c0-.4.12-.55.51-.48l.11.1zM123.36 62.68c.4-.07.52.09.52.48v6.62c0 .22.07.51-.32.5s-.3-.31-.3-.53v-7l.1-.1z"/><path class="cls-3" d="M123.36 62.68l-.1.1a.08.08 0 0 1 .1-.1zM122.49 62.78l-.11-.1c.08 0 .11 0 .11.1zM101.38 87.92v-3.37c0-.26 0-.47.38-.46s.31.24.31.46v6.73c0 .26 0 .47-.37.46s-.31-.24-.31-.46v-3.36zM101 87.91v3.37c0 .27 0 .47-.37.46s-.32-.24-.32-.46v-6.73c0-.22 0-.45.32-.46s.37.19.37.46v3.36zM98.26 88v3.32c0 .27 0 .46-.39.45s-.32-.22-.32-.45v-6.78c0-.27 0-.46.38-.45s.33.22.32.45V88zM96.82 88v3.3c0 .27 0 .47-.38.46s-.31-.25-.31-.46v-6.75c0-.22 0-.45.32-.46s.37.2.37.46v3.43zM100.06 87.91v3.37c0 .21.06.45-.3.45s-.35-.19-.35-.44v-6.74c0-.23 0-.44.33-.45s.33.21.32.43v3.38zM94.79 87.91v-3.37c0-.19-.06-.42.26-.44s.33.21.33.44v6.75c0 .24 0 .45-.34.43s-.25-.25-.25-.43v-3.38zM111.08 87.91v-3.36c0-.22 0-.45.31-.46s.37.19.37.46v6.73c0 .27 0 .47-.37.46s-.31-.24-.31-.46v-3.37zM112.51 87.87v-3.24c0-.25-.08-.54.35-.54s.33.27.33.5v6.67c0 .24 0 .48-.36.48s-.33-.27-.33-.5v-3.37zM109.25 87.93v3.31c0 .23 0 .49-.34.5s-.37-.26-.37-.52v-6.63c0-.24-.05-.49.33-.5s.38.26.38.52v3.32zM107.55 87.9v3.3c0 .25.07.54-.36.54s-.32-.28-.32-.5v-6.67c0-.25 0-.49.36-.48s.33.27.33.5v3.31zM110.34 87.91v3.31c0 .23.07.51-.32.5s-.3-.3-.3-.52v-6.56c0-.22-.1-.52.29-.53s.33.32.33.55v3.25zM105.52 87.91v-3.37c0-.19-.06-.42.26-.43s.33.19.33.43v6.75c0 .23 0 .45-.33.43s-.26-.24-.26-.43v-3.38zM134.17 88v3.3c0 .23 0 .45-.32.46s-.37-.2-.37-.47v-6.73c0-.22 0-.43.32-.45s.37.21.37.46V88zM132.53 87.91v-3.37c0-.23 0-.44.32-.45s.39.18.39.45v6.75c0 .23 0 .44-.32.45s-.39-.18-.39-.45v-3.38zM130.23 87.85v-3.3c0-.23 0-.44.32-.46s.37.2.37.46v6.73c0 .22 0 .45-.32.46s-.37-.2-.37-.46v-3.43zM127.61 84.23v7.36c1.34 0 1.32.07 1.29-.11h-.48c0 .18-.06.15.5.11v-7.36c-.56 0-.53-.07-.5-.62h.48c0 .55 0 .59.08.62zM127 87.91v-3.37c0-.2 0-.42.27-.44s.33.21.33.45v6.74c0 .24 0 .45-.34.43s-.26-.25-.26-.44v-3.37zM131.18 87.91V84.6c0-.23-.06-.51.33-.49s.3.25.3.47v6.67c0 .22 0 .47-.3.47s-.33-.27-.33-.5v-3.31z"/><path class="cls-3" d="M128.42 84.13l-.08.1c0-.07 0-.1.08-.1zM129 84.23l-.08-.1c.07 0 .1 0 .08.1zM128.34 91.59l.08.11c-.07 0-.1 0-.08-.11zM128.9 91.7l.08-.11c0 .07 0 .11-.08.11zM123.93 87.93v3.24c0 .23.13.55-.32.57s-.36-.28-.36-.53v-6.62c0-.23-.06-.49.33-.5s.36.28.36.53v3.31zM121.81 87.85v-3.3c0-.22 0-.45.31-.46s.38.19.37.46v6.73c0 .27 0 .47-.37.46s-.31-.24-.31-.46v-3.43zM119 87.85v-3.3c0-.27 0-.47.37-.46s.34.2.34.43v6.79c0 .25 0 .42-.34.43s-.37-.21-.37-.47v-3.42zM117.59 87.85v-3.31c0-.22 0-.44.31-.45s.37.19.37.46v6.73c0 .23 0 .44-.31.46s-.38-.2-.38-.46v-3.43zM116.86 87.91v3.31c0 .23.06.51-.33.5s-.27-.27-.27-.47v-6.67c0-.2-.09-.47.27-.48s.32.28.33.51v3.3zM121.68 88v3.31c0 .21 0 .46-.3.47s-.33-.22-.33-.45v-6.79c0-.23 0-.45.34-.44s.29.26.29.48v3.37zM101.38 77.28v3.31c0 .24.05.5-.34.48s-.35-.26-.35-.5v-6.74c0-.24 0-.43.33-.44s.36.21.36.46v3.43z"/><path class="cls-3" d="M101.38 77.24v-3.37c0-.25 0-.49.34-.48s.34.24.34.48v6.68c0 .28 0 .54-.39.52s-.29-.31-.29-.52v-3.31zM96.82 77.25v3.37c0 .21.05.45-.31.45s-.38-.19-.38-.46V73.8c0-.25 0-.41.35-.41s.34.18.34.42v3.44zM98.25 73.22v7c0 .26 0 .53-.38.52s-.31-.3-.31-.52v-7l.11-.1h.46l.11.1zM95.42 77.18v3.37c0 .2.09.46-.28.46s-.31-.22-.31-.45v-6.73c0-.22 0-.45.31-.43s.28.27.28.48v3.3zM99 77.18v-3.31c0-.2-.08-.46.28-.47s.37.21.37.47v6.67c0 .26 0 .49-.36.48s-.28-.27-.28-.47v-3.37z"/><path class="cls-3" d="M98.25 73.51l-.11-.1c.08 0 .12 0 .11.1zM97.68 73.41l-.11.1c0-.07 0-.11.11-.1zM118.28 77.18v3.42c0 .25 0 .48-.35.48s-.34-.25-.34-.49v-6.73c0-.25 0-.48.36-.48s.33.26.33.49v3.31zM122.5 77.24v3.31c0 .25.08.54-.35.53s-.33-.26-.33-.5v-6.73c0-.25 0-.47.36-.47s.33.27.33.5v3.36zM123.24 77.25v-3.37c0-.22-.08-.49.32-.5s.37.21.37.47v6.79c0 .23 0 .43-.33.44s-.36-.21-.36-.47v-3.36zM119.71 73.22v7c0 .27 0 .54-.38.52s-.31-.29-.31-.52v-7l.1-.1h.47l.1.1zM117.12 77.26v3.32c0 .23 0 .5-.34.48s-.26-.29-.26-.49v-6.69c0-.19-.12-.46.26-.48s.34.25.34.48v3.38zM121.08 77.19v3.31c0 .21.12.5-.29.52s-.33-.25-.33-.48v-6.68c0-.21-.07-.45.29-.46s.34.25.34.48v3.31z"/><path class="cls-3" d="M119.14 73.41l-.1.1c0-.07 0-.11.1-.1zM119.71 73.51l-.1-.1c.08 0 .11 0 .1.1zM84.05 87.85v-3.3c0-.27 0-.47.38-.46s.31.24.31.46v6.73c0 .22 0 .45-.31.46s-.38-.2-.38-.46v-3.43zM85.64 87.92v-3.37c0-.25 0-.47.37-.46s.32.23.32.45v6.73c0 .27 0 .48-.37.47s-.31-.23-.31-.46v-3.36z"/><path class="cls-3" d="M87 88v3.31c0 .23 0 .44-.33.45s-.38-.18-.38-.45v-6.75c0-.23 0-.44.33-.45s.38.17.38.45V88zM88.26 87.88v-3.3c0-.24 0-.49.34-.49s.34.25.34.49v6.67c0 .24 0 .49-.34.49s-.34-.25-.34-.49v-3.37zM90.88 87.92v-3.37c0-.27 0-.47.37-.46s.32.24.32.46v6.73c0 .26 0 .47-.37.46s-.32-.24-.32-.46v-3.36zM89.57 87.92v-3.38c0-.22 0-.45.32-.44s.33.2.33.44v6.74c0 .24 0 .44-.33.45s-.32-.22-.32-.44v-3.37z"/><path d="M275 104.38q4.13-3.52 8.23-7.07c.93-.81 2-1.65 2.89-2.49a7.3 7.3 0 0 0-3-2 7.3 7.3 0 0 0-9.75 7.35 6.55 6.55 0 0 0 1 3.25 9.87 9.87 0 0 0 .72 1m3.18 2.23a8.65 8.65 0 0 0 4.26.16c.7-.3 2.51-1.09 3.17-1h.2a2.07 2.07 0 0 1 1 .89 1.77 1.77 0 0 1-.7 2.49l-.31.18c-3.51 2-7.24 1.75-10.74-.14a10 10 0 0 1-3.89-3.89l-.22-.38a10.46 10.46 0 0 1 .59-11.71 10.23 10.23 0 0 1 3.36-3l.51-.29a10.46 10.46 0 0 1 10.24-.1 10 10 0 0 1 4.32 4l.18.31c.74 1.28-.22 2.4-1.21 3.17-1.15.88-2.31 2-3.41 2.9l-7.35 6.36m26.1-17.54h-.16a1.81 1.81 0 0 1 1.84 1.58c.18 1.78-1.31 2.22-2.59 2.22a6.2 6.2 0 0 0-4.2 2.15 7.34 7.34 0 0 0-2 5.24v9a1.68 1.68 0 0 1-1.63 1.87h-.28a1.68 1.68 0 0 1-1.62-1.87v-9.51a10.65 10.65 0 0 1 4.5-8.76 9.43 9.43 0 0 1 5.68-1.91m-45.52 6.4q2.1-2.18 4.21-4.32c.4-.4 1.89-2.08 2.48-2.08h.71a1.64 1.64 0 0 1 1.44 1.63v.37c0 .62-.71 1.35-1.09 1.78-.83.9-1.7 1.78-2.54 2.67l-4.34 4.57c1.87 2 3.74 3.89 5.59 5.85l1.53 1.64a3.9 3.9 0 0 1 .59.71 1.54 1.54 0 0 1 .26.84v.47a1.74 1.74 0 0 1-1.63 1.54h-.29c-.59 0-1.26-.7-1.67-1.1-.84-.82-1.65-1.68-2.47-2.52l-2.76-2.81v4.56a1.69 1.69 0 0 1-1.62 1.87h-.28a1.69 1.69 0 0 1-1.63-1.87v-25.4a1.68 1.68 0 0 1 1.53-1.87h.28a1.68 1.68 0 0 1 1.62 1.87zm-12-2.8a6.92 6.92 0 0 0-2.21-.37c-3.3-.13-5.63 1.87-6.89 4.92a4.73 4.73 0 0 0-.35 1.34 7.2 7.2 0 0 0 4.43 7.8 8.52 8.52 0 0 0 3.5.59 9.12 9.12 0 0 0 3.27-1l.16-.07h.63a1.64 1.64 0 0 1 1.47 1.62v1.63c0 2.45-4.19 3-5.78 3.13-5.93.44-10.29-3.23-11.7-9.53a8.23 8.23 0 0 1-.18-1.85v-1.11A11.51 11.51 0 0 1 239 89.3a9.32 9.32 0 0 1 4.55-1.12h.85a9 9 0 0 1 5.34 1.82l.21.15.08.15a2.24 2.24 0 0 1 .33 1.06v.4a1.76 1.76 0 0 1-1.58 1.76h-.14a8.32 8.32 0 0 1-2.29-.8m-33.73 7.06a7.12 7.12 0 0 0 3.76 6.34 6.85 6.85 0 0 0 3.64 1 7.08 7.08 0 0 0 6.26-3.75 6.82 6.82 0 0 0 1-3.65 7.06 7.06 0 0 0-3.41-6.06 6.9 6.9 0 0 0-3.87-1.24 7 7 0 0 0-6.67 4.35 6.78 6.78 0 0 0-.66 3m6.83-10.67h.5c4.54 0 7.92 2.32 10 6.48a9.29 9.29 0 0 1 .92 4.08v.85a10.24 10.24 0 0 1-2.48 6.76 10.75 10.75 0 0 1-8.19 3.91h-.74a10 10 0 0 1-6.25-2.07 10.81 10.81 0 0 1-4.42-8.6v-.65a10.37 10.37 0 0 1 2.16-6.42 10.62 10.62 0 0 1 8.52-4.37m-31.11 10.67a7 7 0 0 0 3.94 6.47 6.83 6.83 0 0 0 3.31.86 7.11 7.11 0 0 0 6.4-3.75 6.92 6.92 0 0 0 1-3.65 7 7 0 0 0-3.22-5.92 6.82 6.82 0 0 0-4.11-1.33 7 7 0 0 0-6.66 4.35 6.64 6.64 0 0 0-.66 3m15.14-8v-7.92a1.67 1.67 0 0 1 1.63-1.85h.28a1.68 1.68 0 0 1 1.62 1.85V99.9a11.37 11.37 0 0 1-3.86 8.7 10.39 10.39 0 0 1-6.81 2.55h-.14a11.42 11.42 0 0 1-8.74-3.89 10.33 10.33 0 0 1-2.53-6.78v-.12a11.41 11.41 0 0 1 3.89-8.76 10.31 10.31 0 0 1 6.78-2.53h.43a10.34 10.34 0 0 1 7 2.76" fill-rule="evenodd" fill="#738c97"/></svg>