<svg id="Layer_2" data-name="Layer 2" xmlns="http://www.w3.org/2000/svg" viewBox="0 0 364 188"><defs><style>.cls-1{fill:#738c97}</style></defs><path class="cls-1" d="M306 123.55a6.08 6.08 0 0 0-.45 1 11.1 11.1 0 0 1-21.44-.45 6.5 6.5 0 0 1-.18-1.25c-.13-3.22-.6-6.49.38-9.63a11.09 11.09 0 0 1 16.42-6.33c.29.17.56.35.95.59V96.53H306zm-4.2-4.73h-.13v-3.15a4.65 4.65 0 0 0-.22-1.11 6.79 6.79 0 0 0-7-5 6.69 6.69 0 0 0-6.14 5.52 26.58 26.58 0 0 0 0 7.4 6.71 6.71 0 0 0 13.17.45c.19-1.34.21-2.73.32-4.11zM215.31 121a7.36 7.36 0 0 0 6.89 7.09c2.22.07 4.45 0 6.68 0h1.32v4.36c-.34 0-.66.06-1 .06h-6.56a11.77 11.77 0 0 1-11.16-8.24 14.53 14.53 0 0 1-.61-3.69 33.67 33.67 0 0 1 .18-5.41 11.77 11.77 0 0 1 9.63-9.83 11.91 11.91 0 0 1 13.77 9.66 9.32 9.32 0 0 1 .08 2.74 3.7 3.7 0 0 1-3.66 3.32H215.31zm14.84-4.38c.23-3.25-3.09-7.05-7.19-7.07s-7.69 3.18-7.6 7.07zM243.3 132.53H239c0-.23-.07-.47-.07-.71v-15.27a11.11 11.11 0 0 1 21.88-2.9 15.19 15.19 0 0 1 .39 3.36v14.64c0 .28-.06.56-.09.87h-4.32v-1.27-14.9a6.41 6.41 0 0 0-3.22-5.77 6.68 6.68 0 0 0-10.2 5.29c-.1 3.32 0 6.65 0 10zM181.67 105.23H186v16.03a6.53 6.53 0 0 0 2.22 5.15 6.39 6.39 0 0 0 7 1.24 6.18 6.18 0 0 0 4.19-5.89c.1-5 0-10 0-15v-1.46a7.25 7.25 0 0 1 2.12-.12h2.18c0 .38.1.66.1.94v15a11.12 11.12 0 0 1-21.81 3.25 13.58 13.58 0 0 1-.43-3.36c-.05-4.92 0-9.84 0-14.76.02-.33.07-.65.1-1.02zM280.18 128v4.33a9.86 9.86 0 0 1-5.6-.72 8.84 8.84 0 0 1-5.34-8.29c-.08-4 0-8.08 0-12.12v-1.47c-1.23-.2-2.45 0-3.71-.12a6.88 6.88 0 0 1-.11-2.08v-2.29h3.82v-8.6h4.4v8.55h5.77v4.43h-5.62a2.56 2.56 0 0 0-.13.44v13.25a4.43 4.43 0 0 0 3 4.39 6.56 6.56 0 0 0 1.84.29c.5.01 1.02.01 1.68.01zM162.24 96.54v4.32h-2.89a4.83 4.83 0 0 0-4.77 3.73 13.32 13.32 0 0 0-.18 1.76h5.78v4.28h-5.69v21.79a6.39 6.39 0 0 1-2.16.14h-1.93a.89.89 0 0 1-.17-.13.24.24 0 0 1-.06-.11v-.5-20.94s-.05-.07-.17-.22h-2.27v-4.3H150c0-.44.1-.8.1-1.17a9.09 9.09 0 0 1 8.92-8.66c1.08 0 2.13.01 3.22.01zM169.07 96.59h4.26v35.91h-4.19a2.69 2.69 0 0 1-.16-.65v-35a1.24 1.24 0 0 1 .09-.26z"/><path d="M110.68 81.88a3.45 3.45 0 0 1-.16.52 3.45 3.45 0 0 0 .16-.52z" fill="none"/><path class="cls-1" d="M161.72 86.5a12.6 12.6 0 0 0-1.54-1.28c-1.11-.8-2.24-1.57-3.37-2.36-.49-.92-1-1.83-1.48-2.78a8 8 0 0 0-5.19-4.55 10.16 10.16 0 0 0-2.94-.48 35.77 35.77 0 0 0-4.4.11 35.66 35.66 0 0 0-5.08 1.19c-1.43.42-2.81 1-4.21 1.51l-.54.19c-.36.08-.73.14-1.09.25a49 49 0 0 1-9.54 2.16 21.24 21.24 0 0 1-7.16-.55c-1.48-.36-2.92-.9-4.38-1.35a5.13 5.13 0 0 1-.76-.33c-2.87-1.82-5.81-3.53-8.51-5.62-.75-.58-1.57-1.07-2.35-1.6l-.25-.24-.5-.37-3.54-2.68-4-3.06c-.44-.37-.85-.78-1.31-1.12-.9-.65-1.82-1.28-2.73-1.92-.18-.14-.35-.3-.53-.43L83 58.86c-.32-.26-.61-.54-.94-.76-1.2-.76-2.41-1.5-3.62-2.26a.67.67 0 0 0-.14-.19 34.18 34.18 0 0 0-4.91-2.56c-.4-.19-.78-.41-1.19-.58a12.77 12.77 0 0 0-3.86-1.17l-.26-.27H58v85.86h29c.12-.08.24-.22.37-.23 1-.12 1.94-.21 2.92-.32l3.8-.66a19.59 19.59 0 0 0 4.53-1.1 44.43 44.43 0 0 0 9.34-3.83 48 48 0 0 0 9.33-6.16c1.34-1.12 2.55-2.39 3.82-3.6a.41.41 0 0 1-.19-.1.41.41 0 0 0 .19.1 44.41 44.41 0 0 0 5.53-6.33c2.75-3.68 5.39-7.45 8.12-11.15a66.92 66.92 0 0 1 7.4-8.71c1.11-1.07 2.31-2.06 3.47-3.08l.26-.28 2.5-1.33c1.47-.55 2.91-1.22 4.41-1.62a26.75 26.75 0 0 1 4.54-.77c1.56-.15 3.14-.09 4.94-.12a4.7 4.7 0 0 0-.56-1.14zm-51.2-4.1a3.45 3.45 0 0 0 .16-.52 3.45 3.45 0 0 1-.16.52zm36.88 1a2.27 2.27 0 1 1 2.27-2.27 2.27 2.27 0 0 1-2.27 2.26z"/></svg>