<svg id="Layer_2" data-name="Layer 2" xmlns="http://www.w3.org/2000/svg" viewBox="0 0 364 188"><defs><style>.cls-1{fill:#738c97}</style></defs><path class="cls-1" d="M210.47 63.28a37.46 37.46 0 0 1 7.47 9.32L212 76c-7.43-10.45-16.88-16.53-29.87-16.69s-22.62 5.59-30.21 15.92l-5.48-3.41c.92-2.79 3.08-5.6 7.13-9.36-3.83-4.24-7.86-8.43-7.39-14.74 1.57-1.89 2.78-2.09 4.82-.75a20.71 20.71 0 0 1 6.51 6.85c.76 1.28 1.54 2.56 2.34 3.9 2.33-1 4.53-2.16 6.84-3 3.06-1.1 6.12-2.26 9.45-2.32a10.06 10.06 0 0 0 2.4-.66 32.56 32.56 0 0 1 0-11.57 7.94 7.94 0 0 1 2.95-5.14h2.3c3.85 5.31 2.89 11.16 2.39 17.17a42.12 42.12 0 0 1 18.47 6.57c.57-1.13 1.06-2.24 1.67-3.29 1.81-3.15 3.74-6.23 7-8.12 1.28-.75 2.56-1.67 4.38-1.12a3.67 3.67 0 0 1 1 3.41c-.42 3.91-2.55 6.91-4.84 9.84-.96 1.26-2.09 2.36-3.39 3.79zM211 124.94a25.44 25.44 0 0 1 7.2 10.92 12.08 12.08 0 0 1 .66 2.81 6.64 6.64 0 0 1-.56 2.05 10.22 10.22 0 0 1-.87.59 10.82 10.82 0 0 1-1 .45c-5.79-2.06-8.68-6.92-11.53-12-5.69 3.4-11.68 5.86-18.26 6.47 0 2.58-.06 5 0 7.45a17.06 17.06 0 0 1-1.28 6.45c-.53 1.42-1.32 2.92-3.1 2.85-1.6-.06-2.41-1.43-2.89-2.78a17.27 17.27 0 0 1-1.31-6.44c.08-2.29 0-4.59 0-7.22-1.18-.16-2.66-.27-4.08-.58a43.49 43.49 0 0 1-14.38-5.64c-2.93 4.69-5.66 9.62-11.32 11.52-.53-.26-.94-.42-1.32-.65a5.76 5.76 0 0 1-.71-.64c-.87-6.25 3.05-10.47 6.56-14.88l-6-7.35 5.77-4.15c7.14 10.05 17.16 15.25 29.23 15.27s21.89-5.36 29.05-15.46c1.91 1.74 4.06 2.62 5.72 4.48zM226.11 107.71h-4.8l-5.42-14.77c.19 3.16.41 5.91.48 8.67s0 5.64 0 8.54c-2.46.61-4.74.17-6.89.31l-.3-.33a.59.59 0 0 1-.16-.2 7.53 7.53 0 0 1-.13-1.05V80.17a4.54 4.54 0 0 1 .25-.88c2.69-.45 5.4-.09 8.23-.22 2.66 5.65 4.32 11.5 6.6 17.5 1.83-6.09 3.88-11.73 6-17.33h8.54v31c-2.33.5-4.6.12-7.19.25a131.43 131.43 0 0 1 .14-17.2zM142.46 110.16V98.73a20.87 20.87 0 0 0-8.48-.14v11.61c-2.87.5-5.49.17-8 .26l-.33-.35a.51.51 0 0 1-.15-.21 7.5 7.5 0 0 1-.12-1.05V80.17a4.65 4.65 0 0 1 .26-1 42.69 42.69 0 0 1 7.75 0c.9 2 .4 3.87.48 5.68s0 3.68 0 5.68h8.41l.17-11.16c2.84-.63 5.45-.26 8-.32.57 2.08.78 25.67.32 30.87-1.65.66-4.91.76-8.31.24zM178 103v7c-2 .56-17.64.65-20.34.14-.53-2.66-.44-28.69.1-30.61 1.81-.58 16.32-.71 19.2-.18.78 1.74.84 2.65.43 7-3.67.4-7.45 0-11.34.26v4c3.15.42 6.33 0 9.43.27a15.4 15.4 0 0 1 .17 7.28h-9.57v4.54c1.88.64 3.91.22 5.9.29s3.84.01 6.02.01zM203.52 103v7c-1.74.6-15.33.79-19.2.27-.54-1.89-.62-28.23-.06-31a36.55 36.55 0 0 1 8 .07 51.47 51.47 0 0 1 .22 7.8V103z"/></svg>