<svg id="Layer_2" data-name="Layer 2" xmlns="http://www.w3.org/2000/svg" viewBox="0 0 364 188"><defs><style>.cls-1{fill:#738c97}</style></defs><path class="cls-1" d="M143.08 89.6c-2 2.37-5.59 4.69-5.75 7.22-.15 2.34 3.35 4.9 5.2 7.39a20.77 20.77 0 0 1 1.3 2.48c-2.57-.26-4.85 1.25-6.63-1.27-1.32-1.87-2.33-4-5-6 0 1.87-.12 3.2 0 4.5.24 2.19-.58 2.9-2.82 2.92s-2.4-1.13-2.39-2.88c.06-6.75.22-13.51 0-20.25-.14-3.31 2.31-2.7 3.83-3 2.28-.38 1.32 1.74 1.36 2.76.13 3.36.05 6.74.05 10.93 3.53-2.53 5.41-7.68 10.84-4.87zM170.89 98.25c.83 1.47-1.57 4.53 2.28 4.5 3.21 0 4.19-2.18 4.23-4.9 0-2.5-.57-4.74-3.76-4.76-4.15 0-2.11 3.22-2.75 5.16zM166 93.77v-10.1c0-1.14-.17-2.09 1.54-2.54 2.58-.67 3.91-.52 3.48 2.59-.15 1.14.06 2.33 0 3.49-.13 1.54.38 1.86 2 1.8 6.56-.28 9.51 2.45 9.63 8.62.11 6-3.51 9.52-9.75 9.5-1 0-2.07-.11-3.1-.13-2.83-.06-4.09-1.24-3.78-4.3a88.61 88.61 0 0 0 .06-8.93zM247.11 96.26c1-.71 3.06 1 3.28-1.18.15-1.62-1.47-2.5-2.93-2.51s-3.3.72-3.21 2.63 1.84.58 2.86 1.06zm2.65 3.2a22.59 22.59 0 0 0-2.73 0c-.93.11-2.43-.63-2.65.74-.25 1.63 1.36 2 2.6 2.3a10.82 10.82 0 0 0 5-.08c1.57-.33 2.14.36 2.34 1.74.17 1.1.22 2-1.2 2.4-7.27 1.86-15.25-.26-14.33-10.11a8.53 8.53 0 0 1 9.3-8c4.63.35 7.54 3.82 7.47 8.81 0 1.36-.25 2.28-1.93 2.15-1.29-.1-2.6 0-3.9 0zM281.2 96.36c.74-1 2.76 1 2.94-1.2.15-1.66-1.41-2.55-2.85-2.6-1.6-.06-3.35.74-3.3 2.57.06 2.16 2.06.51 3.21 1.23zm2.29 3.1a22.42 22.42 0 0 0-2.72 0c-.94.11-2.47-.62-2.68.68-.24 1.53 1.32 2 2.58 2.34a13.1 13.1 0 0 0 5.4-.08c1-.15 1.86-.06 1.85 1.24 0 1 .84 2.46-.95 2.87-4 .91-8.07 1.41-11.49-1.48-3.24-2.75-3.56-6.48-2.49-10.33a8.31 8.31 0 0 1 9.87-6.08c4 .73 6.7 4.39 6.6 8.82 0 1.52-.6 2.09-2.08 2-1.29-.08-2.59 0-3.89 0zM197.24 96.17c-.24-2.19-1.4-3.58-3.39-3.5a3.2 3.2 0 0 0-3.23 3.5zm.16 6.48c1.29 0 3.4-1.37 3.53 1.84.12 3-2.28 2.36-3.8 2.52-8.65.89-13.29-4-11.43-11.91a8.37 8.37 0 0 1 9.6-6.53c4.36.62 7 4.21 6.84 8.9-.06 1.47-.42 2.08-2 2-2.46-.1-4.93 0-7.39 0-.69 0-1.69-.29-1.86.76-.14.85.56 1.38 1.27 1.77 1.55.87 3.23.78 5.21.64zM161 97.84v2c0 7.17 0 7.17-5.91 7.34-6.37.18-9-1.93-9.25-7.7-.12-2.46 0-4.94-.05-7.4-.07-1.84-.08-3.1 2.5-3.14s3 1.07 2.83 3.23c-.14 2.59 0 5.19 0 7.78 0 1.93 1.09 2.77 2.95 2.84 2.83.11 1.53-2.34 1.94-3.64a9.27 9.27 0 0 0 .38-5.23c-1.23-4.62-.12-4.91 2.05-4.92 1.66 0 2.73.18 2.57 2.28s0 4.41 0 6.61zM220 97.9a9 9 0 0 1 0-1.56c.41-2.3-1.37-5.65 1.1-6.74a13.79 13.79 0 0 1 10.29-.19 5.3 5.3 0 0 1 3.5 5.16c.07 3.37 0 6.76.15 10.12.12 2.3-1.27 2-2.74 2.11-1.74.12-2.24-.58-2.19-2.24a79.72 79.72 0 0 0-.06-8.18c-.11-1.72-.65-3.3-3-3.32-2.72 0-1.88 1.93-1.93 3.29-.09 2.72-.13 5.45 0 8.17.11 2.1-1 2.25-2.65 2.29s-2.71-.23-2.56-2.29 0-4.41 0-6.62zM259.08 93.47a45.63 45.63 0 0 0-.05-5.85c-.31-2.49.75-3.35 3-3.69 1.54-.23 2.34 0 2.13 1.61-.35 2.65.54 3.94 3.37 3.47 1.65-.27 2.57.11 2.56 2.2s-1.17 2.06-2.47 1.84c-4.57-.78-3.4 2.49-3.42 4.82 0 2.49-.31 5.42 3.63 4.77 1.93-.32 2.54.39 2.82 2.1.32 2-1.1 2.06-2.35 2.29-6 1.08-9.16-1.54-9.25-7.71v-5.85zM298.19 107.11a12.1 12.1 0 0 1-1.61 0c-1.64-.46-4.37.64-4.39-2.31 0-3.59 2.57-2 4.41-1.87 1.31.06 3.24.82 3.64-1.05.33-1.58-1.65-1.83-2.73-2.21-3.28-1.15-5.47-2.87-4.92-6.76.34-2.44 1.94-3.53 4.1-4.07a10.57 10.57 0 0 1 7.55.62c.82.42.16 1.68.05 2.55s-.9 1.12-1.74 1a4.67 4.67 0 0 1-.76-.17c-1.54-.48-3.6-.88-4 .82-.48 2 2 2 3.26 2.48 2.56 1.07 4.61 2.37 4.56 5.54a4.94 4.94 0 0 1-3.25 4.82 10.5 10.5 0 0 1-4.14.61zM206 98.35a17.62 17.62 0 0 1 0-2.72c.29-1.94-1.14-4.54.86-5.71 2.87-1.67 6.27-1.35 9.51-.83 1.6.26.67 1.35.65 2.11 0 1.23-.15 2.46-1.94 2-4-1-4.18 1.36-4 4.29.14 2.07 0 4.16.05 6.23s-.1 3.13-2.61 3.15-2.72-1.13-2.6-3.07 0-3.63 0-5.45zM89.52 74.47c.07-1 0-2-1.2-2s-1.3 1.08-1.2 2.06c0 .53.13 1 .23 1.57.35 1.73-.19 2.71-2.08 3A12.91 12.91 0 0 0 78 82.55c-1.6 1.55-2.72 1-4-.3-.74-.79-1.33-2-2.74-1.65a1 1 0 0 0-.8 1c.09 1.39 1.36 1.72 2.3 2.27 1.62 1 2.24 2 1.12 3.84a13.8 13.8 0 0 0-1.74 5.6c-.17 1.33.46 2.8-.32 4-.93 1.4-2.67.7-4 1.14l-.22.06c-.85.19-1.42.67-1.15 1.59s1.06 1 1.85.78 1.29-.45 1.93-.67c1.54-.54 2.66-.45 3.36 1.41a12.75 12.75 0 0 0 4.84 6.16c1.78 1.18 1.76 2.38.74 4-.59.92-1.59 1.74-1.06 3a.92.92 0 0 0 1.1.6c1.41-.31 1.39-1.64 1.75-2.66.61-1.67 1.31-2.68 3.49-2a12.72 12.72 0 0 0 5.84.37c4.07-.66 4.08-.6 6 3.16.39.8.95 1.49 1.94 1s.74-1.24.34-2a17.22 17.22 0 0 0-1.08-1.73c-1-1.43-.93-2.52.65-3.57a13 13 0 0 0 5-6.28c.74-2 1.88-2 3.53-1.48 1.08.34 2.18 1.35 3.37.28a1 1 0 0 0 .15-1.26c-.74-1.14-2-.93-3.08-1-1.69-.13-2.64-.7-2.46-2.67a13.22 13.22 0 0 0-1-5.78c-.49-1.32-1.5-2.64-1.45-3.93.07-1.64 2.08-2 3.23-2.91l.17-.14A1.23 1.23 0 0 0 106 81a1.17 1.17 0 0 0-1.81-.14c-.64.53-1.19 1.16-1.8 1.72-1.11 1-2.08 1.48-3.48.16a13.83 13.83 0 0 0-7.66-3.66 1.92 1.92 0 0 1-1.86-2.32c.06-.76.11-1.51.16-2.26zm-1 48.66H77.63a5 5 0 0 1-4.31-2q-6.76-8.52-13.65-17a5.08 5.08 0 0 1-1-4.67q2.46-10.69 4.93-21.4a4.23 4.23 0 0 1 2.46-3q10.13-4.8 20.23-9.67a4.61 4.61 0 0 1 4.33 0q9.9 4.77 19.84 9.45a5.08 5.08 0 0 1 3 3.74c1.6 7 3.18 14 4.83 21a4.8 4.8 0 0 1-.94 4.45q-7 8.64-13.93 17.31a4.71 4.71 0 0 1-3.94 1.84h-10.9z"/><path class="cls-1" d="M77.39 88.4c.27.2.54.35.76.55 1.24 1.1 2.49 2.2 3.7 3.33 1.05 1 1.09 1.82-.44 2.29s-3.32 1-5 1.47c-.6.18-1.05.16-1.07-.63a13 13 0 0 1 1.58-6.52 2.48 2.48 0 0 1 .45-.49zM86.61 85.73c-.33 1.15.58 3.06-.92 3.74s-2.49-1-3.62-1.8c-3.16-2.13-3.09-2.46.41-4.24l.62-.28c3.49-1.55 3.7-1.41 3.51 2.58zM93.91 98.27c2.11.34 3.74.63 5.37.86 1.08.15 1.28.63.74 1.52-.11.19-.18.41-.29.61-1.06 1.74-2.46 4.46-4.07 4s-2-3.55-2.69-5.57c-.34-1 .38-1.5.94-1.45zM82.54 98.31c1.25.06 1.64.74 1.23 1.81-.58 1.55-1.28 3.06-1.91 4.59-.33.82-.78 1.07-1.51.44l-.35-.29c-1.54-1.45-3.91-3.3-3.23-5s3.81-.87 5.77-1.51zM88.41 107.88c-4.33 0-4.45-.17-2.32-3.94.61-1.06.82-2.83 2.21-2.87 1.61-.06 1.75 1.84 2.39 2.94 2.11 3.62 1.94 3.86-2.28 3.87zM91 82.32A12.58 12.58 0 0 1 96.6 85c.71.6.43 1-.16 1.37-1.36 1-2.68 2-4.06 2.89-.93.61-1.87.54-2-.72-.24-1.79-.26-3.62-.36-5.43 0-.68.29-1 1-.83zM101.28 94.21c-.3.63.52 2.12-1 1.71-2.08-.59-4.58-.35-6-2.45-.28-.42 4.32-5.09 4.78-4.8 2 1.28 1.89 3.52 2.2 5.54zM90.52 94.53c-.08 1.77-.94 2.69-2.26 2.63a2.14 2.14 0 1 1 .23-4.27c1.32 0 1.7 1 2 1.64z"/></svg>