<svg id="Layer_2" data-name="Layer 2" xmlns="http://www.w3.org/2000/svg" viewBox="0 0 364 188"><defs><style>.cls-1{fill:#738c97}.cls-2{fill:#fff}</style></defs><path class="cls-1" d="M86.72 66.12L103.78 76a9.37 9.37 0 0 1 4.22 7.28V103a9.37 9.37 0 0 1-4.22 7.31l-17.06 9.85a9.36 9.36 0 0 1-8.44 0l-17.06-9.85A9.37 9.37 0 0 1 57 103V83.28A9.37 9.37 0 0 1 61.22 76l17.06-9.85a9.36 9.36 0 0 1 8.44-.03z"/><rect class="cls-2" x="65" y="79" width="5" height="28" rx=".61" ry=".61"/><rect class="cls-2" x="65" y="102" width="16" height="5" rx=".61" ry=".61"/><rect class="cls-2" x="95" y="79" width="5" height="28" rx=".61" ry=".61"/><rect class="cls-2" x="84" y="102" width="16" height="5" rx=".61" ry=".61"/><rect class="cls-2" x="72" y="79" width="9" height="9" rx=".61" ry=".61"/><rect class="cls-2" x="83" y="79" width="9" height="9" rx=".61" ry=".61"/><rect class="cls-2" x="83" y="90" width="9" height="9" rx=".61" ry=".61"/><rect class="cls-2" x="72" y="90" width="9" height="9" rx=".61" ry=".61"/><path class="cls-1" d="M145.14 110h-7.2l-8.14-15.45-4.8 6V110h-6V78h6v9.1c0 1.19 0 4.07-.09 5.07.43-.73 1.55-2.19 2.36-3.24l8.4-10.93h7.24l-8.78 11.06zm25.86 0h-6v-1.6a8.32 8.32 0 0 1-5.82 2.1c-6.34 0-9.18-4.2-9.18-11V86h7v13.14c0 4.35 1.43 5.65 4 5.65s4-1.3 4-5.51V86h6v24zm25.7-11.85c0 7.27-3.22 12.36-8.87 12.36a7 7 0 0 1-4.83-1.9V110h-6V79.46l6-3.2v11a6.83 6.83 0 0 1 4.83-2c4.87-.06 8.87 3.82 8.87 12.89zm-5.6.2c0-5-1.67-7.08-4.17-7.08a4.48 4.48 0 0 0-3.93 2v9.16a5.09 5.09 0 0 0 4.3 2.09c2.46 0 3.8-2.13 3.8-6.21zm31-.39c0 .93 0 1.58-.09 2h-14.54a4.68 4.68 0 0 0 5 4.58 5.45 5.45 0 0 0 4.17-1.71l4.53 3.79a11.33 11.33 0 0 1-8.7 3.94c-7 0-11.43-4.95-11.43-12.64 0-7.45 4.68-12.68 10.83-12.68 6.48 0 10.23 5.74 10.23 12.68zm-6.2-3c-.19-2.18-1.48-4.35-4.35-4.35-2.32 0-3.75 1.9-4 4.35zM233 110h-6V79.46l6-3.2zm26-12c0 .93-.05 1.58-.09 2h-14.58a4.67 4.67 0 0 0 5 4.58 5.45 5.45 0 0 0 4.17-1.71l4.53 3.79a11.33 11.33 0 0 1-8.7 3.94c-7 0-11.43-4.95-11.43-12.64 0-7.45 4.68-12.68 10.83-12.68C255.2 85.28 259 91 259 98zm-6.2-3c-.19-2.18-1.48-4.35-4.35-4.35-2.32 0-3.75 1.9-4 4.35zm29.95 8c0 5.6-4.45 7.59-9.91 7.59a19.09 19.09 0 0 1-10.18-2.82l2.13-4.86a17 17 0 0 0 8.42 2.22c2.5 0 3.24-.6 3.24-1.85s-.88-1.67-3.56-2.45c-5.83-1.76-9.58-3.2-9.58-8.33s4-7.22 9.72-7.22a19.32 19.32 0 0 1 9 2.36l-2 5a15.81 15.81 0 0 0-7.08-1.94c-2.59 0-3.29.51-3.29 1.57s.74 1.44 5.05 2.82 8.1 3 8.1 7.87zm24.3 0c0 5.6-4.44 7.59-9.9 7.59a19.09 19.09 0 0 1-10.18-2.82l2.12-4.86a17.05 17.05 0 0 0 8.43 2.22c2.5 0 3.24-.6 3.24-1.85s-.88-1.67-3.57-2.45c-5.83-1.76-9.58-3.2-9.58-8.33s4-7.22 9.72-7.22a19.29 19.29 0 0 1 9 2.36l-2 5a15.77 15.77 0 0 0-7.08-1.94c-2.59 0-3.28.51-3.28 1.57s.74 1.44 5 2.82 8.1 3 8.1 7.87z"/></svg>