<svg id="Layer_2" data-name="Layer 2" xmlns="http://www.w3.org/2000/svg" viewBox="0 0 364 188"><defs><style>.cls-1{fill:#738c97}</style></defs><path class="cls-1" d="M188.67 88.57v-6.23a3.67 3.67 0 0 0-3.75-3.67h-1.46a3.64 3.64 0 0 0-3.65 3.69V94.89a3.69 3.69 0 0 0 3.72 3.63h1.54a4.31 4.31 0 0 0 1-.14 3.67 3.67 0 0 0 2.59-3.59v-6.23zm-3.27-12.12a1 1 0 0 0 .29.14 5.71 5.71 0 0 1 5.13 5.61v12.67a5.73 5.73 0 0 1-4.59 5.58 4.2 4.2 0 0 1-.87.06h-2.2a5.62 5.62 0 0 1-5.38-4.61 7.82 7.82 0 0 1-.13-1.45V82.37a5.75 5.75 0 0 1 4.61-5.72c.27-.06.53-.14.79-.21zM165.34 76.6a.86.86 0 0 0 .29.14 5.66 5.66 0 0 1 5.07 5.35v1.25h-2.15v-1.08a3.63 3.63 0 0 0-3.55-3.54h-1.53a3.7 3.7 0 0 0-3.58 3.38 4 4 0 0 0 2.39 4.27c1.17.58 2.4 1.05 3.61 1.57a12.54 12.54 0 0 1 2.75 1.47 5.43 5.43 0 0 1 2.23 4.24v1.17a5.82 5.82 0 0 1-5.71 5.73h-2.2a5.81 5.81 0 0 1-5.52-5.39V93.6h2.16v1.2a3.76 3.76 0 0 0 3.62 3.72h1.9a3.78 3.78 0 0 0 3.6-3.53v-.73a3.79 3.79 0 0 0-2.08-3.65c-.94-.52-2-.9-3-1.33-.82-.35-1.67-.65-2.47-1A5.47 5.47 0 0 1 158 84.6a6.35 6.35 0 0 1 1-5.79 5.59 5.59 0 0 1 3.72-2.07 1.78 1.78 0 0 0 .36-.14zM205.33 76.45a.82.82 0 0 0 .28.14 5.66 5.66 0 0 1 5.13 5.47v1.13h-2c0-.5-.08-1-.13-1.45a3.62 3.62 0 0 0-3.68-3.12 4.5 4.5 0 0 1-.82 0 3.69 3.69 0 0 0-4.11 3.55 3.8 3.8 0 0 0 2 3.83c.94.53 2 .92 3 1.37s2.14.91 3.14 1.48a5 5 0 0 1 2.72 3.67 7.13 7.13 0 0 1-.34 4.42 5.66 5.66 0 0 1-5.31 3.41h-2a5.8 5.8 0 0 1-5.55-5.55v-1.37c.72-.07 1.38 0 2.14 0v1.18a3.8 3.8 0 0 0 3.73 3.77h1.67a3.8 3.8 0 0 0 3.75-3.76v-1.09a3.94 3.94 0 0 0-1.84-2.91 16.43 16.43 0 0 0-3.22-1.47c-.92-.38-1.85-.73-2.72-1.18a5.14 5.14 0 0 1-3-3.72c-.35-2.09-.24-4.11 1.33-5.79a5.73 5.73 0 0 1 3.45-1.82 1.61 1.61 0 0 0 .36-.15zM312.48 78.94h-10.85v8.65h8.8v2h-8.95v8.52s.07.07.11.07h10.89v2h-13.19V76.89h13.19v2zM129.77 77H131v23.23a4.36 4.36 0 0 1-1.91 0V83H129q-2.61 5.24-5.21 10.44h-1.15L117.35 83h-.12v17.23h-2V77h1.26c2.18 4.33 4.38 8.77 6.64 13.33 1.19-2.25 2.25-4.49 3.35-6.7l3.29-6.63zM281.11 79v9.31h5.17a3.68 3.68 0 0 0 3.63-3.71v-2a3.66 3.66 0 0 0-3.53-3.6h-2.19zm-2.2-2.08h7.37a5.76 5.76 0 0 1 5.46 3.8 4.28 4.28 0 0 1 .23.92 14 14 0 0 1-.06 4.23 5.6 5.6 0 0 1-5.16 4.44h-.21v.13l6.16 9.78h-2.44c-2.07-3.24-4.15-6.53-6.25-9.82H281.14V100.18H279V76.89zM248.86 100.2V89.64h-8.93v10.56h-2c-.13-.49-.18-22.06 0-23.31h2v10.7h8.94v-10.7h2v23.31zM138.63 76.89h13.05v2h-10.85v8.65h8.8v2h-8.93a75.46 75.46 0 0 0-.08 8.51h11.2v2h-13.19V76.89zM261.47 78.94v8.57a7.07 7.07 0 0 0 1.72.08H270.26v1.94h-.06a.75.75 0 0 1-.21 0H261.51v8.6h10.84v1.95c-.53.14-12 .17-13 0V77h13.19v1.9zM220.28 89.17l.08.07c1.83 0 3.67.08 5.49 0a3.63 3.63 0 0 0 3.24-3.49v-3.22a3.67 3.67 0 0 0-3.38-3.53c-1.76-.07-3.52 0-5.28 0 0 0-.08 0-.15.08v10.1zm-.15 2.13v8.9h-2V76.94h7.09a5.62 5.62 0 0 1 5.75 5.19 22.13 22.13 0 0 1-.08 4.53 5.51 5.51 0 0 1-5.31 4.66h-5.4zM97 98.48l-1.56-.66A19.41 19.41 0 0 0 92 96.19a5.17 5.17 0 0 1-1-.54l-2.93-1.5c.48-.7.94-1.36 1.38-2s.67-1.1 1-1.65c.06 0 .15-.07.18-.12.71-1.06 1.41-2.12 2.11-3.18.4-.61.8-1.23 1.22-1.84.57-.85 1.15-1.68 1.73-2.52L97 81.09v17.39zM86.62 93l-.32.23-2.9-1.43-.85-.37-.81-.43-1.74-.9 2.91-1.87 3.34-2.06c.67-.39 1.35-.77 2-1.18s1-.65 1.5-1l2.62-1.62 1.67-1c.13-.07.28-.1.57-.21l-2.06 3a2.75 2.75 0 0 0-.2.38l-2 3c-.82 1.16-1.64 2.33-2.45 3.5-.42.62-.8 1.26-1.2 1.89zm-3.21 4.65c-.2.3-.38.61-.57.92-.52.74-1 1.47-1.56 2.22-.66 1-1.3 2-2 3l-1.28 1.8c-.86 1.25-1.71 2.51-2.59 3.81l-.46-.2c-.88-1.33-1.75-2.66-2.63-4-.68-1-1.37-2-2.07-3.06a2.84 2.84 0 0 0-.24-.26c-.38-.58-.74-1.17-1.13-1.74-.5-.76-1-1.51-1.54-2.28l2.23-1.47c.33-.19.68-.36 1-.57 1.08-.67 2.16-1.36 3.23-2 .43-.24.87-.47 1.29-.73.76-.45 1.51-.93 2.27-1.39a1 1 0 0 1 .79-.24c.5.27 1 .55 1.5.8.86.42 1.72.82 2.58 1.22l2.17 1.14.77.39c-.61.9-1.2 1.77-1.78 2.65zM65.36 95c-.4-.63-.78-1.27-1.2-1.88-.9-1.32-1.82-2.62-2.73-3.93-.26-.42-.51-.84-.79-1.24-.75-1.1-1.52-2.2-2.28-3.3-.44-.64-.89-1.29-1.32-1.94s-.8-1.24-1.19-1.87a1.53 1.53 0 0 1-.12-.38l2.83 1.34c.21.1.43.18.65.27l3.38 1.73c.42.21.86.39 1.3.58a4.66 4.66 0 0 0 .47.3c1 .48 2 1 3 1.44.45.22.91.41 1.37.62l4 2c.26.13.53.22.79.33l2.17 1.17-2 1.3-4.39 2.73-3 1.78-.94-1.05zm-5.59 5.14c-1 .6-2 1.19-3 1.81-.66.4-1.29.83-1.94 1.25l-1.29.68V81.19l.84 1c.63 1 1.25 2 1.91 3 .52.77 1.08 1.52 1.62 2.28l2.79 4.19a3.78 3.78 0 0 0 .39.41 1.93 1.93 0 0 0 .15.4c.94 1.4 1.9 2.79 2.84 4.19.11.15.19.33.33.56l-4.62 2.94zm-.7-21.48c1.65 0 5-.14 5-.14l6 .28h14.82c1.75-.14 5.25-.28 5.25-.28h4.13a2.33 2.33 0 0 0 0 .27l-2.14 1.38-2.79 1.73-3.34 2-3.3 2.1-4.7 2.93a3.72 3.72 0 0 1-.75-.17c-.57-.25-1.11-.56-1.67-.82s-1.3-.6-1.95-.9a.66.66 0 0 0-.15-.14q-2.06-1-4.11-2a3.42 3.42 0 0 0-.54-.18c-.91-.47-1.81-1-2.73-1.41-.68-.34-1.38-.64-2.07-1a3.5 3.5 0 0 0-.35-.23c-1.26-.64-2.52-1.27-3.79-1.89a5.62 5.62 0 0 0-.53-.19L57 78.74l2.1-.06zm40.13 4.76V79.7a3.08 3.08 0 0 0-3.64-3.08h-5.42l-5.25.27-5.11-.27H64l-5 .27h-4.26a2.94 2.94 0 0 0-3.22 2.73V104.16a1.88 1.88 0 0 0 2.3 1.84 2.5 2.5 0 0 0 1.39-.7c.33-.18.68-.35 1-.55l3.79-2.34 3.4-2c.67-.42 1.32-.86 2-1.29.32-.08.43.17.55.36.94 1.38 1.86 2.76 2.79 4.13.27.39.56.77.84 1.16a.37.37 0 0 0 0 .14c1.23 1.83 2.45 3.67 3.71 5.49a2.12 2.12 0 0 0 1.48 1.06.49.49 0 0 1 0 .12h.9s.09-.12.15-.14a2.26 2.26 0 0 0 1.46-1.1c.22-.35.48-.67.7-1 .6-.91 1.19-1.82 1.78-2.73s1.37-1.93 2-2.9c.46-.68.9-1.38 1.34-2.07.79-1.15 1.59-2.29 2.37-3.44.5-.73 1-1.49 1.45-2.24a3.93 3.93 0 0 1 .67.19l3.26 1.55c.48.26 1 .53 1.46.78l2.93 1.4c.33.16.64.35 1 .48a2.1 2.1 0 0 0 2.61-.82A2.94 2.94 0 0 0 99.2 98V83.42z"/></svg>