<svg id="Layer_2" data-name="Layer 2" xmlns="http://www.w3.org/2000/svg" viewBox="0 0 364 188"><defs><style>.cls-1{fill:#738c97}</style></defs><path class="cls-1" d="M88.64 64.4c3.63 1.35 5.48 4.29 7 7.63 5 11 10 22 15.08 33 .32.71.69 1.41 1.28 2.61 2.54-6.57 4.9-12.68 7.25-18.8 2.24-5.85 4.43-11.72 6.7-17.55 1.58-4 2.74-4.76 7-4.77h7c-2.21 5.86-4.27 11.37-6.36 16.86-4 10.62-8.16 21.21-12.14 31.85-1.44 3.85-3.51 7-7.56 8.41h-3.77c-3.31-1.4-5.31-4-6.73-7.19-3.12-7.12-6.37-14.18-9.58-21.26-2.19-4.84-4.41-9.66-6.83-15-.49 1.16-.78 1.77-1 2.41-4.76 12.43-9.54 24.84-14.23 37.3-.59 1.58-1.32 2.25-3.07 2.17-3.39-.15-6.8-.08-10.2-.1v-.54a13.75 13.75 0 0 0 1-1.8c6-15.5 11.92-31 17.78-46.52 1.47-3.92 3.4-7.25 7.59-8.72zM305.5 67.09c-.49 1.51-1 3-1.47 4.54-1 3.27-2.24 4.37-5.8 4.41-6.54.07-13.09 0-19.63.07a17.82 17.82 0 0 0-5.77.91 4.12 4.12 0 0 0-.89 7.59 36.66 36.66 0 0 0 6.33 2.89c4.79 2 9.7 3.69 14.41 5.83 4.88 2.23 8.18 5.81 8 11.63-.23 6.35-2.47 11.69-8.52 14.42a26 26 0 0 1-9.76 2.5c-13.26.29-26.53.14-39.79.15a9.26 9.26 0 0 1-1.28-.22c.71-2.75 1.26-5.46 2.18-8 .22-.64 1.59-1.22 2.44-1.22 10.94-.08 21.87 0 32.81-.11a26.89 26.89 0 0 0 6.82-1.09 4.5 4.5 0 0 0 3.38-4.64c0-2.25-1.39-3.41-3.24-4.13-5.42-2.11-10.88-4.11-16.29-6.25a37.54 37.54 0 0 1-5.52-2.69c-8.75-5.23-7-19.94 2.33-24.23a27.94 27.94 0 0 1 10.26-2.73c9.66-.36 19.35-.12 29-.11zM197.81 122h-9.84a4.48 4.48 0 0 1-4.29-3.1 42.28 42.28 0 0 1-1.88-5.3c-.44-1.74-1.18-2.42-3.1-2.39q-14.25.16-28.51 0a3.37 3.37 0 0 0-3.52 2.16c-1.16 2.32-2.61 4.49-3.79 6.81a2.91 2.91 0 0 1-3.1 1.89c-3.39-.13-6.79 0-10.38 0a6.12 6.12 0 0 1 .34-1.17q14.34-24.59 28.73-49.15c3.17-5.37 8.21-7.6 13.31-6.28 3.77 1 5.87 3.7 7.2 7 3 7.48 5.79 15 8.66 22.54q4.8 12.52 9.56 25.07c.22.59.37 1.18.61 1.92zm-44.51-20.11h24.48l-9.25-26.71zM255.67 66.89c-.6 2.09-1.06 4.18-1.8 6.17-.94 2.49-3.16 3-5.51 3-4.84 0-9.68.17-14.51 0-2.58-.11-3.66.65-4.31 3.24-3.19 12.74-6.61 25.42-10 38.12-1 3.94-2 4.67-6 4.68H206l12-45.89h-24.85c.76-3.1 1.35-5.79 2.14-8.41a2.19 2.19 0 0 1 1.67-1.2q29-.06 58 0a4.16 4.16 0 0 1 .71.29z"/></svg>