<?xml version="1.0" encoding="utf-8"?>
<!-- Generator: Adobe Illustrator 24.0.1, SVG Export Plug-In . SVG Version: 6.00 Build 0)  -->
<svg version="1.1" id="Layer_2_1_" xmlns="http://www.w3.org/2000/svg" xmlns:xlink="http://www.w3.org/1999/xlink" x="0px" y="0px"
	 viewBox="0 0 364 188" style="enable-background:new 0 0 364 188;" xml:space="preserve">
<style type="text/css">
	.st0{fill:#738C97;}
</style>
<g>
	<path class="st0" d="M287.7,80.7l-5,14.2c-0.9,2.6-1.4,4-2.2,6.5h-0.1c-0.7-2.1-1.3-3.8-2.1-6.3l-4.9-14.4h-5.8l10.1,26.4
		c-0.2,0.6-0.5,1.2-0.7,1.8c-0.8,2.1-2.9,3.4-5.1,3.4h-2.5v4.5h2.6c4.2,0,7.9-2.5,9.5-6.4c3.2-8.1,8.7-21.8,11.8-29.7
		C293.3,80.7,287.7,80.7,287.7,80.7z"/>
	<path class="st0" d="M147.5,102.1c0,9.6-4.4,14.7-13.2,14.7c-6.6,0-10.6-3.5-12-8.7h5.3c0.9,2.4,2.8,4.6,6.7,4.6
		c6.1,0,8.2-3.8,8.2-10.9c0,0,0,0-0.1,0c-1.3,2.3-4.2,4.3-8.9,4.3c-7.4,0-12.2-5.4-12.2-12.9c0-7.9,5.1-13.2,12.2-13.2
		c4.6,0,7.4,2,8.9,4.1c0-0.5,0-1.1,0-1.7v-1.7h5V102.1z M126.9,93c0,5.1,2.9,8.8,7.8,8.8c4.4,0,7.9-3.1,7.9-9c0-5.2-3-8.7-7.9-8.7
		S126.9,87.7,126.9,93z"/>
	<path class="st0" d="M155.8,95.3c0.2,4.6,3.2,8.3,8.3,8.3c3.6,0,5.4-1.7,6.7-4h5.1c-1.5,4.8-5.7,8.2-12,8.2
		c-8.2,0-13.2-5.5-13.2-13.7S156,80,163.9,80c8.6,0,12.6,6.6,12.6,13.7v1.7L155.8,95.3L155.8,95.3z M171.2,91.3
		c-0.5-4.2-3.1-7.1-7.4-7.1c-4.1,0-7.3,2.7-7.8,7.1H171.2z"/>
	<path class="st0" d="M184.6,80.7v3.4c0.8-2.5,3.4-4,6.4-4c0.7,0,1,0,1.3,0.1v4.6c-0.5-0.1-1.2-0.2-1.8-0.2c-4.8,0-5.7,3.5-5.7,8.8
		v13.7h-5.1V85.5c0-1.7,0-3.1,0-4.7L184.6,80.7L184.6,80.7z"/>
	<path class="st0" d="M244.6,103.4c-1.4,2.3-3.9,4.4-8.4,4.4c-6.1,0-9.2-3.8-9.2-10.6V80.7h5.1v14.5c0,5.2,1.7,8.3,5.8,8.3
		c5.4,0,6.4-4.9,6.4-10.7V80.7h5.1v22.4c0,1.4,0,2.7,0,4h-4.9L244.6,103.4L244.6,103.4z"/>
	<path class="st0" d="M260.9,80.7h4.9v3.9h-4.9v15.9c0,2.5,1.3,3.3,3.2,3.3c0.3,0,1,0,1.3-0.1v3.8c-0.8,0.1-1.3,0.2-2,0.2
		c-4.7,0-7.6-1.6-7.6-6.8V84.7h-4v-3.9h4v-7.1h5.1V80.7z"/>
	<g>
		<rect x="70.7" y="97.6" class="st0" width="5.3" height="9.6"/>
		<path class="st0" d="M90.6,72.9c-2.8-1.5-4.8-1.8-9.4-1.8H70.7V93H76h0.7h4.4c4.1,0,7.2-0.3,9.9-2.1c3-2,4.5-5.2,4.5-9
			C95.5,77.9,93.6,74.6,90.6,72.9z M82.3,88.4H76V75.8l6,0c5.4-0.1,8.2,1.8,8.2,6.2C90.1,86.6,86.7,88.4,82.3,88.4z"/>
	</g>
	<path class="st0" d="M195.4,71.2h8.8c13.2,0.1,19.5,6.5,19.6,18.1c0,9.8-5,17.8-18.7,17.9h-9.7L195.4,71.2L195.4,71.2z
		 M200.8,102.7h3.1c9.6,0,14.6-3.7,14.6-13.4c0-8.6-5-13.5-14.1-13.5c-1.8,0-3.6,0-3.6,0V102.7z"/>
	<path class="st0" d="M114,107.2c-0.2-1.1-0.2-1.7-0.3-3.6c-2,2.9-4.7,4.1-8.9,4.1c-5.5,0-9.6-2.7-9.6-7.6c0-5.7,5.4-7.6,12.5-8.5
		c1.8-0.3,3.7-0.5,5.4-0.6c0-5.2-2.9-6.8-5.9-6.8c-3,0-5.3,2.1-5.3,4.9h-4.9c0-5.4,4.2-9,10.3-9s10.8,2.5,10.8,12.2v5.1
		c0,4.3,0.2,7.4,0.7,9.8L114,107.2L114,107.2z M100.8,100c0,2.5,2,4,5.2,4c4.7,0,7.3-2.9,7.3-8c0-0.7,0-1.1,0-1.4
		C104.7,95.4,100.8,96.3,100.8,100z"/>
</g>
</svg>
