<?xml version="1.0" encoding="utf-8"?>
<!-- Generator: Adobe Illustrator 24.0.1, SVG Export Plug-In . SVG Version: 6.00 Build 0)  -->
<svg version="1.1" id="Layer_2_1_" xmlns="http://www.w3.org/2000/svg" xmlns:xlink="http://www.w3.org/1999/xlink" x="0px" y="0px"
	 viewBox="0 0 364 188" style="enable-background:new 0 0 364 188;" xml:space="preserve">
<style type="text/css">
	.st0{fill:#738C97;}
	.st1{fill:#8CA5AA;}
	.st2{fill:#617B84;}
</style>
<g>
	<path class="st0" d="M151.5,127.2c-6.1,0-10.8-4.7-10.8-10.7c0-6,4.8-10.7,10.8-10.7s10.9,4.7,10.9,10.7
		C162.4,122.5,157.6,127.2,151.5,127.2z M151.5,108.6c-4.3,0-7.6,3.4-7.6,7.8s3.3,7.8,7.6,7.8s7.7-3.4,7.7-7.8
		C159.2,112,155.9,108.6,151.5,108.6z"/>
	<path class="st0" d="M165.3,111.7h2.9v1.4c1.3-1.1,2.9-1.7,4.6-1.7c4.3,0,7.6,3.4,7.6,7.8s-3.3,7.8-7.7,7.8c-1.6,0-3.2-0.5-4.5-1.5
		v7.4h-3V111.7z M168.3,115.9v6.9c1.1,1.1,2.6,1.8,4.2,1.8c2.9,0,5.1-2.3,5.1-5.2c0-3-2.3-5.2-5.1-5.2
		C170.7,114.1,169.3,114.7,168.3,115.9L168.3,115.9z"/>
	<path class="st0" d="M190.3,111.5c4.2,0,7.3,3.4,7.3,7.9v0.9h-11.9c0.4,2.5,2.6,4.4,5.1,4.3c1.4,0,2.8-0.4,3.8-1.3l1.9,1.9
		c-1.7,1.3-3.7,2.1-5.9,2c-4.5,0-7.9-3.4-7.9-7.8C182.7,114.9,186,111.5,190.3,111.5z M185.6,118h9c-0.4-2.3-2.2-4-4.4-4
		C187.9,114,186.1,115.6,185.6,118L185.6,118z"/>
	<path class="st0" d="M200.4,111.7h3v1.5c1.2-1.2,2.8-1.9,4.5-1.8c3.5,0,5.9,2.4,5.9,5.9v9.5h-2.9v-9c0-2.3-1.4-3.8-3.8-3.8
		c-1.5,0-2.9,0.7-3.7,2v10.9h-3L200.4,111.7z"/>
	<path class="st0" d="M217.6,121.2c2.2,2.2,4.5,3.3,7.2,3.3c3,0,5.1-1.4,5.1-3.5c0-1.8-1.1-2.8-4.2-3.3l-3.5-0.6
		c-3.9-0.7-5.7-2.5-5.7-5.4c0-3.6,3-6,7.7-6c3,0,6,1,8.4,2.8l-1.7,2.4c-2.3-1.7-4.5-2.6-6.8-2.6c-2.7,0-4.5,1.2-4.5,3.1
		c0,1.7,1,2.5,3.7,2.9l3.4,0.5c4.4,0.7,6.4,2.6,6.4,5.8c0,3.8-3.3,6.4-8.3,6.4c-3.4,0-6.6-1.3-8.9-3.7L217.6,121.2z"/>
	<path class="st0" d="M245.9,117.8c0-2.3-1.4-3.8-3.8-3.8c-1.5,0-2.9,0.7-3.7,2v10.9h-3V106l3-0.7v7.9c1.2-1.2,2.8-1.9,4.5-1.8
		c3.5,0,5.9,2.4,5.9,5.9v9.5h-2.9L245.9,117.8z"/>
	<path class="st0" d="M251.9,107.4c0-1,0.8-1.8,1.8-1.8c1,0,1.8,0.9,1.8,1.9c0,1-0.8,1.7-1.8,1.8
		C252.8,109.3,251.9,108.5,251.9,107.4z M255.3,126.8h-3v-15.1h3V126.8z"/>
	<path class="st0" d="M261,111.7v-2.3c0-3.1,1.8-4.9,5.1-4.9c0.7,0,1.4,0.1,2.1,0.3v2.6c-0.6-0.2-1.2-0.3-1.9-0.3
		c-1.7,0-2.5,0.7-2.5,2.3v2.2h4.3v2.5h-4.3v12.6H261v-12.6h-3.5v-2.5H261z"/>
	<path class="st0" d="M272.8,114.2h-3.2v-2.5h3.2v-3.9l2.9-0.7v4.6h4.5v2.5h-4.5v8.2c0,1.5,0.6,2.1,2.2,2.1c0.7,0,1.5-0.1,2.2-0.4
		v2.5c-0.9,0.3-1.9,0.4-2.8,0.4c-2.9,0-4.5-1.4-4.5-4L272.8,114.2z"/>
	<path class="st0" d="M242.4,91.1c0,3.4,2,5,5.8,5c1.1,0,2.3-0.2,3.4-0.5v-3.9c-0.7,0.2-1.5,0.3-2.2,0.3c-1.5,0-2.1-0.5-2.1-1.9v-6
		h4.4V80h-4.4v-5.1l-4.9,1.1V80h-3.2v4.1h3.2V91.1z M227.2,91.2c0-1.1,1.1-1.6,2.6-1.6c1,0,1.9,0.1,2.9,0.4v2c-0.9,0.5-2,0.8-3,0.8
		C228.2,92.7,227.2,92.1,227.2,91.2 M228.7,96.2c1.7,0,3.1-0.4,4.4-1.2v1h4.8V85.7c0-3.9-2.6-6-7-6c-2.4,0-4.8,0.6-7.4,1.7l1.8,3.6
		c1.9-0.8,3.4-1.3,4.8-1.3c2,0,3,0.8,3,2.4v0.8c-1.2-0.3-2.4-0.5-3.6-0.5c-4.1,0-6.6,1.7-6.6,4.8C223,94,225.2,96.2,228.7,96.2
		 M202.3,95.9h5.2v-8.2h8.7v8.2h5.2v-21h-5.2v8.1h-8.7v-8.1h-5.2L202.3,95.9z M182.6,87.9c0-2.3,1.8-4,4.2-4c1.2,0,2.4,0.4,3.4,1.2
		v5.6c-0.9,0.9-2.1,1.3-3.4,1.3C184.4,92,182.6,90.2,182.6,87.9 M190.2,95.9h4.8V73.8l-4.9,1.1v6c-1.2-0.7-2.6-1.1-4.1-1.1
		c-4.6,0-8.3,3.6-8.3,8.1c-0.1,4.5,3.5,8.1,8,8.2c0,0,0.1,0,0.1,0c1.5,0,3-0.5,4.3-1.4L190.2,95.9z M168.1,83.7c1.5,0,2.8,1,3.3,2.5
		h-6.6C165.3,84.6,166.5,83.7,168.1,83.7 M159.9,88c0,4.6,3.8,8.2,8.7,8.2c2.7,0,4.6-0.7,6.6-2.4l-3.2-2.9c-0.8,0.8-1.9,1.2-3.2,1.2
		c-1.7,0-3.3-1-3.9-2.5h11.3v-1.2c0-5-3.4-8.7-8-8.7c-4.5-0.1-8.2,3.5-8.3,8C160,87.8,160,87.9,159.9,88 M151.5,79.3
		c1.7,0,2.7,1.1,2.7,2.4s-1,2.4-2.7,2.4h-5.1v-4.7H151.5z M141.3,95.9h5.2v-7.7h3.9l4,7.7h5.8l-4.6-8.4c2.4-1,4-3.3,4-5.9
		c0-3.8-3-6.7-7.4-6.7h-10.8L141.3,95.9z"/>
	<path class="st0" d="M97.6,82.9L90,85.7c0.1,1.2,0.3,2.4,0.6,3.6l7.2-2.6C97.6,85.4,97.5,84.2,97.6,82.9"/>
	<path class="st0" d="M131.2,74.5c-0.5-1.1-1.2-2.1-1.9-3.1l-7.6,2.8c0.9,0.9,1.6,1.9,2.2,3L131.2,74.5z"/>
	<path class="st1" d="M114.5,72.4c1.5,0.7,2.9,1.7,4.1,2.9l7.6-2.8c-7-9.8-20.6-12.1-30.4-5.1c-6.2,4.4-9.6,11.8-9.1,19.4l7.6-2.8
		c0.6-7.8,7.3-13.6,15.1-13C111.2,71.2,112.9,71.6,114.5,72.4"/>
	<path class="st1" d="M91,89.1l-7.2,2.6c0.7,2.6,1.8,5.1,3.4,7.4l7.6-2.8C92.9,94.4,91.6,91.9,91,89.1"/>
	<path class="st1" d="M122.6,86.3c-0.1,1.7-0.6,3.3-1.3,4.9c-3.3,7.1-11.7,10.2-18.8,6.9c-1.5-0.7-2.9-1.7-4.1-2.9l-7.6,2.8
		c7,9.8,20.5,12.1,30.3,5.1c3.1-2.2,5.5-5.1,7.1-8.6c1.6-3.4,2.3-7.1,2-10.9L122.6,86.3z"/>
	<path class="st1" d="M124.5,77l-7.2,2.6c1.4,2.4,2,5.2,1.8,8l7.6-2.8C126.4,82.1,125.7,79.4,124.5,77"/>
	<path class="st2" d="M97.6,84.5c0-0.5,0-1,0-1.5L90,85.7c0,0.5,0.1,1,0.2,1.5L97.6,84.5z"/>
	<path class="st2" d="M130.1,72.5c-0.2-0.4-0.5-0.8-0.8-1.1l-7.6,2.8c0.3,0.3,0.6,0.7,0.9,1.1L130.1,72.5z"/>
	<path class="st0" d="M90.8,97.8c0.6,0.8,1.2,1.6,1.9,2.4l8.3-3c-1-0.6-1.8-1.3-2.6-2.1L90.8,97.8z M130.2,83.5l-7.6,2.8
		c-0.1,1.1-0.3,2.2-0.6,3.3l8.3-3C130.3,85.5,130.3,84.5,130.2,83.5"/>
</g>
</svg>
