<svg id="Layer_2" data-name="Layer 2" xmlns="http://www.w3.org/2000/svg" viewBox="0 0 364 188"><defs><style>.cls-1{fill:#738c97}</style></defs><path class="cls-1" d="M114.11 142c-1.25-1.53-2.46-3.08-3.75-4.56a33.11 33.11 0 0 0-6.61-5.95.83.83 0 0 0-.82-.1l-6.13 1.93a1.85 1.85 0 0 1-1.25 0 31.17 31.17 0 0 1-7.3-3.93l-.89-.63c-.36.47-.73.9-1 1.36-1 1.51-2 3-2.89 4.56-.23.39-.42.44-.81.27a24.28 24.28 0 0 1-5.27-3.11 30.9 30.9 0 0 1-8-8.66c-.52-.86-.87-1.82-1.31-2.72-.16-.33-.09-.5.26-.68A38.69 38.69 0 0 0 74 116l.21-.16c-.48-.7-.95-1.35-1.39-2a21.73 21.73 0 0 1-3-6.41 2.23 2.23 0 0 1 0-1.09c.62-2.07 1.27-4.13 1.92-6.19a.79.79 0 0 0-.1-.77 40.55 40.55 0 0 0-8.4-8.7c-.68-.55-1.38-1.07-2.15-1.66l1.29-.37a56.59 56.59 0 0 0 13-5.73c1.88-1.12 3.68-2.35 5.5-3.54a1.69 1.69 0 0 0 .49-.54 78.06 78.06 0 0 1 8.17-11.67c1-1.22 2.15-2.38 3.24-3.55a.91.91 0 0 1 .48-.24A74.52 74.52 0 0 1 105.42 62c2.91 0 5.82-.09 8.72.07 3.24.18 6.48.54 9.71.92a107.67 107.67 0 0 1 12.34 2.31c1.24.3 1.24.29 1.55 1.52a118.73 118.73 0 0 1 2.39 12.83 109.83 109.83 0 0 1 1 16.71 82.73 82.73 0 0 1-1.23 12.65 3.33 3.33 0 0 1-1.08 2 78.86 78.86 0 0 1-14.26 10.57 3.28 3.28 0 0 0-.93.85 62.87 62.87 0 0 0-9.13 18.25c-.17.47-.27.9-.39 1.32zm17.08-47.49c-.16-2.67-.29-5.34-.5-8a93.76 93.76 0 0 0-1.76-11.78.6.6 0 0 0-.56-.55 108.37 108.37 0 0 0-11.74-1.79 70.71 70.71 0 0 0-10.79-.31c-2.62.17-5.23.46-7.84.72a1.29 1.29 0 0 0-.72.35 53.77 53.77 0 0 0-5.16 6.58 95.14 95.14 0 0 0-11.64 25.16 1.36 1.36 0 0 0 .1.93 33.54 33.54 0 0 0 2.1 3.58 44.88 44.88 0 0 0 9.86 10c1.46 1.09 3 2 4.6 3a1.35 1.35 0 0 0 1.21.24 102 102 0 0 0 18.41-7.6 64.43 64.43 0 0 0 13.12-9.09 1.1 1.1 0 0 0 .39-.59 83.12 83.12 0 0 0 .92-10.85zM221.67 106.26a1.74 1.74 0 0 0 .47-.31q4.58-5.62 9.13-11.28 8.17-10.1 16.34-20.18a.82.82 0 0 1 .51-.28h11.05L238.82 98.6c7.7 12.11 15.39 24.19 23.12 36.36h-10.7a.85.85 0 0 1-.85-.48q-8.56-14.16-17.16-28.3l-.29-.47-2.08 2.42-8.86 10.31a1.75 1.75 0 0 0-.47 1.24v15.25h-10.06V46h10.08v60.13zM284.71 82.56v34.97a14.36 14.36 0 0 0 1.32 6.34 7.3 7.3 0 0 0 5.59 4 14.36 14.36 0 0 0 7-.65l2.35-.76c.66 2.56 1.32 5.12 2 7.78-1.72.47-3.43 1-5.15 1.4a25.38 25.38 0 0 1-7.86.75 17.64 17.64 0 0 1-8.2-2.32 14.21 14.21 0 0 1-6.16-8.26 29.35 29.35 0 0 1-1.27-8.88V82.55h-9v-7.73l9.48-.62q.63-8.48 1.25-17h8.62v17H301v8.38zM180.27 134.94H170V74.23h8.48l.87 10.92c.36.18.45-.09.58-.31a28.3 28.3 0 0 1 5.46-7.13 17.48 17.48 0 0 1 9.21-4.79 16 16 0 0 1 8.88 1c-.66 3-1.32 6-2 9l-1.1-.32a13.79 13.79 0 0 0-9.12.23 16.45 16.45 0 0 0-6.53 5.17 29.31 29.31 0 0 0-4.28 7.49 2.52 2.52 0 0 0-.17.9v37.93z"/><path class="cls-1" d="M117.44 94.27a8.56 8.56 0 1 1-17.1-.62 8.56 8.56 0 0 1 17.1.62z"/></svg>