<svg id="Layer_2" data-name="Layer 2" xmlns="http://www.w3.org/2000/svg" viewBox="0 0 364 188"><defs><style>.cls-1{fill:#738c97}</style></defs><path class="cls-1" d="M267.86 60.62h10.32v41.62c.73-.67 1.25-1.11 1.73-1.59 1.85-1.82 3.66-3.67 5.53-5.47 2.91-2.82 5.84-5.6 8.78-8.39.43-.4.93-.72 1.51-1.17A56.6 56.6 0 0 1 306 88.27c-1 1.22-1.89 2.31-2.84 3.29q-3.35 3.43-6.77 6.77c-1.8 1.75-3.66 3.43-5.44 5.07l15.6 22v.19a51.94 51.94 0 0 1-11.44 1.89l-12-17.63-4.46 4v13.23h-10.31c0-1.76-.06-3.47-.08-5.18v-5.59c-.5-16.86-.32-33.72-.36-50.59zM212 103.87a30.49 30.49 0 0 0 0-4.05 4.77 4.77 0 0 0-2.8-3.82 11.3 11.3 0 0 0-10.06-.13c-1.66.74-3.24 1.67-4.87 2.5-.44.23-.91.4-1.39.61-1.57-2.31-3.41-4.22-4.19-6.89a19.45 19.45 0 0 1 7.16-4.8 22.31 22.31 0 0 1 9-1.67 26 26 0 0 1 8.36 1.09c4.83 1.67 7.68 5.14 9.07 9.88a22.18 22.18 0 0 1 .92 6.41c-.05 7.84 0 15.67 0 23.52-1.72.86-3.46.57-5.14.56a20.55 20.55 0 0 1-5.17-.21v-3.43l-1.15 1a13.53 13.53 0 0 1-7.88 3.14 26.66 26.66 0 0 1-4.65.09 13.79 13.79 0 0 1-9.87-5.09 9.31 9.31 0 0 1-2-4.83c-.59-5 .76-9.3 4.92-12.41a14.21 14.21 0 0 1 5.31-2.44 26.45 26.45 0 0 1 8.69-.36 42.51 42.51 0 0 1 5.74 1.33zm.85 6.62a10.82 10.82 0 0 0-6.35-1.11c-.51.08-1 .19-1.54.23a11.45 11.45 0 0 0-5.66 2 4.41 4.41 0 0 0-2 4.23 4.3 4.3 0 0 0 3.13 3.87 11.76 11.76 0 0 0 5.86.16 9.77 9.77 0 0 0 4.26-1.87 4 4 0 0 0 1.79-2.3c.29-1.7.35-3.4.51-5.21zM166.15 90.09a32 32 0 0 1-3.59 7.34c-.46-.29-.88-.57-1.31-.83a23 23 0 0 0-9.14-3.26 9 9 0 0 0-5 .88 9.52 9.52 0 0 0-2.17 2v2.43a6.9 6.9 0 0 0 4.06 2.25c3 .69 6.13 1.26 9.16 2a13.9 13.9 0 0 1 6.38 3.31 10.37 10.37 0 0 1 3.14 7.21 13 13 0 0 1-2.92 9.15 12.45 12.45 0 0 1-5 3.72 24.18 24.18 0 0 1-13.13 1.36 27 27 0 0 1-9.46-3 11.59 11.59 0 0 1-3.71-3 44.47 44.47 0 0 1 4.27-7.43c1 .58 2 1.09 2.9 1.68a21.17 21.17 0 0 0 9.37 3.2 9.83 9.83 0 0 0 5.14-1 4.51 4.51 0 0 0 1.12-.78c1.64-1.59 1.44-3.39-.49-4.58a17 17 0 0 0-5.71-2c-3.52-.69-7-1.33-10.23-3.16a9.82 9.82 0 0 1-5.26-7.41 12.18 12.18 0 0 1 4.6-12 13.54 13.54 0 0 1 6.58-2.83 32.09 32.09 0 0 1 6.1-.41A25.38 25.38 0 0 1 163.49 88a6.79 6.79 0 0 1 2.66 2.09zM264.25 91.7a43.06 43.06 0 0 1-5.13 7.64 15.09 15.09 0 0 0-6.23-3.4 11.42 11.42 0 0 0-11.1 2.54 9.42 9.42 0 0 0-2.64 4.76 14 14 0 0 0 0 7.23 10.35 10.35 0 0 0 9.41 7.64 11.89 11.89 0 0 0 8.92-2.94 10.15 10.15 0 0 1 1.21-.78 37.65 37.65 0 0 1 5.61 6.41c-2.26 3.54-5.69 5.24-9.46 6.33a19.67 19.67 0 0 1-6.62.8c-4-.24-7.79-.94-11.21-3.11a18.61 18.61 0 0 1-8.17-11.18c-1.77-6.55-1.26-12.93 2.41-18.77A19 19 0 0 1 243 86.54a22.53 22.53 0 0 1 7.62-.74c3.52.33 7 .82 10.16 2.64a7.29 7.29 0 0 1 3.47 3.26zM181.62 127.15h-9.82V61.08c.34-.16.67-.45 1-.45h8.71a56.38 56.38 0 0 1 .49 10.15c0 14.68.11 29.36-.11 44-.01 4.11 0 8.22-.27 12.37zM124.09 100a22.33 22.33 0 0 1-2.17 9.7c-2.06 4.23-5.49 7.11-9.52 9.35a68.63 68.63 0 0 1-18.74 6.68 49.26 49.26 0 0 1-8.09 1.27c-7.61.38-13.92-2.2-18.41-8.62a52.92 52.92 0 0 1-6.49-14.05 65.13 65.13 0 0 1-2.88-12 30.71 30.71 0 0 1 .37-11.7 19.09 19.09 0 0 1 7.46-10.53 42.88 42.88 0 0 1 11.24-5.72 77 77 0 0 1 14.53-3.9 26.88 26.88 0 0 1 12.93.62 19.27 19.27 0 0 1 9.35 6.83 38.59 38.59 0 0 1 5.4 10.16A87.78 87.78 0 0 1 123.28 93c.43 2.31.55 4.68.81 7zM76 86.3c-1.57.58-3 1.06-4.32 1.61a3.46 3.46 0 0 0-2 4.57 3.56 3.56 0 0 0 4.48 1.81 39.41 39.41 0 0 1 4.07-1.44l2.87 8.65c-1.64.58-3.14 1-4.55 1.63a3.36 3.36 0 0 0-1.42 5.18 3.43 3.43 0 0 0 3.74 1.2c1.4-.41 2.79-.87 4.24-1.33a12.72 12.72 0 0 1 .67 1.33c.35 1 .61 2 1 2.95a3.4 3.4 0 0 0 4.28 2.2 3.18 3.18 0 0 0 2.32-3.77 15.92 15.92 0 0 0-.65-2.34c-.25-.84-.52-1.66-.83-2.66 1.58-.54 3-1.1 4.5-1.52s2.74-1.41 4.35-1.26l.65 1.79c.29.83.52 1.7.88 2.5.88 1.92 2.62 2.72 4.3 2a3.31 3.31 0 0 0 2-4.48c-.44-1.4-.89-2.8-1.36-4.29.83-.28 1.6-.51 2.36-.79a17.6 17.6 0 0 0 2.65-1.1 3.26 3.26 0 0 0 0-5.66 3.49 3.49 0 0 0-3.15-.38c-1.28.45-2.54 1.21-4.19 1l-2.75-8.21c1.56-.56 3-1 4.32-1.55 2.19-1 3-3.06 1.87-4.86a3.48 3.48 0 0 0-4.17-1.55c-1.4.34-2.68 1.29-4.31 1-.37-1-.81-2.07-1.09-3.13a4 4 0 0 0-3.62-3.38 3.76 3.76 0 0 0-3.45 3.59l1.68 5.51-8.74 2.94-1-2.84a15.84 15.84 0 0 0-.91-2.22 3.23 3.23 0 0 0-3.78-1.6 3.4 3.4 0 0 0-2.45 3.6 14.26 14.26 0 0 0 .61 2.35c.28.94.58 1.91.9 2.95z"/><path class="cls-1" d="M84.72 90.77c3-1.13 5.94-2.15 9-3l2.79 8.47a87.72 87.72 0 0 1-8.93 3c-.92-2.8-1.85-5.5-2.86-8.47z"/></svg>