<?xml version="1.0" encoding="utf-8"?>
<!-- Generator: Adobe Illustrator 24.0.1, SVG Export Plug-In . SVG Version: 6.00 Build 0)  -->
<svg version="1.1" id="Layer_2_1_" xmlns="http://www.w3.org/2000/svg" xmlns:xlink="http://www.w3.org/1999/xlink" x="0px" y="0px"
	 viewBox="0 0 364 188" style="enable-background:new 0 0 364 188;" xml:space="preserve">
<style type="text/css">
	.st0{fill:#738C97;}
	.st1{fill:#9DB3BA;}
</style>
<g>
	<path class="st0" d="M116.6,99.2c0,1.1-0.2,2.2-0.6,3.1s-1.1,1.7-2,2.3c-0.9,0.6-1.9,1.2-2.9,1.6c-1.2,0.3-2.5,0.6-3.7,0.6
		c-1.6,0-2.9-0.2-4.3-0.6c-1.4-0.5-2.8-1.2-3.9-2.3l2.2-3.6c0.9,0.8,1.9,1.4,2.8,1.9c0.6,0.5,1.6,0.8,2.5,0.6c0.9,0,1.9-0.3,2.6-0.8
		c0.6-0.6,1.1-1.4,0.9-2.2c0-0.3,0-0.8-0.2-1.1c-0.2-0.5-0.3-0.8-0.6-1.1c-0.5-0.5-0.9-0.8-1.4-1.2c-0.6-0.5-1.2-0.9-2.2-1.6
		c-0.6-0.5-1.4-1.1-2-1.6c-0.6-0.5-1.2-0.9-1.7-1.6s-0.9-1.2-1.2-1.9c-0.3-0.8-0.5-1.6-0.5-2.5c0-0.9,0.2-2,0.6-2.8
		c0.5-0.8,1.1-1.6,1.9-2.2c0.8-0.6,1.7-1.1,2.6-1.4c1.1-0.3,2.3-0.5,3.4-0.5c1.2,0,2.6,0.2,3.9,0.5c1.2,0.3,2.3,0.9,3.4,1.6l-2,3.1
		c-1.2-0.9-2.6-1.4-4.2-1.4c-0.8,0-1.6,0.2-2.2,0.6c-0.6,0.5-0.9,1.1-0.9,1.7s0.3,1.4,0.8,1.9c0.8,0.8,1.7,1.6,2.6,2.2
		c1.2,0.9,2.3,1.7,3.1,2.5c0.8,0.6,1.4,1.2,2,2c0.5,0.6,0.8,1.2,0.9,1.9C116.6,97.8,116.7,98.6,116.6,99.2"/>
	<path class="st0" d="M138.8,93.3c0.2-2.3-0.5-4.5-1.7-6.5c-0.9-1.6-2.6-2.5-4.5-2.3c-1.9,0-3.7,0.9-4.8,2.5c-1.2,2-1.9,4.5-1.7,6.8
		c-0.2,2.3,0.5,4.7,1.7,6.7c1.1,1.6,2.8,2.5,4.8,2.3c1.1,0,2.2-0.3,2.9-0.9c0.8-0.6,1.4-1.4,1.9-2.3s0.8-2,1.1-3.1
		C138.6,95.3,138.8,94.4,138.8,93.3 M145.8,93c0,1.9-0.3,3.7-0.9,5.4c-0.6,1.6-1.4,3.1-2.5,4.3c-2.2,2.5-5.3,3.9-8.5,3.9
		c-0.8,0-1.4,0-2.2-0.2c-0.6-0.2-1.2-0.3-1.9-0.6c-0.6-0.3-1.2-0.8-1.7-1.2c-0.6-0.6-1.2-1.2-1.9-1.9v15.8h-6.5V81h6.5v3.6
		c1.1-1.4,2.3-2.5,3.9-3.3c1.6-0.8,3.1-1.1,4.8-1.1c1.6,0,3.1,0.3,4.5,0.9s2.5,1.4,3.6,2.5c1.1,1.1,1.9,2.5,2.3,4
		C145.4,89.6,145.8,91.3,145.8,93"/>
	<rect x="148.7" y="69.4" class="st0" width="6.5" height="36.8"/>
	<path class="st0" d="M176.8,106.2v-3.4c-1.1,1.2-2.5,2.3-3.9,3.1c-1.4,0.6-3.1,0.9-4.7,0.9c-1.7,0-3.4-0.3-5-1.2
		c-1.4-0.8-2.3-2-2.9-3.4c-0.2-0.3-0.3-0.8-0.3-1.1c-0.2-0.5-0.2-0.9-0.3-1.4c0-0.6-0.2-1.2-0.2-1.7c0-0.6,0-1.6,0-2.5V81h6.5v14.3
		c0,0.9,0,2,0.2,2.9c0.2,0.6,0.3,1.2,0.6,1.9c0.8,1.4,2.5,2.3,4,2.2c2.2,0.2,4.3-1.1,5.1-3.1c0.3-0.6,0.5-1.2,0.5-1.7
		c0.2-0.9,0.2-1.9,0.2-2.8V81h6.5v25.1C183.2,106.2,176.8,106.2,176.8,106.2z"/>
	<path class="st0" d="M205.4,106.2V91.7c0-0.9,0-2-0.2-2.9c-0.2-0.6-0.3-1.2-0.6-1.9c-0.8-1.4-2.5-2.3-4-2.2c-1.1,0-2.2,0.3-3.3,0.8
		c-0.9,0.5-1.6,1.4-2,2.3c-0.3,0.6-0.5,1.2-0.5,1.9c-0.2,0.9-0.2,1.9-0.2,2.8V106H188V81h6.7v3.4c1.1-1.2,2.5-2.3,3.9-3.1
		c1.4-0.6,3.1-0.9,4.7-0.9c1.7,0,3.4,0.3,5,1.2c1.4,0.8,2.3,2,2.9,3.4c0.2,0.3,0.3,0.8,0.3,1.1c0.2,0.5,0.2,0.9,0.3,1.4
		c0,0.6,0.2,1.2,0.2,1.7c0,0.6,0,1.6,0,2.5V106L205.4,106.2z"/>
	<polygon class="st0" points="233.1,106.7 223.2,92.8 223.2,106.2 216.5,106.2 216.5,69.4 223.2,69.4 223.2,91 223.8,91 232.7,80.7 
		237.6,82.9 229.3,91.9 239.2,104.5 	"/>
	<polygon class="st1" points="244.9,105.4 244.9,101.1 260.5,93.5 244.9,85.9 244.9,81.3 265,91.4 265,95.5 	"/>
	<path class="st0" d="M247,74.8c1.2,0,2.2,1.1,2.2,2.3c0,1.2-1.1,2.2-2.3,2.2s-2.2-0.9-2.2-2.2C244.6,75.9,245.6,74.8,247,74.8
		C246.8,74.8,246.8,74.8,247,74.8L247,74.8z M247,75.1c-1.1,0-1.9,0.9-1.9,1.9l0,0c0,0.9,0.8,1.9,1.9,1.9c0.9,0,1.9-0.8,1.9-1.9l0,0
		C248.8,76.1,247.9,75.3,247,75.1L247,75.1L247,75.1z M246.5,78.4H246v-2.5c0.3,0,0.5,0,0.8,0c0.3,0,0.5,0,0.8,0.2
		c0.2,0.2,0.3,0.3,0.2,0.5c0,0.3-0.2,0.6-0.5,0.6l0,0c0.3,0,0.5,0.3,0.5,0.6c0,0.2,0,0.5,0.2,0.6h-0.5c-0.2-0.2-0.2-0.5-0.2-0.6
		c0-0.3-0.2-0.5-0.5-0.5l0,0h-0.3V78.4z M246.5,77h0.3c0.3,0,0.6-0.2,0.6-0.5c0-0.3-0.2-0.3-0.6-0.3h-0.3
		C246.5,76.2,246.5,77,246.5,77z"/>
</g>
</svg>
