<svg width="32" height="32" viewBox="0 0 32 32" fill="none" xmlns="http://www.w3.org/2000/svg">
<path fill-rule="evenodd" clip-rule="evenodd" d="M11.6574 20.3437C11.2669 19.9532 10.6337 19.9532 10.2432 20.3437L2.05078 28.5361L2.05078 23.0005C2.05078 22.4482 1.60307 22.0005 1.05078 22.0005C0.498498 22.0005 0.0507812 22.4482 0.0507819 23.0005L0.0507812 30.9503C0.0507812 31.5026 0.498498 31.9503 1.05078 31.9503L9.00045 31.9503C9.55274 31.9503 10.0005 31.5026 10.0005 30.9503C10.0005 30.398 9.55274 29.9503 9.00045 29.9503L3.465 29.9503L11.6574 21.7579C12.0479 21.3674 12.0479 20.7342 11.6574 20.3437Z" fill="#00AEC7"/>
<path fill-rule="evenodd" clip-rule="evenodd" d="M20.3426 20.3437C20.7331 19.9532 21.3663 19.9532 21.7568 20.3437L29.9492 28.5361L29.9492 23.0005C29.9492 22.4482 30.3969 22.0005 30.9492 22.0005C31.5015 22.0005 31.9492 22.4482 31.9492 23.0005L31.9492 30.9503C31.9492 31.5026 31.5015 31.9503 30.9492 31.9503L22.9995 31.9503C22.4473 31.9503 21.9995 31.5026 21.9995 30.9503C21.9995 30.398 22.4473 29.9503 22.9995 29.9503L28.535 29.9503L20.3426 21.7579C19.9521 21.3674 19.9521 20.7342 20.3426 20.3437Z" fill="#00AEC7"/>
<path fill-rule="evenodd" clip-rule="evenodd" d="M20.3426 11.6563C20.7331 12.0468 21.3663 12.0468 21.7568 11.6563L29.9492 3.46394L29.9492 8.99948C29.9492 9.55177 30.3969 9.99949 30.9492 9.99949C31.5015 9.99949 31.9492 9.55177 31.9492 8.99948L31.9492 1.04972C31.9492 0.497439 31.5015 0.0497227 30.9492 0.0497227L22.9995 0.0497284C22.4473 0.0497281 21.9995 0.497445 21.9995 1.04973C21.9995 1.60201 22.4473 2.04973 22.9995 2.04973L28.535 2.04973L20.3426 10.2421C19.9521 10.6326 19.9521 11.2658 20.3426 11.6563Z" fill="#00AEC7"/>
<path fill-rule="evenodd" clip-rule="evenodd" d="M11.6574 11.6563C11.2669 12.0468 10.6337 12.0468 10.2432 11.6563L2.05078 3.46394L2.05078 8.99948C2.05078 9.55177 1.60307 9.99949 1.05078 9.99949C0.498498 9.99949 0.0507812 9.55177 0.0507819 8.99948L0.0507812 1.04972C0.0507812 0.497439 0.498498 0.0497227 1.05078 0.0497227L9.00045 0.0497284C9.55274 0.0497281 10.0005 0.497445 10.0005 1.04973C10.0005 1.60201 9.55274 2.04973 9.00045 2.04973L3.465 2.04973L11.6574 10.2421C12.0479 10.6326 12.0479 11.2658 11.6574 11.6563Z" fill="#00AEC7"/>
</svg>
