<svg width="486" height="472" viewBox="0 0 486 472" fill="none" xmlns="http://www.w3.org/2000/svg">
<mask id="path-1-outside-1_1036_6061" maskUnits="userSpaceOnUse" x="0" y="162" width="487" height="310" fill="black">
<rect fill="white" y="162" width="487" height="310"/>
<path fill-rule="evenodd" clip-rule="evenodd" d="M482.994 302.24C483.13 298.733 480.895 295.22 476.288 292.558L261.529 168.952C251.047 163.683 238.69 163.683 228.208 168.952L9.79959 292.558C5.29883 295.205 3.01765 298.646 3.0001 302.087H3V331.462H3.0001C2.98236 334.908 5.23411 338.354 9.79959 341.005L224.264 464.611C234.73 469.86 247.06 469.86 257.526 464.611L475.934 341.005C480.78 338.245 483.134 334.606 482.994 331.013V302.24Z"/>
</mask>
<path fill-rule="evenodd" clip-rule="evenodd" d="M482.994 302.24C483.13 298.733 480.895 295.22 476.288 292.558L261.529 168.952C251.047 163.683 238.69 163.683 228.208 168.952L9.79959 292.558C5.29883 295.205 3.01765 298.646 3.0001 302.087H3V331.462H3.0001C2.98236 334.908 5.23411 338.354 9.79959 341.005L224.264 464.611C234.73 469.86 247.06 469.86 257.526 464.611L475.934 341.005C480.78 338.245 483.134 334.606 482.994 331.013V302.24Z" fill="url(#paint0_linear_1036_6061)"/>
<path d="M476.288 292.558L477.789 289.96L477.784 289.958L476.288 292.558ZM482.994 302.24L479.996 302.124L479.994 302.182V302.24H482.994ZM261.529 168.952L263.025 166.352L262.952 166.31L262.876 166.272L261.529 168.952ZM228.208 168.952L226.861 166.272L226.795 166.305L226.731 166.341L228.208 168.952ZM9.79959 292.558L8.32199 289.947L8.30025 289.959L8.27872 289.972L9.79959 292.558ZM3.0001 302.087V305.087H5.98485L6.00006 302.102L3.0001 302.087ZM3 302.087V299.087H0V302.087H3ZM3 331.462H0V334.462H3V331.462ZM3.0001 331.462L6.00006 331.478L6.01559 328.462H3.0001V331.462ZM9.79959 341.005L8.29337 343.599L8.30154 343.604L9.79959 341.005ZM224.264 464.611L222.766 467.21L222.841 467.253L222.919 467.292L224.264 464.611ZM257.526 464.611L258.871 467.292L258.938 467.259L259.003 467.222L257.526 464.611ZM475.934 341.005L477.412 343.616L477.419 343.612L475.934 341.005ZM482.994 331.013H479.994V331.071L479.996 331.129L482.994 331.013ZM474.787 295.156C478.828 297.491 480.074 300.124 479.996 302.124L485.992 302.357C486.186 297.343 482.962 292.95 477.789 289.961L474.787 295.156ZM260.032 171.552L474.791 295.158L477.784 289.958L263.025 166.352L260.032 171.552ZM229.556 171.632C239.19 166.789 250.547 166.789 260.181 171.632L262.876 166.272C251.547 160.576 238.19 160.576 226.861 166.272L229.556 171.632ZM11.2772 295.169L229.686 171.563L226.731 166.341L8.32199 289.947L11.2772 295.169ZM6.00006 302.102C6.0103 300.095 7.35262 297.478 11.3205 295.144L8.27872 289.972C3.24505 292.933 0.0249963 297.197 0.000141382 302.072L6.00006 302.102ZM3 305.087H3.0001V299.087H3V305.087ZM6 331.462V302.087H0V331.462H6ZM3.0001 328.462H3V334.462H3.0001V328.462ZM11.3058 338.41C7.28809 336.078 5.9898 333.47 6.00006 331.478L0.000144243 331.447C-0.0250819 336.346 3.18013 340.631 8.29338 343.599L11.3058 338.41ZM225.762 462.012L11.2976 338.406L8.30154 343.604L222.766 467.21L225.762 462.012ZM256.181 461.929C246.561 466.754 235.228 466.754 225.609 461.929L222.919 467.292C234.231 472.966 247.559 472.966 258.871 467.292L256.181 461.929ZM474.457 338.394L256.048 462L259.003 467.222L477.412 343.616L474.457 338.394ZM479.996 331.129C480.076 333.186 478.749 335.949 474.45 338.398L477.419 343.612C482.812 340.54 486.191 336.027 485.992 330.897L479.996 331.129ZM479.994 302.24V331.013H485.994V302.24H479.994Z" fill="#474C59" mask="url(#path-1-outside-1_1036_6061)"/>
<path fill-rule="evenodd" clip-rule="evenodd" d="M482.994 331.013C483.134 334.606 480.78 338.245 475.934 341.005L257.526 464.611C247.06 469.86 234.73 469.86 224.264 464.611L9.79959 341.005C5.23411 338.354 2.98236 334.908 3.0001 331.462H3V302.087H22.5918V314.694L228.208 198.328C238.69 193.059 251.047 193.059 261.529 198.328L463.402 314.518V302.087H482.994V331.013Z" fill="url(#paint1_linear_1036_6061)"/>
<path d="M476.288 292.558C485.354 297.797 485.236 306.331 475.934 311.629L257.526 435.235C247.06 440.484 234.73 440.484 224.264 435.235L9.79959 311.629C0.674696 306.331 0.792437 297.855 9.79959 292.558L228.208 168.952C238.69 163.683 251.047 163.683 261.529 168.952L476.288 292.558Z" fill="url(#paint2_linear_1036_6061)"/>
<path opacity="0.7" d="M368.906 306.092L242.582 379.319L115.422 306.092L241.746 232.895L368.906 306.092Z" fill="url(#paint3_linear_1036_6061)"/>
<path d="M371.5 145.846V144.975L370.743 144.543L242.489 71.3904L241.739 70.9628L240.993 71.396L114.667 144.703L113.922 145.135L113.92 145.996L113.5 291.927L113.497 292.798L114.253 293.232L241.918 366.54L242.666 366.97L243.413 366.539L370.748 293.231L371.5 292.798V291.931V145.846Z" fill="url(#paint4_linear_1036_6061)" stroke="#474C59" stroke-width="3"/>
<path d="M368.906 145.964L242.582 219.191L115.422 145.964L241.746 72.7666L368.906 145.964Z" fill="url(#paint5_linear_1036_6061)"/>
<path d="M368.484 291.673L242.16 364.87V219.272L368.902 145.964L368.484 291.673Z" fill="url(#paint6_linear_1036_6061)"/>
<path d="M242.579 219.191L242.16 364.87L115 291.673L115.418 145.964L242.579 219.191Z" fill="url(#paint7_linear_1036_6061)"/>
<path d="M306.28 255.867L242.375 292.835V219.301L306.492 182.276L306.28 255.867Z" fill="#D3D3D3"/>
<path d="M242.583 219.26L242.371 292.835L178.043 255.867L178.255 182.276L242.583 219.26Z" fill="url(#paint8_linear_1036_6061)"/>
<path d="M306.483 256.159L242.578 293.142L178.25 256.159L242.155 219.19L306.483 256.159Z" fill="url(#paint9_linear_1036_6061)"/>
<path d="M178.148 34.5V256.437L242.566 293.322L306.246 256.437V221.104" stroke="#00AEC7" stroke-width="2" stroke-linecap="round" stroke-linejoin="round" stroke-dasharray="6 6"/>
<path fill-rule="evenodd" clip-rule="evenodd" d="M306.221 231.108C311.172 231.108 315.185 227.107 315.185 222.171C315.185 217.235 311.172 213.233 306.221 213.233C301.271 213.233 297.258 217.235 297.258 222.171C297.258 227.107 301.271 231.108 306.221 231.108Z" fill="url(#paint10_radial_1036_6061)"/>
<path fill-rule="evenodd" clip-rule="evenodd" d="M178.194 36.8748C183.144 36.8748 187.157 32.8734 187.157 27.9374C187.157 23.0014 183.144 19 178.194 19C173.244 19 169.23 23.0014 169.23 27.9374C169.23 32.8734 173.244 36.8748 178.194 36.8748Z" fill="url(#paint11_radial_1036_6061)"/>
<path d="M306.64 109.352L242.813 146.14L178.562 109.352L242.39 72.5781L306.64 109.352Z" fill="#80D7E3"/>
<path d="M306.433 182.553L242.605 219.327V146.18L306.644 109.351L306.433 182.553Z" fill="url(#paint12_linear_1036_6061)"/>
<path d="M242.821 146.139L242.61 219.327L178.359 182.553L178.571 109.351L242.821 146.139Z" fill="url(#paint13_linear_1036_6061)"/>
<defs>
<linearGradient id="paint0_linear_1036_6061" x1="41.7772" y1="169.098" x2="41.7772" y2="398.972" gradientUnits="userSpaceOnUse">
<stop stop-color="#F2F2F2"/>
<stop offset="1" stop-color="white"/>
</linearGradient>
<linearGradient id="paint1_linear_1036_6061" x1="483" y1="194.376" x2="3" y2="194.376" gradientUnits="userSpaceOnUse">
<stop stop-color="#E8E8E8"/>
<stop offset="1" stop-color="#9F9F9F"/>
</linearGradient>
<linearGradient id="paint2_linear_1036_6061" x1="41.7772" y1="169.098" x2="41.7772" y2="398.972" gradientUnits="userSpaceOnUse">
<stop stop-color="#F2F2F2"/>
<stop offset="1" stop-color="white"/>
</linearGradient>
<linearGradient id="paint3_linear_1036_6061" x1="368.906" y1="232.895" x2="115.422" y2="232.895" gradientUnits="userSpaceOnUse">
<stop stop-color="#DEDEDE"/>
<stop offset="1" stop-color="#8F8F8F"/>
</linearGradient>
<linearGradient id="paint4_linear_1036_6061" x1="129.67" y1="146.001" x2="129.67" y2="315.018" gradientUnits="userSpaceOnUse">
<stop stop-color="#E6E6E6"/>
<stop offset="1" stop-color="#E1E1E1"/>
</linearGradient>
<linearGradient id="paint5_linear_1036_6061" x1="152.739" y1="72.7666" x2="152.739" y2="176.079" gradientUnits="userSpaceOnUse">
<stop stop-color="#F3F3F3"/>
<stop offset="1" stop-color="white"/>
</linearGradient>
<linearGradient id="paint6_linear_1036_6061" x1="251.015" y1="320.429" x2="359.258" y2="341.31" gradientUnits="userSpaceOnUse">
<stop stop-color="#F8F8F8"/>
<stop offset="1" stop-color="#E0E0E0"/>
</linearGradient>
<linearGradient id="paint7_linear_1036_6061" x1="129.612" y1="145.964" x2="129.612" y2="314.725" gradientUnits="userSpaceOnUse">
<stop stop-color="#E6E6E6"/>
<stop offset="1" stop-color="#DCDCDC"/>
</linearGradient>
<linearGradient id="paint8_linear_1036_6061" x1="175.445" y1="294.636" x2="234.134" y2="284.65" gradientUnits="userSpaceOnUse">
<stop stop-color="#D0D0D0"/>
<stop offset="1" stop-color="#D1D1D1"/>
</linearGradient>
<linearGradient id="paint9_linear_1036_6061" x1="178.25" y1="219.19" x2="178.25" y2="293.142" gradientUnits="userSpaceOnUse">
<stop stop-color="#F3F3F3"/>
<stop offset="1" stop-color="white"/>
</linearGradient>
<radialGradient id="paint10_radial_1036_6061" cx="0" cy="0" r="1" gradientUnits="userSpaceOnUse" gradientTransform="translate(303.846 220.287) rotate(44.9344) scale(12.1994 12.1994)">
<stop stop-color="#E1F2F5"/>
<stop offset="1" stop-color="#0793A7"/>
</radialGradient>
<radialGradient id="paint11_radial_1036_6061" cx="0" cy="0" r="1" gradientUnits="userSpaceOnUse" gradientTransform="translate(175.819 26.0535) rotate(44.9344) scale(12.1994 12.1994)">
<stop stop-color="#E1F2F5"/>
<stop offset="1" stop-color="#0793A7"/>
</radialGradient>
<linearGradient id="paint12_linear_1036_6061" x1="315.258" y1="127.991" x2="249.188" y2="115.495" gradientUnits="userSpaceOnUse">
<stop stop-color="#0793A7"/>
<stop offset="1" stop-color="#00AEC7"/>
</linearGradient>
<linearGradient id="paint13_linear_1036_6061" x1="188.717" y1="236.467" x2="257.399" y2="223.53" gradientUnits="userSpaceOnUse">
<stop stop-color="#00AEC7"/>
<stop offset="1" stop-color="#0793A7"/>
</linearGradient>
</defs>
</svg>
