<svg width="32" height="32" viewBox="0 0 32 32" fill="none" xmlns="http://www.w3.org/2000/svg">
<path d="M18.5858 0H8C5.79086 0 4 1.79086 4 4V28C4 30.2091 5.79086 32 8 32H24C26.2091 32 28 30.2091 28 28V9.41421C28 8.88378 27.7893 8.37507 27.4142 8L20 0.585786C19.6249 0.210714 19.1162 0 18.5858 0ZM19 7V3L25 9H21C19.8954 9 19 8.10457 19 7ZM21.7071 15.7071L15.7071 21.7071C15.5196 21.8946 15.2652 22 15 22C14.7348 22 14.4804 21.8946 14.2929 21.7071L11.2929 18.7071C10.9024 18.3166 10.9024 17.6834 11.2929 17.2929C11.6834 16.9024 12.3166 16.9024 12.7071 17.2929L15 19.5858L20.2929 14.2929C20.6834 13.9024 21.3166 13.9024 21.7071 14.2929C22.0976 14.6834 22.0976 15.3166 21.7071 15.7071Z" fill="#00AEC7"/>
</svg>
