<svg width="486" height="531" viewBox="0 0 486 531" fill="none" xmlns="http://www.w3.org/2000/svg">
<mask id="path-1-outside-1_1036_6060" maskUnits="userSpaceOnUse" x="0" y="221" width="487" height="310" fill="black">
<rect fill="white" y="221" width="487" height="310"/>
<path fill-rule="evenodd" clip-rule="evenodd" d="M482.994 361.24C483.13 357.733 480.895 354.22 476.288 351.558L261.529 227.952C251.047 222.683 238.69 222.683 228.208 227.952L9.79959 351.558C5.29883 354.205 3.01765 357.646 3.0001 361.087H3V390.462H3.0001C2.98236 393.908 5.23411 397.354 9.79959 400.005L224.264 523.611C234.73 528.86 247.06 528.86 257.526 523.611L475.934 400.005C480.78 397.245 483.134 393.606 482.994 390.013V361.24Z"/>
</mask>
<path fill-rule="evenodd" clip-rule="evenodd" d="M482.994 361.24C483.13 357.733 480.895 354.22 476.288 351.558L261.529 227.952C251.047 222.683 238.69 222.683 228.208 227.952L9.79959 351.558C5.29883 354.205 3.01765 357.646 3.0001 361.087H3V390.462H3.0001C2.98236 393.908 5.23411 397.354 9.79959 400.005L224.264 523.611C234.73 528.86 247.06 528.86 257.526 523.611L475.934 400.005C480.78 397.245 483.134 393.606 482.994 390.013V361.24Z" fill="url(#paint0_linear_1036_6060)"/>
<path d="M476.288 351.558L477.789 348.96L477.784 348.958L476.288 351.558ZM482.994 361.24L479.996 361.124L479.994 361.182V361.24H482.994ZM261.529 227.952L263.025 225.352L262.952 225.31L262.876 225.272L261.529 227.952ZM228.208 227.952L226.861 225.272L226.795 225.305L226.731 225.341L228.208 227.952ZM9.79959 351.558L8.32199 348.947L8.30025 348.959L8.27872 348.972L9.79959 351.558ZM3.0001 361.087V364.087H5.98485L6.00006 361.102L3.0001 361.087ZM3 361.087V358.087H0V361.087H3ZM3 390.462H0V393.462H3V390.462ZM3.0001 390.462L6.00006 390.478L6.01559 387.462H3.0001V390.462ZM9.79959 400.005L8.29337 402.599L8.30154 402.604L9.79959 400.005ZM224.264 523.611L222.766 526.21L222.841 526.253L222.919 526.292L224.264 523.611ZM257.526 523.611L258.871 526.292L258.938 526.259L259.003 526.222L257.526 523.611ZM475.934 400.005L477.412 402.616L477.419 402.612L475.934 400.005ZM482.994 390.013H479.994V390.071L479.996 390.129L482.994 390.013ZM474.787 354.156C478.828 356.491 480.074 359.124 479.996 361.124L485.992 361.357C486.186 356.343 482.962 351.95 477.789 348.961L474.787 354.156ZM260.032 230.552L474.791 354.158L477.784 348.958L263.025 225.352L260.032 230.552ZM229.556 230.632C239.19 225.789 250.547 225.789 260.181 230.632L262.876 225.272C251.547 219.576 238.19 219.576 226.861 225.272L229.556 230.632ZM11.2772 354.169L229.686 230.563L226.731 225.341L8.32199 348.947L11.2772 354.169ZM6.00006 361.102C6.0103 359.095 7.35262 356.478 11.3205 354.144L8.27872 348.972C3.24505 351.933 0.0249963 356.197 0.000141382 361.072L6.00006 361.102ZM3 364.087H3.0001V358.087H3V364.087ZM6 390.462V361.087H0V390.462H6ZM3.0001 387.462H3V393.462H3.0001V387.462ZM11.3058 397.41C7.28809 395.078 5.9898 392.47 6.00006 390.478L0.000144243 390.447C-0.0250819 395.346 3.18013 399.631 8.29338 402.599L11.3058 397.41ZM225.762 521.012L11.2976 397.406L8.30154 402.604L222.766 526.21L225.762 521.012ZM256.181 520.929C246.561 525.754 235.228 525.754 225.609 520.929L222.919 526.292C234.231 531.966 247.559 531.966 258.871 526.292L256.181 520.929ZM474.457 397.394L256.048 521L259.003 526.222L477.412 402.616L474.457 397.394ZM479.996 390.129C480.076 392.186 478.749 394.949 474.45 397.398L477.419 402.612C482.812 399.54 486.191 395.027 485.992 389.897L479.996 390.129ZM479.994 361.24V390.013H485.994V361.24H479.994Z" fill="#474C59" mask="url(#path-1-outside-1_1036_6060)"/>
<path fill-rule="evenodd" clip-rule="evenodd" d="M482.994 390.013C483.134 393.606 480.78 397.245 475.934 400.005L257.526 523.611C247.06 528.86 234.73 528.86 224.264 523.611L9.79959 400.005C5.23411 397.354 2.98236 393.908 3.0001 390.462H3V361.087H22.5918V373.694L228.208 257.328C238.69 252.059 251.047 252.059 261.529 257.328L463.402 373.518V361.087H482.994V390.013Z" fill="url(#paint1_linear_1036_6060)"/>
<path d="M476.288 351.558C485.354 356.797 485.236 365.331 475.934 370.629L257.526 494.235C247.06 499.484 234.73 499.484 224.264 494.235L9.79959 370.629C0.674696 365.331 0.792437 356.855 9.79959 351.558L228.208 227.952C238.69 222.683 251.047 222.683 261.529 227.952L476.288 351.558Z" fill="url(#paint2_linear_1036_6060)"/>
<path opacity="0.7" d="M398.998 366.173L243.273 456.444L86.5156 366.173L242.241 275.939L398.998 366.173Z" fill="url(#paint3_linear_1036_6060)"/>
<path d="M399.987 254.845V253.98L399.238 253.547L243.205 163.322L242.455 162.888L241.704 163.321L85.3817 253.595L84.633 254.027L84.6318 254.891L84.5 347.64L84.4988 348.506L85.2479 348.94L241.702 439.608L242.454 440.043L243.205 439.608L399.238 349.362L399.987 348.929V348.064V254.845Z" fill="url(#paint4_linear_1036_6060)" stroke="#474C59" stroke-width="3"/>
<path d="M398.998 255.999L243.273 346.269L86.5156 255.999L242.241 165.765L398.998 255.999Z" fill="url(#paint5_linear_1036_6060)"/>
<path d="M398.484 348.399L242.758 438.633V346.369L398.999 255.998L398.484 348.399Z" fill="url(#paint6_linear_1036_6060)"/>
<path d="M242.757 438.633L86 348.399L86.5156 255.998L243.273 346.269L242.757 438.633Z" fill="url(#paint7_linear_1036_6060)"/>
<path d="M163.844 155.819V300.371L243.255 345.84L321.756 300.371V91.5498" stroke="#00AEC7" stroke-width="2" stroke-linecap="round" stroke-linejoin="round" stroke-dasharray="6 6"/>
<path fill-rule="evenodd" clip-rule="evenodd" d="M321.729 94.6992C327.832 94.6992 332.779 89.7665 332.779 83.6816C332.779 77.5968 327.832 72.6641 321.729 72.6641C315.627 72.6641 310.68 77.5968 310.68 83.6816C310.68 89.7665 315.627 94.6992 321.729 94.6992Z" fill="url(#paint8_radial_1036_6060)"/>
<path fill-rule="evenodd" clip-rule="evenodd" d="M163.901 172.739C170.004 172.739 174.951 167.807 174.951 161.722C174.951 155.637 170.004 150.704 163.901 150.704C157.799 150.704 152.852 155.637 152.852 161.722C152.852 167.807 157.799 172.739 163.901 172.739Z" fill="url(#paint9_radial_1036_6060)"/>
<path d="M284.014 93.8543V92.9832L283.257 92.5515L243.383 69.7997L242.633 69.3719L241.886 69.8053L202.612 92.6052L201.867 93.0373L201.865 93.8981L201.734 139.285L201.732 140.156L202.487 140.59L242.178 163.39L242.926 163.82L243.674 163.389L283.262 140.589L284.014 140.156V139.289V93.8543Z" fill="url(#paint10_linear_1036_6060)" stroke="#474C59" stroke-width="3"/>
<path d="M282.414 93.8002L242.984 116.61L203.293 93.8002L242.723 71L282.414 93.8002Z" fill="url(#paint11_linear_1036_6060)"/>
<path d="M282.285 139.186L242.855 161.986V116.634L282.416 93.7988L282.285 139.186Z" fill="url(#paint12_linear_1036_6060)"/>
<path d="M242.982 116.608L242.851 161.986L203.16 139.186L203.291 93.7988L242.982 116.608Z" fill="url(#paint13_linear_1036_6060)"/>
<path d="M322.148 209.954L243.255 255.426L163.84 209.954L242.733 164.501L322.148 209.954Z" fill="#80D7E3"/>
<path d="M321.897 300.433L243.004 345.886V255.474L322.158 209.952L321.897 300.433Z" fill="url(#paint14_linear_1036_6060)"/>
<path d="M243.27 255.424L243.009 345.886L163.594 300.433L163.855 209.952L243.27 255.424Z" fill="url(#paint15_linear_1036_6060)"/>
<defs>
<linearGradient id="paint0_linear_1036_6060" x1="41.7772" y1="228.098" x2="41.7772" y2="457.972" gradientUnits="userSpaceOnUse">
<stop stop-color="#F2F2F2"/>
<stop offset="1" stop-color="white"/>
</linearGradient>
<linearGradient id="paint1_linear_1036_6060" x1="483" y1="253.376" x2="3" y2="253.376" gradientUnits="userSpaceOnUse">
<stop stop-color="#E8E8E8"/>
<stop offset="1" stop-color="#9F9F9F"/>
</linearGradient>
<linearGradient id="paint2_linear_1036_6060" x1="41.7772" y1="228.098" x2="41.7772" y2="457.972" gradientUnits="userSpaceOnUse">
<stop stop-color="#F2F2F2"/>
<stop offset="1" stop-color="white"/>
</linearGradient>
<linearGradient id="paint3_linear_1036_6060" x1="398.998" y1="275.939" x2="86.5156" y2="275.939" gradientUnits="userSpaceOnUse">
<stop stop-color="#E0E0E0"/>
<stop offset="1" stop-color="#8D8D8D"/>
</linearGradient>
<linearGradient id="paint4_linear_1036_6060" x1="90.561" y1="254.894" x2="90.561" y2="307.461" gradientUnits="userSpaceOnUse">
<stop stop-color="#E6E6E6"/>
<stop offset="1" stop-color="#E1E1E1"/>
</linearGradient>
<linearGradient id="paint5_linear_1036_6060" x1="132.518" y1="165.765" x2="132.518" y2="293.123" gradientUnits="userSpaceOnUse">
<stop stop-color="#F0F0F0"/>
<stop offset="1" stop-color="white"/>
</linearGradient>
<linearGradient id="paint6_linear_1036_6060" x1="253.674" y1="401.555" x2="381.676" y2="438.04" gradientUnits="userSpaceOnUse">
<stop stop-color="#FAFAFA"/>
<stop offset="1" stop-color="#EEEEEE"/>
</linearGradient>
<linearGradient id="paint7_linear_1036_6060" x1="104.013" y1="255.998" x2="104.013" y2="396.796" gradientUnits="userSpaceOnUse">
<stop stop-color="#E6E6E6"/>
<stop offset="1" stop-color="#DADADA"/>
</linearGradient>
<radialGradient id="paint8_radial_1036_6060" cx="0" cy="0" r="1" gradientUnits="userSpaceOnUse" gradientTransform="translate(318.802 81.3592) rotate(44.9344) scale(15.0388 15.0388)">
<stop stop-color="#E1F2F5"/>
<stop offset="1" stop-color="#0793A7"/>
</radialGradient>
<radialGradient id="paint9_radial_1036_6060" cx="0" cy="0" r="1" gradientUnits="userSpaceOnUse" gradientTransform="translate(160.974 159.399) rotate(44.9344) scale(15.0388 15.0388)">
<stop stop-color="#E1F2F5"/>
<stop offset="1" stop-color="#0793A7"/>
</radialGradient>
<linearGradient id="paint10_linear_1036_6060" x1="207.795" y1="93.9024" x2="207.795" y2="146.47" gradientUnits="userSpaceOnUse">
<stop stop-color="#E6E6E6"/>
<stop offset="1" stop-color="#E1E1E1"/>
</linearGradient>
<linearGradient id="paint11_linear_1036_6060" x1="214.941" y1="71" x2="214.941" y2="103.181" gradientUnits="userSpaceOnUse">
<stop stop-color="#F7F7F7"/>
<stop offset="1" stop-color="white"/>
</linearGradient>
<linearGradient id="paint12_linear_1036_6060" x1="245.619" y1="148.143" x2="279.4" y2="154.673" gradientUnits="userSpaceOnUse">
<stop stop-color="#FDFDFD"/>
<stop offset="1" stop-color="#E6E6E6"/>
</linearGradient>
<linearGradient id="paint13_linear_1036_6060" x1="207.721" y1="93.7988" x2="207.721" y2="146.366" gradientUnits="userSpaceOnUse">
<stop stop-color="#E6E6E6"/>
<stop offset="1" stop-color="#E1E1E1"/>
</linearGradient>
<linearGradient id="paint14_linear_1036_6060" x1="332.805" y1="232.992" x2="251.14" y2="217.547" gradientUnits="userSpaceOnUse">
<stop stop-color="#0793A7"/>
<stop offset="1" stop-color="#00AEC7"/>
</linearGradient>
<linearGradient id="paint15_linear_1036_6060" x1="176.396" y1="367.072" x2="261.289" y2="351.082" gradientUnits="userSpaceOnUse">
<stop stop-color="#00AEC7"/>
<stop offset="1" stop-color="#0793A7"/>
</linearGradient>
</defs>
</svg>
