<svg width="32" height="32" viewBox="0 0 32 32" fill="none" xmlns="http://www.w3.org/2000/svg">
<path d="M18.8093 2.10077C17.9837 -0.700258 14.0163 -0.700257 13.1907 2.10077L12.9905 2.78006C12.4629 4.5698 10.4187 5.41655 8.78016 4.52402L8.15826 4.18528C5.59385 2.78843 2.78843 5.59385 4.18528 8.15826L4.52403 8.78016C5.41655 10.4187 4.5698 12.4629 2.78006 12.9905L2.10077 13.1907C-0.700258 14.0163 -0.700257 17.9837 2.10077 18.8093L2.78006 19.0095C4.5698 19.5371 5.41655 21.5813 4.52402 23.2198L4.18528 23.8417C2.78843 26.4062 5.59384 29.2116 8.15826 27.8147L8.78016 27.476C10.4187 26.5835 12.4629 27.4302 12.9905 29.2199L13.1907 29.8992C14.0163 32.7003 17.9837 32.7003 18.8093 29.8992L19.0095 29.2199C19.5371 27.4302 21.5813 26.5835 23.2198 27.476L23.8417 27.8147C26.4062 29.2116 29.2116 26.4062 27.8147 23.8417L27.476 23.2198C26.5835 21.5813 27.4302 19.5371 29.2199 19.0095L29.8992 18.8093C32.7003 17.9837 32.7003 14.0163 29.8992 13.1907L29.2199 12.9905C27.4302 12.4629 26.5835 10.4187 27.476 8.78016L27.8147 8.15826C29.2116 5.59384 26.4062 2.78844 23.8417 4.18528L23.2198 4.52403C21.5813 5.41655 19.5371 4.5698 19.0095 2.78006L18.8093 2.10077ZM16 21.8576C12.7649 21.8576 10.1424 19.2351 10.1424 16C10.1424 12.7649 12.7649 10.1424 16 10.1424C19.2351 10.1424 21.8576 12.7649 21.8576 16C21.8576 19.2351 19.2351 21.8576 16 21.8576Z" fill="#00AEC7"/>
</svg>
