<svg width="486" height="442" viewBox="0 0 486 442" fill="none" xmlns="http://www.w3.org/2000/svg">
<mask id="path-1-outside-1_1036_6059" maskUnits="userSpaceOnUse" x="0" y="132" width="487" height="310" fill="black">
<rect fill="white" y="132" width="487" height="310"/>
<path fill-rule="evenodd" clip-rule="evenodd" d="M482.994 272.24C483.13 268.733 480.895 265.22 476.288 262.558L261.529 138.952C251.047 133.683 238.69 133.683 228.208 138.952L9.79959 262.558C5.29883 265.205 3.01765 268.646 3.0001 272.087H3V301.462H3.0001C2.98236 304.908 5.23411 308.354 9.79959 311.005L224.264 434.611C234.73 439.86 247.06 439.86 257.526 434.611L475.934 311.005C480.78 308.245 483.134 304.606 482.994 301.013V272.24Z"/>
</mask>
<path fill-rule="evenodd" clip-rule="evenodd" d="M482.994 272.24C483.13 268.733 480.895 265.22 476.288 262.558L261.529 138.952C251.047 133.683 238.69 133.683 228.208 138.952L9.79959 262.558C5.29883 265.205 3.01765 268.646 3.0001 272.087H3V301.462H3.0001C2.98236 304.908 5.23411 308.354 9.79959 311.005L224.264 434.611C234.73 439.86 247.06 439.86 257.526 434.611L475.934 311.005C480.78 308.245 483.134 304.606 482.994 301.013V272.24Z" fill="url(#paint0_linear_1036_6059)"/>
<path d="M476.288 262.558L477.789 259.96L477.784 259.958L476.288 262.558ZM482.994 272.24L479.996 272.124L479.994 272.182V272.24H482.994ZM261.529 138.952L263.025 136.352L262.952 136.31L262.876 136.272L261.529 138.952ZM228.208 138.952L226.861 136.272L226.795 136.305L226.731 136.341L228.208 138.952ZM9.79959 262.558L8.32199 259.947L8.30025 259.959L8.27872 259.972L9.79959 262.558ZM3.0001 272.087V275.087H5.98485L6.00006 272.102L3.0001 272.087ZM3 272.087V269.087H0V272.087H3ZM3 301.462H0V304.462H3V301.462ZM3.0001 301.462L6.00006 301.478L6.01559 298.462H3.0001V301.462ZM9.79959 311.005L8.29337 313.599L8.30154 313.604L9.79959 311.005ZM224.264 434.611L222.766 437.21L222.841 437.253L222.919 437.292L224.264 434.611ZM257.526 434.611L258.871 437.292L258.938 437.259L259.003 437.222L257.526 434.611ZM475.934 311.005L477.412 313.616L477.419 313.612L475.934 311.005ZM482.994 301.013H479.994V301.071L479.996 301.129L482.994 301.013ZM474.787 265.156C478.828 267.491 480.074 270.124 479.996 272.124L485.992 272.357C486.186 267.343 482.962 262.95 477.789 259.961L474.787 265.156ZM260.032 141.552L474.791 265.158L477.784 259.958L263.025 136.352L260.032 141.552ZM229.556 141.632C239.19 136.789 250.547 136.789 260.181 141.632L262.876 136.272C251.547 130.576 238.19 130.576 226.861 136.272L229.556 141.632ZM11.2772 265.169L229.686 141.563L226.731 136.341L8.32199 259.947L11.2772 265.169ZM6.00006 272.102C6.0103 270.095 7.35262 267.478 11.3205 265.144L8.27872 259.972C3.24505 262.933 0.0249963 267.197 0.000141382 272.072L6.00006 272.102ZM3 275.087H3.0001V269.087H3V275.087ZM6 301.462V272.087H0V301.462H6ZM3.0001 298.462H3V304.462H3.0001V298.462ZM11.3058 308.41C7.28809 306.078 5.9898 303.47 6.00006 301.478L0.000144243 301.447C-0.0250819 306.346 3.18013 310.631 8.29338 313.599L11.3058 308.41ZM225.762 432.012L11.2976 308.406L8.30154 313.604L222.766 437.21L225.762 432.012ZM256.181 431.929C246.561 436.754 235.228 436.754 225.609 431.929L222.919 437.292C234.231 442.966 247.559 442.966 258.871 437.292L256.181 431.929ZM474.457 308.394L256.048 432L259.003 437.222L477.412 313.616L474.457 308.394ZM479.996 301.129C480.076 303.186 478.749 305.949 474.45 308.398L477.419 313.612C482.812 310.54 486.191 306.027 485.992 300.897L479.996 301.129ZM479.994 272.24V301.013H485.994V272.24H479.994Z" fill="#474C59" mask="url(#path-1-outside-1_1036_6059)"/>
<path fill-rule="evenodd" clip-rule="evenodd" d="M482.994 301.013C483.134 304.606 480.78 308.245 475.934 311.005L257.526 434.611C247.06 439.86 234.73 439.86 224.264 434.611L9.79959 311.005C5.23411 308.354 2.98236 304.908 3.0001 301.462H3V272.087H22.5918V284.694L228.208 168.328C238.69 163.059 251.047 163.059 261.529 168.328L463.402 284.518V272.087H482.994V301.013Z" fill="url(#paint1_linear_1036_6059)"/>
<path d="M476.288 262.558C485.354 267.797 485.236 276.331 475.934 281.629L257.526 405.235C247.06 410.484 234.73 410.484 224.264 405.235L9.79959 281.629C0.674696 276.331 0.792437 267.855 9.79959 262.558L228.208 138.952C238.69 133.683 251.047 133.683 261.529 138.952L476.288 262.558Z" fill="url(#paint2_linear_1036_6059)"/>
<path opacity="0.7" d="M389.016 279.815C391.017 280.967 391.022 283.853 389.024 285.011L244.756 368.64C243.828 369.178 242.683 369.179 241.754 368.644L96.5005 284.998C94.4998 283.846 94.4959 280.96 96.4936 279.803L240.762 196.208C241.69 195.67 242.833 195.668 243.763 196.203L389.016 279.815Z" fill="url(#paint3_linear_1036_6059)"/>
<path d="M-nan -nanL319.278 223.014L244.762 266.138C243.835 266.675 242.692 266.676 241.764 266.142L171.256 225.606C169.253 224.455 169.249 221.566 171.249 220.409L241.263 179.906C242.19 179.37 243.332 179.368 244.26 179.902L319.278 223.014L-nan -nanZ" fill="url(#paint4_linear_1036_6059)"/>
<mask id="path-7-outside-2_1036_6059" maskUnits="userSpaceOnUse" x="89" y="154.566" width="309" height="197" fill="black">
<rect fill="white" x="89" y="154.566" width="309" height="197"/>
<path fill-rule="evenodd" clip-rule="evenodd" d="M393.995 243.955C394.1 241.735 392.694 239.507 389.777 237.822L254.658 160.053C248.063 156.738 240.288 156.738 233.694 160.053L96.2781 237.822C93.4469 239.487 92.0117 241.651 92.0001 243.816H92V262.298H92.0001C91.9888 264.466 93.4055 266.634 96.2781 268.302L231.212 346.071C237.797 349.373 245.554 349.373 252.139 346.071L389.555 268.302C392.622 266.555 394.102 264.248 393.995 261.973V243.955Z"/>
</mask>
<path fill-rule="evenodd" clip-rule="evenodd" d="M393.995 243.955C394.1 241.735 392.694 239.507 389.777 237.822L254.658 160.053C248.063 156.738 240.288 156.738 233.694 160.053L96.2781 237.822C93.4469 239.487 92.0117 241.651 92.0001 243.816H92V262.298H92.0001C91.9888 264.466 93.4055 266.634 96.2781 268.302L231.212 346.071C237.797 349.373 245.554 349.373 252.139 346.071L389.555 268.302C392.622 266.555 394.102 264.248 393.995 261.973V243.955Z" fill="url(#paint5_linear_1036_6059)"/>
<path d="M389.777 237.822L391.278 235.224L391.273 235.222L389.777 237.822ZM393.995 243.955L390.998 243.813L390.995 243.884V243.955H393.995ZM254.658 160.053L256.154 157.453L256.081 157.41L256.005 157.372L254.658 160.053ZM233.694 160.053L232.346 157.372L232.28 157.406L232.216 157.442L233.694 160.053ZM96.2781 237.822L94.8005 235.211L94.7787 235.223L94.7572 235.236L96.2781 237.822ZM92.0001 243.816V246.816H94.9841L95 243.832L92.0001 243.816ZM92 243.816V240.816H89V243.816H92ZM92 262.298H89V265.298H92V262.298ZM92.0001 262.298L95 262.313L95.0158 259.298H92.0001V262.298ZM96.2781 268.302L94.7719 270.896L94.78 270.901L96.2781 268.302ZM231.212 346.071L229.714 348.67L229.789 348.713L229.867 348.752L231.212 346.071ZM252.139 346.071L253.484 348.752L253.551 348.719L253.617 348.682L252.139 346.071ZM389.555 268.302L391.032 270.913L391.039 270.909L389.555 268.302ZM393.995 261.973H390.995V262.044L390.998 262.115L393.995 261.973ZM388.276 240.419C390.623 241.776 391.031 243.113 390.998 243.813L396.991 244.097C397.168 240.357 394.764 237.239 391.278 235.224L388.276 240.419ZM253.161 162.653L388.28 240.422L391.273 235.222L256.154 157.453L253.161 162.653ZM235.041 162.733C240.788 159.844 247.563 159.844 253.31 162.733L256.005 157.372C248.563 153.631 239.789 153.631 232.346 157.372L235.041 162.733ZM97.7557 240.433L235.171 162.664L232.216 157.442L94.8005 235.211L97.7557 240.433ZM95 243.832C95.0039 243.1 95.5006 241.759 97.7989 240.408L94.7572 235.236C91.3932 237.214 89.0194 240.202 89.0001 243.8L95 243.832ZM92 246.816H92.0001V240.816H92V246.816ZM95 262.298V243.816H89V262.298H95ZM92.0001 259.298H92V265.298H92.0001V259.298ZM97.7843 265.707C95.4595 264.358 94.9963 263.028 95 262.313L89.0001 262.282C88.9812 265.903 91.3515 268.911 94.7719 270.896L97.7843 265.707ZM232.71 343.471L97.7761 265.703L94.78 270.901L229.714 348.67L232.71 343.471ZM250.794 343.389C245.056 346.267 238.295 346.267 232.557 343.389L229.867 348.752C237.298 352.48 246.053 352.48 253.484 348.752L250.794 343.389ZM388.077 265.691L250.661 343.46L253.617 348.682L391.032 270.913L388.077 265.691ZM390.998 262.115C391.032 262.84 390.588 264.261 388.07 265.695L391.039 270.909C394.657 268.848 397.172 265.656 396.991 261.832L390.998 262.115ZM390.995 243.955V261.973H396.995V243.955H390.995Z" fill="#474C59" mask="url(#path-7-outside-2_1036_6059)"/>
<path fill-rule="evenodd" clip-rule="evenodd" d="M393.995 261.973C394.102 264.248 392.622 266.555 389.555 268.302L252.139 346.071C245.554 349.373 237.797 349.373 231.212 346.071L96.2781 268.302C93.4055 266.634 91.9888 264.466 92.0001 262.298H92V243.816H104.327V251.748L233.694 178.534C240.288 175.219 248.063 175.219 254.658 178.534L381.668 251.636V243.815H393.995V261.973Z" fill="url(#paint6_linear_1036_6059)"/>
<path d="M389.777 237.822C395.481 241.118 395.407 246.487 389.555 249.82L252.139 327.589C245.554 330.892 237.797 330.892 231.212 327.589L96.2781 249.82C90.537 246.487 90.6111 241.155 96.2781 237.822L233.694 160.053C240.288 156.738 248.063 156.738 254.658 160.053L389.777 237.822Z" fill="url(#paint7_linear_1036_6059)"/>
<g filter="url(#filter0_i_1036_6059)">
<path d="M318.563 248.378L242.549 292.369L166.031 248.378L242.046 204.404L318.563 248.378Z" fill="url(#paint8_linear_1036_6059)"/>
</g>
<path d="M318.501 46.9126V46.0415L317.744 45.6098L242.874 2.88955L242.124 2.4617L241.377 2.89513L167.633 45.7057L166.888 46.1379L166.886 46.9986L166.641 132.22L166.638 133.091L167.393 133.525L241.92 176.336L242.668 176.766L243.415 176.336L317.75 133.524L318.501 133.092V132.225V46.9126Z" fill="url(#paint9_linear_1036_6059)" stroke="#474C59" stroke-width="3"/>
<path d="M316.812 46.8112L242.776 89.6398L168.25 46.8112L242.286 4L316.812 46.8112Z" fill="url(#paint10_linear_1036_6059)"/>
<path d="M316.567 132.032L242.531 174.843V89.6868L316.812 46.8105L316.567 132.032Z" fill="url(#paint11_linear_1036_6059)"/>
<path d="M242.771 89.6392L242.526 174.843L168 132.032L168.245 46.8105L242.771 89.6392Z" fill="url(#paint12_linear_1036_6059)"/>
<path d="M281.551 67.4429L242.457 89.9751L203.105 67.4429L242.199 44.9199L281.551 67.4429Z" fill="#80D7E3"/>
<path d="M281.421 112.278L242.328 134.801V89.9996L281.551 67.4424L281.421 112.278Z" fill="url(#paint13_linear_1036_6059)"/>
<path d="M242.462 89.9745L242.332 134.801L202.98 112.278L203.11 67.4424L242.462 89.9745Z" fill="url(#paint14_linear_1036_6059)"/>
<path fill-rule="evenodd" clip-rule="evenodd" d="M166.609 248.504L242.477 292.681L317.395 248.504V135.236L242.477 178.559L166.609 135.236V248.504Z" stroke="#00AEC7" stroke-width="2" stroke-linecap="round" stroke-linejoin="round" stroke-dasharray="6 6"/>
<path fill-rule="evenodd" clip-rule="evenodd" d="M318.15 191.444C324.039 191.444 328.812 186.684 328.812 180.813C328.812 174.941 324.039 170.182 318.15 170.182C312.262 170.182 307.488 174.941 307.488 180.813C307.488 186.684 312.262 191.444 318.15 191.444Z" fill="url(#paint15_radial_1036_6059)"/>
<path fill-rule="evenodd" clip-rule="evenodd" d="M167.541 222.45C173.429 222.45 178.203 217.691 178.203 211.819C178.203 205.948 173.429 201.188 167.541 201.188C161.652 201.188 156.879 205.948 156.879 211.819C156.879 217.691 161.652 222.45 167.541 222.45Z" fill="url(#paint16_radial_1036_6059)"/>
<path d="M242.143 177.351L242.113 287.801" stroke="#00AEC7" stroke-width="2" stroke-linecap="round" stroke-linejoin="round" stroke-dasharray="6 6"/>
<path fill-rule="evenodd" clip-rule="evenodd" d="M241.955 302.183C247.843 302.183 252.617 297.423 252.617 291.552C252.617 285.681 247.843 280.921 241.955 280.921C236.066 280.921 231.293 285.681 231.293 291.552C231.293 297.423 236.066 302.183 241.955 302.183Z" fill="url(#paint17_radial_1036_6059)"/>
<defs>
<filter id="filter0_i_1036_6059" x="166.031" y="204.404" width="152.531" height="87.9648" filterUnits="userSpaceOnUse" color-interpolation-filters="sRGB">
<feFlood flood-opacity="0" result="BackgroundImageFix"/>
<feBlend mode="normal" in="SourceGraphic" in2="BackgroundImageFix" result="shape"/>
<feColorMatrix in="SourceAlpha" type="matrix" values="0 0 0 0 0 0 0 0 0 0 0 0 0 0 0 0 0 0 127 0" result="hardAlpha"/>
<feOffset dy="8.16327"/>
<feComposite in2="hardAlpha" operator="arithmetic" k2="-1" k3="1"/>
<feColorMatrix type="matrix" values="0 0 0 0 0.720833 0 0 0 0 0.720833 0 0 0 0 0.720833 0 0 0 1 0"/>
<feBlend mode="normal" in2="shape" result="effect1_innerShadow_1036_6059"/>
</filter>
<linearGradient id="paint0_linear_1036_6059" x1="41.7772" y1="139.098" x2="41.7772" y2="368.972" gradientUnits="userSpaceOnUse">
<stop stop-color="#F2F2F2"/>
<stop offset="1" stop-color="white"/>
</linearGradient>
<linearGradient id="paint1_linear_1036_6059" x1="483" y1="164.376" x2="3" y2="164.376" gradientUnits="userSpaceOnUse">
<stop stop-color="#E8E8E8"/>
<stop offset="1" stop-color="#9F9F9F"/>
</linearGradient>
<linearGradient id="paint2_linear_1036_6059" x1="41.7772" y1="139.098" x2="41.7772" y2="368.972" gradientUnits="userSpaceOnUse">
<stop stop-color="#F2F2F2"/>
<stop offset="1" stop-color="white"/>
</linearGradient>
<linearGradient id="paint3_linear_1036_6059" x1="393.517" y1="195.339" x2="92" y2="195.339" gradientUnits="userSpaceOnUse">
<stop stop-color="#DFDFDF"/>
<stop offset="1" stop-color="#8A8A8A"/>
</linearGradient>
<linearGradient id="paint4_linear_1036_6059" x1="166.746" y1="179.04" x2="166.746" y2="267.005" gradientUnits="userSpaceOnUse">
<stop stop-color="#FBFBFB"/>
<stop offset="1" stop-color="#FEFEFE"/>
</linearGradient>
<linearGradient id="paint5_linear_1036_6059" x1="116.397" y1="160.145" x2="116.397" y2="304.773" gradientUnits="userSpaceOnUse">
<stop stop-color="#F2F2F2"/>
<stop offset="1" stop-color="white"/>
</linearGradient>
<linearGradient id="paint6_linear_1036_6059" x1="394" y1="176.048" x2="92" y2="176.048" gradientUnits="userSpaceOnUse">
<stop stop-color="#E8E8E8"/>
<stop offset="1" stop-color="#9F9F9F"/>
</linearGradient>
<linearGradient id="paint7_linear_1036_6059" x1="116.397" y1="160.145" x2="116.397" y2="304.774" gradientUnits="userSpaceOnUse">
<stop stop-color="#F2F2F2"/>
<stop offset="1" stop-color="white"/>
</linearGradient>
<linearGradient id="paint8_linear_1036_6059" x1="351.212" y1="310.588" x2="351.212" y2="184.967" gradientUnits="userSpaceOnUse">
<stop stop-color="#F5F5F5"/>
<stop offset="1" stop-color="white"/>
</linearGradient>
<linearGradient id="paint9_linear_1036_6059" x1="176.705" y1="47.003" x2="176.705" y2="145.707" gradientUnits="userSpaceOnUse">
<stop stop-color="#E6E6E6"/>
<stop offset="1" stop-color="#E1E1E1"/>
</linearGradient>
<linearGradient id="paint10_linear_1036_6059" x1="190.121" y1="4" x2="190.121" y2="64.4245" gradientUnits="userSpaceOnUse">
<stop stop-color="#F7F7F7"/>
<stop offset="1" stop-color="white"/>
</linearGradient>
<linearGradient id="paint11_linear_1036_6059" x1="247.721" y1="148.851" x2="311.15" y2="161.112" gradientUnits="userSpaceOnUse">
<stop stop-color="#FDFDFD"/>
<stop offset="1" stop-color="#E6E6E6"/>
</linearGradient>
<linearGradient id="paint12_linear_1036_6059" x1="176.564" y1="46.8105" x2="176.564" y2="145.515" gradientUnits="userSpaceOnUse">
<stop stop-color="#E6E6E6"/>
<stop offset="1" stop-color="#E1E1E1"/>
</linearGradient>
<linearGradient id="paint13_linear_1036_6059" x1="286.826" y1="78.8593" x2="246.36" y2="71.2058" gradientUnits="userSpaceOnUse">
<stop stop-color="#0793A7"/>
<stop offset="1" stop-color="#00AEC7"/>
</linearGradient>
<linearGradient id="paint14_linear_1036_6059" x1="209.324" y1="145.299" x2="251.39" y2="137.375" gradientUnits="userSpaceOnUse">
<stop stop-color="#00AEC7"/>
<stop offset="1" stop-color="#0793A7"/>
</linearGradient>
<radialGradient id="paint15_radial_1036_6059" cx="0" cy="0" r="1" gradientUnits="userSpaceOnUse" gradientTransform="translate(315.325 178.572) rotate(44.9344) scale(14.5111 14.5111)">
<stop stop-color="#E1F2F5"/>
<stop offset="1" stop-color="#0793A7"/>
</radialGradient>
<radialGradient id="paint16_radial_1036_6059" cx="0" cy="0" r="1" gradientUnits="userSpaceOnUse" gradientTransform="translate(164.716 209.579) rotate(44.9344) scale(14.5111 14.5111)">
<stop stop-color="#E1F2F5"/>
<stop offset="1" stop-color="#0793A7"/>
</radialGradient>
<radialGradient id="paint17_radial_1036_6059" cx="0" cy="0" r="1" gradientUnits="userSpaceOnUse" gradientTransform="translate(239.13 289.311) rotate(44.9344) scale(14.5111 14.5111)">
<stop stop-color="#E1F2F5"/>
<stop offset="1" stop-color="#0793A7"/>
</radialGradient>
</defs>
</svg>
