<svg width="32" height="32" viewBox="0 0 32 32" fill="none" xmlns="http://www.w3.org/2000/svg">
<path d="M16 4C16.5523 4 17 4.44772 17 5V8C17 8.55228 16.5523 9 16 9C15.4477 9 15 8.55228 15 8V5C15 4.44772 15.4477 4 16 4Z" fill="#00AEC7"/>
<path d="M7.46447 7.46446C7.85499 7.07394 8.48816 7.07394 8.87868 7.46447L10.7071 9.29289C11.0976 9.68342 11.0976 10.3166 10.7071 10.7071C10.3166 11.0976 9.68342 11.0976 9.29289 10.7071L7.46447 8.87868C7.07394 8.48815 7.07394 7.85499 7.46447 7.46446Z" fill="#00AEC7"/>
<path d="M4 16C4 15.4477 4.44772 15 5 15H8.17157C8.72386 15 9.17157 15.4477 9.17157 16C9.17157 16.5523 8.72386 17 8.17157 17H5C4.44772 17 4 16.5523 4 16Z" fill="#00AEC7"/>
<path d="M23 16C23 15.4477 23.4477 15 24 15L27 15C27.5523 15 28 15.4477 28 16C28 16.5523 27.5523 17 27 17H24C23.4477 17 23 16.5523 23 16Z" fill="#00AEC7"/>
<path d="M24.5087 7.50844C24.2217 7.22147 23.7622 7.20364 23.4539 7.46751L15.0945 14.6211C14.2889 15.3105 14.2412 16.54 14.991 17.2897C15.758 18.0568 17.0216 17.9864 17.6987 17.1389L24.5663 8.54306C24.8134 8.23383 24.7886 7.78832 24.5087 7.50844Z" fill="#00AEC7"/>
<path fill-rule="evenodd" clip-rule="evenodd" d="M13.3275 31.7778C5.76314 30.5059 0 23.926 0 16C0 7.16344 7.16344 0 16 0C24.8366 0 32 7.16344 32 16C32 19.0328 31.1562 21.8685 29.6905 24.2852C26.8858 28.9099 21.8038 32 16.0001 32C15.0895 32 14.1966 31.9239 13.3275 31.7778ZM3.99806 23.2119C7.5286 21.1692 11.6278 20 16.0001 20C20.3723 20 24.4715 21.1692 28.002 23.2119C29.2704 21.1055 30 18.638 30 16C30 8.26801 23.732 2 16 2C8.26801 2 2 8.26801 2 16C2 18.638 2.72962 21.1056 3.99806 23.2119Z" fill="#00AEC7"/>
</svg>
