<svg width="32" height="32" viewBox="0 0 32 32" fill="none" xmlns="http://www.w3.org/2000/svg">
<path d="M28.2387 20.3258L31.6695 22.0412C32.1102 22.2615 32.1102 22.8903 31.6695 23.1106L16.5348 30.678C16.1982 30.8463 15.802 30.8463 15.4654 30.678L0.330602 23.1106C-0.110018 22.8903 -0.110019 22.2615 0.330601 22.0412L3.76148 20.3258L14.396 25.643C15.4058 26.1479 16.5944 26.1479 17.6042 25.643L28.2387 20.3258Z" fill="#00AEC7"/>
<path d="M15.4652 0.126227C15.8018 -0.0420753 16.198 -0.0420756 16.5346 0.126226L31.6694 7.69361C32.11 7.91392 32.11 8.54271 31.6694 8.76302L16.5346 16.3304C16.198 16.4987 15.8018 16.4987 15.4652 16.3304L0.330466 8.76302C-0.110155 8.54271 -0.110156 7.91392 0.330465 7.69361L15.4652 0.126227Z" fill="#00AEC7"/>
<path d="M28.2387 13.152L31.6695 14.8674C32.1102 15.0877 32.1102 15.7165 31.6695 15.9368L16.5348 23.5042C16.1982 23.6725 15.802 23.6725 15.4654 23.5042L0.330602 15.9368C-0.110018 15.7165 -0.110019 15.0877 0.330601 14.8674L3.76148 13.152L14.396 18.4692C15.4058 18.9741 16.5944 18.9741 17.6042 18.4692L28.2387 13.152Z" fill="#00AEC7"/>
</svg>
