<svg width="424" height="240" viewBox="0 0 424 240" fill="none" xmlns="http://www.w3.org/2000/svg">
<g clip-path="url(#clip0_1580_10168)">
<rect width="424" height="240" rx="20" fill="#E1F2F5"/>
<g opacity="0.23">
<path fill-rule="evenodd" clip-rule="evenodd" d="M286.153 -174.898L-192.452 102.169L-192.875 102.414L-192.451 102.658L286.153 378.678L764.758 102.658L765.182 102.414L764.758 102.169L286.153 -174.898ZM-160.267 120.565L-191.746 102.413L-159.751 83.9077L-128.223 102.091L-160.111 120.487L-160.267 120.565ZM-159.692 120.897L-128.527 138.868L-127.913 138.56L-96.4547 120.413L-127.658 102.417L-159.692 120.897ZM-127.907 139.225L-96.5246 157.321L-96.2786 157.198L-64.4793 138.854L-95.8895 120.739L-127.63 139.05L-127.907 139.225ZM-95.9429 157.657L-64.7844 175.624L-64.0798 175.272L-32.7111 157.176L-63.9141 139.18L-95.9429 157.657ZM-64.1545 175.987L-32.7819 194.078L-32.4458 193.91L-0.735657 175.617L-32.1458 157.501L-63.7975 175.761L-64.1545 175.987ZM-32.2054 194.41L-1.04173 212.38L-0.246979 211.983L31.0326 193.938L-0.170441 175.943L-32.1635 194.399L-32.2054 194.41ZM-0.401825 212.749L30.9608 230.834L31.387 230.621L63.008 212.379L31.5979 194.264L0.0353394 212.472L-0.401825 212.749ZM31.5599 231.18L62.4424 248.988L63.021 248.695L94.4938 230.538L63.5733 212.705L31.6693 231.11L31.5599 231.18ZM63.0551 249.341L94.7381 267.611L95.2198 267.333L126.752 249.142L95.0591 230.864L63.3033 249.184L63.0551 249.341ZM95.3126 267.942L126.706 286.045L126.854 285.971L158.727 267.583L127.317 249.468L95.5021 267.822L95.3126 267.942ZM127.281 286.376L158.167 304.186L190.213 285.742L159.292 267.909L127.281 286.376ZM158.768 304.533L189.9 322.485L221.944 304.042L190.778 286.068L158.77 304.533L158.768 304.533ZM190.503 322.832L221.914 340.945L253.709 322.362L222.509 304.368L190.503 322.832ZM222.478 341.27L253.469 359.141L285.588 340.748L254.275 322.688L222.478 341.27ZM254.036 359.468L286.153 378.113L318.094 359.57L286.153 341.074L254.036 359.468ZM318.659 359.244L350.018 341.161L349.704 340.962L318.032 322.688L286.719 340.748L318.659 359.244ZM350.638 340.803L381.804 322.832L349.798 304.368L318.597 322.362L349.986 340.473L350.638 340.803ZM382.383 322.499L413.537 304.533L381.528 286.068L350.363 304.042L382.185 322.4L382.383 322.499ZM414.123 304.196L445.026 286.376L413.014 267.909L382.094 285.742L413.819 304.044L414.123 304.196ZM445.601 286.045L476.994 267.942L476.804 267.822L444.99 249.468L413.58 267.583L445.453 285.971L445.601 286.045ZM477.603 267.591L509.252 249.341L509.003 249.184L477.247 230.864L445.555 249.142L477.087 267.333L477.603 267.591ZM509.846 248.998L540.747 231.18L540.637 231.11L508.733 212.705L477.813 230.538L509.286 248.695L509.846 248.998ZM541.346 230.834L572.708 212.749L572.271 212.472L540.709 194.264L509.299 212.379L540.92 230.621L541.346 230.834ZM573.348 212.38L604.512 194.41L604.47 194.399L572.477 175.943L541.274 193.938L572.554 211.983L573.348 212.38ZM605.089 194.078L636.461 175.987L636.104 175.761L604.452 157.501L573.042 175.617L604.752 193.91L605.089 194.078ZM637.091 175.624L668.25 157.657L636.221 139.18L605.018 157.176L636.386 175.272L637.091 175.624ZM668.831 157.321L700.214 139.225L699.937 139.05L668.196 120.739L636.786 138.854L668.585 157.198L668.831 157.321ZM700.834 138.868L731.998 120.897L699.964 102.417L668.761 120.413L700.219 138.56L700.834 138.868ZM732.574 120.565L764.052 102.413L732.058 83.9077L700.53 102.091L732.418 120.487L732.574 120.565ZM731.494 83.5812L700.129 65.4398L668.566 83.6514L699.964 101.765L731.494 83.5812ZM699.565 65.1133L668.445 47.1132L636.837 65.3474L668 83.3253L699.565 65.1133ZM667.88 46.7867L636.76 28.7866L605.111 47.045L636.272 65.0214L667.88 46.7867ZM636.196 28.4602L605.32 10.6014L573.629 28.8837L604.545 46.7189L636.196 28.4602ZM604.756 10.275L573.391 -7.86652L541.658 10.44L573.064 28.5577L604.756 10.275ZM572.827 -8.19296L541.18 -26.4976L509.405 -8.16658L541.093 10.114L572.827 -8.19296ZM540.616 -26.8241L509.74 -44.6828L477.923 -26.3278L508.839 -8.4926L540.616 -26.8241ZM509.176 -45.0092L477.812 -63.1507L445.952 -44.7715L477.358 -26.6539L509.176 -45.0092ZM477.247 -63.4772L446.089 -81.4991L414.188 -63.0957L445.387 -45.0975L477.247 -63.4772ZM445.525 -81.8255L414.161 -99.967L382.217 -81.5394L413.623 -63.4217L445.525 -81.8255ZM413.596 -100.293L382.438 -118.315L350.453 -99.8636L381.652 -81.8654L413.596 -100.293ZM381.874 -118.642L350.51 -136.783L318.482 -118.307L349.888 -100.19L381.874 -118.642ZM349.945 -137.11L318.787 -155.132L286.718 -136.631L317.917 -118.633L349.945 -137.11ZM318.223 -155.458L286.153 -174.334L254.084 -155.458L286.153 -136.957L318.223 -155.458ZM253.519 -155.132L222.362 -137.11L254.389 -118.633L285.588 -136.631L253.519 -155.132ZM221.797 -136.783L190.433 -118.642L222.418 -100.19L253.824 -118.307L221.797 -136.783ZM189.868 -118.315L158.711 -100.293L190.654 -81.8654L221.853 -99.8636L189.868 -118.315ZM158.146 -99.967L126.782 -81.8255L158.683 -63.4217L190.089 -81.5394L158.146 -99.967ZM126.217 -81.499L95.0595 -63.4771L126.92 -45.0975L158.118 -63.0957L126.217 -81.499ZM94.4951 -63.1507L63.1306 -45.0092L94.9485 -26.6539L126.354 -44.7715L94.4951 -63.1507ZM62.5663 -44.6828L31.6906 -26.824L63.4671 -8.4926L94.3834 -26.3278L62.5663 -44.6828ZM31.1262 -26.4976L-0.52034 -8.19293L31.2137 10.114L62.9019 -8.16655L31.1262 -26.4976ZM-1.08476 -7.86647L-32.4492 10.275L-0.757339 28.5577L30.6485 10.44L-1.08476 -7.86647ZM-33.0137 10.6015L-63.8893 28.4602L-32.2388 46.7189L-1.32249 28.8837L-33.0137 10.6015ZM-64.4537 28.7867L-95.5737 46.7868L-63.965 65.0214L-32.804 47.045L-64.4537 28.7867ZM-96.1381 47.1132L-127.258 65.1134L-95.6938 83.3253L-64.5302 65.3474L-96.1381 47.1132ZM-127.823 65.4398L-159.187 83.5812L-127.658 101.765L-96.259 83.6514L-127.823 65.4398ZM254.955 -118.307L286.153 -136.305L317.352 -118.307L286.153 -100.309L254.955 -118.307ZM286.718 -99.983L317.917 -117.981L349.323 -99.8636L318.124 -81.8654L286.718 -99.983ZM318.689 -81.5394L349.888 -99.5375L381.087 -81.5394L349.888 -63.5412L318.689 -81.5394ZM350.453 -63.2151L381.652 -81.2133L413.058 -63.0957L381.859 -45.0975L350.453 -63.2151ZM382.424 -44.7715L413.623 -62.7697L444.822 -44.7715L413.623 -26.7733L382.424 -44.7715ZM414.188 -26.4473L445.387 -44.4455L476.793 -26.3278L445.594 -8.32967L414.188 -26.4473ZM446.159 -8.00362L477.358 -26.0018L508.274 -8.16655L477.076 9.83162L446.159 -8.00362ZM477.641 10.1577L508.839 -7.84053L540.528 10.44L509.329 28.4382L477.641 10.1577ZM509.894 28.7643L541.093 10.7661L572.499 28.8837L541.3 46.8819L509.894 28.7643ZM541.865 47.2079L573.064 29.2097L603.98 47.045L572.781 65.0432L541.865 47.2079ZM573.347 65.3692L604.545 47.371L635.707 65.3474L604.508 83.3456L573.347 65.3692ZM605.073 83.6716L636.272 65.6735L667.435 83.6514L636.239 101.651L605.073 83.6716ZM636.804 101.977L668 83.9774L699.399 102.091L668.196 120.087L636.804 101.977ZM636.239 102.303L667.631 120.413L636.221 138.528L604.836 120.422L636.239 102.303ZM604.271 120.748L635.656 138.854L604.452 156.849L573.074 138.748L604.271 120.748ZM572.509 139.074L603.887 157.175L572.477 175.291L541.106 157.193L572.509 139.074ZM540.541 157.519L571.912 175.617L540.709 193.612L509.344 175.519L540.541 157.519ZM508.779 175.845L540.144 193.938L508.733 212.053L477.376 193.964L508.779 175.845ZM476.811 194.29L508.168 212.379L477.248 230.212L445.897 212.126L476.811 194.29ZM445.332 212.452L476.682 230.538L444.99 248.816L413.646 230.734L445.332 212.452ZM413.081 231.06L444.424 249.142L413.014 267.257L381.678 249.18L413.081 231.06ZM381.112 249.506L412.449 267.583L381.528 285.416L350.199 267.342L381.112 249.506ZM349.633 267.668L380.963 285.742L349.798 303.716L318.475 285.646L349.633 267.668ZM317.91 285.972L349.233 304.042L318.032 322.036L286.718 303.969L317.91 285.972ZM286.153 304.295L317.467 322.362L286.153 340.422L254.84 322.362L286.153 304.295ZM285.588 303.969L254.275 322.036L223.074 304.042L254.397 285.972L285.588 303.969ZM253.832 285.646L222.509 303.716L191.343 285.742L222.673 267.668L253.832 285.646ZM222.108 267.342L190.778 285.416L159.858 267.583L191.194 249.506L222.108 267.342ZM190.629 249.18L159.292 267.257L127.882 249.142L159.226 231.06L190.629 249.18ZM158.661 230.734L127.317 248.816L95.6243 230.538L126.975 212.452L158.661 230.734ZM126.41 212.126L95.059 230.212L64.1385 212.379L95.4958 194.29L126.41 212.126ZM94.9307 193.964L63.5732 212.053L32.1631 193.938L63.5273 175.845L94.9307 193.964ZM62.9622 175.519L31.5978 193.612L0.394745 175.617L31.7659 157.519L62.9622 175.519ZM31.2008 157.193L-0.170471 175.291L-31.5806 157.175L-0.202591 139.074L31.2008 157.193ZM-0.767685 138.748L-32.1459 156.849L-63.3489 138.854L-31.964 120.748L-0.767685 138.748ZM-32.5291 120.422L-63.9142 138.528L-95.3243 120.413L-63.9325 102.303L-32.5291 120.422ZM-64.4976 101.977L-95.8895 120.087L-127.093 102.091L-95.6939 83.9774L-64.4976 101.977ZM-63.9324 101.651L-95.1287 83.6514L-63.965 65.6735L-32.7663 83.6716L-63.9324 101.651ZM-32.2011 83.3456L-63.3999 65.3474L-32.2388 47.371L-1.04004 65.3692L-32.2011 83.3456ZM-0.474915 65.0432L-31.6737 47.045L-0.757339 29.2097L30.4414 47.2079L-0.474915 65.0432ZM31.0066 46.8819L-0.1922 28.8837L31.2137 10.7661L62.4124 28.7643L31.0066 46.8819ZM62.9776 28.4382L31.7788 10.44L63.4671 -7.84053L94.6659 10.1577L62.9776 28.4382ZM95.231 9.83162L64.0322 -8.16655L94.9485 -26.0018L126.147 -8.00362L95.231 9.83162ZM126.712 -8.32964L95.5137 -26.3278L126.92 -44.4455L158.118 -26.4473L126.712 -8.32964ZM158.683 -26.7733L127.485 -44.7715L158.684 -62.7697L189.882 -44.7715L158.683 -26.7733ZM190.447 -45.0975L159.249 -63.0957L190.654 -81.2133L221.853 -63.2151L190.447 -45.0975ZM222.418 -63.5412L191.22 -81.5394L222.418 -99.5375L253.617 -81.5394L222.418 -63.5412ZM254.182 -81.8654L222.984 -99.8636L254.389 -117.981L285.588 -99.983L254.182 -81.8654ZM254.747 -81.5394L286.153 -99.657L317.559 -81.5394L286.153 -63.4217L254.747 -81.5394ZM286.718 -63.0957L318.124 -81.2133L349.323 -63.2151L317.917 -45.0975L286.718 -63.0957ZM318.482 -44.7715L349.888 -62.8891L381.294 -44.7715L349.888 -26.6539L318.482 -44.7715ZM350.453 -26.3278L381.859 -44.4455L413.058 -26.4473L381.652 -8.32967L350.453 -26.3278ZM382.217 -8.00362L413.623 -26.1213L445.029 -8.00362L413.623 10.114L382.217 -8.00362ZM414.188 10.44L445.594 -7.6776L476.51 10.1577L445.105 28.2753L414.188 10.44ZM445.67 28.6013L477.076 10.4837L508.764 28.7643L477.358 46.8819L445.67 28.6013ZM477.923 47.2079L509.329 29.0903L540.735 47.2079L509.329 65.3255L477.923 47.2079ZM509.894 65.6516L541.3 47.5339L572.216 65.3692L540.81 83.4868L509.894 65.6516ZM541.376 83.8128L572.781 65.6952L603.943 83.6716L572.537 101.789L541.376 83.8128ZM573.102 102.115L604.508 83.9977L635.674 101.977L604.271 120.096L573.102 102.115ZM572.537 102.441L603.705 120.422L572.509 138.422L541.338 120.44L572.537 102.441ZM540.773 120.766L571.944 138.748L540.541 156.867L509.367 138.883L540.773 120.766ZM508.802 139.209L539.976 157.193L508.779 175.193L477.603 157.207L508.802 139.209ZM477.038 157.533L508.214 175.519L476.811 193.638L445.632 175.651L477.038 157.533ZM445.067 175.977L476.246 193.964L445.332 211.8L414.151 193.812L445.067 175.977ZM413.585 194.138L444.767 212.126L413.081 230.408L381.897 212.419L413.585 194.138ZM381.332 212.745L412.516 230.734L381.112 248.854L349.926 230.863L381.332 212.745ZM349.361 231.189L380.547 249.18L349.633 267.016L318.445 249.024L349.361 231.189ZM317.88 249.35L349.068 267.342L317.91 285.32L286.718 267.326L317.88 249.35ZM286.153 267.652L317.345 285.646L286.153 303.643L254.962 285.646L286.153 267.652ZM285.588 267.326L254.397 285.32L223.238 267.342L254.427 249.35L285.588 267.326ZM253.862 249.024L222.673 267.016L191.759 249.18L222.946 231.189L253.862 249.024ZM222.38 230.863L191.194 248.854L159.791 230.734L190.975 212.745L222.38 230.863ZM190.409 212.419L159.226 230.408L127.54 212.126L158.721 194.138L190.409 212.419ZM158.156 193.812L126.975 211.8L96.0609 193.964L127.24 175.977L158.156 193.812ZM126.675 175.651L95.4958 193.638L64.0925 175.519L95.2687 157.533L126.675 175.651ZM94.7036 157.207L63.5273 175.193L32.331 157.193L63.5048 139.209L94.7036 157.207ZM62.9396 138.883L31.7659 156.867L0.362564 138.748L31.5338 120.766L62.9396 138.883ZM30.9686 120.44L-0.20253 138.422L-31.3988 120.422L-0.230148 102.441L30.9686 120.44ZM-0.795303 102.115L-31.9639 120.096L-63.3673 101.977L-32.2011 83.9977L-0.795303 102.115ZM-0.230148 101.789L-31.636 83.6716L-0.474899 65.6952L30.9309 83.8128L-0.230148 101.789ZM31.4961 83.4868L0.0902405 65.3692L31.0066 47.5339L62.4124 65.6516L31.4961 83.4868ZM62.9776 65.3255L31.5717 47.2079L62.9776 29.0903L94.3834 47.2079L62.9776 65.3255ZM94.9485 46.8819L63.5427 28.7643L95.231 10.4837L126.637 28.6013L94.9485 46.8819ZM127.202 28.2753L95.7961 10.1577L126.712 -7.67758L158.118 10.44L127.202 28.2753ZM158.683 10.114L127.278 -8.00362L158.683 -26.1212L190.089 -8.00362L158.683 10.114ZM190.654 -8.32964L159.249 -26.4473L190.447 -44.4455L221.853 -26.3278L190.654 -8.32964ZM222.418 -26.6539L191.013 -44.7715L222.418 -62.8891L253.824 -44.7715L222.418 -26.6539ZM254.389 -45.0975L222.984 -63.2151L254.182 -81.2133L285.588 -63.0957L254.389 -45.0975ZM254.955 -44.7715L286.153 -62.7697L317.352 -44.7715L286.153 -26.7733L254.955 -44.7715ZM286.718 -26.4473L317.917 -44.4454L349.323 -26.3278L318.124 -8.32967L286.718 -26.4473ZM318.689 -8.00362L349.888 -26.0018L381.087 -8.00362L349.888 9.99457L318.689 -8.00362ZM350.453 10.3206L381.652 -7.6776L413.058 10.44L381.859 28.4382L350.453 10.3206ZM382.424 28.7643L413.623 10.7661L444.539 28.6013L413.341 46.5995L382.424 28.7643ZM413.906 46.9255L445.105 28.9273L476.793 47.2079L445.594 65.2061L413.906 46.9255ZM446.159 65.5321L477.358 47.5339L508.764 65.6516L477.565 83.6497L446.159 65.5321ZM478.13 83.9758L509.329 65.9776L540.245 83.8128L509.047 101.811L478.13 83.9758ZM509.612 102.137L540.81 84.1389L571.972 102.115L540.773 120.113L509.612 102.137ZM509.047 102.463L540.208 120.44L508.802 138.557L477.641 120.581L509.047 102.463ZM477.076 120.907L508.237 138.883L477.038 156.881L445.877 138.905L477.076 120.907ZM445.312 139.231L476.473 157.207L445.067 175.325L413.906 157.349L445.312 139.231ZM413.341 157.675L444.502 175.651L413.585 193.486L382.424 175.51L413.341 157.675ZM381.859 175.836L413.02 193.812L381.332 212.093L350.171 194.116L381.859 175.836ZM349.606 194.442L380.767 212.419L349.361 230.537L318.2 212.56L349.606 194.442ZM317.635 212.886L348.796 230.863L317.88 248.698L286.718 230.721L317.635 212.886ZM286.153 231.047L317.314 249.024L286.153 267L254.992 249.024L286.153 231.047ZM285.588 230.721L254.427 248.698L223.511 230.863L254.672 212.886L285.588 230.721ZM254.107 212.56L222.946 230.537L191.54 212.419L222.701 194.442L254.107 212.56ZM222.136 194.116L190.975 212.093L159.286 193.812L190.447 175.836L222.136 194.116ZM189.882 175.51L158.721 193.486L127.805 175.651L158.966 157.675L189.882 175.51ZM158.401 157.349L127.24 175.325L95.8338 157.207L126.995 139.231L158.401 157.349ZM126.43 138.905L95.2687 156.881L64.0699 138.883L95.231 120.907L126.43 138.905ZM94.6659 120.581L63.5048 138.557L32.0989 120.44L63.26 102.463L94.6659 120.581ZM62.6949 102.137L31.5338 120.113L0.335007 102.115L31.4961 84.1389L62.6949 102.137ZM63.26 101.811L32.0612 83.8128L62.9776 65.9776L94.1763 83.9758L63.26 101.811ZM94.7415 83.6497L63.5427 65.6516L94.9485 47.5339L126.147 65.5321L94.7415 83.6497ZM126.712 65.2061L95.5137 47.2079L127.202 28.9273L158.401 46.9255L126.712 65.2061ZM158.966 46.5995L127.767 28.6013L158.683 10.7661L189.882 28.7643L158.966 46.5995ZM190.447 28.4382L159.249 10.44L190.654 -7.67758L221.853 10.3206L190.447 28.4382ZM222.418 9.99457L191.22 -8.00362L222.418 -26.0018L253.617 -8.00362L222.418 9.99457ZM254.182 -8.32964L222.984 -26.3278L254.389 -44.4454L285.588 -26.4473L254.182 -8.32964ZM254.747 -8.00362L286.153 -26.1212L317.559 -8.00362L286.153 10.114L254.747 -8.00362ZM286.718 10.44L318.124 -7.6776L349.323 10.3206L317.917 28.4382L286.718 10.44ZM318.482 28.7643L349.888 10.6466L381.294 28.7643L349.888 46.8819L318.482 28.7643ZM350.453 47.2079L381.859 29.0903L412.776 46.9255L381.37 65.0432L350.453 47.2079ZM381.935 65.3692L413.341 47.2515L445.029 65.5321L413.623 83.6497L381.935 65.3692ZM414.188 83.9758L445.594 65.8581L477 83.9758L445.594 102.093L414.188 83.9758ZM446.159 102.419L477.565 84.3018L508.481 102.137L477.076 120.255L446.159 102.419ZM445.594 102.745L476.51 120.581L445.312 138.579L414.395 120.744L445.594 102.745ZM413.83 121.07L444.746 138.905L413.341 157.023L382.424 139.187L413.83 121.07ZM381.859 139.513L412.776 157.349L381.859 175.184L350.943 157.349L381.859 139.513ZM350.378 157.675L381.294 175.51L349.606 193.79L318.689 175.955L350.378 157.675ZM318.124 176.281L349.041 194.116L317.635 212.234L286.718 194.399L318.124 176.281ZM286.153 194.725L317.07 212.56L286.153 230.395L255.237 212.56L286.153 194.725ZM285.588 194.399L254.672 212.234L223.266 194.116L254.182 176.281L285.588 194.399ZM253.617 175.955L222.701 193.79L191.013 175.51L221.929 157.675L253.617 175.955ZM221.364 157.349L190.447 175.184L159.531 157.349L190.447 139.513L221.364 157.349ZM189.882 139.187L158.966 157.023L127.56 138.905L158.476 121.07L189.882 139.187ZM157.911 120.744L126.995 138.579L95.7961 120.581L126.712 102.745L157.911 120.744ZM126.147 102.419L95.231 120.255L63.8252 102.137L94.7415 84.3018L126.147 102.419ZM126.712 102.093L95.3066 83.9758L126.712 65.8581L158.118 83.9758L126.712 102.093ZM158.683 83.6497L127.278 65.5321L158.966 47.2515L190.372 65.3692L158.683 83.6497ZM190.937 65.0432L159.531 46.9255L190.447 29.0903L221.853 47.2079L190.937 65.0432ZM222.418 46.8819L191.013 28.7643L222.418 10.6466L253.824 28.7643L222.418 46.8819ZM254.389 28.4382L222.984 10.3206L254.182 -7.67758L285.588 10.44L254.389 28.4382ZM254.954 28.7643L286.153 10.7661L317.352 28.7643L286.153 46.7624L254.954 28.7643ZM286.718 47.0885L317.917 29.0903L349.323 47.2079L318.124 65.2061L286.718 47.0885ZM318.689 65.5321L349.888 47.5339L380.805 65.3692L349.606 83.3674L318.689 65.5321ZM350.171 83.6934L381.37 65.6952L413.058 83.9758L381.859 101.974L350.171 83.6934ZM382.424 102.3L413.623 84.3018L445.029 102.419L413.83 120.418L382.424 102.3ZM381.859 102.626L413.265 120.744L381.859 138.861L350.453 120.744L381.859 102.626ZM349.888 121.07L381.294 139.187L350.378 157.023L318.972 138.905L349.888 121.07ZM318.407 139.231L349.813 157.349L318.124 175.629L286.718 157.512L318.407 139.231ZM286.153 157.838L317.559 175.955L286.153 194.073L254.747 175.955L286.153 157.838ZM285.588 157.512L254.182 175.629L222.494 157.349L253.9 139.231L285.588 157.512ZM253.335 138.905L221.929 157.023L191.013 139.187L222.418 121.07L253.335 138.905ZM221.853 120.744L190.447 138.861L159.042 120.744L190.447 102.626L221.853 120.744ZM189.882 102.3L158.476 120.418L127.278 102.419L158.683 84.3018L189.882 102.3ZM190.447 101.974L159.249 83.9758L190.937 65.6952L222.136 83.6934L190.447 101.974ZM222.701 83.3674L191.502 65.3692L222.418 47.5339L253.617 65.5321L222.701 83.3674ZM254.182 65.2061L222.984 47.2079L254.389 29.0903L285.588 47.0885L254.182 65.2061ZM254.747 65.5321L286.153 47.4145L317.559 65.5321L286.153 83.6497L254.747 65.5321ZM286.718 83.9758L318.124 65.8581L349.041 83.6934L317.635 101.811L286.718 83.9758ZM318.2 102.137L349.606 84.0194L381.294 102.3L349.888 120.418L318.2 102.137ZM317.635 102.463L349.323 120.744L318.407 138.579L286.718 120.298L317.635 102.463ZM286.153 120.624L317.842 138.905L286.153 157.185L254.465 138.905L286.153 120.624ZM285.588 120.298L253.9 138.579L222.984 120.744L254.672 102.463L285.588 120.298ZM254.107 102.137L222.418 120.418L191.013 102.3L222.701 84.0194L254.107 102.137ZM254.672 101.811L223.266 83.6934L254.182 65.8581L285.588 83.9758L254.672 101.811ZM255.237 102.137L286.153 84.3018L317.07 102.137L286.153 119.972L255.237 102.137Z" fill="#00AEC7"/>
</g>
<g opacity="0.2">
<circle cx="185.523" cy="185.523" r="185.523" transform="matrix(0.866044 0.499967 -0.866044 0.499967 211.613 -46.0781)" fill="url(#paint0_radial_1580_10168)"/>
</g>
<g opacity="0.4">
<circle cx="127.782" cy="127.782" r="127.782" transform="matrix(0.866044 0.499967 -0.866044 0.499967 211.609 11.6602)" fill="url(#paint1_radial_1580_10168)"/>
</g>
<path d="M184.041 35.2322L183.792 35.089L183.543 35.2322L179.441 37.5947L179.191 37.7384V38.0265V55.9712L163.434 46.897L163.185 46.7538L162.937 46.897L158.834 49.2594L158.585 49.4032V49.6913V68.0053L142.827 58.9312L142.579 58.7879L142.33 58.9312L138.228 61.2936L137.978 61.4373V61.7254L137.978 146.487V146.775L138.228 146.919L239.995 205.524L240.244 205.667L240.493 205.524L244.595 203.162L244.845 203.018V202.73V184.416L260.602 193.49L260.851 193.633L261.099 193.49L265.202 191.127L265.451 190.984V190.696V172.751L281.208 181.825L281.457 181.968L281.706 181.825L285.808 179.463L286.058 179.319V179.031L286.058 94.2689V93.9808L285.808 93.8371L184.041 35.2322Z" fill="#474C59" stroke="#474C59" stroke-width="0.996617"/>
<path d="M281.477 96.6406L285.579 94.2783L285.579 179.04L281.477 181.402L281.477 96.6406Z" fill="url(#paint2_linear_1580_10168)"/>
<path d="M183.812 35.6719L285.58 94.2767L281.478 96.6391L179.71 38.0342L183.812 35.6719Z" fill="url(#paint3_linear_1580_10168)"/>
<path d="M179.711 38.0352L281.478 96.64L281.478 181.402L179.711 122.797L179.711 38.0352Z" fill="url(#paint4_linear_1580_10168)"/>
<path d="M184.98 53.9222C184.98 53.5553 185.238 53.4063 185.556 53.5894L274.654 104.898C274.972 105.081 275.229 105.527 275.229 105.894L275.229 170.711C275.229 171.078 274.972 171.227 274.654 171.044L185.556 119.735C185.238 119.552 184.98 119.106 184.98 118.739L184.98 53.9222Z" fill="#474C59"/>
<ellipse cx="1.89352" cy="1.88988" rx="1.89352" ry="1.88988" transform="matrix(0.86658 0.499039 -2.20871e-08 1 184.984 45.3438)" fill="#474C59"/>
<ellipse cx="1.89353" cy="1.88988" rx="1.89353" ry="1.88988" transform="matrix(0.866581 0.499036 -2.20872e-08 1 189.84 48.1797)" fill="#474C59"/>
<ellipse cx="1.89352" cy="1.88988" rx="1.89352" ry="1.88988" transform="matrix(0.866581 0.499037 -2.20872e-08 1 194.637 51.0117)" fill="#474C59"/>
<path d="M260.875 108.301L264.977 105.938L264.977 190.7L260.875 193.063L260.875 108.301Z" fill="url(#paint5_linear_1580_10168)"/>
<path d="M163.207 47.3359L264.975 105.941L260.872 108.303L159.105 49.6983L163.207 47.3359Z" fill="url(#paint6_linear_1580_10168)"/>
<path d="M159.105 49.6992L260.873 108.304L260.873 193.066L159.105 134.461L159.105 49.6992Z" fill="url(#paint7_linear_1580_10168)"/>
<path d="M164.379 65.5863C164.379 65.2193 164.637 65.0703 164.955 65.2534L254.052 116.562C254.37 116.745 254.628 117.191 254.628 117.558L254.628 182.375C254.628 182.742 254.37 182.891 254.052 182.708L164.955 131.399C164.637 131.216 164.379 130.77 164.379 130.403L164.379 65.5863Z" fill="url(#paint8_linear_1580_10168)"/>
<ellipse cx="1.89352" cy="1.88988" rx="1.89352" ry="1.88988" transform="matrix(0.86658 0.499038 -2.20871e-08 1 164.379 57.0078)" fill="#00AEC7"/>
<ellipse cx="1.89352" cy="1.88988" rx="1.89352" ry="1.88988" transform="matrix(0.86658 0.499038 -2.20871e-08 1 169.234 59.8438)" fill="#00AEC7"/>
<ellipse cx="1.89352" cy="1.88988" rx="1.89352" ry="1.88988" transform="matrix(0.86658 0.499037 -2.20872e-08 1 174.031 62.6758)" fill="#00AEC7"/>
<path d="M240.27 120.336L244.372 117.974L244.372 202.735L240.27 205.098L240.27 120.336Z" fill="url(#paint9_linear_1580_10168)"/>
<path d="M142.602 59.3672L244.369 117.972L240.267 120.334L138.499 61.7295L142.602 59.3672Z" fill="url(#paint10_linear_1580_10168)"/>
<path d="M138.5 61.7305L240.267 120.335L240.267 205.097L138.5 146.492L138.5 61.7305Z" fill="url(#paint11_linear_1580_10168)"/>
<path d="M143.773 77.6175C143.773 77.2506 144.031 77.1016 144.349 77.2847L233.447 128.593C233.765 128.776 234.022 129.222 234.022 129.589L234.022 194.406C234.022 194.773 233.765 194.922 233.447 194.739L144.349 143.43C144.031 143.247 143.773 142.801 143.773 142.434L143.773 77.6175Z" fill="white"/>
<ellipse cx="1.89352" cy="1.88988" rx="1.89352" ry="1.88988" transform="matrix(0.866581 0.499037 -2.20872e-08 1 143.77 69.0391)" fill="url(#paint12_linear_1580_10168)"/>
<ellipse cx="1.89352" cy="1.88988" rx="1.89352" ry="1.88988" transform="matrix(0.86658 0.499038 -2.20871e-08 1 148.625 71.875)" fill="url(#paint13_linear_1580_10168)"/>
<ellipse cx="1.89352" cy="1.88988" rx="1.89352" ry="1.88988" transform="matrix(0.86658 0.499038 -2.20871e-08 1 153.422 74.707)" fill="url(#paint14_linear_1580_10168)"/>
<g clip-path="url(#clip1_1580_10168)">
<rect width="50.5993" height="11.6877" rx="0.715459" transform="matrix(0.866025 0.498717 -2.20872e-08 1 166.988 125.246)" fill="url(#paint15_linear_1580_10168)"/>
<path d="M166.988 125.246L168.139 125.909L168.139 138.533L166.988 137.87L166.988 125.246Z" fill="#00AEC7"/>
</g>
<rect width="50.5993" height="11.6877" rx="0.715459" transform="matrix(0.866025 0.498718 -2.20871e-08 1 166.988 109.383)" fill="url(#paint16_linear_1580_10168)"/>
<path d="M200.73 152.074L200.73 160.387L202.184 159.598L203.2 162.956L204.825 163.095L203.878 159.918L205.954 161.113L200.73 152.074Z" fill="#474C59"/>
<path d="M367.951 39.7414C367.951 43.8554 369.654 47.5724 372.392 50.2246C368.698 53.5314 366.202 58.1265 365.573 63.2923L365.573 63.2923L365.573 63.2962L364.624 71.4607L364.619 71.5027V71.5449C364.619 74.4448 366.534 77.195 370.034 79.2156C373.538 81.2386 378.084 82.2292 382.591 82.2292C387.098 82.2292 391.645 81.2386 395.149 79.2156C398.648 77.195 400.564 74.4448 400.564 71.5449C400.564 71.0322 400.503 70.5207 400.383 70.0149L399.565 63.2923C398.935 58.1212 396.42 53.5231 392.71 50.2164C395.442 47.5648 397.142 43.8512 397.142 39.7414C397.142 31.6807 390.607 25.1463 382.546 25.1463C374.486 25.1463 367.951 31.6807 367.951 39.7414Z" fill="#474C59" stroke="#474C59" stroke-width="1.45749"/>
<path d="M366.318 63.3795C367.378 54.6649 373.946 47.6329 382.568 45.9805C391.19 47.6329 397.802 54.6649 398.863 63.3795L399.686 70.1439C399.799 70.6081 399.856 71.0761 399.856 71.5441C399.856 74.0919 398.173 76.6398 394.806 78.5837C388.071 82.4716 377.153 82.4716 370.419 78.5837C367.052 76.6398 365.369 74.0919 365.369 71.5441H365.324L366.318 63.3795Z" fill="url(#paint17_linear_1580_10168)"/>
<mask id="mask0_1580_10168" style="mask-type:alpha" maskUnits="userSpaceOnUse" x="365" y="45" width="35" height="37">
<path d="M366.318 63.3795C367.378 54.6649 373.946 47.6329 382.568 45.9805C391.19 47.6329 397.802 54.6649 398.863 63.3795L399.686 70.1439C399.799 70.6081 399.856 71.0761 399.856 71.5441C399.856 74.0919 398.173 76.6398 394.806 78.5837C388.071 82.4716 377.153 82.4716 370.419 78.5837C367.052 76.6398 365.369 74.0919 365.369 71.5441H365.324L366.318 63.3795Z" fill="url(#paint18_linear_1580_10168)"/>
</mask>
<g mask="url(#mask0_1580_10168)">
<g style="mix-blend-mode:overlay" filter="url(#filter0_f_1580_10168)">
<ellipse cx="381.202" cy="40.6516" rx="13.8664" ry="13.8664" fill="black"/>
</g>
</g>
<circle cx="382.57" cy="39.7375" r="13.8664" fill="url(#paint19_radial_1580_10168)"/>
<path d="M334.912 171.402C334.912 175.516 336.615 179.233 339.353 181.885C335.659 185.192 333.163 189.787 332.534 194.952L332.534 194.952L332.534 194.956L331.585 203.121L331.58 203.163V203.205C331.58 206.105 333.495 208.855 336.995 210.876C340.499 212.899 345.045 213.889 349.552 213.889C354.059 213.889 358.606 212.899 362.11 210.876C365.609 208.855 367.524 206.105 367.524 203.205C367.524 202.692 367.464 202.181 367.344 201.675L366.526 194.952C365.896 189.781 363.381 185.183 359.671 181.877C362.403 179.225 364.103 175.511 364.103 171.402C364.103 163.341 357.568 156.806 349.507 156.806C341.447 156.806 334.912 163.341 334.912 171.402Z" fill="#474C59" stroke="#474C59" stroke-width="1.45749"/>
<path d="M333.279 195.04C334.339 186.325 340.907 179.293 349.529 177.641C358.151 179.293 364.763 186.325 365.823 195.04L366.647 201.804C366.76 202.268 366.817 202.736 366.817 203.204C366.817 205.752 365.133 208.3 361.766 210.244C355.032 214.132 344.114 214.132 337.38 210.244C334.013 208.3 332.33 205.752 332.33 203.204H332.285L333.279 195.04Z" fill="url(#paint20_linear_1580_10168)"/>
<mask id="mask1_1580_10168" style="mask-type:alpha" maskUnits="userSpaceOnUse" x="332" y="177" width="35" height="37">
<path d="M333.279 195.04C334.339 186.325 340.907 179.293 349.529 177.641C358.151 179.293 364.763 186.325 365.823 195.04L366.647 201.804C366.76 202.268 366.817 202.736 366.817 203.204C366.817 205.752 365.133 208.3 361.766 210.244C355.032 214.132 344.114 214.132 337.38 210.244C334.013 208.3 332.33 205.752 332.33 203.204H332.285L333.279 195.04Z" fill="url(#paint21_linear_1580_10168)"/>
</mask>
<g mask="url(#mask1_1580_10168)">
<g style="mix-blend-mode:overlay" filter="url(#filter1_f_1580_10168)">
<ellipse cx="348.163" cy="172.312" rx="13.8664" ry="13.8664" fill="black"/>
</g>
</g>
<circle cx="349.53" cy="171.398" r="13.8664" fill="url(#paint22_radial_1580_10168)"/>
<path d="M75.4826 51.8859C75.4826 55.9999 77.1855 59.7169 79.9229 62.3691C76.2294 65.6759 73.7329 70.271 73.1043 75.4368L73.1043 75.4368L73.1038 75.4407L72.155 83.6053L72.1502 83.6472V83.6894C72.1502 86.5894 74.0653 89.3396 77.5651 91.3602C81.0689 93.3831 85.6154 94.3737 90.1225 94.3737C94.6295 94.3737 99.176 93.3831 102.68 91.3602C106.18 89.3396 108.095 86.5894 108.095 83.6894C108.095 83.1767 108.034 82.6652 107.914 82.1594L107.096 75.4368C106.467 70.2657 103.951 65.6676 100.241 62.361C102.973 59.7093 104.673 55.9957 104.673 51.8859C104.673 43.8253 98.1384 37.2908 90.0777 37.2908C82.0171 37.2908 75.4826 43.8253 75.4826 51.8859Z" fill="#474C59" stroke="#474C59" stroke-width="1.45749"/>
<path d="M73.849 75.524C74.9094 66.8094 81.4771 59.7774 90.099 58.125C98.721 59.7774 105.333 66.8094 106.394 75.524L107.217 82.2884C107.331 82.7527 107.387 83.2206 107.387 83.6886C107.387 86.2364 105.704 88.7843 102.337 90.7282C95.6027 94.6161 84.6847 94.6161 77.9507 90.7282C74.5837 88.7843 72.9002 86.2364 72.9002 83.6886H72.8555L73.849 75.524Z" fill="url(#paint23_linear_1580_10168)"/>
<mask id="mask2_1580_10168" style="mask-type:alpha" maskUnits="userSpaceOnUse" x="72" y="58" width="36" height="36">
<path d="M73.849 75.524C74.9094 66.8094 81.4771 59.7774 90.099 58.125C98.721 59.7774 105.333 66.8094 106.394 75.524L107.217 82.2884C107.331 82.7527 107.387 83.2206 107.387 83.6886C107.387 86.2364 105.704 88.7843 102.337 90.7282C95.6027 94.6161 84.6847 94.6161 77.9507 90.7282C74.5837 88.7843 72.9002 86.2364 72.9002 83.6886H72.8555L73.849 75.524Z" fill="url(#paint24_linear_1580_10168)"/>
</mask>
<g mask="url(#mask2_1580_10168)">
<g style="mix-blend-mode:overlay" filter="url(#filter2_f_1580_10168)">
<ellipse cx="88.7336" cy="52.7961" rx="13.8664" ry="13.8664" fill="black"/>
</g>
</g>
<circle cx="90.1008" cy="51.882" r="13.8664" fill="url(#paint25_radial_1580_10168)"/>
<path d="M18.6388 150.995C18.6388 155.109 20.3418 158.826 23.0792 161.479C19.3857 164.785 16.8892 169.38 16.2605 174.546L16.2605 174.546L16.2601 174.55L15.3113 182.715L15.3064 182.757V182.799C15.3064 185.699 17.2215 188.449 20.7213 190.47C24.2252 192.492 28.7717 193.483 33.2787 193.483C37.7857 193.483 42.3322 192.492 45.8361 190.47C49.3359 188.449 51.251 185.699 51.251 182.799C51.251 182.286 51.1905 181.775 51.0702 181.269L50.2521 174.546C49.6229 169.375 47.1075 164.777 43.3972 161.47C46.1297 158.819 47.8291 155.105 47.8291 150.995C47.8291 142.935 41.2947 136.4 33.234 136.4C25.1733 136.4 18.6388 142.935 18.6388 150.995Z" fill="#474C59" stroke="#474C59" stroke-width="1.45749"/>
<path d="M17.0052 174.633C18.0657 165.919 24.6333 158.887 33.2553 157.234C41.8772 158.887 48.4896 165.919 49.55 174.633L50.3732 181.398C50.4868 181.862 50.5435 182.33 50.5435 182.798C50.5435 185.346 48.86 187.894 45.493 189.838C38.759 193.726 27.841 193.726 21.107 189.838C17.7399 187.894 16.0564 185.346 16.0564 182.798H16.0117L17.0052 174.633Z" fill="url(#paint26_linear_1580_10168)"/>
<mask id="mask3_1580_10168" style="mask-type:alpha" maskUnits="userSpaceOnUse" x="16" y="157" width="35" height="36">
<path d="M17.0052 174.633C18.0657 165.919 24.6333 158.887 33.2553 157.234C41.8772 158.887 48.4896 165.919 49.55 174.633L50.3732 181.398C50.4868 181.862 50.5435 182.33 50.5435 182.798C50.5435 185.346 48.86 187.894 45.493 189.838C38.759 193.726 27.841 193.726 21.107 189.838C17.7399 187.894 16.0564 185.346 16.0564 182.798H16.0117L17.0052 174.633Z" fill="url(#paint27_linear_1580_10168)"/>
</mask>
<g mask="url(#mask3_1580_10168)">
<g style="mix-blend-mode:overlay" filter="url(#filter3_f_1580_10168)">
<ellipse cx="31.8898" cy="151.905" rx="13.8664" ry="13.8664" fill="black"/>
</g>
</g>
<circle cx="33.257" cy="150.991" r="13.8664" fill="url(#paint28_radial_1580_10168)"/>
</g>
<defs>
<filter id="filter0_f_1580_10168" x="352.761" y="12.2103" width="56.8842" height="56.8842" filterUnits="userSpaceOnUse" color-interpolation-filters="sRGB">
<feFlood flood-opacity="0" result="BackgroundImageFix"/>
<feBlend mode="normal" in="SourceGraphic" in2="BackgroundImageFix" result="shape"/>
<feGaussianBlur stdDeviation="7.28745" result="effect1_foregroundBlur_1580_10168"/>
</filter>
<filter id="filter1_f_1580_10168" x="319.722" y="143.87" width="56.8842" height="56.8842" filterUnits="userSpaceOnUse" color-interpolation-filters="sRGB">
<feFlood flood-opacity="0" result="BackgroundImageFix"/>
<feBlend mode="normal" in="SourceGraphic" in2="BackgroundImageFix" result="shape"/>
<feGaussianBlur stdDeviation="7.28745" result="effect1_foregroundBlur_1580_10168"/>
</filter>
<filter id="filter2_f_1580_10168" x="60.2923" y="24.3548" width="56.8842" height="56.8842" filterUnits="userSpaceOnUse" color-interpolation-filters="sRGB">
<feFlood flood-opacity="0" result="BackgroundImageFix"/>
<feBlend mode="normal" in="SourceGraphic" in2="BackgroundImageFix" result="shape"/>
<feGaussianBlur stdDeviation="7.28745" result="effect1_foregroundBlur_1580_10168"/>
</filter>
<filter id="filter3_f_1580_10168" x="3.44854" y="123.464" width="56.8842" height="56.8842" filterUnits="userSpaceOnUse" color-interpolation-filters="sRGB">
<feFlood flood-opacity="0" result="BackgroundImageFix"/>
<feBlend mode="normal" in="SourceGraphic" in2="BackgroundImageFix" result="shape"/>
<feGaussianBlur stdDeviation="7.28745" result="effect1_foregroundBlur_1580_10168"/>
</filter>
<radialGradient id="paint0_radial_1580_10168" cx="0" cy="0" r="1" gradientUnits="userSpaceOnUse" gradientTransform="translate(186.034 186.035) rotate(90.1583) scale(185.013)">
<stop offset="0.4375" stop-color="#B3E7EE"/>
<stop offset="0.890625" stop-color="#6DD1DF"/>
<stop offset="1" stop-color="#00AEC7"/>
</radialGradient>
<radialGradient id="paint1_radial_1580_10168" cx="0" cy="0" r="1" gradientUnits="userSpaceOnUse" gradientTransform="translate(128.134 128.134) rotate(90.1583) scale(127.43)">
<stop offset="0.4375" stop-color="#B3E7EE"/>
<stop offset="0.890625" stop-color="#6DD1DF"/>
<stop offset="1" stop-color="#00AEC7"/>
</radialGradient>
<linearGradient id="paint2_linear_1580_10168" x1="283.528" y1="96.3071" x2="274.929" y2="97.1885" gradientUnits="userSpaceOnUse">
<stop stop-color="#EEEEEE"/>
<stop offset="1" stop-color="#E9E9E9"/>
</linearGradient>
<linearGradient id="paint3_linear_1580_10168" x1="183.75" y1="35.6386" x2="181.51" y2="39.5608" gradientUnits="userSpaceOnUse">
<stop stop-color="#FBFBFB"/>
<stop offset="1" stop-color="#EDEEF0"/>
</linearGradient>
<linearGradient id="paint4_linear_1580_10168" x1="236.009" y1="155.929" x2="249.253" y2="72.8549" gradientUnits="userSpaceOnUse">
<stop stop-color="#EAEAEA"/>
<stop offset="1" stop-color="#D6D6D6"/>
</linearGradient>
<linearGradient id="paint5_linear_1580_10168" x1="262.926" y1="107.967" x2="254.328" y2="108.849" gradientUnits="userSpaceOnUse">
<stop stop-color="#EEEEEE"/>
<stop offset="1" stop-color="#E9E9E9"/>
</linearGradient>
<linearGradient id="paint6_linear_1580_10168" x1="163.144" y1="47.3026" x2="160.905" y2="51.2249" gradientUnits="userSpaceOnUse">
<stop stop-color="#FBFBFB"/>
<stop offset="1" stop-color="#EDEEF0"/>
</linearGradient>
<linearGradient id="paint7_linear_1580_10168" x1="215.404" y1="167.593" x2="228.647" y2="84.519" gradientUnits="userSpaceOnUse">
<stop stop-color="#EAEAEA"/>
<stop offset="1" stop-color="#D6D6D6"/>
</linearGradient>
<linearGradient id="paint8_linear_1580_10168" x1="204.739" y1="88.0729" x2="204.739" y2="154.219" gradientUnits="userSpaceOnUse">
<stop stop-color="#009CAD"/>
<stop offset="1" stop-color="#03B4C8"/>
</linearGradient>
<linearGradient id="paint9_linear_1580_10168" x1="242.321" y1="120.002" x2="233.722" y2="120.884" gradientUnits="userSpaceOnUse">
<stop stop-color="#EEEEEE"/>
<stop offset="1" stop-color="#E9E9E9"/>
</linearGradient>
<linearGradient id="paint10_linear_1580_10168" x1="142.539" y1="59.3339" x2="140.299" y2="63.2561" gradientUnits="userSpaceOnUse">
<stop stop-color="#FBFBFB"/>
<stop offset="1" stop-color="#EDEEF0"/>
</linearGradient>
<linearGradient id="paint11_linear_1580_10168" x1="194.798" y1="179.625" x2="208.042" y2="96.5503" gradientUnits="userSpaceOnUse">
<stop stop-color="#EAEAEA"/>
<stop offset="1" stop-color="#D6D6D6"/>
</linearGradient>
<linearGradient id="paint12_linear_1580_10168" x1="-0.00224201" y1="0.0022377" x2="0.432897" y2="4.13492" gradientUnits="userSpaceOnUse">
<stop stop-color="#FBFBFB"/>
<stop offset="1" stop-color="#EDEEF0"/>
</linearGradient>
<linearGradient id="paint13_linear_1580_10168" x1="-0.00224201" y1="0.0022377" x2="0.432899" y2="4.13493" gradientUnits="userSpaceOnUse">
<stop stop-color="#FBFBFB"/>
<stop offset="1" stop-color="#EDEEF0"/>
</linearGradient>
<linearGradient id="paint14_linear_1580_10168" x1="-0.00224201" y1="0.0022377" x2="0.4329" y2="4.13493" gradientUnits="userSpaceOnUse">
<stop stop-color="#FBFBFB"/>
<stop offset="1" stop-color="#EDEEF0"/>
</linearGradient>
<linearGradient id="paint15_linear_1580_10168" x1="-0.0299558" y1="0.00691936" x2="0.284706" y2="12.9199" gradientUnits="userSpaceOnUse">
<stop stop-color="#FBFBFB"/>
<stop offset="1" stop-color="#EDEEF0"/>
</linearGradient>
<linearGradient id="paint16_linear_1580_10168" x1="-0.0299558" y1="0.00691936" x2="0.284707" y2="12.9199" gradientUnits="userSpaceOnUse">
<stop stop-color="#FBFBFB"/>
<stop offset="1" stop-color="#EDEEF0"/>
</linearGradient>
<linearGradient id="paint17_linear_1580_10168" x1="399.856" y1="63.8111" x2="365.442" y2="63.8111" gradientUnits="userSpaceOnUse">
<stop stop-color="#F5F5F5"/>
<stop offset="0.223958" stop-color="#E9E9E9"/>
<stop offset="0.859375" stop-color="#C9C9C9"/>
<stop offset="1" stop-color="#DBDBDB"/>
</linearGradient>
<linearGradient id="paint18_linear_1580_10168" x1="398.489" y1="63.8111" x2="365.442" y2="63.8111" gradientUnits="userSpaceOnUse">
<stop stop-color="#D9DFEE"/>
<stop offset="0.489583" stop-color="#C7CEE3"/>
<stop offset="1" stop-color="#B4BDD8"/>
</linearGradient>
<radialGradient id="paint19_radial_1580_10168" cx="0" cy="0" r="1" gradientUnits="userSpaceOnUse" gradientTransform="translate(388.557 35.1679) rotate(135) scale(21.2256)">
<stop stop-color="white"/>
<stop offset="0.255208" stop-color="#EEEEEE"/>
<stop offset="0.880208" stop-color="#AFAFAF"/>
<stop offset="1" stop-color="#D6D6D6"/>
</radialGradient>
<linearGradient id="paint20_linear_1580_10168" x1="366.817" y1="195.471" x2="332.403" y2="195.471" gradientUnits="userSpaceOnUse">
<stop stop-color="#F5F5F5"/>
<stop offset="0.223958" stop-color="#E9E9E9"/>
<stop offset="0.859375" stop-color="#C9C9C9"/>
<stop offset="1" stop-color="#DBDBDB"/>
</linearGradient>
<linearGradient id="paint21_linear_1580_10168" x1="365.45" y1="195.471" x2="332.403" y2="195.471" gradientUnits="userSpaceOnUse">
<stop stop-color="#D9DFEE"/>
<stop offset="0.489583" stop-color="#C7CEE3"/>
<stop offset="1" stop-color="#B4BDD8"/>
</linearGradient>
<radialGradient id="paint22_radial_1580_10168" cx="0" cy="0" r="1" gradientUnits="userSpaceOnUse" gradientTransform="translate(355.518 166.828) rotate(135) scale(21.2256)">
<stop stop-color="white"/>
<stop offset="0.255208" stop-color="#EEEEEE"/>
<stop offset="0.880208" stop-color="#AFAFAF"/>
<stop offset="1" stop-color="#D6D6D6"/>
</radialGradient>
<linearGradient id="paint23_linear_1580_10168" x1="107.387" y1="75.9556" x2="72.9729" y2="75.9556" gradientUnits="userSpaceOnUse">
<stop stop-color="#F5F5F5"/>
<stop offset="0.223958" stop-color="#E9E9E9"/>
<stop offset="0.859375" stop-color="#C9C9C9"/>
<stop offset="1" stop-color="#DBDBDB"/>
</linearGradient>
<linearGradient id="paint24_linear_1580_10168" x1="106.02" y1="75.9556" x2="72.9729" y2="75.9556" gradientUnits="userSpaceOnUse">
<stop stop-color="#D9DFEE"/>
<stop offset="0.489583" stop-color="#C7CEE3"/>
<stop offset="1" stop-color="#B4BDD8"/>
</linearGradient>
<radialGradient id="paint25_radial_1580_10168" cx="0" cy="0" r="1" gradientUnits="userSpaceOnUse" gradientTransform="translate(96.0885 47.3124) rotate(135) scale(21.2256)">
<stop stop-color="white"/>
<stop offset="0.255208" stop-color="#EEEEEE"/>
<stop offset="0.880208" stop-color="#AFAFAF"/>
<stop offset="1" stop-color="#D6D6D6"/>
</radialGradient>
<linearGradient id="paint26_linear_1580_10168" x1="50.5435" y1="175.065" x2="16.1292" y2="175.065" gradientUnits="userSpaceOnUse">
<stop stop-color="#F5F5F5"/>
<stop offset="0.223958" stop-color="#E9E9E9"/>
<stop offset="0.859375" stop-color="#C9C9C9"/>
<stop offset="1" stop-color="#DBDBDB"/>
</linearGradient>
<linearGradient id="paint27_linear_1580_10168" x1="49.1763" y1="175.065" x2="16.1292" y2="175.065" gradientUnits="userSpaceOnUse">
<stop stop-color="#D9DFEE"/>
<stop offset="0.489583" stop-color="#C7CEE3"/>
<stop offset="1" stop-color="#B4BDD8"/>
</linearGradient>
<radialGradient id="paint28_radial_1580_10168" cx="0" cy="0" r="1" gradientUnits="userSpaceOnUse" gradientTransform="translate(39.2448 146.422) rotate(135) scale(21.2256)">
<stop stop-color="white"/>
<stop offset="0.255208" stop-color="#EEEEEE"/>
<stop offset="0.880208" stop-color="#AFAFAF"/>
<stop offset="1" stop-color="#D6D6D6"/>
</radialGradient>
<clipPath id="clip0_1580_10168">
<rect width="424" height="240" rx="20" fill="white"/>
</clipPath>
<clipPath id="clip1_1580_10168">
<rect width="50.5993" height="11.6877" rx="0.715459" transform="matrix(0.866025 0.498717 -2.20872e-08 1 166.988 125.246)" fill="white"/>
</clipPath>
</defs>
</svg>
