<svg width="101" height="100" viewBox="0 0 101 100" fill="none" xmlns="http://www.w3.org/2000/svg">
<path d="M31.9826 60.1152L31.9272 60.0613C30.6321 61.327 29.3453 62.6013 28.0965 63.9095C27.4384 64.5987 27.1954 65.4749 27.9541 66.271C28.7481 67.1042 29.7048 67.0538 30.5812 66.4215C31.2243 65.9224 31.8288 65.378 32.39 64.7926C44.6115 52.893 56.822 40.9826 69.0216 29.0614L76.4519 27.8001C75.2392 26.6013 70.1945 22.9715 69.0448 24.0873C64.2326 28.7562 59.4175 33.4226 54.5998 38.0864L31.9826 60.1152Z" fill="white"/>
<path d="M38.1788 66.303C39.3695 67.5539 40.485 66.6582 41.4294 65.7392C51.4821 55.9575 61.5317 46.1726 71.5781 36.3847C72.0557 35.9195 72.5327 35.4502 72.583 34.7344C72.5885 34.4026 72.4835 34.0779 72.2837 33.809C72.084 33.5402 71.8001 33.3415 71.4748 33.2429C70.2913 32.8261 69.4786 33.5006 68.7171 34.2419C58.7729 43.9235 48.8301 53.6064 38.8885 63.2906C38.0086 64.1479 37.1 65.1698 38.1788 66.303Z" fill="white"/>
<path d="M42.4247 43.5669L44.603 41.4455C44.4599 40.8987 44.0872 40.4659 43.6718 40.0607C39.2387 35.7351 34.8006 31.4143 30.3575 27.0982C29.9942 26.7336 29.5624 26.4405 29.0854 26.2349C28.3569 25.9439 27.6057 25.9909 27.0265 26.612C26.4417 27.2395 26.4495 27.9612 26.9032 28.6215C27.3244 29.2204 27.8034 29.7787 28.3335 30.2889C31.5968 33.4903 34.8706 36.6815 38.1548 39.8627C39.2652 40.9413 40.3699 42.0273 41.5208 43.064C41.7754 43.301 42.0858 43.4737 42.4247 43.5669Z" fill="white"/>
<path d="M51.2246 32.5404C51.6769 32.9809 52.1759 33.3936 52.7022 33.5565L54.7939 31.5192C54.6242 31.005 54.1951 30.5193 53.7431 30.0787C44.1788 20.758 34.611 11.4408 25.0396 2.12713C24.5043 1.60597 23.9322 1.13568 23.1032 1.16755C22.4528 1.20038 21.9321 1.47104 21.6852 2.06536C21.2488 3.11517 21.8067 3.88343 22.5259 4.58438C32.0915 13.9037 41.6577 23.2224 51.2246 32.5404Z" fill="white"/>
<path d="M45.9653 37.4251C46.4311 37.877 46.9896 38.3387 47.5939 38.533L49.6762 36.505C49.4121 35.7695 48.7832 35.2785 48.2381 34.7461C42.3758 29.0234 36.5082 23.3058 30.6352 17.5934C29.419 16.4094 28.2101 15.2171 26.9562 14.0717C26.2191 13.3984 25.3438 13.2252 24.558 13.9836C23.8101 14.7053 23.8637 15.5547 24.4533 16.3634C24.7184 16.7157 25.0132 17.0458 25.3346 17.3503C32.2055 24.0478 39.0824 30.7394 45.9651 37.4251H45.9653Z" fill="white"/>
<path d="M68.5889 67.055C68.9186 67.0964 69.2509 67.1149 69.5833 67.1103C70.8405 66.9965 72.4274 67.0768 72.4673 65.3894C72.5084 63.6489 70.9625 63.6414 69.6677 63.6884C68.3525 63.7362 67.3879 63.2092 66.514 62.314C65.1728 60.9398 63.8305 59.5576 62.3809 58.2956C61.0981 57.1787 61.2805 56.3596 62.4479 55.2655C65.5236 52.3834 68.5099 49.4106 71.5108 46.4537C72.3964 45.5807 73.1826 44.5373 71.989 43.4395C70.9173 42.4538 69.8939 43.1412 69.0515 43.9569C65.2278 47.66 61.4272 51.3856 57.6032 55.088C56.2656 56.3828 56.3275 57.5908 57.6521 58.8583C59.8955 61.0055 62.1358 63.1575 64.3129 65.368C65.5336 66.6073 66.867 67.3824 68.5889 67.055Z" fill="white"/>
<path d="M20.5206 80.2552C16.5973 80.2853 12.6736 80.2595 8.75016 80.2831C8.20094 80.2864 8.06365 80.1346 8.06859 79.6137C8.09457 76.8715 8.10496 74.1287 8.06316 71.3869C8.05312 70.7281 8.24657 70.5859 8.8991 70.5899C13.5567 70.6184 18.2146 70.5985 22.8724 70.615C23.1359 70.6159 23.3128 70.5882 23.4183 70.4824V66.4492C23.3118 66.3301 23.1259 66.2861 22.8217 66.2871C16.3055 66.3085 9.78918 66.3085 3.27282 66.2874C2.68848 66.2855 2.55632 66.4503 2.55862 66.9966C2.58001 72.0577 2.57126 77.1189 2.57126 82.1801C2.57126 87.2635 2.57864 92.347 2.55985 97.4304C2.55797 97.9394 2.66994 98.1173 3.22951 98.1005C4.6278 98.0586 6.02939 98.056 7.42746 98.1014C8.00438 98.1201 8.09356 97.9177 8.09126 97.4205C8.07255 93.3851 8.09315 89.3494 8.06711 85.314C8.06329 84.7223 8.19455 84.5324 8.84374 84.5378C12.767 84.5702 16.6908 84.5445 20.6142 84.5655C21.1246 84.5682 21.2948 84.4485 21.2734 83.9379C21.2323 82.9586 21.2242 81.9745 21.2754 80.996C21.3061 80.4095 21.1371 80.2505 20.5206 80.2552Z" fill="white"/>
<path d="M98.5694 84.6158C98.0276 79.857 94.9798 75.495 89.0448 74.8728C84.2221 74.3672 79.8145 76.5348 77.8648 81.0146C76.6833 83.7294 76.5484 86.5409 77.0894 89.403C78.0876 94.6843 82.2747 98.0861 87.7503 98.0859C92.6241 98.0858 96.3794 95.5137 97.9336 91.0763C98.6687 88.9773 98.8197 86.8145 98.5694 84.6158ZM91.9593 91.4217C91.5025 92.1063 90.8775 92.6689 90.141 93.0586C89.4045 93.4484 88.5797 93.6529 87.7415 93.6536C86.9033 93.6543 86.0781 93.4512 85.3409 93.0627C84.6037 92.6742 83.9777 92.1125 83.5197 91.4288C82.3198 89.6434 82.1786 87.633 82.2681 85.5847C82.2946 84.3118 82.6222 83.062 83.2256 81.9326C84.1805 80.2137 85.6365 79.3179 87.6641 79.2964C89.7155 79.2747 91.2331 80.1312 92.2171 81.866C93.0382 83.3102 93.2373 84.8921 93.2365 86.3811C93.2127 88.2458 92.9635 89.9287 91.9593 91.4217Z" fill="white"/>
<path d="M41.1349 81.375C40.6894 77.9773 38.7881 75.861 35.3787 75.141C32.0115 74.43 28.6813 74.8449 25.391 75.7117C25.0473 75.8022 25.0397 75.9635 25.0877 76.2443C25.2678 77.2979 25.4518 78.3522 25.5801 79.4125C25.6408 79.9146 25.8178 79.9691 26.2855 79.8373C28.3143 79.2627 30.4338 79.0538 32.5396 79.2209C34.3347 79.3616 35.637 80.4306 36.0071 82.0633C36.1264 82.631 36.1891 83.2085 36.1944 83.7879C36.2056 84.2333 36.1105 84.3501 35.6216 84.2473C33.081 83.6946 30.4392 83.766 27.934 84.4551C23.2246 85.7556 21.2797 90.7622 23.9035 94.7908C25.2248 96.8194 27.3114 97.5453 29.6128 97.8076C33.3879 98.2377 37.1114 97.7746 40.8184 97.0985C41.2251 97.0243 41.3123 96.849 41.3096 96.4765C41.2928 94.1363 41.3011 91.7959 41.3011 88.9611C41.2043 86.7627 41.487 84.0612 41.1349 81.375ZM36.1927 88.5732C36.1621 89.3289 36.1841 90.0866 36.1841 90.8435C36.184 91.6003 36.1668 92.3577 36.1914 93.1138C36.2035 93.4863 36.1249 93.6596 35.6886 93.7039C34.0902 93.8661 32.4859 94.0041 30.8995 93.7206C28.9587 93.3737 28.1913 92.4867 28.1786 90.7762C28.1668 89.1976 29.0411 88.1943 30.8614 87.8293C32.439 87.5289 34.0623 87.5389 35.6359 87.8586C36.111 87.9487 36.2097 88.1532 36.1927 88.5732Z" fill="white"/>
<path d="M74.4743 93.2228C74.4077 92.7325 74.2433 92.7193 73.8153 92.866C72.0749 93.4463 70.2311 93.674 68.3971 93.5351C65.765 93.3672 64.087 92.1353 63.2851 89.6842C62.5585 87.5276 62.5761 85.1987 63.3352 83.0528C64.1274 80.7844 65.8014 79.5308 68.2811 79.3327C69.931 79.1918 71.5921 79.4242 73.1345 80.0118C73.5494 80.17 73.6763 80.062 73.7713 79.6774C74.0331 78.6181 74.2934 77.5559 74.627 76.5169C74.7889 76.013 74.6083 75.8758 74.1672 75.7246C72.1133 75.0007 69.928 74.6978 67.7482 74.8348C64.2819 75.0694 61.4427 76.472 59.4635 79.3028C57.9479 81.4705 57.35 83.9154 57.3676 86.7368C57.3671 87.7109 57.4694 88.6825 57.6729 89.6362C58.3316 92.8172 59.9079 95.4097 62.9975 96.8447C66.8344 98.6268 70.7811 98.3187 74.7242 97.1235C75.073 97.0178 75.0918 96.8195 75.0347 96.5147C74.8295 95.4205 74.6242 94.325 74.4743 93.2228Z" fill="white"/>
<path d="M54.4793 93.5264C52.8021 93.1992 52.1904 92.5667 51.9627 90.9029C51.9224 90.5942 51.9031 90.2833 51.9048 89.9722C51.9018 81.8174 51.9009 73.6627 51.9024 65.5079C51.9024 65.352 51.8918 65.1952 51.9042 65.0402C51.9284 64.7373 51.8145 64.6745 51.5049 64.7282C50.1076 64.9704 48.71 65.2217 47.3026 65.3926C46.735 65.4615 46.6107 65.6577 46.6133 66.1808C46.6351 70.4809 46.6256 74.7811 46.6256 79.0813C46.6256 80.1285 46.6239 81.1757 46.626 82.2229C46.6323 85.4979 46.5878 88.7741 46.6634 92.0476C46.7277 94.8304 48.003 96.5119 50.4698 97.3412C51.6731 97.7458 52.9294 97.8361 54.1857 97.9375C54.5962 97.9706 54.69 97.7585 54.7415 97.4398C54.8939 96.495 55.0546 95.5514 55.2174 94.6081C55.374 93.7011 55.3769 93.7015 54.4793 93.5264Z" fill="white"/>
</svg>
