<svg width="277" height="100" viewBox="0 0 277 100" fill="none" xmlns="http://www.w3.org/2000/svg">
<path d="M136.305 64.7843C129.529 64.8376 122.753 64.7919 115.978 64.8337C115.029 64.8395 114.792 64.5707 114.801 63.6483C114.845 58.7923 114.863 53.9351 114.791 49.0798C114.774 47.9132 115.108 47.6614 116.235 47.6684C124.278 47.719 132.322 47.6836 140.366 47.7128C140.699 47.7621 141.038 47.6777 141.309 47.478V40.3359C141.125 40.125 140.804 40.0471 140.279 40.0489C129.025 40.0866 117.772 40.0868 106.519 40.0493C105.509 40.046 105.281 40.3378 105.285 41.3053C105.322 50.2677 105.307 59.2304 105.307 68.193C105.307 77.1951 105.32 86.1972 105.287 95.1992C105.284 96.1005 105.477 96.4155 106.444 96.3858C108.859 96.3115 111.279 96.307 113.693 96.3874C114.69 96.4205 114.844 96.0621 114.84 95.1817C114.807 88.0354 114.843 80.8888 114.798 73.7427C114.791 72.6949 115.018 72.3586 116.139 72.3681C122.915 72.4256 129.691 72.38 136.466 72.4172C137.348 72.422 137.642 72.2101 137.605 71.3059C137.534 69.5715 137.52 67.829 137.608 66.0962C137.661 65.0575 137.369 64.7759 136.305 64.7843Z" fill="#00AEC7"/>
<path d="M271.089 72.5061C270.153 64.0788 264.89 56.3543 254.64 55.2525C246.312 54.3572 238.7 58.1957 235.333 66.1288C233.293 70.9363 233.06 75.9152 233.994 80.9834C235.718 90.3358 242.949 96.3599 252.405 96.3597C260.822 96.3595 267.307 91.8047 269.991 83.9466C271.204 80.2621 271.579 76.3537 271.089 72.5061ZM259.674 84.5583C258.885 85.7705 257.806 86.7669 256.534 87.4571C255.262 88.1472 253.837 88.5094 252.39 88.5106C250.942 88.5118 249.517 88.1522 248.244 87.4642C246.971 86.7762 245.89 85.7817 245.099 84.5708C243.027 81.4091 242.783 77.849 242.937 74.2219C242.983 71.9677 243.549 69.7545 244.591 67.7544C246.24 64.7105 248.755 63.1242 252.256 63.0861C255.799 63.0476 258.42 64.5644 260.119 67.6366C261.537 70.194 261.881 72.9953 261.879 75.6321C261.838 78.9342 261.408 81.9144 259.674 84.5583Z" fill="#00AEC7"/>
<path d="M171.907 66.7678C171.138 60.751 167.855 57.0035 161.967 55.7285C156.152 54.4693 150.401 55.2041 144.719 56.739C144.125 56.8994 144.112 57.185 144.195 57.6822C144.506 59.5481 144.824 61.4151 145.045 63.2927C145.15 64.1818 145.456 64.2782 146.263 64.0449C149.767 63.0273 153.427 62.6574 157.064 62.9533C160.164 63.2024 162.413 65.0956 163.052 67.9868C163.258 68.9921 163.366 70.0148 163.375 71.0408C163.395 71.8296 163.231 72.0364 162.386 71.8543C157.999 70.8756 153.436 71.0021 149.11 72.2224C140.977 74.5254 137.619 83.3913 142.15 90.5254C144.431 94.1177 148.035 95.4033 152.009 95.8677C158.529 96.6295 164.959 95.8093 171.361 94.612C172.063 94.4806 172.214 94.1702 172.209 93.5105C172.18 89.3664 172.194 85.2219 172.194 80.2019C172.027 76.3088 172.516 71.5248 171.907 66.7678ZM163.373 79.515C163.32 80.8532 163.358 82.1949 163.358 83.5352C163.358 84.8755 163.328 86.2167 163.37 87.5556C163.391 88.2154 163.255 88.5222 162.502 88.6006C159.742 88.8879 156.971 89.1323 154.231 88.6301C150.88 88.0159 149.554 86.4451 149.533 83.4161C149.512 80.6206 151.022 78.8439 154.166 78.1975C156.89 77.6657 159.693 77.6834 162.411 78.2495C163.231 78.4091 163.402 78.7712 163.373 79.515Z" fill="#00AEC7"/>
<path d="M229.481 87.7502C229.366 86.8819 229.082 86.8586 228.342 87.1184C225.337 88.1461 222.153 88.5493 218.986 88.3032C214.44 88.006 211.542 85.8245 210.157 81.4838C208.903 77.6648 208.933 73.5408 210.244 69.7406C211.612 65.7236 214.503 63.5037 218.785 63.1529C221.635 62.9032 224.503 63.3148 227.167 64.3555C227.883 64.6356 228.102 64.4443 228.267 63.7632C228.719 61.8873 229.168 60.0063 229.744 58.1664C230.024 57.2741 229.712 57.0311 228.95 56.7633C225.403 55.4815 221.629 54.945 217.865 55.1877C211.879 55.6031 206.976 58.0868 203.558 63.0998C200.94 66.9385 199.908 71.2681 199.938 76.2644C199.937 77.9894 200.114 79.7099 200.465 81.3989C201.603 87.0319 204.325 91.6229 209.661 94.1641C216.287 97.32 223.103 96.7742 229.912 94.6578C230.515 94.4705 230.547 94.1194 230.448 93.5797C230.094 91.642 229.739 89.702 229.481 87.7502Z" fill="#00AEC7"/>
<path d="M194.955 88.2859C192.059 87.7065 191.002 86.5864 190.609 83.6401C190.54 83.0935 190.506 82.5429 190.509 81.9918C190.504 67.5509 190.503 53.1101 190.505 38.6692C190.505 38.393 190.487 38.1154 190.508 37.8409C190.55 37.3044 190.353 37.1934 189.819 37.2884C187.406 37.7172 184.992 38.1622 182.561 38.4649C181.581 38.5869 181.367 38.9345 181.371 39.8608C181.409 47.4756 181.392 55.0907 181.392 62.7057C181.392 64.5601 181.389 66.4145 181.393 68.269C181.404 74.0686 181.327 79.8702 181.458 85.6672C181.569 90.5952 183.771 93.5729 188.031 95.0414C190.109 95.7579 192.279 95.9177 194.448 96.0974C195.157 96.156 195.319 95.7804 195.408 95.216C195.671 93.5429 195.949 91.8718 196.23 90.2015C196.5 88.5952 196.505 88.596 194.955 88.2859Z" fill="#00AEC7"/>
<path d="M69.1623 35.5301C67.3963 37.3414 65.5549 39.0794 63.759 40.8619C57.2178 47.3542 50.6798 53.8495 44.1449 60.3481C36.4537 67.9835 28.7814 75.638 21.0509 83.2337C18.3425 85.8949 15.6994 88.6166 13.0559 91.3391C11.8534 92.5776 11.7543 93.8591 12.6952 94.9134C13.6743 96.0105 14.9612 96.141 16.3058 95.1666C17.0964 94.5742 17.8394 93.921 18.528 93.2128C35.3293 76.4512 52.1239 59.6829 68.9118 42.9078C69.3352 42.4453 69.9033 42.14 70.5231 42.0418C73.6076 41.5459 76.6798 40.9743 80.0259 40.3823C77.3041 38.0885 74.7151 36.0489 71.5077 34.9469C71.1059 34.7796 70.6609 34.7459 70.2384 34.851C69.816 34.956 69.4386 35.1942 69.1623 35.5301Z" fill="#00AEC7"/>
<path d="M74.1325 51.4742C74.4065 51.103 74.5591 50.6564 74.5694 50.1953C74.5577 48.4161 72.5996 47.3399 70.8862 48.1435C70.1523 48.5366 69.4925 49.0543 68.9362 49.6733C55.2924 63.2712 41.6485 76.8691 28.0046 90.4669C27.5797 90.8801 27.1852 91.3234 26.8241 91.7933C25.8967 93.0334 25.9579 94.0551 26.973 95.0699C27.9721 96.0686 29.0073 96.12 30.2654 95.1853C30.7361 94.8246 31.1802 94.4305 31.5942 94.0061C45.439 80.2179 59.2803 66.4261 73.118 52.6307C73.4776 52.2645 73.8163 51.8784 74.1325 51.4742Z" fill="#00AEC7"/>
<path d="M44.6139 46.8363C45.1791 47.4453 45.8328 47.9658 46.5531 48.3804C47.6263 48.9462 48.5246 48.6715 49.3328 47.8435C49.7012 47.507 49.9413 47.0535 50.0124 46.5601C50.0835 46.0667 49.9811 45.5639 49.7227 45.1375C49.4159 44.5839 49.0221 44.0831 48.5562 43.6542C35.2837 30.4308 22.0118 17.2067 8.74058 3.98201C8.21517 3.38702 7.53954 2.94374 6.78416 2.69842C5.15487 2.25862 3.82086 3.25965 3.82131 4.67492C3.79344 5.93453 4.35606 6.64543 4.99708 7.30422C6.18191 8.52186 7.37594 9.73061 8.57915 10.9305C20.5888 22.901 32.6004 34.8696 44.6139 46.8363Z" fill="#00AEC7"/>
<path d="M60.8032 79.0588C64.4794 75.4143 68.1557 71.7699 71.8321 68.1256C72.6019 67.3876 73.3239 66.6015 73.9939 65.7721C74.8817 64.6286 74.7829 63.5161 73.8425 62.5861C72.8762 61.6306 71.8076 61.5492 70.6343 62.3908C70.1555 62.7405 69.7054 63.1279 69.2883 63.5491C64.1576 68.6495 59.0322 73.7551 53.912 78.8659C51.9115 80.8633 51.9143 82.4772 53.8922 84.4606C56.8786 87.4554 59.8889 90.4271 62.8448 93.4516C64.6148 95.2626 66.5498 96.5572 69.0861 96.0633C70.2437 96.1801 71.4124 96.1147 72.5497 95.8693C73.1075 95.797 73.6157 95.5115 73.9673 95.0729C74.319 94.6344 74.4868 94.0767 74.4355 93.5172C74.4181 92.2698 73.8519 91.5437 72.5731 91.3011C71.9107 91.1891 71.2378 91.153 70.5672 91.1936C69.8133 91.2305 69.0603 91.1052 68.3591 90.8261C67.6579 90.5471 67.0249 90.1208 66.503 89.5762C64.3331 87.4435 62.1776 85.2965 60.0363 83.135C58.9608 82.0436 58.9522 81.2184 59.9118 80.0085C60.1899 79.6746 60.4875 79.3575 60.8032 79.0588Z" fill="#00AEC7"/>
<path d="M39.831 55.5911C41.4461 56.185 42.9508 55.2067 43.0004 53.5019C42.9895 53.0854 42.8921 52.6756 42.7142 52.2987C42.5363 51.9218 42.2819 51.5859 41.9671 51.3124C40.9687 50.2976 39.9534 49.299 38.944 48.2949C29.8592 39.258 20.7742 30.2212 11.6891 21.1846C11.0904 20.5891 10.4479 20.0777 9.89978 20.0703C8.14107 20.0943 6.98165 21.5741 7.28159 22.9458C7.49468 23.9204 8.11912 24.6341 8.79275 25.3059C18.3979 34.8846 28.0064 44.4599 37.6182 54.032C38.2329 54.7068 38.9882 55.239 39.831 55.5911Z" fill="#00AEC7"/>
<path d="M29.7755 60.4234C30.4398 61.0999 31.1434 61.7367 31.8827 62.3307C32.2576 62.6292 32.713 62.8095 33.1909 62.8487C33.6688 62.888 34.1476 62.7843 34.5663 62.551C34.9735 62.3579 35.3174 62.0531 35.5578 61.6722C35.7983 61.2914 35.9254 60.8501 35.9243 60.3998C35.8912 59.0458 35.0392 58.1963 34.1983 57.3592C28.1734 51.3614 22.1439 45.3682 16.1098 39.3795C15.5612 38.8068 14.8946 38.3601 14.156 38.0703C13.6823 37.854 13.1497 37.8023 12.6432 37.9234C12.1366 38.0446 11.6853 38.3317 11.3611 38.7388C10.5815 39.6396 10.6127 40.6046 11.2474 41.569C11.8209 42.422 12.4807 43.2139 13.2165 43.9321C18.7352 49.4301 24.2549 54.9272 29.7755 60.4234Z" fill="#00AEC7"/>
</svg>
