<svg width="276" height="100" viewBox="0 0 276 100" fill="none" xmlns="http://www.w3.org/2000/svg">
<path d="M135.637 64.7843C128.861 64.8376 122.085 64.7919 115.31 64.8337C114.361 64.8395 114.124 64.5707 114.133 63.6483C114.178 58.7923 114.195 53.9351 114.123 49.0798C114.106 47.9132 114.44 47.6614 115.567 47.6684C123.61 47.719 131.654 47.6836 139.698 47.7128C140.031 47.7621 140.37 47.6777 140.641 47.478V40.3359C140.457 40.125 140.136 40.0471 139.611 40.0489C128.357 40.0866 117.104 40.0868 105.851 40.0493C104.841 40.046 104.613 40.3378 104.617 41.3053C104.654 50.2677 104.639 59.2304 104.639 68.193C104.639 77.1951 104.652 86.1972 104.619 95.1992C104.616 96.1005 104.809 96.4155 105.776 96.3858C108.191 96.3115 110.611 96.307 113.025 96.3874C114.022 96.4205 114.176 96.0621 114.172 95.1817C114.14 88.0354 114.175 80.8888 114.13 73.7427C114.124 72.6949 114.35 72.3587 115.471 72.3681C122.247 72.4256 129.023 72.38 135.798 72.4172C136.68 72.422 136.974 72.2101 136.937 71.3059C136.866 69.5716 136.852 67.829 136.94 66.0962C136.993 65.0575 136.701 64.7759 135.637 64.7843Z" fill="black"/>
<path d="M270.421 72.5061C269.485 64.0788 264.222 56.3543 253.973 55.2525C245.644 54.3572 238.032 58.1957 234.665 66.1288C232.625 70.9363 232.392 75.9152 233.326 80.9834C235.05 90.3358 242.281 96.3599 251.737 96.3597C260.154 96.3595 266.639 91.8047 269.323 83.9466C270.536 80.2621 270.911 76.3537 270.421 72.5061ZM259.006 84.5583C258.217 85.7705 257.138 86.7669 255.866 87.4571C254.594 88.1473 253.169 88.5094 251.722 88.5106C250.274 88.5119 248.849 88.1522 247.576 87.4642C246.303 86.7762 245.222 85.7817 244.431 84.5708C242.359 81.4091 242.115 77.849 242.269 74.2219C242.315 71.9677 242.881 69.7545 243.923 67.7544C245.572 64.7105 248.087 63.1242 251.588 63.0861C255.131 63.0476 257.752 64.5644 259.451 67.6366C260.869 70.194 261.213 72.9953 261.211 75.6321C261.17 78.9342 260.74 81.9144 259.006 84.5583Z" fill="black"/>
<path d="M171.239 66.7678C170.47 60.751 167.187 57.0035 161.299 55.7285C155.484 54.4693 149.733 55.2041 144.051 56.739C143.457 56.8994 143.444 57.185 143.527 57.6822C143.838 59.5481 144.156 61.4151 144.377 63.2927C144.482 64.1818 144.788 64.2782 145.595 64.0449C149.099 63.0273 152.759 62.6574 156.396 62.9533C159.496 63.2024 161.745 65.0956 162.384 67.9868C162.59 68.9921 162.698 70.0148 162.707 71.0408C162.727 71.8296 162.563 72.0364 161.718 71.8543C157.331 70.8756 152.769 71.0021 148.442 72.2224C140.309 74.5254 136.951 83.3913 141.482 90.5254C143.763 94.1177 147.367 95.4033 151.341 95.8677C157.861 96.6295 164.291 95.8093 170.693 94.612C171.395 94.4806 171.546 94.1702 171.541 93.5105C171.512 89.3663 171.526 85.2219 171.526 80.2019C171.359 76.3088 171.848 71.5247 171.239 66.7678ZM162.705 79.515C162.652 80.8532 162.69 82.1949 162.69 83.5352C162.69 84.8755 162.66 86.2167 162.702 87.5556C162.723 88.2154 162.587 88.5222 161.834 88.6006C159.074 88.8879 156.303 89.1323 153.564 88.6301C150.212 88.0159 148.886 86.4451 148.865 83.4161C148.844 80.6206 150.354 78.8439 153.498 78.1975C156.222 77.6657 159.025 77.6833 161.743 78.2495C162.563 78.4091 162.734 78.7712 162.705 79.515Z" fill="black"/>
<path d="M228.813 87.7502C228.698 86.8819 228.414 86.8586 227.675 87.1184C224.669 88.1461 221.485 88.5493 218.318 88.3032C213.772 88.0059 210.874 85.8245 209.489 81.4838C208.235 77.6648 208.265 73.5407 209.576 69.7406C210.944 65.7236 213.835 63.5037 218.117 63.1529C220.967 62.9032 223.835 63.3148 226.499 64.3555C227.215 64.6356 227.434 64.4443 227.599 63.7632C228.051 61.8873 228.5 60.0063 229.076 58.1664C229.356 57.2741 229.044 57.0311 228.282 56.7633C224.735 55.4815 220.961 54.945 217.197 55.1877C211.211 55.6031 206.308 58.0868 202.89 63.0998C200.272 66.9385 199.24 71.2681 199.27 76.2644C199.269 77.9894 199.446 79.7099 199.798 81.3989C200.935 87.0319 203.657 91.6229 208.993 94.1641C215.619 97.32 222.435 96.7742 229.244 94.6578C229.847 94.4706 229.879 94.1194 229.78 93.5797C229.426 91.6419 229.071 89.702 228.813 87.7502Z" fill="black"/>
<path d="M194.287 88.2859C191.391 87.7065 190.335 86.5864 189.941 83.6401C189.872 83.0935 189.838 82.5429 189.841 81.9918C189.836 67.5509 189.835 53.1101 189.837 38.6692C189.837 38.393 189.819 38.1154 189.84 37.8409C189.882 37.3044 189.685 37.1934 189.151 37.2884C186.738 37.7172 184.324 38.1622 181.893 38.4649C180.913 38.5869 180.699 38.9345 180.703 39.8608C180.741 47.4756 180.724 55.0907 180.724 62.7057C180.724 64.5601 180.721 66.4145 180.725 68.269C180.736 74.0686 180.659 79.8702 180.79 85.6672C180.901 90.5952 183.103 93.5729 187.363 95.0414C189.441 95.7579 191.611 95.9177 193.78 96.0974C194.489 96.156 194.651 95.7804 194.74 95.2161C195.003 93.5429 195.281 91.8718 195.562 90.2015C195.832 88.5952 195.837 88.596 194.287 88.2859Z" fill="black"/>
<path d="M68.4944 35.5301C66.7284 37.3414 64.887 39.0793 63.091 40.8619C56.5498 47.3541 50.0118 53.8495 43.477 60.3481C35.7858 67.9835 28.1134 75.638 20.3829 83.2337C17.6745 85.8949 15.0314 88.6166 12.3879 91.3391C11.1854 92.5776 11.0863 93.8591 12.0272 94.9134C13.0064 96.0105 14.2933 96.141 15.6378 95.1666C16.4284 94.5742 17.1714 93.921 17.86 93.2128C34.6613 76.4512 51.4559 59.6829 68.2438 42.9078C68.6673 42.4453 69.2353 42.14 69.8551 42.0418C72.9396 41.5459 76.0118 40.9743 79.3579 40.3823C76.6361 38.0885 74.0471 36.0489 70.8398 34.9469C70.438 34.7796 69.9929 34.7459 69.5704 34.851C69.148 34.956 68.7707 35.1941 68.4944 35.5301Z" fill="black"/>
<path d="M73.4645 51.4742C73.7386 51.103 73.8911 50.6564 73.9014 50.1953C73.8897 48.4161 71.9316 47.3399 70.2183 48.1435C69.4843 48.5366 68.8245 49.0543 68.2683 49.6733C54.6245 63.2712 40.9806 76.8691 27.3366 90.4669C26.9117 90.8801 26.5172 91.3234 26.1562 91.7933C25.2287 93.0334 25.2899 94.0551 26.305 95.0699C27.3042 96.0686 28.3393 96.12 29.5974 95.1853C30.0681 94.8246 30.5122 94.4305 30.9262 94.0061C44.7711 80.2179 58.6123 66.4261 72.45 52.6307C72.8096 52.2645 73.1483 51.8784 73.4645 51.4742Z" fill="black"/>
<path d="M43.9459 46.8363C44.5111 47.4453 45.1648 47.9658 45.8852 48.3804C46.9583 48.9462 47.8566 48.6715 48.6649 47.8435C49.0332 47.507 49.2733 47.0535 49.3444 46.5601C49.4155 46.0667 49.3132 45.5639 49.0548 45.1375C48.7479 44.5839 48.3541 44.0831 47.8883 43.6542C34.6157 30.4308 21.3438 17.2067 8.07261 3.98201C7.5472 3.38702 6.87157 2.94374 6.11619 2.69842C4.4869 2.25862 3.15289 3.25965 3.15334 4.67492C3.12547 5.93454 3.68809 6.64543 4.32911 7.30422C5.51395 8.52186 6.70797 9.73061 7.91119 10.9305C19.9208 22.901 31.9324 34.8696 43.9459 46.8363Z" fill="black"/>
<path d="M60.1352 79.0588C63.8114 75.4143 67.4877 71.7699 71.1642 68.1256C71.9339 67.3876 72.6559 66.6015 73.3259 65.7721C74.2138 64.6286 74.1149 63.5161 73.1745 62.5861C72.2082 61.6306 71.1397 61.5492 69.9663 62.3908C69.4875 62.7405 69.0374 63.1279 68.6203 63.5491C63.4897 68.6495 58.3642 73.7551 53.2441 78.8659C51.2435 80.8633 51.2463 82.4772 53.2242 84.4606C56.2107 87.4554 59.221 90.4271 62.1768 93.4516C63.9468 95.2626 65.8819 96.5572 68.4181 96.0633C69.5757 96.1801 70.7445 96.1147 71.8817 95.8693C72.4396 95.797 72.9477 95.5115 73.2994 95.0729C73.651 94.6344 73.8188 94.0767 73.7676 93.5172C73.7502 92.2699 73.1839 91.5437 71.9051 91.3011C71.2428 91.1891 70.5698 91.153 69.8993 91.1936C69.1454 91.2305 68.3923 91.1052 67.6911 90.8261C66.99 90.5471 66.357 90.1208 65.8351 89.5762C63.6652 87.4435 61.5096 85.2965 59.3683 83.135C58.2928 82.0436 58.2842 81.2184 59.2438 80.0085C59.5219 79.6746 59.8196 79.3575 60.1352 79.0588Z" fill="black"/>
<path d="M39.163 55.5911C40.7781 56.185 42.2828 55.2067 42.3325 53.5019C42.3216 53.0854 42.2241 52.6756 42.0462 52.2987C41.8683 51.9218 41.6139 51.5859 41.2992 51.3124C40.3007 50.2976 39.2855 49.299 38.276 48.2949C29.1912 39.258 20.1062 30.2212 11.0211 21.1846C10.4224 20.5891 9.77997 20.0777 9.23181 20.0703C7.4731 20.0943 6.31368 21.5741 6.61362 22.9458C6.82671 23.9204 7.45116 24.6341 8.12478 25.3059C17.7299 34.8846 27.3384 44.4599 36.9502 54.032C37.565 54.7068 38.3203 55.239 39.163 55.5911Z" fill="black"/>
<path d="M29.1075 60.4234C29.7718 61.0999 30.4755 61.7367 31.2147 62.3307C31.5897 62.6292 32.0451 62.8095 32.5229 62.8487C33.0008 62.888 33.4796 62.7843 33.8983 62.551C34.3056 62.3579 34.6494 62.0531 34.8899 61.6723C35.1303 61.2914 35.2574 60.8501 35.2563 60.3998C35.2233 59.0458 34.3712 58.1963 33.5304 57.3592C27.5054 51.3614 21.4759 45.3682 15.4419 39.3795C14.8933 38.8068 14.2266 38.3601 13.488 38.0703C13.0143 37.854 12.4817 37.8023 11.9752 37.9234C11.4687 38.0446 11.0173 38.3317 10.6932 38.7388C9.91349 39.6396 9.94476 40.6046 10.5795 41.569C11.1529 42.422 11.8127 43.2139 12.5485 43.9321C18.0673 49.4301 23.5869 54.9272 29.1075 60.4234Z" fill="black"/>
</svg>
