<svg width="277" height="100" viewBox="0 0 277 100" fill="none" xmlns="http://www.w3.org/2000/svg">
<path d="M135.973 64.7843C129.197 64.8376 122.421 64.7919 115.646 64.8337C114.697 64.8395 114.46 64.5707 114.469 63.6483C114.513 58.7923 114.531 53.9351 114.459 49.0798C114.442 47.9132 114.776 47.6614 115.903 47.6684C123.946 47.719 131.99 47.6836 140.034 47.7128C140.367 47.7621 140.706 47.6777 140.977 47.478V40.3359C140.793 40.125 140.472 40.0471 139.947 40.0489C128.693 40.0866 117.44 40.0868 106.187 40.0493C105.177 40.046 104.949 40.3378 104.953 41.3053C104.99 50.2677 104.975 59.2304 104.975 68.193C104.975 77.1951 104.988 86.1972 104.955 95.1992C104.952 96.1005 105.145 96.4155 106.112 96.3858C108.527 96.3115 110.947 96.307 113.361 96.3874C114.358 96.4205 114.512 96.0621 114.508 95.1817C114.475 88.0354 114.511 80.8888 114.466 73.7427C114.459 72.6949 114.686 72.3587 115.807 72.3681C122.583 72.4256 129.359 72.38 136.134 72.4172C137.016 72.422 137.31 72.2101 137.273 71.3059C137.202 69.5716 137.188 67.829 137.276 66.0962C137.329 65.0575 137.037 64.7759 135.973 64.7843Z" fill="white"/>
<path d="M270.757 72.5061C269.821 64.0788 264.558 56.3543 254.308 55.2525C245.98 54.3572 238.368 58.1957 235.001 66.1288C232.961 70.9363 232.728 75.9152 233.662 80.9834C235.386 90.3358 242.617 96.3599 252.073 96.3597C260.49 96.3595 266.975 91.8047 269.659 83.9466C270.872 80.2621 271.247 76.3537 270.757 72.5061ZM259.342 84.5583C258.553 85.7705 257.474 86.7669 256.202 87.4571C254.93 88.1473 253.505 88.5094 252.058 88.5106C250.61 88.5118 249.185 88.1522 247.912 87.4642C246.639 86.7762 245.558 85.7817 244.767 84.5708C242.695 81.4091 242.451 77.849 242.605 74.2219C242.651 71.9677 243.217 69.7545 244.259 67.7544C245.908 64.7105 248.422 63.1242 251.924 63.0861C255.467 63.0476 258.088 64.5644 259.787 67.6366C261.205 70.194 261.549 72.9953 261.547 75.6321C261.506 78.9342 261.076 81.9144 259.342 84.5583Z" fill="white"/>
<path d="M171.575 66.7678C170.806 60.751 167.523 57.0035 161.635 55.7285C155.82 54.4693 150.069 55.2041 144.387 56.739C143.793 56.8994 143.78 57.185 143.863 57.6822C144.174 59.5481 144.492 61.4151 144.713 63.2927C144.818 64.1818 145.124 64.2782 145.931 64.0449C149.435 63.0273 153.095 62.6574 156.732 62.9533C159.832 63.2024 162.081 65.0956 162.72 67.9868C162.926 68.9921 163.034 70.0148 163.043 71.0408C163.063 71.8296 162.899 72.0364 162.054 71.8543C157.667 70.8756 153.104 71.0021 148.778 72.2224C140.645 74.5254 137.287 83.3913 141.818 90.5254C144.099 94.1177 147.703 95.4033 151.677 95.8677C158.197 96.6295 164.627 95.8093 171.029 94.612C171.731 94.4806 171.882 94.1702 171.877 93.5105C171.848 89.3663 171.862 85.2219 171.862 80.2019C171.695 76.3088 172.184 71.5247 171.575 66.7678ZM163.041 79.515C162.988 80.8532 163.026 82.1949 163.026 83.5352C163.026 84.8755 162.996 86.2167 163.038 87.5556C163.059 88.2154 162.923 88.5222 162.17 88.6006C159.41 88.8879 156.639 89.1323 153.899 88.6301C150.548 88.0159 149.222 86.4451 149.2 83.4161C149.18 80.6206 150.69 78.8439 153.834 78.1975C156.558 77.6657 159.361 77.6833 162.079 78.2495C162.899 78.4091 163.07 78.7712 163.041 79.515Z" fill="white"/>
<path d="M229.149 87.7502C229.034 86.8819 228.75 86.8586 228.01 87.1184C225.005 88.1461 221.821 88.5493 218.654 88.3032C214.108 88.006 211.21 85.8245 209.825 81.4838C208.571 77.6648 208.601 73.5407 209.912 69.7406C211.28 65.7236 214.171 63.5037 218.453 63.1529C221.303 62.9032 224.171 63.3148 226.835 64.3555C227.551 64.6356 227.77 64.4443 227.935 63.7632C228.387 61.8873 228.836 60.0063 229.412 58.1664C229.692 57.2741 229.38 57.0311 228.618 56.7633C225.071 55.4815 221.297 54.945 217.533 55.1877C211.547 55.6031 206.644 58.0868 203.226 63.0998C200.608 66.9385 199.576 71.2681 199.606 76.2644C199.605 77.9894 199.782 79.7099 200.133 81.3989C201.271 87.0319 203.993 91.6229 209.329 94.1641C215.955 97.32 222.771 96.7742 229.58 94.6578C230.183 94.4706 230.215 94.1194 230.116 93.5797C229.762 91.6419 229.407 89.702 229.149 87.7502Z" fill="white"/>
<path d="M194.623 88.2859C191.727 87.7065 190.67 86.5864 190.277 83.6401C190.208 83.0935 190.174 82.5429 190.177 81.9918C190.172 67.5509 190.171 53.1101 190.173 38.6692C190.173 38.393 190.155 38.1154 190.176 37.8409C190.218 37.3044 190.021 37.1934 189.487 37.2884C187.074 37.7172 184.66 38.1622 182.229 38.4649C181.249 38.5869 181.035 38.9345 181.039 39.8608C181.077 47.4756 181.06 55.0907 181.06 62.7057C181.06 64.5601 181.057 66.4145 181.061 68.269C181.072 74.0686 180.995 79.8702 181.126 85.6672C181.237 90.5952 183.439 93.5729 187.699 95.0414C189.777 95.7579 191.947 95.9177 194.116 96.0974C194.825 96.156 194.987 95.7804 195.076 95.2161C195.339 93.5429 195.617 91.8718 195.898 90.2015C196.168 88.5952 196.173 88.596 194.623 88.2859Z" fill="white"/>
<path d="M68.8303 35.5301C67.0643 37.3414 65.2229 39.0793 63.4269 40.8619C56.8858 47.3541 50.3477 53.8495 43.8129 60.3481C36.1217 67.9835 28.4493 75.638 20.7188 83.2337C18.0104 85.8949 15.3674 88.6166 12.7239 91.3391C11.5213 92.5776 11.4223 93.8591 12.3632 94.9134C13.3423 96.0105 14.6292 96.141 15.9737 95.1666C16.7644 94.5742 17.5074 93.921 18.196 93.2128C34.9973 76.4512 51.7919 59.6829 68.5798 42.9078C69.0032 42.4453 69.5713 42.14 70.191 42.0418C73.2755 41.5459 76.3477 40.9743 79.6938 40.3823C76.9721 38.0885 74.3831 36.0489 71.1757 34.9469C70.7739 34.7796 70.3288 34.7459 69.9064 34.851C69.4839 34.956 69.1066 35.1941 68.8303 35.5301Z" fill="white"/>
<path d="M73.8004 51.4742C74.0745 51.103 74.2271 50.6564 74.2374 50.1953C74.2256 48.4161 72.2675 47.3399 70.5542 48.1435C69.8203 48.5366 69.1604 49.0543 68.6042 49.6733C54.9604 63.2712 41.3165 76.8691 27.6726 90.4669C27.2477 90.8801 26.8531 91.3234 26.4921 91.7933C25.5646 93.0334 25.6259 94.0551 26.641 95.0699C27.6401 96.0686 28.6752 96.12 29.9333 95.1853C30.404 94.8246 30.8481 94.4305 31.2622 94.0061C45.107 80.2179 58.9482 66.4261 72.7859 52.6307C73.1456 52.2645 73.4843 51.8784 73.8004 51.4742Z" fill="white"/>
<path d="M44.2819 46.8363C44.847 47.4453 45.5008 47.9658 46.2211 48.3804C47.2943 48.9462 48.1925 48.6715 49.0008 47.8435C49.3691 47.507 49.6093 47.0535 49.6804 46.5601C49.7515 46.0667 49.6491 45.5639 49.3907 45.1375C49.0839 44.5839 48.69 44.0831 48.2242 43.6542C34.9517 30.4308 21.6798 17.2067 8.40854 3.98201C7.88314 3.38702 7.20751 2.94374 6.45213 2.69842C4.82284 2.25862 3.48883 3.25965 3.48927 4.67492C3.46141 5.93454 4.02403 6.64543 4.66505 7.30422C5.84988 8.52186 7.04391 9.73061 8.24712 10.9305C20.2568 22.901 32.2684 34.8696 44.2819 46.8363Z" fill="white"/>
<path d="M60.4712 79.0588C64.1474 75.4143 67.8237 71.7699 71.5001 68.1256C72.2698 67.3876 72.9919 66.6015 73.6618 65.7721C74.5497 64.6286 74.4509 63.5161 73.5104 62.5861C72.5442 61.6306 71.4756 61.5492 70.3023 62.3908C69.8235 62.7405 69.3733 63.1279 68.9562 63.5491C63.8256 68.6495 58.7002 73.7551 53.58 78.8659C51.5794 80.8633 51.5822 82.4772 53.5601 84.4606C56.5466 87.4554 59.5569 90.4271 62.5128 93.4516C64.2827 95.2626 66.2178 96.5572 68.7541 96.0633C69.9116 96.1801 71.0804 96.1147 72.2176 95.8693C72.7755 95.797 73.2836 95.5115 73.6353 95.0729C73.9869 94.6344 74.1548 94.0767 74.1035 93.5172C74.0861 92.2699 73.5198 91.5437 72.2411 91.3011C71.5787 91.1891 70.9057 91.153 70.2352 91.1936C69.4813 91.2305 68.7283 91.1052 68.0271 90.8261C67.3259 90.5471 66.6929 90.1208 66.171 89.5762C64.0011 87.4435 61.8455 85.2965 59.7043 83.135C58.6287 82.0436 58.6201 81.2184 59.5798 80.0085C59.8578 79.6746 60.1555 79.3575 60.4712 79.0588Z" fill="white"/>
<path d="M39.499 55.5911C41.1141 56.185 42.6188 55.2067 42.6684 53.5019C42.6575 53.0853 42.56 52.6756 42.3822 52.2987C42.2043 51.9218 41.9499 51.5859 41.6351 51.3124C40.6366 50.2976 39.6214 49.299 38.612 48.2949C29.5272 39.258 20.4422 30.2212 11.357 21.1846C10.7584 20.5891 10.1159 20.0777 9.56775 20.0703C7.80904 20.0943 6.64962 21.5741 6.94956 22.9458C7.16265 23.9204 7.78709 24.6341 8.46071 25.3059C18.0659 34.8846 27.6743 44.4599 37.2861 54.032C37.9009 54.7068 38.6562 55.239 39.499 55.5911Z" fill="white"/>
<path d="M29.4434 60.4234C30.1078 61.0999 30.8114 61.7367 31.5506 62.3307C31.9256 62.6292 32.381 62.8095 32.8589 62.8487C33.3368 62.888 33.8155 62.7843 34.2343 62.551C34.6415 62.3579 34.9854 62.0531 35.2258 61.6723C35.4662 61.2914 35.5933 60.8501 35.5922 60.3998C35.5592 59.0458 34.7072 58.1963 33.8663 57.3592C27.8414 51.3614 21.8119 45.3682 15.7778 39.3795C15.2292 38.8068 14.5625 38.3601 13.824 38.0703C13.3503 37.854 12.8177 37.8023 12.3111 37.9234C11.8046 38.0446 11.3533 38.3317 11.0291 38.7388C10.2494 39.6396 10.2807 40.6046 10.9154 41.569C11.4889 42.422 12.1487 43.2139 12.8844 43.9321C18.4032 49.4301 23.9229 54.9272 29.4434 60.4234Z" fill="white"/>
</svg>
