<svg width="100" height="100" viewBox="0 0 100 100" fill="none" xmlns="http://www.w3.org/2000/svg">
<path d="M31.6467 60.1152L31.5913 60.0613C30.2961 61.327 29.0093 62.6013 27.7606 63.9095C27.1025 64.5987 26.8595 65.4749 27.6182 66.271C28.4122 67.1042 29.3688 67.0538 30.2452 66.4215C30.8883 65.9224 31.4929 65.378 32.0541 64.7926C44.2755 52.893 56.4861 40.9826 68.6857 29.0614L76.1159 27.8001C74.9032 26.6013 69.8585 22.9715 68.7089 24.0873C63.8966 28.7562 59.0816 33.4226 54.2639 38.0864L31.6467 60.1152Z" fill="black"/>
<path d="M37.8429 66.303C39.0335 67.5539 40.1491 66.6582 41.0934 65.7392C51.1462 55.9575 61.1957 46.1726 71.2421 36.3847C71.7198 35.9195 72.1968 35.4502 72.247 34.7344C72.2526 34.4026 72.1476 34.0779 71.9478 33.809C71.748 33.5402 71.4642 33.3415 71.1388 33.2429C69.9553 32.8261 69.1427 33.5006 68.3811 34.2419C58.437 43.9235 48.4941 53.6064 38.5525 63.2906C37.6726 64.1479 36.764 65.1698 37.8429 66.303Z" fill="black"/>
<path d="M42.0888 43.5669L44.267 41.4455C44.124 40.8987 43.7513 40.4659 43.3359 40.0607C38.9028 35.7351 34.4647 31.4143 30.0216 27.0982C29.6583 26.7336 29.2264 26.4405 28.7495 26.2349C28.0209 25.9439 27.2697 25.9909 26.6906 26.612C26.1058 27.2395 26.1136 27.9612 26.5672 28.6215C26.9885 29.2204 27.4675 29.7787 27.9976 30.2889C31.2609 33.4903 34.5347 36.6815 37.8188 39.8627C38.9292 40.9413 40.0339 42.0273 41.1849 43.064C41.4395 43.301 41.7498 43.4737 42.0888 43.5669Z" fill="black"/>
<path d="M50.8886 32.5404C51.3409 32.9809 51.84 33.3936 52.3662 33.5565L54.458 31.5192C54.2882 31.005 53.8591 30.5193 53.4072 30.0787C43.8429 20.758 34.2751 11.4408 24.7037 2.12713C24.1684 1.60597 23.5963 1.13568 22.7673 1.16755C22.1169 1.20038 21.5961 1.47104 21.3493 2.06536C20.9128 3.11517 21.4708 3.88343 22.19 4.58438C31.7556 13.9037 41.3218 23.2224 50.8886 32.5404Z" fill="black"/>
<path d="M45.6294 37.4251C46.0952 37.877 46.6536 38.3387 47.258 38.533L49.3402 36.505C49.0762 35.7695 48.4473 35.2785 47.9022 34.7461C42.0399 29.0234 36.1722 23.3058 30.2992 17.5934C29.083 16.4094 27.8742 15.2171 26.6202 14.0717C25.8832 13.3984 25.0078 13.2252 24.2221 13.9836C23.4742 14.7053 23.5277 15.5547 24.1174 16.3634C24.3825 16.7157 24.6772 17.0458 24.9986 17.3503C31.8696 24.0478 38.7464 30.7394 45.6292 37.4251H45.6294Z" fill="black"/>
<path d="M68.2529 67.055C68.5826 67.0964 68.9149 67.1149 69.2473 67.1103C70.5046 66.9965 72.0915 67.0768 72.1314 65.3894C72.1724 63.6489 70.6266 63.6414 69.3318 63.6884C68.0166 63.7362 67.0519 63.2092 66.178 62.314C64.8368 60.9398 63.4946 59.5576 62.0449 58.2956C60.7621 57.1787 60.9445 56.3596 62.112 55.2655C65.1876 52.3834 68.174 49.4106 71.1749 46.4537C72.0604 45.5807 72.8467 44.5373 71.653 43.4395C70.5814 42.4538 69.5579 43.1412 68.7156 43.9569C64.8919 47.66 61.0912 51.3856 57.2672 55.088C55.9297 56.3828 55.9916 57.5908 57.3161 58.8583C59.5596 61.0055 61.7999 63.1575 63.9769 65.368C65.1977 66.6073 66.531 67.3824 68.2529 67.055Z" fill="black"/>
<path d="M20.1847 80.2552C16.2614 80.2853 12.3376 80.2595 8.41423 80.2831C7.865 80.2864 7.72772 80.1346 7.73265 79.6137C7.75863 76.8715 7.76902 74.1287 7.72722 71.3869C7.71718 70.7281 7.91063 70.5859 8.56317 70.5899C13.2208 70.6184 17.8787 70.5985 22.5364 70.615C22.8 70.6159 22.9769 70.5882 23.0824 70.4824V66.4492C22.9759 66.3301 22.79 66.2861 22.4858 66.2871C15.9695 66.3085 9.45324 66.3085 2.93689 66.2874C2.35254 66.2855 2.22038 66.4503 2.22269 66.9966C2.24407 72.0577 2.23532 77.1189 2.23532 82.1801C2.23532 87.2635 2.2427 92.347 2.22391 97.4304C2.22203 97.9394 2.334 98.1173 2.89357 98.1005C4.29186 98.0586 5.69345 98.056 7.09152 98.1014C7.66844 98.1201 7.75762 97.9177 7.75532 97.4205C7.73662 93.3851 7.75722 89.3494 7.73117 85.314C7.72735 84.7223 7.85861 84.5324 8.5078 84.5378C12.4311 84.5702 16.3548 84.5445 20.2783 84.5655C20.7887 84.5682 20.9588 84.4485 20.9374 83.9379C20.8964 82.9586 20.8883 81.9745 20.9395 80.996C20.9701 80.4095 20.8012 80.2505 20.1847 80.2552Z" fill="black"/>
<path d="M98.2335 84.6158C97.6917 79.857 94.6439 75.495 88.7088 74.8728C83.8862 74.3672 79.4786 76.5348 77.5289 81.0146C76.3473 83.7294 76.2125 86.5409 76.7534 89.403C77.7517 94.6843 81.9388 98.0861 87.4143 98.0859C92.2881 98.0858 96.0435 95.5137 97.5976 91.0763C98.3328 88.9773 98.4838 86.8145 98.2335 84.6158ZM91.6234 91.4217C91.1666 92.1063 90.5416 92.6689 89.8051 93.0586C89.0685 93.4484 88.2437 93.6529 87.4055 93.6536C86.5673 93.6543 85.7422 93.4512 85.005 93.0627C84.2677 92.6742 83.6417 92.1125 83.1838 91.4288C81.9838 89.6434 81.8426 87.633 81.9321 85.5847C81.9586 84.3118 82.2863 83.062 82.8896 81.9326C83.8445 80.2137 85.3005 79.3179 87.3282 79.2964C89.3795 79.2747 90.8972 80.1312 91.8812 81.866C92.7022 83.3102 92.9014 84.8921 92.9006 86.3811C92.8768 88.2458 92.6276 89.9287 91.6234 91.4217Z" fill="black"/>
<path d="M40.7989 81.375C40.3535 77.9773 38.4522 75.861 35.0428 75.141C31.6756 74.43 28.3454 74.8449 25.0551 75.7117C24.7114 75.8022 24.7037 75.9635 24.7518 76.2443C24.9319 77.2979 25.1159 78.3522 25.2442 79.4125C25.3049 79.9146 25.4819 79.9691 25.9496 79.8373C27.9784 79.2627 30.0978 79.0538 32.2037 79.2209C33.9987 79.3616 35.3011 80.4306 35.6712 82.0633C35.7904 82.631 35.8531 83.2085 35.8584 83.7879C35.8697 84.2333 35.7746 84.3501 35.2856 84.2473C32.7451 83.6946 30.1032 83.766 27.5981 84.4551C22.8887 85.7556 20.9438 90.7622 23.5676 94.7908C24.8888 96.8194 26.9754 97.5453 29.2768 97.8076C33.052 98.2377 36.7755 97.7746 40.4824 97.0985C40.8891 97.0243 40.9764 96.849 40.9737 96.4765C40.9569 94.1363 40.9652 91.7959 40.9652 88.9611C40.8683 86.7627 41.1511 84.0612 40.7989 81.375ZM35.8568 88.5732C35.8262 89.3289 35.8481 90.0866 35.8481 90.8435C35.8481 91.6003 35.8309 92.3577 35.8555 93.1138C35.8676 93.4863 35.7889 93.6596 35.3526 93.7039C33.7543 93.8661 32.15 94.0041 30.5636 93.7206C28.6228 93.3737 27.8553 92.4867 27.8426 90.7762C27.8309 89.1976 28.7052 88.1943 30.5254 87.8293C32.103 87.5289 33.7264 87.5389 35.3 87.8586C35.7751 87.9487 35.8738 88.1532 35.8568 88.5732Z" fill="black"/>
<path d="M74.1384 93.2228C74.0717 92.7325 73.9074 92.7193 73.4793 92.866C71.739 93.4463 69.8952 93.674 68.0612 93.5351C65.4291 93.3672 63.7511 92.1353 62.9491 89.6842C62.2226 87.5276 62.2401 85.1987 62.9992 83.0528C63.7914 80.7844 65.4655 79.5308 67.9452 79.3327C69.5951 79.1918 71.2561 79.4242 72.7986 80.0118C73.2135 80.17 73.3403 80.062 73.4354 79.6774C73.6971 78.6181 73.9574 77.5559 74.2911 76.5169C74.4529 76.013 74.2724 75.8758 73.8313 75.7246C71.7773 75.0007 69.592 74.6978 67.4123 74.8348C63.9459 75.0694 61.1068 76.472 59.1276 79.3028C57.612 81.4705 57.0141 83.9154 57.0316 86.7368C57.0311 87.7109 57.1334 88.6825 57.337 89.6362C57.9956 92.8172 59.572 95.4097 62.6616 96.8447C66.4984 98.6268 70.4452 98.3187 74.3883 97.1235C74.7371 97.0178 74.7558 96.8195 74.6987 96.5147C74.4936 95.4205 74.2882 94.325 74.1384 93.2228Z" fill="black"/>
<path d="M54.1433 93.5264C52.4662 93.1992 51.8545 92.5667 51.6268 90.9029C51.5865 90.5942 51.5671 90.2833 51.5689 89.9722C51.5658 81.8174 51.565 73.6627 51.5664 65.5079C51.5664 65.352 51.5558 65.1952 51.5683 65.0402C51.5925 64.7373 51.4786 64.6745 51.1689 64.7282C49.7716 64.9704 48.374 65.2217 46.9666 65.3926C46.3991 65.4615 46.2747 65.6577 46.2774 66.1808C46.2992 70.4809 46.2897 74.7811 46.2897 79.0813C46.2897 80.1285 46.288 81.1757 46.29 82.2229C46.2964 85.4979 46.2518 88.7741 46.3275 92.0476C46.3918 94.8304 47.6671 96.5119 50.1338 97.3412C51.3372 97.7458 52.5935 97.8361 53.8498 97.9375C54.2602 97.9706 54.3541 97.7585 54.4055 97.4398C54.558 96.495 54.7187 95.5514 54.8815 94.6081C55.038 93.7011 55.041 93.7015 54.1433 93.5264Z" fill="black"/>
</svg>
