<svg width="83" height="100" viewBox="0 0 83 100" fill="none" xmlns="http://www.w3.org/2000/svg">
<path d="M69.9226 42.621L80.4969 40.7807C78.7712 39.0315 71.5918 33.7357 69.9556 35.3634C63.107 42.1755 56.2545 48.9838 49.3981 55.7883L17.2104 87.9285L17.1314 87.8497C15.2881 89.6965 13.457 91.5558 11.6796 93.4641C10.743 94.4699 10.3975 95.7484 11.4773 96.9097C12.607 98.1256 13.9685 98.0519 15.2159 97.1292C16.1497 96.4389 16.9635 95.5776 17.7901 94.7527C18.5149 94.029 19.2398 93.3056 19.965 92.5824C21.9764 90.5751 23.9879 88.568 25.9997 86.561C40.6599 71.9337 55.3008 57.287 69.9224 42.621H69.9226Z" fill="white"/>
<path d="M74.9907 50.9002C74.9986 50.416 74.8492 49.9422 74.5649 49.5499C74.2806 49.1576 73.8766 48.8678 73.4135 48.7239C71.729 48.116 70.5729 49.0999 69.4891 50.1816C56.3081 63.3377 43.1289 76.4956 29.9514 89.6551C28.9806 90.6249 28.0095 91.5945 27.0382 92.5637C26.3395 93.2616 25.6285 94.0345 25.403 94.8686C25.2241 95.5293 25.3496 96.2281 26.0281 96.9588C27.7227 98.7838 29.3104 97.477 30.6543 96.1364C44.9609 81.8648 59.2629 67.5886 73.5605 53.3079C74.2403 52.629 74.9194 51.9444 74.9907 50.9002ZM46.6969 49.1816L49.674 46.2092C49.4325 45.459 48.8217 44.7502 48.1788 44.1075C34.567 30.5086 20.9504 16.9148 7.32902 3.32597C6.56716 2.56576 5.75303 1.87959 4.57299 1.92606C3.64755 1.97375 2.90636 2.36859 2.55504 3.2358C1.93402 4.7675 2.72783 5.8884 3.75157 6.91115C17.365 20.5081 30.9792 34.104 44.5942 47.6989C45.238 48.3416 45.9481 48.944 46.6969 49.1816ZM60.5662 80.8537C64.9431 76.6486 69.1932 72.3117 73.4641 67.9974C74.7242 66.7239 75.8433 65.2014 74.1443 63.5998C72.6192 62.1614 71.1627 63.1645 69.9639 64.3546C64.5224 69.7574 59.1135 75.1932 53.6712 80.595C51.7677 82.4839 51.8556 84.2464 53.7407 86.0956C56.9335 89.2286 60.1217 92.3682 63.2201 95.5931C64.9574 97.4017 66.8548 98.5325 69.3055 98.0546C69.8715 98.091 70.302 98.1746 70.7209 98.1356C72.5101 97.9694 74.7684 98.0867 74.8252 95.6248C74.8836 93.0853 72.6838 93.0742 70.8409 93.1429C68.9693 93.2127 67.5964 92.4439 66.3526 91.1376C64.4439 89.1327 62.5337 87.1163 60.4706 85.2749C58.6449 83.6452 58.9045 82.4497 60.5662 80.8537ZM37.1099 54.824C37.7729 55.4833 38.5676 56.157 39.4278 56.4403L42.391 53.4815C42.0153 52.4085 41.1205 51.692 40.3445 50.9154C32.0016 42.5658 23.6509 34.2238 15.2927 25.8894C13.5621 24.1623 11.8416 22.4225 10.0569 20.7514C9.00799 19.7687 7.76231 19.5161 6.64409 20.6227C5.57954 21.6758 5.65595 22.9152 6.49492 24.095C6.87226 24.6089 7.29184 25.0905 7.74928 25.5348C17.5276 35.3064 27.3145 45.0695 37.1099 54.824ZM25.9939 58.382C27.5743 59.9558 29.1464 61.5404 30.7844 63.0529C31.1468 63.3986 31.5885 63.6505 32.0709 63.7865L35.1708 60.6912C34.9672 59.8936 34.4369 59.2622 33.8457 58.671C27.5366 52.3597 21.2205 46.0556 14.8974 39.7585C14.3804 39.2266 13.7658 38.7989 13.087 38.4989C12.05 38.0745 10.9811 38.1429 10.1569 39.0492C9.32458 39.9647 9.33552 41.0179 9.98137 41.9812C10.581 42.8548 11.2626 43.6693 12.017 44.4137C16.6611 49.0846 21.3201 53.7407 25.9939 58.382Z" fill="white"/>
</svg>
