<svg width="82" height="100" viewBox="0 0 82 100" fill="none" xmlns="http://www.w3.org/2000/svg">
<path d="M69.5866 42.621L80.1609 40.7807C78.4353 39.0315 71.2559 33.7357 69.6196 35.3634C62.7711 42.1755 55.9186 48.9838 49.0621 55.7883L16.8745 87.9285L16.7955 87.8497C14.9522 89.6965 13.1211 91.5558 11.3437 93.4641C10.4071 94.4699 10.0615 95.7484 11.1414 96.9097C12.271 98.1256 13.6325 98.0519 14.88 97.1292C15.8137 96.4389 16.6275 95.5776 17.4542 94.7527C18.1789 94.029 18.9039 93.3056 19.6291 92.5824C21.6405 90.5751 23.652 88.568 25.6637 86.561C40.324 71.9337 54.9649 57.287 69.5865 42.621H69.5866Z" fill="black"/>
<path d="M74.6548 50.9002C74.6627 50.416 74.5133 49.9422 74.229 49.5499C73.9446 49.1576 73.5407 48.8678 73.0776 48.7239C71.3931 48.116 70.237 49.0999 69.1532 50.1816C55.9722 63.3377 42.7929 76.4956 29.6154 89.6551C28.6446 90.6249 27.6736 91.5945 26.7022 92.5637C26.0036 93.2616 25.2926 94.0345 25.067 94.8686C24.8881 95.5293 25.0137 96.2281 25.6922 96.9588C27.3868 98.7838 28.9744 97.477 30.3184 96.1364C44.625 81.8648 58.927 67.5886 73.2245 53.3079C73.9044 52.629 74.5834 51.9444 74.6548 50.9002ZM46.361 49.1816L49.3381 46.2092C49.0965 45.459 48.4858 44.7502 47.8429 44.1075C34.2311 30.5086 20.6145 16.9148 6.99308 3.32597C6.23123 2.56576 5.41709 1.87959 4.23706 1.92606C3.31161 1.97375 2.57042 2.36859 2.2191 3.2358C1.59808 4.7675 2.39189 5.8884 3.41563 6.91115C17.029 20.5081 30.6433 34.104 44.2583 47.6989C44.9021 48.3416 45.6122 48.944 46.361 49.1816ZM60.2302 80.8537C64.6072 76.6486 68.8573 72.3117 73.1281 67.9974C74.3882 66.7239 75.5073 65.2014 73.8084 63.5998C72.2833 62.1614 70.8268 63.1645 69.628 64.3546C64.1864 69.7574 58.7775 75.1932 53.3353 80.595C51.4318 82.4839 51.5196 84.2464 53.4048 86.0956C56.5975 89.2286 59.7858 92.3682 62.8841 95.5931C64.6214 97.4017 66.5189 98.5325 68.9696 98.0546C69.5356 98.091 69.9661 98.1746 70.385 98.1356C72.1742 97.9694 74.4325 98.0867 74.4893 95.6248C74.5477 93.0853 72.3479 93.0742 70.505 93.1429C68.6334 93.2127 67.2604 92.4439 66.0167 91.1376C64.1079 89.1327 62.1978 87.1163 60.1347 85.2749C58.309 83.6452 58.5686 82.4497 60.2302 80.8537ZM36.774 54.824C37.437 55.4833 38.2317 56.157 39.0918 56.4403L42.055 53.4815C41.6794 52.4085 40.7845 51.692 40.0086 50.9154C31.6656 42.5658 23.315 34.2238 14.9567 25.8894C13.2262 24.1623 11.5057 22.4225 9.72097 20.7514C8.67205 19.7687 7.42637 19.5161 6.30816 20.6227C5.24361 21.6758 5.32002 22.9152 6.15898 24.095C6.53633 24.6089 6.9559 25.0905 7.41335 25.5348C17.1917 35.3064 26.9786 45.0695 36.774 54.824ZM25.658 58.382C27.2383 59.9558 28.8105 61.5404 30.4485 63.0529C30.8109 63.3986 31.2526 63.6505 31.735 63.7865L34.8348 60.6912C34.6313 59.8936 34.1009 59.2622 33.5098 58.671C27.2006 52.3597 20.8845 46.0556 14.5615 39.7585C14.0445 39.2266 13.4298 38.7989 12.751 38.4989C11.7141 38.0745 10.6452 38.1429 9.82101 39.0492C8.98864 39.9647 8.99958 41.0179 9.64543 41.9812C10.245 42.8548 10.9267 43.6693 11.6811 44.4137C16.3252 49.0846 20.9841 53.7407 25.658 58.382Z" fill="black"/>
</svg>
