<svg width="648" height="320" viewBox="0 0 648 320" fill="none" xmlns="http://www.w3.org/2000/svg">
<g clip-path="url(#clip0_1663_20155)">
<rect width="648" height="320" fill="#FAFAFA"/>
<g opacity="0.23">
<path fill-rule="evenodd" clip-rule="evenodd" d="M323.822 -198L-294.453 159.924L-295 160.24L-294.453 160.556L323.822 517.125L942.097 160.556L942.645 160.24L942.098 159.924L323.822 -198ZM-252.876 183.688L-293.541 160.239L-252.21 136.333L-211.481 159.823L-252.675 183.587L-252.876 183.688ZM-252.133 184.117L-211.874 207.332L-211.08 206.935L-170.442 183.491L-210.751 160.244L-252.133 184.117ZM-211.073 207.793L-170.532 231.171L-170.214 231.012L-129.135 207.314L-169.711 183.912L-210.715 207.567L-211.073 207.793ZM-169.78 231.604L-129.529 254.815L-128.619 254.36L-88.0957 230.982L-128.405 207.735L-169.78 231.604ZM-128.715 255.284L-88.1873 278.654L-87.7531 278.437L-46.789 254.805L-87.3655 231.404L-128.254 254.992L-128.715 255.284ZM-87.4426 279.083L-47.1844 302.298L-46.1577 301.784L-5.74985 278.474L-46.0588 255.226L-87.3884 279.069L-87.4426 279.083ZM-46.3577 302.774L-5.84265 326.137L-5.29208 325.862L35.5569 302.296L-5.01965 278.895L-45.793 302.416L-46.3577 302.774ZM-5.06873 326.583L34.8261 349.588L35.5735 349.209L76.2311 325.754L36.2871 302.717L-4.9274 326.494L-5.06873 326.583ZM35.6176 350.044L76.5467 373.646L77.1689 373.286L117.903 349.788L76.9613 326.175L35.9383 349.841L35.6176 350.044ZM77.2888 374.074L117.844 397.459L118.035 397.364L159.21 373.61L118.633 350.209L77.5336 373.918L77.2888 374.074ZM118.587 397.888L158.486 420.895L199.884 397.068L159.94 374.031L118.587 397.888ZM159.262 421.342L199.479 444.533L240.874 420.709L200.614 397.49L159.265 421.343L159.262 421.342ZM200.258 444.982L240.836 468.381L281.91 444.375L241.604 421.13L200.258 444.982ZM241.564 468.801L281.6 491.887L323.092 468.126L282.64 444.796L241.564 468.801ZM282.332 492.309L323.822 516.396L365.084 492.441L323.822 468.547L282.332 492.309ZM365.814 492.02L406.324 468.66L405.918 468.403L365.004 444.796L324.552 468.126L365.814 492.02ZM407.126 468.198L447.387 444.982L406.04 421.13L365.734 444.375L406.283 467.771L407.126 468.198ZM448.134 444.551L488.379 421.343L447.03 397.49L406.77 420.709L447.878 444.424L448.134 444.551ZM489.137 420.907L529.058 397.888L487.705 374.031L447.761 397.068L488.744 420.711L489.137 420.907ZM529.801 397.459L570.356 374.074L570.111 373.918L529.011 350.209L488.435 373.61L529.61 397.364L529.801 397.459ZM571.143 373.62L612.027 350.044L611.706 349.841L570.683 326.175L529.742 349.788L570.475 373.286L571.143 373.62ZM612.795 349.601L652.713 326.583L652.572 326.494L611.357 302.717L571.413 325.754L612.071 349.209L612.795 349.601ZM653.487 326.137L694.002 302.774L693.437 302.416L652.664 278.895L612.087 302.296L652.936 325.862L653.487 326.137ZM694.829 302.298L735.087 279.083L735.033 279.069L693.703 255.226L653.394 278.474L693.802 301.784L694.829 302.298ZM735.832 278.654L776.36 255.284L775.898 254.992L735.01 231.404L694.433 254.805L735.397 278.437L735.832 278.654ZM777.173 254.815L817.425 231.604L776.049 207.735L735.74 230.982L776.263 254.36L777.173 254.815ZM818.176 231.171L858.717 207.794L858.359 207.567L817.356 183.912L776.779 207.314L817.858 231.012L818.176 231.171ZM859.518 207.332L899.777 184.117L858.395 160.244L818.086 183.491L858.724 206.935L859.518 207.332ZM900.521 183.688L941.186 160.239L899.854 136.333L859.125 159.823L900.319 183.587L900.521 183.688ZM899.125 135.911L858.608 112.476L817.833 136.002L858.395 159.402L899.125 135.911ZM857.879 112.054L817.677 88.8008L776.845 112.356L817.103 135.581L857.879 112.054ZM816.948 88.3791L776.746 65.126L735.86 88.7127L776.115 111.935L816.948 88.3791ZM776.017 64.7043L736.131 41.6339L695.191 65.2515L735.13 88.2915L776.017 64.7043ZM735.402 41.2122L694.884 17.7765L653.89 41.4254L694.461 64.8303L735.402 41.2122ZM694.155 17.3548L653.273 -6.29166L612.225 17.3889L653.16 41.0042L694.155 17.3548ZM652.544 -6.71338L612.658 -29.7838L571.556 -6.07233L611.494 16.9677L652.544 -6.71338ZM611.929 -30.2055L571.412 -53.6412L530.255 -29.8984L570.826 -6.49352L611.929 -30.2055ZM570.682 -54.0629L530.432 -77.3441L489.221 -53.5701L529.525 -30.3195L570.682 -54.0629ZM529.703 -77.7658L489.185 -101.201L447.92 -77.3961L488.491 -53.9913L529.703 -77.7658ZM488.456 -101.623L448.206 -124.904L406.887 -101.068L447.19 -77.8173L488.456 -101.623ZM447.477 -125.326L406.959 -148.762L365.586 -124.894L406.157 -101.489L447.477 -125.326ZM406.23 -149.183L365.98 -172.465L324.552 -148.566L364.856 -125.315L406.23 -149.183ZM365.251 -172.886L323.822 -197.27L282.394 -172.886L323.822 -148.987L365.251 -172.886ZM281.665 -172.465L241.414 -149.183L282.789 -125.315L323.092 -148.566L281.665 -172.465ZM240.685 -148.762L200.168 -125.326L241.488 -101.489L282.059 -124.894L240.685 -148.762ZM199.438 -124.904L159.188 -101.623L200.454 -77.8173L240.758 -101.068L199.438 -124.904ZM158.459 -101.201L117.941 -77.7657L159.153 -53.9913L199.724 -77.3961L158.459 -101.201ZM117.212 -77.344L76.9619 -54.0629L118.12 -30.3195L158.423 -53.5701L117.212 -77.344ZM76.2328 -53.6411L35.7153 -30.2054L76.8185 -6.49352L117.389 -29.8984L76.2328 -53.6411ZM34.9862 -29.7837L-4.89981 -6.71333L36.1499 16.9677L76.0885 -6.07233L34.9862 -29.7837ZM-5.62894 -6.29161L-46.5108 17.3548L-5.51602 41.0042L35.4198 17.3889L-5.62894 -6.29161ZM-47.24 17.7766L-87.7575 41.2122L-46.817 64.8303L-6.24609 41.4254L-47.24 17.7766ZM-88.4866 41.634L-128.373 64.7043L-87.4857 88.2915L-47.5471 65.2515L-88.4866 41.634ZM-129.102 65.1261L-169.304 88.3791L-128.471 111.935L-88.2158 88.7127L-129.102 65.1261ZM-170.033 88.8008L-210.234 112.054L-169.459 135.581L-129.201 112.356L-170.033 88.8008ZM-210.964 112.476L-251.481 135.911L-210.751 159.402L-170.189 136.002L-210.964 112.476ZM283.519 -124.894L323.822 -148.144L364.126 -124.894L323.822 -101.643L283.519 -124.894ZM324.552 -101.222L364.856 -124.473L405.427 -101.068L365.123 -77.8173L324.552 -101.222ZM365.853 -77.3961L406.157 -100.647L446.46 -77.3961L406.157 -54.1456L365.853 -77.3961ZM406.887 -53.7244L447.19 -76.975L487.761 -53.5701L447.458 -30.3195L406.887 -53.7244ZM448.188 -29.8984L488.491 -53.1489L528.795 -29.8984L488.491 -6.64783L448.188 -29.8984ZM489.221 -6.22665L529.525 -29.4772L570.096 -6.07233L529.792 17.1782L489.221 -6.22665ZM530.522 17.5994L570.826 -5.65117L610.764 17.3889L570.461 40.6394L530.522 17.5994ZM571.191 41.0606L611.494 17.8101L652.43 41.4254L612.127 64.676L571.191 41.0606ZM612.857 65.0971L653.16 41.8466L693.731 65.2515L653.428 88.502L612.857 65.0971ZM654.158 88.9232L694.461 65.6726L734.4 88.7127L694.096 111.963L654.158 88.9232ZM694.827 112.384L735.13 89.1339L775.385 112.356L735.081 135.607L694.827 112.384ZM735.811 136.028L776.115 112.777L816.373 136.002L776.073 159.254L735.811 136.028ZM776.803 159.675L817.103 136.423L857.665 159.823L817.356 183.07L776.803 159.675ZM776.073 160.097L816.626 183.491L776.049 206.893L735.505 183.503L776.073 160.097ZM734.775 183.925L775.319 207.314L735.01 230.561L694.475 207.177L734.775 183.925ZM693.745 207.598L734.28 230.982L693.703 254.384L653.177 231.005L693.745 207.598ZM652.447 231.426L692.973 254.805L652.664 278.052L612.147 254.678L652.447 231.426ZM611.417 255.1L651.934 278.474L611.357 301.875L570.849 278.506L611.417 255.1ZM570.119 278.928L610.627 302.296L570.683 325.333L530.184 301.969L570.119 278.928ZM529.453 302.391L569.953 325.754L529.011 349.366L488.521 326.008L529.453 302.391ZM487.791 326.429L528.281 349.788L487.705 373.189L447.223 349.836L487.791 326.429ZM446.493 350.257L486.975 373.61L447.03 396.647L406.558 373.299L446.493 350.257ZM405.828 373.72L446.3 397.068L406.04 420.288L365.576 396.944L405.828 373.72ZM364.846 397.366L405.31 420.709L365.004 443.954L324.552 420.614L364.846 397.366ZM323.822 421.035L364.274 444.375L323.822 467.705L283.37 444.375L323.822 421.035ZM323.092 420.614L282.64 443.954L242.335 420.709L282.798 397.366L323.092 420.614ZM282.068 396.944L241.604 420.288L201.344 397.068L241.817 373.72L282.068 396.944ZM241.087 373.299L200.614 396.647L160.67 373.61L201.151 350.257L241.087 373.299ZM200.421 349.836L159.94 373.189L119.363 349.788L159.854 326.429L200.421 349.836ZM159.124 326.008L118.633 349.366L77.6914 325.754L118.191 302.391L159.124 326.008ZM117.461 301.969L76.9612 325.333L37.0172 302.296L77.5255 278.928L117.461 301.969ZM76.7954 278.506L36.287 301.875L-4.28952 278.474L36.2277 255.1L76.7954 278.506ZM35.4977 254.678L-5.01968 278.052L-45.3287 254.805L-4.80261 231.426L35.4977 254.678ZM-5.53262 231.005L-46.0589 254.384L-86.6354 230.982L-46.1004 207.598L-5.53262 231.005ZM-46.8304 207.177L-87.3656 230.561L-127.675 207.314L-87.1307 183.925L-46.8304 207.177ZM-87.8607 183.503L-128.405 206.893L-168.981 183.491L-128.428 160.097L-87.8607 183.503ZM-129.158 159.675L-169.711 183.07L-210.02 159.823L-169.459 136.423L-129.158 159.675ZM-128.428 159.254L-168.729 136.002L-128.471 112.777L-88.1671 136.028L-128.428 159.254ZM-87.437 135.607L-127.74 112.356L-87.4857 89.1339L-47.1822 112.384L-87.437 135.607ZM-46.4522 111.963L-86.7556 88.7127L-46.817 65.6726L-6.51358 88.9232L-46.4522 111.963ZM-5.78351 88.502L-46.087 65.2515L-5.51602 41.8466L34.7874 65.0971L-5.78351 88.502ZM35.5175 64.676L-4.78592 41.4254L36.1499 17.8101L76.4533 41.0606L35.5175 64.676ZM77.1834 40.6394L36.88 17.3889L76.8185 -5.65115L117.122 17.5994L77.1834 40.6394ZM117.852 17.1782L77.5486 -6.07233L118.12 -29.4772L158.423 -6.22664L117.852 17.1782ZM159.153 -6.64783L118.85 -29.8984L159.153 -53.1489L199.457 -29.8984L159.153 -6.64783ZM200.187 -30.3195L159.883 -53.5701L200.454 -76.975L240.758 -53.7244L200.187 -30.3195ZM241.488 -54.1456L201.184 -77.3961L241.488 -100.647L281.791 -77.3961L241.488 -54.1456ZM282.521 -77.8173L242.218 -101.068L282.789 -124.473L323.092 -101.222L282.521 -77.8173ZM283.251 -77.3961L323.822 -100.801L364.393 -77.3961L323.822 -53.9913L283.251 -77.3961ZM324.552 -53.5701L365.123 -76.975L405.427 -53.7244L364.856 -30.3195L324.552 -53.5701ZM365.586 -29.8984L406.157 -53.3032L446.728 -29.8984L406.157 -6.49352L365.586 -29.8984ZM406.887 -6.07233L447.458 -29.4772L487.761 -6.22664L447.19 17.1782L406.887 -6.07233ZM447.92 17.5994L488.491 -5.8055L529.062 17.5994L488.491 41.0042L447.92 17.5994ZM489.221 41.4254L529.792 18.0206L569.731 41.0606L529.16 64.4655L489.221 41.4254ZM529.89 64.8867L570.461 41.4818L611.397 65.0971L570.826 88.502L529.89 64.8867ZM571.556 88.9232L612.127 65.5183L652.698 88.9232L612.127 112.328L571.556 88.9232ZM612.857 112.749L653.428 89.3444L693.366 112.384L652.795 135.789L612.857 112.749ZM653.526 136.21L694.096 112.806L734.351 136.028L693.78 159.433L653.526 136.21ZM694.51 159.854L735.081 136.449L775.343 159.675L734.775 183.082L694.51 159.854ZM693.78 160.275L734.045 183.503L693.745 206.756L653.477 183.526L693.78 160.275ZM652.747 183.947L693.015 207.177L652.447 230.584L612.176 207.352L652.747 183.947ZM611.446 207.773L651.717 231.005L611.417 254.257L571.142 231.024L611.446 207.773ZM570.412 231.445L610.687 254.679L570.119 278.085L529.841 254.85L570.412 231.445ZM529.111 255.271L569.389 278.506L529.453 301.548L489.173 278.311L529.111 255.271ZM488.443 278.732L528.723 301.969L487.791 325.587L447.507 302.347L488.443 278.732ZM446.777 302.769L487.061 326.008L446.493 349.415L406.206 326.173L446.777 302.769ZM405.476 326.595L445.763 349.836L405.828 372.878L365.537 349.635L405.476 326.595ZM364.807 350.056L405.098 373.299L364.846 396.523L324.552 373.278L364.807 350.056ZM323.822 373.699L364.116 396.944L323.822 420.193L283.528 396.944L323.822 373.699ZM323.092 373.278L282.798 396.523L242.547 373.299L282.837 350.056L323.092 373.278ZM282.107 349.635L241.817 372.878L201.881 349.836L242.169 326.595L282.107 349.635ZM241.439 326.173L201.151 349.415L160.584 326.008L200.868 302.769L241.439 326.173ZM200.138 302.347L159.854 325.587L118.921 301.969L159.202 278.732L200.138 302.347ZM158.472 278.311L118.191 301.548L78.2555 278.506L118.533 255.271L158.472 278.311ZM117.803 254.85L77.5255 278.085L36.9578 254.678L77.2321 231.445L117.803 254.85ZM76.502 231.024L36.2278 254.257L-4.07254 231.005L36.1986 207.773L76.502 231.024ZM35.4685 207.352L-4.80255 230.584L-45.3703 207.177L-5.10245 183.947L35.4685 207.352ZM-5.83252 183.526L-46.1003 206.756L-86.4006 183.503L-46.136 160.275L-5.83252 183.526ZM-46.8661 159.854L-87.1306 183.082L-127.698 159.675L-87.437 136.449L-46.8661 159.854ZM-46.136 159.433L-86.7069 136.028L-46.4521 112.806L-5.88123 136.21L-46.136 159.433ZM-5.15112 135.789L-45.7221 112.384L-5.78351 89.3444L34.7874 112.749L-5.15112 135.789ZM35.5175 112.328L-5.05344 88.9232L35.5175 65.5183L76.0885 88.9232L35.5175 112.328ZM76.8185 88.502L36.2476 65.0971L77.1834 41.4818L117.754 64.8867L76.8185 88.502ZM118.484 64.4655L77.9135 41.0606L117.852 18.0206L158.423 41.4254L118.484 64.4655ZM159.153 41.0042L118.582 17.5994L159.153 -5.80548L199.724 17.5994L159.153 41.0042ZM200.454 17.1782L159.883 -6.22664L200.187 -29.4772L240.758 -6.07233L200.454 17.1782ZM241.488 -6.49352L200.917 -29.8984L241.488 -53.3032L282.059 -29.8984L241.488 -6.49352ZM282.789 -30.3195L242.218 -53.7244L282.521 -76.975L323.092 -53.5701L282.789 -30.3195ZM283.519 -29.8984L323.822 -53.1489L364.126 -29.8984L323.822 -6.64783L283.519 -29.8984ZM324.552 -6.22664L364.856 -29.4772L405.427 -6.07233L365.123 17.1782L324.552 -6.22664ZM365.853 17.5994L406.157 -5.65115L446.46 17.5994L406.157 40.8499L365.853 17.5994ZM406.887 41.2711L447.19 18.0206L487.761 41.4254L447.458 64.676L406.887 41.2711ZM448.188 65.0971L488.491 41.8466L528.43 64.8867L488.126 88.1372L448.188 65.0971ZM488.856 88.5584L529.16 65.3078L570.096 88.9232L529.792 112.174L488.856 88.5584ZM530.522 112.595L570.826 89.3444L611.397 112.749L571.093 136L530.522 112.595ZM571.823 136.421L612.127 113.17L652.065 136.21L611.762 159.461L571.823 136.421ZM612.492 159.882L652.795 136.632L693.05 159.854L652.747 183.105L612.492 159.882ZM611.762 160.303L652.017 183.526L611.446 206.931L571.191 183.708L611.762 160.303ZM570.461 184.129L610.716 207.352L570.412 230.602L530.158 207.38L570.461 184.129ZM529.427 207.801L569.682 231.024L529.111 254.428L488.857 231.206L529.427 207.801ZM488.126 231.627L528.381 254.85L488.443 277.89L448.188 254.667L488.126 231.627ZM447.458 255.088L487.713 278.311L446.777 301.926L406.522 278.704L447.458 255.088ZM405.792 279.125L446.047 302.347L405.476 325.752L365.221 302.53L405.792 279.125ZM364.491 302.951L404.746 326.173L364.807 349.214L324.552 325.991L364.491 302.951ZM323.822 326.412L364.077 349.635L323.822 372.857L283.567 349.635L323.822 326.412ZM323.092 325.991L282.837 349.214L242.899 326.173L283.154 302.951L323.092 325.991ZM282.423 302.53L242.169 325.752L201.598 302.347L241.853 279.125L282.423 302.53ZM241.122 278.704L200.868 301.926L159.932 278.311L200.187 255.088L241.122 278.704ZM199.457 254.667L159.202 277.89L119.263 254.85L159.518 231.627L199.457 254.667ZM158.788 231.206L118.533 254.428L77.9622 231.024L118.217 207.801L158.788 231.206ZM117.487 207.38L77.2321 230.602L36.9286 207.352L77.1834 184.129L117.487 207.38ZM76.4533 183.708L36.1986 206.931L-4.37238 183.526L35.8824 160.303L76.4533 183.708ZM35.1523 159.882L-5.10245 183.105L-45.4059 159.854L-5.15112 136.632L35.1523 159.882ZM35.8824 159.461L-4.42105 136.21L35.5175 113.17L75.821 136.421L35.8824 159.461ZM76.551 136L36.2476 112.749L76.8185 89.3444L117.122 112.595L76.551 136ZM117.852 112.174L77.5486 88.9232L118.484 65.3078L158.788 88.5584L117.852 112.174ZM159.518 88.1372L119.215 64.8867L159.153 41.8466L199.457 65.0971L159.518 88.1372ZM200.187 64.676L159.883 41.4254L200.454 18.0206L240.758 41.2711L200.187 64.676ZM241.488 40.8499L201.184 17.5994L241.488 -5.65115L281.791 17.5994L241.488 40.8499ZM282.521 17.1782L242.218 -6.07233L282.789 -29.4772L323.092 -6.22664L282.521 17.1782ZM283.251 17.5994L323.822 -5.80545L364.393 17.5994L323.822 41.0042L283.251 17.5994ZM324.552 41.4254L365.123 18.0206L405.427 41.2711L364.856 64.676L324.552 41.4254ZM365.586 65.0971L406.157 41.6923L446.728 65.0971L406.157 88.502L365.586 65.0971ZM406.887 88.9232L447.458 65.5183L487.396 88.5584L446.825 111.963L406.887 88.9232ZM447.555 112.384L488.126 88.9796L529.062 112.595L488.491 136L447.555 112.384ZM489.221 136.421L529.792 113.016L570.363 136.421L529.792 159.826L489.221 136.421ZM530.522 160.247L571.093 136.842L611.032 159.882L570.461 183.287L530.522 160.247ZM529.792 160.668L569.731 183.708L529.427 206.959L489.489 183.919L529.792 160.668ZM488.759 184.34L528.697 207.38L488.126 230.785L448.188 207.745L488.759 184.34ZM447.458 208.166L487.396 231.206L447.458 254.246L407.519 231.206L447.458 208.166ZM406.789 231.627L446.728 254.667L405.792 278.283L365.853 255.243L406.789 231.627ZM365.123 255.664L405.062 278.704L364.491 302.109L324.552 279.069L365.123 255.664ZM323.822 279.49L363.761 302.53L323.822 325.57L283.884 302.53L323.822 279.49ZM323.092 279.069L283.154 302.109L242.583 278.704L282.521 255.664L323.092 279.069ZM281.791 255.243L241.853 278.283L200.917 254.667L240.855 231.627L281.791 255.243ZM240.125 231.206L200.187 254.246L160.248 231.206L200.187 208.166L240.125 231.206ZM199.457 207.745L159.518 230.785L118.947 207.38L158.886 184.34L199.457 207.745ZM158.156 183.919L118.217 206.959L77.9135 183.708L117.852 160.668L158.156 183.919ZM117.122 160.247L77.1834 183.287L36.6125 159.882L76.551 136.842L117.122 160.247ZM117.852 159.826L77.2811 136.421L117.852 113.016L158.423 136.421L117.852 159.826ZM159.153 136L118.582 112.595L159.518 88.9796L200.089 112.384L159.153 136ZM200.819 111.963L160.248 88.5584L200.187 65.5183L240.758 88.9232L200.819 111.963ZM241.488 88.502L200.917 65.0971L241.488 41.6923L282.059 65.0971L241.488 88.502ZM282.789 64.676L242.218 41.2711L282.521 18.0206L323.092 41.4254L282.789 64.676ZM283.519 65.0971L323.822 41.8466L364.126 65.0971L323.822 88.3477L283.519 65.0971ZM324.552 88.7689L364.856 65.5183L405.427 88.9232L365.123 112.174L324.552 88.7689ZM365.853 112.595L406.157 89.3444L446.095 112.384L405.792 135.635L365.853 112.595ZM406.522 136.056L446.825 112.806L487.761 136.421L447.458 159.672L406.522 136.056ZM448.188 160.093L488.491 136.842L529.062 160.247L488.759 183.498L448.188 160.093ZM447.458 160.514L488.029 183.919L447.458 207.324L406.887 183.919L447.458 160.514ZM406.157 184.34L446.728 207.745L406.789 230.785L366.218 207.38L406.157 184.34ZM365.488 207.801L406.059 231.206L365.123 254.821L324.552 231.416L365.488 207.801ZM323.822 231.838L364.393 255.243L323.822 278.647L283.251 255.243L323.822 231.838ZM323.092 231.416L282.521 254.821L241.585 231.206L282.156 207.801L323.092 231.416ZM281.426 207.38L240.855 230.785L200.917 207.745L241.488 184.34L281.426 207.38ZM240.758 183.919L200.187 207.324L159.616 183.919L200.187 160.514L240.758 183.919ZM199.457 160.093L158.886 183.498L118.582 160.247L159.153 136.842L199.457 160.093ZM200.187 159.672L159.883 136.421L200.819 112.806L241.122 136.056L200.187 159.672ZM241.853 135.635L201.549 112.384L241.488 89.3444L281.791 112.595L241.853 135.635ZM282.521 112.174L242.218 88.9232L282.789 65.5183L323.092 88.7689L282.521 112.174ZM283.251 112.595L323.822 89.19L364.393 112.595L323.822 136L283.251 112.595ZM324.552 136.421L365.123 113.016L405.062 136.056L364.491 159.461L324.552 136.421ZM365.221 159.882L405.792 136.477L446.728 160.093L406.157 183.498L365.221 159.882ZM364.491 160.303L405.427 183.919L365.488 206.959L324.552 183.343L364.491 160.303ZM323.822 183.765L364.758 207.38L323.822 230.995L282.886 207.38L323.822 183.765ZM323.092 183.343L282.156 206.959L242.218 183.919L283.154 160.303L323.092 183.343ZM282.423 159.882L241.488 183.498L200.917 160.093L241.853 136.477L282.423 159.882ZM283.154 159.461L242.583 136.056L282.521 113.016L323.092 136.421L283.154 159.461ZM283.884 159.882L323.822 136.842L363.761 159.882L323.822 182.922L283.884 159.882Z" fill="#00AEC7"/>
</g>
<path d="M308.918 34.5669L311.88 32.8702L312.022 33.1188L312.867 32.6349L313.712 33.1189L313.854 32.8703L316.816 34.5669L316.674 34.8155L318.648 35.9466L318.79 35.698L321.752 37.3946L321.61 37.6432L323.584 38.7743L323.727 38.5257L326.689 40.2224L326.546 40.471L328.521 41.6021L328.663 41.3535L331.625 43.0501L331.483 43.2987L333.457 44.4298L333.6 44.1812L336.561 45.8778L336.419 46.1264L338.393 47.2575L338.536 47.0089L341.498 48.7056L341.355 48.9542L343.33 50.0853L343.472 49.8367L346.434 51.5333L346.292 51.7819L348.266 52.913L348.409 52.6644L351.37 54.361L351.228 54.6096L353.202 55.7407L353.345 55.4921L356.307 57.1888L356.164 57.4374L358.139 58.5685L358.281 58.3199L361.243 60.0165L361.101 60.2651L363.075 61.3962L363.218 61.1476L366.179 62.8442L366.037 63.0928L368.011 64.2239L368.154 63.9753L371.116 65.672L370.973 65.9206L372.948 67.0517L373.09 66.8031L376.052 68.4997L375.91 68.7483L377.884 69.8794L378.027 69.6308L380.988 71.3275L380.846 71.5761L382.821 72.7071L382.963 72.4586L385.925 74.1552L385.782 74.4038L387.757 75.5349L387.899 75.2863L390.861 76.9829L390.719 77.2315L392.693 78.3626L392.836 78.114L395.797 79.8107L395.655 80.0593L397.63 81.1904L397.772 80.9418L400.734 82.6384L400.591 82.887L402.566 84.0181L402.708 83.7695L405.67 85.4661L405.528 85.7147L407.502 86.8458L407.645 86.5972L410.606 88.2939L410.464 88.5425L412.439 89.6736L412.581 89.425L415.543 91.1216L415.4 91.3702L417.375 92.5013L417.517 92.2527L420.479 93.9494L420.337 94.198L422.311 95.329L422.454 95.0805L425.415 96.7771L425.273 97.0257L427.248 98.1568L427.39 97.9082L430.352 99.6048L430.209 99.8534L431.053 100.336V101.328H431.339V104.801H431.053V107.116H431.339V110.589H431.053V112.904H431.339V116.377H431.053V118.692H431.339V122.165H431.053V124.48H431.339V127.953H431.053V130.268H431.339V133.741H431.053V136.056H431.339V139.529H431.053V141.844H431.339V145.317H431.053V147.632H431.339V151.105H431.053V153.42H431.339V156.893H431.053V159.208H431.339V162.681H431.053V164.996H431.339V168.469H431.053V170.784H431.339V174.257H431.053V176.572H431.339V180.045H431.053V182.36H431.339V185.833H431.053V188.148H431.339V191.621H431.053V193.936H431.339V197.409H431.053V199.725H431.339V203.197H431.053V205.513H431.339V208.985H431.053V211.301H431.339V214.773H431.053V217.089H431.339V220.561H431.053V222.877H431.339V226.349H431.053V228.665H431.339V232.138H431.053V234.453H431.339V237.926H431.053V238.918L430.209 239.405L430.352 239.653L427.39 241.363L427.247 241.115L425.272 242.255L425.415 242.503L422.454 244.213L422.31 243.965L420.336 245.105L420.479 245.353L417.517 247.063L417.374 246.815L415.4 247.955L415.543 248.203L412.581 249.913L412.438 249.665L410.463 250.805L410.606 251.053L407.645 252.763L407.501 252.515L405.527 253.655L405.67 253.903L402.708 255.613L402.565 255.365L400.59 256.505L400.734 256.753L397.772 258.463L397.629 258.215L395.654 259.355L395.797 259.603L392.836 261.313L392.692 261.065L390.718 262.205L390.861 262.453L387.899 264.163L387.756 263.915L385.781 265.055L385.925 265.303L382.963 267.013L382.82 266.765L380.845 267.905L380.988 268.153L378.027 269.863L377.883 269.615L375.909 270.755L376.052 271.003L373.09 272.713L372.947 272.465L370.972 273.605L371.116 273.853L368.154 275.563L368.011 275.315L366.036 276.455L366.179 276.703L363.218 278.413L363.074 278.165L361.1 279.305L361.243 279.553L358.281 281.263L358.138 281.015L356.163 282.155L356.307 282.403L353.345 284.113L353.202 283.865L351.227 285.005L351.37 285.253L348.409 286.963L348.265 286.715L346.291 287.855L346.434 288.103L343.472 289.813L343.329 289.565L341.354 290.705L341.498 290.953L338.536 292.663L338.393 292.415L336.418 293.555L336.561 293.803L333.599 295.513L333.456 295.265L331.482 296.405L331.625 296.653L328.663 298.363L328.52 298.115L326.545 299.255L326.689 299.503L323.727 301.213L323.584 300.965L321.609 302.105L321.752 302.353L318.79 304.063L318.647 303.815L316.673 304.955L316.816 305.203L313.854 306.913L313.711 306.665L312.867 307.152L312.023 306.665L311.88 306.913L308.918 305.203L309.061 304.955L307.086 303.815L306.943 304.063L303.981 302.353L304.125 302.105L302.15 300.965L302.007 301.213L299.045 299.503L299.188 299.255L297.214 298.115L297.07 298.363L294.109 296.653L294.252 296.405L292.277 295.265L292.134 295.513L289.172 293.803L289.316 293.555L287.341 292.415L287.198 292.663L284.236 290.953L284.379 290.705L282.405 289.565L282.261 289.813L279.3 288.103L279.443 287.855L277.468 286.715L277.325 286.963L274.363 285.253L274.507 285.005L272.532 283.865L272.389 284.113L269.427 282.403L269.57 282.155L267.596 281.015L267.452 281.263L264.491 279.553L264.634 279.305L262.659 278.165L262.516 278.413L259.554 276.703L259.698 276.455L257.723 275.315L257.58 275.563L254.618 273.853L254.761 273.605L252.787 272.465L252.643 272.713L249.682 271.003L249.825 270.755L247.85 269.615L247.707 269.863L244.745 268.153L244.889 267.905L242.914 266.765L242.771 267.013L239.809 265.303L239.952 265.055L237.978 263.915L237.834 264.163L234.873 262.453L235.016 262.205L233.041 261.065L232.898 261.313L229.936 259.603L230.079 259.355L228.105 258.215L227.962 258.463L225 256.753L225.143 256.505L223.169 255.365L223.025 255.613L220.064 253.903L220.207 253.655L218.232 252.515L218.089 252.763L215.127 251.053L215.27 250.805L213.296 249.665L213.153 249.913L210.191 248.203L210.334 247.955L208.36 246.815L208.216 247.063L205.254 245.353L205.398 245.105L203.423 243.965L203.28 244.213L200.318 242.503L200.461 242.255L198.487 241.115L198.344 241.363L195.382 239.653L195.525 239.405L194.681 238.918V237.926H194.395V234.453H194.681V232.138H194.395V228.665H194.681V226.349H194.395V222.877H194.681V220.561H194.395V217.089H194.681V214.773H194.395V211.301H194.681V208.985H194.395V205.513H194.681V203.197H194.395V199.725H194.681V197.409H194.395V193.936H194.681V191.621H194.395V188.148H194.681V185.833H194.395V182.36H194.681V180.045H194.395V176.572H194.681V174.257H194.395V170.784H194.681V168.469H194.395V164.996H194.681V162.681H194.395V159.208H194.681V156.893H194.395V153.42H194.681V151.105H194.395V147.632H194.681V145.317H194.395V141.844H194.681V139.529H194.395V136.056H194.681V133.741H194.395V130.268H194.681V127.953H194.395V124.48H194.681V122.165H194.395V118.692H194.681V116.377H194.395V112.904H194.681V110.589H194.395V107.116H194.681V104.801H194.395V101.328H194.681V100.336L195.524 99.8534L195.382 99.6048L198.344 97.9082L198.486 98.1568L200.461 97.0257L200.318 96.7771L203.28 95.0804L203.422 95.329L205.397 94.1979L205.255 93.9493L208.216 92.2527L208.359 92.5013L210.333 91.3702L210.191 91.1216L213.153 89.425L213.295 89.6736L215.27 88.5425L215.127 88.2939L218.089 86.5972L218.231 86.8458L220.206 85.7147L220.064 85.4661L223.025 83.7695L223.168 84.0181L225.142 82.887L225 82.6384L227.962 80.9418L228.104 81.1904L230.079 80.0593L229.936 79.8107L232.898 78.114L233.04 78.3626L235.015 77.2315L234.873 76.9829L237.834 75.2863L237.977 75.5349L239.951 74.4038L239.809 74.1552L242.771 72.4586L242.913 72.7071L244.888 71.5761L244.745 71.3275L247.707 69.6308L247.849 69.8794L249.824 68.7483L249.682 68.4997L252.643 66.8031L252.786 67.0517L254.76 65.9206L254.618 65.672L257.58 63.9753L257.722 64.2239L259.697 63.0929L259.554 62.8443L262.516 61.1476L262.658 61.3962L264.633 60.2651L264.491 60.0165L267.452 58.3199L267.595 58.5685L269.569 57.4374L269.427 57.1888L272.389 55.4921L272.531 55.7407L274.506 54.6096L274.363 54.361L277.325 52.6644L277.468 52.913L279.442 51.7819L279.3 51.5333L282.261 49.8367L282.404 50.0853L284.378 48.9542L284.236 48.7056L287.198 47.0089L287.34 47.2575L289.315 46.1264L289.172 45.8778L292.134 44.1812L292.277 44.4298L294.251 43.2987L294.109 43.0501L297.071 41.3534L297.213 41.602L299.187 40.4709L299.045 40.2224L302.007 38.5257L302.149 38.7743L304.124 37.6432L303.981 37.3946L306.943 35.698L307.086 35.9466L309.06 34.8155L308.918 34.5669Z" fill="#EDF9FB" stroke="#474C59" stroke-width="0.572992" stroke-dasharray="2.29 3.44 2.29 3.44"/>
<mask id="mask0_1663_20155" style="mask-type:luminance" maskUnits="userSpaceOnUse" x="194" y="32" width="238" height="276">
<path d="M308.918 34.5669L311.88 32.8702L312.022 33.1188L312.867 32.6349L313.712 33.1189L313.854 32.8703L316.816 34.5669L316.674 34.8155L318.648 35.9466L318.79 35.698L321.752 37.3946L321.61 37.6432L323.584 38.7743L323.727 38.5257L326.689 40.2224L326.546 40.471L328.521 41.6021L328.663 41.3535L331.625 43.0501L331.483 43.2987L333.457 44.4298L333.6 44.1812L336.561 45.8778L336.419 46.1264L338.393 47.2575L338.536 47.0089L341.498 48.7056L341.355 48.9542L343.33 50.0853L343.472 49.8367L346.434 51.5333L346.292 51.7819L348.266 52.913L348.409 52.6644L351.37 54.361L351.228 54.6096L353.202 55.7407L353.345 55.4921L356.307 57.1888L356.164 57.4374L358.139 58.5685L358.281 58.3199L361.243 60.0165L361.101 60.2651L363.075 61.3962L363.218 61.1476L366.179 62.8442L366.037 63.0928L368.011 64.2239L368.154 63.9753L371.116 65.672L370.973 65.9206L372.948 67.0517L373.09 66.8031L376.052 68.4997L375.91 68.7483L377.884 69.8794L378.027 69.6308L380.988 71.3275L380.846 71.5761L382.821 72.7071L382.963 72.4586L385.925 74.1552L385.782 74.4038L387.757 75.5349L387.899 75.2863L390.861 76.9829L390.719 77.2315L392.693 78.3626L392.836 78.114L395.797 79.8107L395.655 80.0593L397.63 81.1904L397.772 80.9418L400.734 82.6384L400.591 82.887L402.566 84.0181L402.708 83.7695L405.67 85.4661L405.528 85.7147L407.502 86.8458L407.645 86.5972L410.606 88.2939L410.464 88.5425L412.439 89.6736L412.581 89.425L415.543 91.1216L415.4 91.3702L417.375 92.5013L417.517 92.2527L420.479 93.9494L420.337 94.198L422.311 95.329L422.454 95.0805L425.415 96.7771L425.273 97.0257L427.248 98.1568L427.39 97.9082L430.352 99.6048L430.209 99.8534L431.053 100.336V101.328H431.339V104.801H431.053V107.116H431.339V110.589H431.053V112.904H431.339V116.377H431.053V118.692H431.339V122.165H431.053V124.48H431.339V127.953H431.053V130.268H431.339V133.741H431.053V136.056H431.339V139.529H431.053V141.844H431.339V145.317H431.053V147.632H431.339V151.105H431.053V153.42H431.339V156.893H431.053V159.208H431.339V162.681H431.053V164.996H431.339V168.469H431.053V170.784H431.339V174.257H431.053V176.572H431.339V180.045H431.053V182.36H431.339V185.833H431.053V188.148H431.339V191.621H431.053V193.936H431.339V197.409H431.053V199.725H431.339V203.197H431.053V205.513H431.339V208.985H431.053V211.301H431.339V214.773H431.053V217.089H431.339V220.561H431.053V222.877H431.339V226.349H431.053V228.665H431.339V232.138H431.053V234.453H431.339V237.926H431.053V238.918L430.209 239.405L430.352 239.653L427.39 241.363L427.247 241.115L425.272 242.255L425.415 242.503L422.454 244.213L422.31 243.965L420.336 245.105L420.479 245.353L417.517 247.063L417.374 246.815L415.4 247.955L415.543 248.203L412.581 249.913L412.438 249.665L410.463 250.805L410.606 251.053L407.645 252.763L407.501 252.515L405.527 253.655L405.67 253.903L402.708 255.613L402.565 255.365L400.59 256.505L400.734 256.753L397.772 258.463L397.629 258.215L395.654 259.355L395.797 259.603L392.836 261.313L392.692 261.065L390.718 262.205L390.861 262.453L387.899 264.163L387.756 263.915L385.781 265.055L385.925 265.303L382.963 267.013L382.82 266.765L380.845 267.905L380.988 268.153L378.027 269.863L377.883 269.615L375.909 270.755L376.052 271.003L373.09 272.713L372.947 272.465L370.972 273.605L371.116 273.853L368.154 275.563L368.011 275.315L366.036 276.455L366.179 276.703L363.218 278.413L363.074 278.165L361.1 279.305L361.243 279.553L358.281 281.263L358.138 281.015L356.163 282.155L356.307 282.403L353.345 284.113L353.202 283.865L351.227 285.005L351.37 285.253L348.409 286.963L348.265 286.715L346.291 287.855L346.434 288.103L343.472 289.813L343.329 289.565L341.354 290.705L341.498 290.953L338.536 292.663L338.393 292.415L336.418 293.555L336.561 293.803L333.599 295.513L333.456 295.265L331.482 296.405L331.625 296.653L328.663 298.363L328.52 298.115L326.545 299.255L326.689 299.503L323.727 301.213L323.584 300.965L321.609 302.105L321.752 302.353L318.79 304.063L318.647 303.815L316.673 304.955L316.816 305.203L313.854 306.913L313.711 306.665L312.867 307.152L312.023 306.665L311.88 306.913L308.918 305.203L309.061 304.955L307.086 303.815L306.943 304.063L303.981 302.353L304.125 302.105L302.15 300.965L302.007 301.213L299.045 299.503L299.188 299.255L297.214 298.115L297.07 298.363L294.109 296.653L294.252 296.405L292.277 295.265L292.134 295.513L289.172 293.803L289.316 293.555L287.341 292.415L287.198 292.663L284.236 290.953L284.379 290.705L282.405 289.565L282.261 289.813L279.3 288.103L279.443 287.855L277.468 286.715L277.325 286.963L274.363 285.253L274.507 285.005L272.532 283.865L272.389 284.113L269.427 282.403L269.57 282.155L267.596 281.015L267.452 281.263L264.491 279.553L264.634 279.305L262.659 278.165L262.516 278.413L259.554 276.703L259.698 276.455L257.723 275.315L257.58 275.563L254.618 273.853L254.761 273.605L252.787 272.465L252.643 272.713L249.682 271.003L249.825 270.755L247.85 269.615L247.707 269.863L244.745 268.153L244.889 267.905L242.914 266.765L242.771 267.013L239.809 265.303L239.952 265.055L237.978 263.915L237.834 264.163L234.873 262.453L235.016 262.205L233.041 261.065L232.898 261.313L229.936 259.603L230.079 259.355L228.105 258.215L227.962 258.463L225 256.753L225.143 256.505L223.169 255.365L223.025 255.613L220.064 253.903L220.207 253.655L218.232 252.515L218.089 252.763L215.127 251.053L215.27 250.805L213.296 249.665L213.153 249.913L210.191 248.203L210.334 247.955L208.36 246.815L208.216 247.063L205.254 245.353L205.398 245.105L203.423 243.965L203.28 244.213L200.318 242.503L200.461 242.255L198.487 241.115L198.344 241.363L195.382 239.653L195.525 239.405L194.681 238.918V237.926H194.395V234.453H194.681V232.138H194.395V228.665H194.681V226.349H194.395V222.877H194.681V220.561H194.395V217.089H194.681V214.773H194.395V211.301H194.681V208.985H194.395V205.513H194.681V203.197H194.395V199.725H194.681V197.409H194.395V193.936H194.681V191.621H194.395V188.148H194.681V185.833H194.395V182.36H194.681V180.045H194.395V176.572H194.681V174.257H194.395V170.784H194.681V168.469H194.395V164.996H194.681V162.681H194.395V159.208H194.681V156.893H194.395V153.42H194.681V151.105H194.395V147.632H194.681V145.317H194.395V141.844H194.681V139.529H194.395V136.056H194.681V133.741H194.395V130.268H194.681V127.953H194.395V124.48H194.681V122.165H194.395V118.692H194.681V116.377H194.395V112.904H194.681V110.589H194.395V107.116H194.681V104.801H194.395V101.328H194.681V100.336L195.524 99.8534L195.382 99.6048L198.344 97.9082L198.486 98.1568L200.461 97.0257L200.318 96.7771L203.28 95.0804L203.422 95.329L205.397 94.1979L205.255 93.9493L208.216 92.2527L208.359 92.5013L210.333 91.3702L210.191 91.1216L213.153 89.425L213.295 89.6736L215.27 88.5425L215.127 88.2939L218.089 86.5972L218.231 86.8458L220.206 85.7147L220.064 85.4661L223.025 83.7695L223.168 84.0181L225.142 82.887L225 82.6384L227.962 80.9418L228.104 81.1904L230.079 80.0593L229.936 79.8107L232.898 78.114L233.04 78.3626L235.015 77.2315L234.873 76.9829L237.834 75.2863L237.977 75.5349L239.951 74.4038L239.809 74.1552L242.771 72.4586L242.913 72.7071L244.888 71.5761L244.745 71.3275L247.707 69.6308L247.849 69.8794L249.824 68.7483L249.682 68.4997L252.643 66.8031L252.786 67.0517L254.76 65.9206L254.618 65.672L257.58 63.9753L257.722 64.2239L259.697 63.0929L259.554 62.8443L262.516 61.1476L262.658 61.3962L264.633 60.2651L264.491 60.0165L267.452 58.3199L267.595 58.5685L269.569 57.4374L269.427 57.1888L272.389 55.4921L272.531 55.7407L274.506 54.6096L274.363 54.361L277.325 52.6644L277.468 52.913L279.442 51.7819L279.3 51.5333L282.261 49.8367L282.404 50.0853L284.378 48.9542L284.236 48.7056L287.198 47.0089L287.34 47.2575L289.315 46.1264L289.172 45.8778L292.134 44.1812L292.277 44.4298L294.251 43.2987L294.109 43.0501L297.071 41.3534L297.213 41.602L299.187 40.4709L299.045 40.2224L302.007 38.5257L302.149 38.7743L304.124 37.6432L303.981 37.3946L306.943 35.698L307.086 35.9466L309.06 34.8155L308.918 34.5669Z" fill="white" stroke="white" stroke-width="0.572992" stroke-dasharray="2.29 3.44 2.29 3.44"/>
</mask>
<g mask="url(#mask0_1663_20155)">
<path opacity="0.407571" fill-rule="evenodd" clip-rule="evenodd" d="M186.379 112.987L270.268 64.3633V110.315L186.379 158.939V112.987Z" fill="url(#paint0_linear_1663_20155)" fill-opacity="0.7"/>
<path opacity="0.5" fill-rule="evenodd" clip-rule="evenodd" d="M274.543 62.2253L303.893 45.6758V59.5683L274.543 76.1178V62.2253Z" fill="url(#paint1_linear_1663_20155)" fill-opacity="0.7"/>
<path opacity="0.5" fill-rule="evenodd" clip-rule="evenodd" d="M274.543 81.9948L303.893 65.4453V95.3676L274.543 111.917V81.9948Z" fill="url(#paint2_linear_1663_20155)" fill-opacity="0.7"/>
<path opacity="0.407571" fill-rule="evenodd" clip-rule="evenodd" d="M273.207 274.186L371.523 217.547L413.468 241.761L315.152 298.399L273.207 274.186Z" fill="url(#paint3_linear_1663_20155)" fill-opacity="0.7"/>
</g>
<path fill-rule="evenodd" clip-rule="evenodd" d="M345.945 12.0895C346.124 11.9809 346.348 11.9784 346.529 12.083L462.939 79.2835C463.318 79.5025 463.322 80.0489 462.945 80.2725L426.072 102.153C425.895 102.258 425.674 102.26 425.495 102.157L309.076 35.4806C308.697 35.2638 308.69 34.7202 309.063 34.4937L345.945 12.0895Z" fill="url(#paint4_linear_1663_20155)" fill-opacity="0.45"/>
<path fill-rule="evenodd" clip-rule="evenodd" d="M462.9 80.5666C463.282 80.3453 463.76 80.621 463.76 81.0624V219.966C463.76 220.171 463.651 220.36 463.474 220.462L426.618 241.814C426.236 242.035 425.758 241.76 425.758 241.318L425.758 102.414C425.758 102.21 425.867 102.021 426.044 101.919L462.9 80.5666Z" fill="url(#paint5_linear_1663_20155)" fill-opacity="0.7"/>
<path fill-rule="evenodd" clip-rule="evenodd" d="M426.295 101.984L432.078 98.561L315.06 30.8789L309.277 34.302L426.295 101.984Z" fill="url(#paint6_linear_1663_20155)"/>
<path fill-rule="evenodd" clip-rule="evenodd" d="M426.289 101.986L432.072 98.5625V238.734L426.289 242.157V101.986Z" fill="url(#paint7_linear_1663_20155)"/>
<path fill-rule="evenodd" clip-rule="evenodd" d="M308.742 34.9022C308.742 34.4607 309.22 34.1851 309.602 34.4064L426.294 101.993V241.612C426.294 242.054 425.816 242.329 425.434 242.108L309.028 174.687C308.851 174.585 308.742 174.396 308.742 174.191L308.742 34.9022Z" fill="url(#paint8_linear_1663_20155)"/>
<path fill-rule="evenodd" clip-rule="evenodd" d="M314.086 44.66C314.086 44.2185 314.564 43.9429 314.946 44.1643L420.864 105.563V232.451C420.864 232.892 420.386 233.168 420.004 232.946L314.372 171.713C314.195 171.611 314.086 171.422 314.086 171.217L314.086 44.66Z" fill="url(#paint9_linear_1663_20155)"/>
<mask id="mask1_1663_20155" style="mask-type:luminance" maskUnits="userSpaceOnUse" x="314" y="44" width="107" height="190">
<path fill-rule="evenodd" clip-rule="evenodd" d="M314.086 44.66C314.086 44.2185 314.564 43.9429 314.946 44.1643L420.864 105.563V232.451C420.864 232.892 420.386 233.168 420.004 232.946L314.372 171.713C314.195 171.611 314.086 171.422 314.086 171.217L314.086 44.66Z" fill="white"/>
</mask>
<g mask="url(#mask1_1663_20155)">
<path fill-rule="evenodd" clip-rule="evenodd" d="M313.551 26.4922H314.085V54.7802L324.234 60.637V26.4922H324.769V60.9453L334.922 66.8044V26.4922H335.456V67.1127L345.605 72.9695V26.4922H346.14V73.2779L356.293 79.137V26.4922H356.827V79.4453L366.984 85.3066V26.4922H367.519V85.615L377.668 91.4718V26.4922H378.202V91.7801L388.355 97.6392V26.4922H388.89V97.9475L399.039 103.804V26.4922H399.573V104.113L409.727 109.972V26.4922H410.261V110.28L421.148 116.563L420.881 117.026L410.261 110.897V122.034L421.148 128.317L420.881 128.779L410.261 122.651V133.788L421.148 140.071L420.881 140.533L410.261 134.405V145.546L421.148 151.828L420.881 152.291L410.261 146.163V157.3L421.148 163.582L420.881 164.045L410.261 157.917V169.054L421.148 175.336L420.881 175.799L410.261 169.67V180.811L421.148 187.094L420.881 187.557L410.261 181.428V192.561L421.148 198.844L420.881 199.307L410.261 193.178V204.323L421.148 210.606L420.881 211.068L410.261 204.94V216.077L421.148 222.36L420.881 222.822L410.261 216.694V227.831L421.148 234.113L420.881 234.576L410.261 228.448V255.673H409.727V228.139L399.573 222.28V255.673H399.039V221.972L388.89 216.115V255.673H388.355V215.807L378.202 209.948V255.673H377.668V209.639L367.519 203.783V255.673H366.984V203.474L356.827 197.613V255.673H356.293V197.305L346.14 191.446V255.673H345.605V191.137L335.456 185.28V255.673H334.922V184.972L324.769 179.113V255.673H324.234V178.805L314.085 172.948V255.673H313.551V172.64L302.996 166.549L303.263 166.086L313.551 172.023V160.886L302.996 154.795L303.263 154.332L313.551 160.269V149.132L302.996 143.041L303.263 142.578L313.551 148.515V137.37L302.996 131.279L303.263 130.816L313.551 136.753V125.62L302.996 119.529L303.263 119.066L313.551 125.003V113.862L302.996 107.771L303.263 107.309L313.551 113.245V102.108L302.996 96.0175L303.263 95.5547L313.551 101.491V90.3544L302.996 84.2636L303.263 83.8008L313.551 89.7374V78.5965L302.996 72.5058L303.263 72.043L313.551 77.9796V66.8426L302.996 60.7519L303.263 60.2891L313.551 66.2257V55.0887L302.996 48.998L303.263 48.5352L313.551 54.4718V26.4922ZM314.085 172.331L324.234 178.188V167.051L314.085 161.194V172.331ZM324.769 178.496L334.922 184.355V173.218L324.769 167.359V178.496ZM335.456 184.663L345.605 190.52V179.383L335.456 173.527V184.663ZM346.14 190.829L356.293 196.688V185.551L346.14 179.692V190.829ZM356.827 196.996L366.984 202.857V191.72L356.827 185.859V196.996ZM367.519 203.166L377.668 209.023V197.886L367.519 192.029V203.166ZM378.202 209.331L388.355 215.19V204.053L378.202 198.194V209.331ZM388.89 215.498L399.039 221.355V210.218L388.89 204.361V215.498ZM399.573 221.663L409.727 227.523V216.386L399.573 210.526V221.663ZM409.727 204.632V215.769L399.573 209.91V198.773L409.727 204.632ZM399.039 198.464V209.601L388.89 203.744V192.607L399.039 198.464ZM388.355 192.299V203.436L378.202 197.577V186.44L388.355 192.299ZM377.668 186.132V197.269L367.519 191.412V180.275L377.668 186.132ZM366.984 179.966V191.103L356.827 185.242V174.105L366.984 179.966ZM356.293 173.797V184.934L346.14 179.075V167.938L356.293 173.797ZM345.605 167.629V178.766L335.456 172.91V161.773L345.605 167.629ZM334.922 161.464V172.601L324.769 166.742V155.605L334.922 161.464ZM324.234 155.297V166.434L314.085 160.577V149.44L324.234 155.297ZM314.085 148.823L324.234 154.68V143.535L314.085 137.678V148.823ZM324.769 154.988L334.922 160.847V149.703L324.769 143.843V154.988ZM335.456 161.156L345.605 167.012V155.868L335.456 150.011V161.156ZM346.14 167.321L356.293 173.18V162.035L346.14 156.176V167.321ZM356.827 173.488L366.984 179.35V168.205L356.827 162.343V173.488ZM367.519 179.658L377.668 185.515V174.37L367.519 168.513V179.658ZM378.202 185.823L388.355 191.682V180.537L378.202 174.678V185.823ZM388.89 191.99L399.039 197.847V186.702L388.89 180.846V191.99ZM399.573 198.156L409.727 204.015V192.87L399.573 187.011V198.156ZM409.727 181.12V192.253L399.573 186.394V175.261L409.727 181.12ZM399.039 174.952V186.086L388.89 180.229V169.096L399.039 174.952ZM388.355 168.787V179.92L378.202 174.061V162.928L388.355 168.787ZM377.668 162.62V173.753L367.519 167.896V156.763L377.668 162.62ZM366.984 156.455V167.588L356.827 161.727V150.593L366.984 156.455ZM356.293 150.285V161.418L346.14 155.559V144.426L356.293 150.285ZM345.605 144.118V155.251L335.456 149.394V138.261L345.605 144.118ZM334.922 137.953V149.086L324.769 143.227V132.093L334.922 137.953ZM324.234 131.785V142.918L314.085 137.061V125.928L324.234 131.785ZM314.085 125.311L324.234 131.168V120.027L314.085 114.171V125.311ZM324.769 131.477L334.922 137.336V126.195L324.769 120.336V131.477ZM335.456 137.644L345.605 143.501V132.36L335.456 126.503V137.644ZM346.14 143.809L356.293 149.668V138.527L346.14 132.668V143.809ZM356.827 149.977L366.984 155.838V144.697L356.827 138.836V149.977ZM367.519 156.146L377.668 162.003V150.862L367.519 145.005V156.146ZM378.202 162.311L388.355 168.17V157.03L378.202 151.17V162.311ZM388.89 168.479L399.039 174.336V163.195L388.89 157.338V168.479ZM399.573 174.644L409.727 180.503V169.362L399.573 163.503V174.644ZM409.727 157.608V168.745L399.573 162.886V151.749L409.727 157.608ZM399.039 151.441V162.578L388.89 156.721V145.584L399.039 151.441ZM388.355 145.276V156.413L378.202 150.554V139.417L388.355 145.276ZM377.668 139.108V150.245L367.519 144.388V133.251L377.668 139.108ZM366.984 132.943V144.08L356.827 138.219V127.082L366.984 132.943ZM356.293 126.773V137.91L346.14 132.051V120.914L356.293 126.773ZM345.605 120.606V131.743L335.456 125.886V114.749L345.605 120.606ZM334.922 114.441V125.578L324.769 119.719V108.582L334.922 114.441ZM324.234 108.273V119.41L314.085 113.554V102.417L324.234 108.273ZM314.085 101.8L324.234 107.657V96.5195L314.085 90.6627V101.8ZM324.769 107.965L334.922 113.824V102.687L324.769 96.8279V107.965ZM335.456 114.132L345.605 119.989V108.852L335.456 102.995V114.132ZM346.14 120.297L356.293 126.156V115.019L346.14 109.16V120.297ZM356.827 126.465L366.984 132.326V121.189L356.827 115.328V126.465ZM367.519 132.634L377.668 138.491V127.354L367.519 121.497V132.634ZM378.202 138.8L388.355 144.659V133.522L378.202 127.663V138.8ZM388.89 144.967L399.039 150.824V139.687L388.89 133.83V144.967ZM399.573 151.132L409.727 156.991V145.854L399.573 139.995V151.132ZM409.727 134.096V145.237L399.573 139.378V128.237L409.727 134.096ZM399.039 127.929V139.07L388.89 133.213V122.072L399.039 127.929ZM388.355 121.764V132.905L378.202 127.046V115.905L388.355 121.764ZM377.668 115.596V126.737L367.519 120.881V109.74L377.668 115.596ZM366.984 109.431V120.572L356.827 114.711V103.57L366.984 109.431ZM356.293 103.262V114.403L346.14 108.544V97.4026L356.293 103.262ZM345.605 97.0943V108.235L335.456 102.378V91.2374L345.605 97.0943ZM334.922 90.9291V102.07L324.769 96.2109V85.07L334.922 90.9291ZM324.234 84.7617V95.9026L314.085 90.0458V78.9049L324.234 84.7617ZM314.085 78.288L324.234 84.1448V73.0078L314.085 67.151V78.288ZM324.769 84.4531L334.922 90.3122V79.1752L324.769 73.3161V84.4531ZM335.456 90.6205L345.605 96.4773V85.3404L335.456 79.4835V90.6205ZM346.14 96.7857L356.293 102.645V91.5078L346.14 85.6487V96.7857ZM356.827 102.953L366.984 108.814V97.6774L356.827 91.8161V102.953ZM367.519 109.123L377.668 114.98V103.843L367.519 97.9858V109.123ZM378.202 115.288L388.355 121.147V110.01L378.202 104.151V115.288ZM388.89 121.455L399.039 127.312V116.175L388.89 110.318V121.455ZM399.573 127.62L409.727 133.48V122.343L399.573 116.484V127.62ZM409.727 110.589V121.726L399.573 115.867V104.73L409.727 110.589ZM399.039 104.421V115.558L388.89 109.701V98.5644L399.039 104.421ZM388.355 98.2561V109.393L378.202 103.534V92.397L388.355 98.2561ZM377.668 92.0887V103.226L367.519 97.3689V86.2319L377.668 92.0887ZM366.984 85.9235V97.0605L356.827 91.1992V80.0622L366.984 85.9235ZM356.293 79.7539V90.8909L346.14 85.0318V73.8948L356.293 79.7539ZM345.605 73.5865V84.7234L335.456 78.8666V67.7296L345.605 73.5865ZM334.922 67.4213V78.5583L324.769 72.6992V61.5622L334.922 67.4213ZM324.234 61.2539V72.3909L314.085 66.5341V55.3971L324.234 61.2539Z" fill="white" fill-opacity="0.3" style="mix-blend-mode:soft-light"/>
<g filter="url(#filter0_d_1663_20155)">
<path fill-rule="evenodd" clip-rule="evenodd" d="M348.544 178.315C350.167 179.239 351.483 178.49 351.483 176.643C351.483 174.796 350.167 172.55 348.544 171.626C346.921 170.702 345.605 171.451 345.605 173.298C345.605 175.146 346.921 177.392 348.544 178.315Z" fill="#F58923"/>
<path fill-rule="evenodd" clip-rule="evenodd" d="M348.544 178.315C350.167 179.239 351.483 178.49 351.483 176.643C351.483 174.796 350.167 172.55 348.544 171.626C346.921 170.702 345.605 171.451 345.605 173.298C345.605 175.146 346.921 177.392 348.544 178.315Z" stroke="white" stroke-width="1.14598"/>
</g>
<g filter="url(#filter1_d_1663_20155)">
<path fill-rule="evenodd" clip-rule="evenodd" d="M356.564 174.038C358.187 174.962 359.503 174.213 359.503 172.366C359.503 170.519 358.187 168.272 356.564 167.349C354.941 166.425 353.625 167.174 353.625 169.021C353.625 170.868 354.941 173.114 356.564 174.038Z" fill="#F58923"/>
<path fill-rule="evenodd" clip-rule="evenodd" d="M356.564 174.038C358.187 174.962 359.503 174.213 359.503 172.366C359.503 170.519 358.187 168.272 356.564 167.349C354.941 166.425 353.625 167.174 353.625 169.021C353.625 170.868 354.941 173.114 356.564 174.038Z" stroke="white" stroke-width="1.14598"/>
</g>
<g filter="url(#filter2_d_1663_20155)">
<path fill-rule="evenodd" clip-rule="evenodd" d="M360.302 178.315C361.925 179.239 363.241 178.49 363.241 176.643C363.241 174.796 361.925 172.55 360.302 171.626C358.679 170.702 357.363 171.451 357.363 173.298C357.363 175.146 358.679 177.392 360.302 178.315Z" fill="#F58923"/>
<path fill-rule="evenodd" clip-rule="evenodd" d="M360.302 178.315C361.925 179.239 363.241 178.49 363.241 176.643C363.241 174.796 361.925 172.55 360.302 171.626C358.679 170.702 357.363 171.451 357.363 173.298C357.363 175.146 358.679 177.392 360.302 178.315Z" stroke="white" stroke-width="1.14598"/>
</g>
<g filter="url(#filter3_d_1663_20155)">
<path fill-rule="evenodd" clip-rule="evenodd" d="M383.806 202.894C385.429 203.817 386.745 203.068 386.745 201.221C386.745 199.374 385.429 197.128 383.806 196.204C382.183 195.281 380.867 196.029 380.867 197.877C380.867 199.724 382.183 201.97 383.806 202.894Z" fill="#F58923"/>
<path fill-rule="evenodd" clip-rule="evenodd" d="M383.806 202.894C385.429 203.817 386.745 203.068 386.745 201.221C386.745 199.374 385.429 197.128 383.806 196.204C382.183 195.281 380.867 196.029 380.867 197.877C380.867 199.724 382.183 201.97 383.806 202.894Z" stroke="white" stroke-width="1.14598"/>
</g>
<g filter="url(#filter4_d_1663_20155)">
<path fill-rule="evenodd" clip-rule="evenodd" d="M401.443 197.011C403.066 197.934 404.382 197.186 404.382 195.338C404.382 193.491 403.066 191.245 401.443 190.321C399.82 189.398 398.504 190.147 398.504 191.994C398.504 193.841 399.82 196.087 401.443 197.011Z" fill="#F58923"/>
<path fill-rule="evenodd" clip-rule="evenodd" d="M401.443 197.011C403.066 197.934 404.382 197.186 404.382 195.338C404.382 193.491 403.066 191.245 401.443 190.321C399.82 189.398 398.504 190.147 398.504 191.994C398.504 193.841 399.82 196.087 401.443 197.011Z" stroke="white" stroke-width="1.14598"/>
</g>
<g filter="url(#filter5_d_1663_20155)">
<path fill-rule="evenodd" clip-rule="evenodd" d="M398.236 199.151C399.859 200.075 401.174 199.326 401.174 197.479C401.174 195.632 399.859 193.386 398.236 192.462C396.613 191.538 395.297 192.287 395.297 194.134C395.297 195.982 396.613 198.228 398.236 199.151Z" fill="#F58923"/>
<path fill-rule="evenodd" clip-rule="evenodd" d="M398.236 199.151C399.859 200.075 401.174 199.326 401.174 197.479C401.174 195.632 399.859 193.386 398.236 192.462C396.613 191.538 395.297 192.287 395.297 194.134C395.297 195.982 396.613 198.228 398.236 199.151Z" stroke="white" stroke-width="1.14598"/>
</g>
<g filter="url(#filter6_d_1663_20155)">
<path fill-rule="evenodd" clip-rule="evenodd" d="M367.779 191.671C369.402 192.595 370.717 191.846 370.717 189.999C370.717 188.151 369.402 185.905 367.779 184.982C366.156 184.058 364.84 184.807 364.84 186.654C364.84 188.501 366.156 190.747 367.779 191.671Z" fill="#F58923"/>
<path fill-rule="evenodd" clip-rule="evenodd" d="M367.779 191.671C369.402 192.595 370.717 191.846 370.717 189.999C370.717 188.151 369.402 185.905 367.779 184.982C366.156 184.058 364.84 184.807 364.84 186.654C364.84 188.501 366.156 190.747 367.779 191.671Z" stroke="white" stroke-width="1.14598"/>
</g>
<g filter="url(#filter7_d_1663_20155)">
<path fill-rule="evenodd" clip-rule="evenodd" d="M330.38 154.269C332.003 155.192 333.319 154.443 333.319 152.596C333.319 150.749 332.003 148.503 330.38 147.579C328.757 146.656 327.441 147.404 327.441 149.252C327.441 151.099 328.757 153.345 330.38 154.269Z" fill="#F58923"/>
<path fill-rule="evenodd" clip-rule="evenodd" d="M330.38 154.269C332.003 155.192 333.319 154.443 333.319 152.596C333.319 150.749 332.003 148.503 330.38 147.579C328.757 146.656 327.441 147.404 327.441 149.252C327.441 151.099 328.757 153.345 330.38 154.269Z" stroke="white" stroke-width="1.14598"/>
</g>
<g filter="url(#filter8_d_1663_20155)">
<path fill-rule="evenodd" clip-rule="evenodd" d="M367.779 191.671C369.402 192.595 370.717 191.846 370.717 189.999C370.717 188.151 369.402 185.905 367.779 184.982C366.156 184.058 364.84 184.807 364.84 186.654C364.84 188.501 366.156 190.747 367.779 191.671Z" fill="#F58923"/>
<path fill-rule="evenodd" clip-rule="evenodd" d="M367.779 191.671C369.402 192.595 370.717 191.846 370.717 189.999C370.717 188.151 369.402 185.905 367.779 184.982C366.156 184.058 364.84 184.807 364.84 186.654C364.84 188.501 366.156 190.747 367.779 191.671Z" stroke="white" stroke-width="1.14598"/>
</g>
<g filter="url(#filter9_d_1663_20155)">
<path fill-rule="evenodd" clip-rule="evenodd" d="M334.654 174.038C336.277 174.962 337.592 174.213 337.592 172.366C337.592 170.519 336.277 168.272 334.654 167.349C333.031 166.425 331.715 167.174 331.715 169.021C331.715 170.868 333.031 173.114 334.654 174.038Z" fill="#F58923"/>
<path fill-rule="evenodd" clip-rule="evenodd" d="M334.654 174.038C336.277 174.962 337.592 174.213 337.592 172.366C337.592 170.519 336.277 168.272 334.654 167.349C333.031 166.425 331.715 167.174 331.715 169.021C331.715 170.868 333.031 173.114 334.654 174.038Z" stroke="white" stroke-width="1.14598"/>
</g>
<g filter="url(#filter10_d_1663_20155)">
<path fill-rule="evenodd" clip-rule="evenodd" d="M381.682 94.1533C380.059 93.2297 378.743 93.9784 378.743 95.8256C378.743 97.6729 380.059 99.9191 381.682 100.843C383.305 101.766 384.621 101.018 384.621 99.1703C384.621 97.3231 383.305 95.0769 381.682 94.1533Z" fill="#00AEC7"/>
<path fill-rule="evenodd" clip-rule="evenodd" d="M381.682 94.1533C380.059 93.2297 378.743 93.9784 378.743 95.8256C378.743 97.6729 380.059 99.9191 381.682 100.843C383.305 101.766 384.621 101.018 384.621 99.1703C384.621 97.3231 383.305 95.0769 381.682 94.1533Z" stroke="white" stroke-width="1.14598"/>
</g>
<g filter="url(#filter11_d_1663_20155)">
<path fill-rule="evenodd" clip-rule="evenodd" d="M379.01 105.907C377.387 104.984 376.072 105.732 376.072 107.58C376.072 109.427 377.387 111.673 379.01 112.597C380.633 113.52 381.949 112.771 381.949 110.924C381.949 109.077 380.633 106.831 379.01 105.907Z" fill="#00AEC7"/>
<path fill-rule="evenodd" clip-rule="evenodd" d="M379.01 105.907C377.387 104.984 376.072 105.732 376.072 107.58C376.072 109.427 377.387 111.673 379.01 112.597C380.633 113.52 381.949 112.771 381.949 110.924C381.949 109.077 380.633 106.831 379.01 105.907Z" stroke="white" stroke-width="1.14598"/>
</g>
<g filter="url(#filter12_d_1663_20155)">
<path fill-rule="evenodd" clip-rule="evenodd" d="M360.307 109.645C358.684 108.722 357.368 109.471 357.368 111.318C357.368 113.165 358.684 115.411 360.307 116.335C361.93 117.258 363.246 116.51 363.246 114.663C363.246 112.815 361.93 110.569 360.307 109.645Z" fill="#00AEC7"/>
<path fill-rule="evenodd" clip-rule="evenodd" d="M360.307 109.645C358.684 108.722 357.368 109.471 357.368 111.318C357.368 113.165 358.684 115.411 360.307 116.335C361.93 117.258 363.246 116.51 363.246 114.663C363.246 112.815 361.93 110.569 360.307 109.645Z" stroke="white" stroke-width="1.14598"/>
</g>
<g filter="url(#filter13_d_1663_20155)">
<path fill-rule="evenodd" clip-rule="evenodd" d="M347.483 79.1924C345.86 78.2688 344.544 79.0175 344.544 80.8647C344.544 82.7119 345.86 84.9581 347.483 85.8817C349.106 86.8053 350.422 86.0566 350.422 84.2094C350.422 82.3622 349.106 80.116 347.483 79.1924Z" fill="#00AEC7"/>
<path fill-rule="evenodd" clip-rule="evenodd" d="M347.483 79.1924C345.86 78.2688 344.544 79.0175 344.544 80.8647C344.544 82.7119 345.86 84.9581 347.483 85.8817C349.106 86.8053 350.422 86.0566 350.422 84.2094C350.422 82.3622 349.106 80.116 347.483 79.1924Z" stroke="white" stroke-width="1.14598"/>
</g>
<g filter="url(#filter14_d_1663_20155)">
<path fill-rule="evenodd" clip-rule="evenodd" d="M344.276 82.9267C342.653 82.0031 341.337 82.7519 341.337 84.5991C341.337 86.4463 342.653 88.6925 344.276 89.6161C345.899 90.5397 347.215 89.791 347.215 87.9438C347.215 86.0966 345.899 83.8504 344.276 82.9267Z" fill="#00AEC7"/>
<path fill-rule="evenodd" clip-rule="evenodd" d="M344.276 82.9267C342.653 82.0031 341.337 82.7519 341.337 84.5991C341.337 86.4463 342.653 88.6925 344.276 89.6161C345.899 90.5397 347.215 89.791 347.215 87.9438C347.215 86.0966 345.899 83.8504 344.276 82.9267Z" stroke="white" stroke-width="1.14598"/>
</g>
<g filter="url(#filter15_d_1663_20155)">
<path fill-rule="evenodd" clip-rule="evenodd" d="M332.526 71.708C330.903 70.7844 329.587 71.5331 329.587 73.3803C329.587 75.2276 330.903 77.4738 332.526 78.3974C334.149 79.321 335.465 78.5722 335.465 76.725C335.465 74.8778 334.149 72.6316 332.526 71.708Z" fill="#00AEC7"/>
<path fill-rule="evenodd" clip-rule="evenodd" d="M332.526 71.708C330.903 70.7844 329.587 71.5331 329.587 73.3803C329.587 75.2276 330.903 77.4738 332.526 78.3974C334.149 79.321 335.465 78.5722 335.465 76.725C335.465 74.8778 334.149 72.6316 332.526 71.708Z" stroke="white" stroke-width="1.14598"/>
</g>
<g filter="url(#filter16_d_1663_20155)">
<path fill-rule="evenodd" clip-rule="evenodd" d="M363.518 90.4111C361.895 89.4875 360.579 90.2362 360.579 92.0835C360.579 93.9307 361.895 96.1769 363.518 97.1005C365.141 98.0241 366.457 97.2754 366.457 95.4281C366.457 93.5809 365.141 91.3347 363.518 90.4111Z" fill="#00AEC7"/>
<path fill-rule="evenodd" clip-rule="evenodd" d="M363.518 90.4111C361.895 89.4875 360.579 90.2362 360.579 92.0835C360.579 93.9307 361.895 96.1769 363.518 97.1005C365.141 98.0241 366.457 97.2754 366.457 95.4281C366.457 93.5809 365.141 91.3347 363.518 90.4111Z" stroke="white" stroke-width="1.14598"/>
</g>
<g filter="url(#filter17_d_1663_20155)">
<path fill-rule="evenodd" clip-rule="evenodd" d="M400.917 127.813C399.294 126.89 397.978 127.639 397.978 129.486C397.978 131.333 399.294 133.579 400.917 134.503C402.54 135.426 403.855 134.678 403.855 132.83C403.855 130.983 402.54 128.737 400.917 127.813Z" fill="#00AEC7"/>
<path fill-rule="evenodd" clip-rule="evenodd" d="M400.917 127.813C399.294 126.89 397.978 127.639 397.978 129.486C397.978 131.333 399.294 133.579 400.917 134.503C402.54 135.426 403.855 134.678 403.855 132.83C403.855 130.983 402.54 128.737 400.917 127.813Z" stroke="white" stroke-width="1.14598"/>
</g>
<g filter="url(#filter18_d_1663_20155)">
<path fill-rule="evenodd" clip-rule="evenodd" d="M363.518 90.4111C361.895 89.4875 360.579 90.2362 360.579 92.0835C360.579 93.9307 361.895 96.1769 363.518 97.1005C365.141 98.0241 366.457 97.2754 366.457 95.4281C366.457 93.5809 365.141 91.3347 363.518 90.4111Z" fill="#00AEC7"/>
<path fill-rule="evenodd" clip-rule="evenodd" d="M363.518 90.4111C361.895 89.4875 360.579 90.2362 360.579 92.0835C360.579 93.9307 361.895 96.1769 363.518 97.1005C365.141 98.0241 366.457 97.2754 366.457 95.4281C366.457 93.5809 365.141 91.3347 363.518 90.4111Z" stroke="white" stroke-width="1.14598"/>
</g>
<g filter="url(#filter19_d_1663_20155)">
<path fill-rule="evenodd" clip-rule="evenodd" d="M395.046 113.388C393.423 112.464 392.107 113.213 392.107 115.06C392.107 116.907 393.423 119.153 395.046 120.077C396.669 121.001 397.984 120.252 397.984 118.405C397.984 116.557 396.669 114.311 395.046 113.388Z" fill="#00AEC7"/>
<path fill-rule="evenodd" clip-rule="evenodd" d="M395.046 113.388C393.423 112.464 392.107 113.213 392.107 115.06C392.107 116.907 393.423 119.153 395.046 120.077C396.669 121.001 397.984 120.252 397.984 118.405C397.984 116.557 396.669 114.311 395.046 113.388Z" stroke="white" stroke-width="1.14598"/>
</g>
</g>
<path opacity="0.602309" d="M327.458 85.1992L256.914 126.722" stroke="url(#paint10_linear_1663_20155)" stroke-width="4.58394" stroke-linecap="round"/>
<path fill-rule="evenodd" clip-rule="evenodd" d="M327.442 87.3371C328.622 87.3371 329.579 86.3802 329.579 85.1998C329.579 84.0194 328.622 83.0625 327.442 83.0625C326.262 83.0625 325.305 84.0194 325.305 85.1998C325.305 86.3802 326.262 87.3371 327.442 87.3371Z" fill="#0793A7"/>
<path opacity="0.602309" d="M353.106 118.332L282.562 159.855" stroke="url(#paint11_linear_1663_20155)" stroke-width="4.58394" stroke-linecap="round"/>
<path fill-rule="evenodd" clip-rule="evenodd" d="M353.09 120.47C354.271 120.47 355.228 119.513 355.228 118.333C355.228 117.152 354.271 116.195 353.09 116.195C351.91 116.195 350.953 117.152 350.953 118.333C350.953 119.513 351.91 120.47 353.09 120.47Z" fill="#0793A7"/>
<path opacity="0.602309" d="M388.903 122.066L318.359 163.589" stroke="url(#paint12_linear_1663_20155)" stroke-width="4.58394" stroke-linecap="round"/>
<path fill-rule="evenodd" clip-rule="evenodd" d="M388.887 124.204C390.068 124.204 391.025 123.247 391.025 122.067C391.025 120.887 390.068 119.93 388.887 119.93C387.707 119.93 386.75 120.887 386.75 122.067C386.75 123.247 387.707 124.204 388.887 124.204Z" fill="#0793A7"/>
<path opacity="0.602309" d="M400.118 212.906L329.574 254.429" stroke="url(#paint13_linear_1663_20155)" stroke-width="4.58394" stroke-linecap="round"/>
<path fill-rule="evenodd" clip-rule="evenodd" d="M400.11 215.044C401.29 215.044 402.247 214.087 402.247 212.907C402.247 211.726 401.29 210.77 400.11 210.77C398.93 210.77 397.973 211.726 397.973 212.907C397.973 214.087 398.93 215.044 400.11 215.044Z" fill="#F26E16"/>
<path opacity="0.602309" d="M342.946 162.148L272.402 203.671" stroke="url(#paint14_linear_1663_20155)" stroke-width="4.58394" stroke-linecap="round"/>
<path fill-rule="evenodd" clip-rule="evenodd" d="M342.938 164.286C344.118 164.286 345.075 163.329 345.075 162.149C345.075 160.969 344.118 160.012 342.938 160.012C341.758 160.012 340.801 160.969 340.801 162.149C340.801 163.329 341.758 164.286 342.938 164.286Z" fill="#F26E16"/>
<path opacity="0.602309" d="M339.739 212.906L269.195 254.429" stroke="url(#paint15_linear_1663_20155)" stroke-width="4.58394" stroke-linecap="round"/>
<path fill-rule="evenodd" clip-rule="evenodd" d="M339.723 215.044C340.904 215.044 341.861 214.087 341.861 212.907C341.861 211.726 340.904 210.77 339.723 210.77C338.543 210.77 337.586 211.726 337.586 212.907C337.586 214.087 338.543 215.044 339.723 215.044Z" fill="#F26E16"/>
<path d="M312.335 168.017C312.425 168.069 312.535 168.069 312.625 168.016L318.407 164.593C318.495 164.541 318.548 164.446 318.548 164.345C318.547 164.243 318.493 164.149 318.405 164.098L201.387 96.4161C201.297 96.3642 201.187 96.3648 201.098 96.4175L195.315 99.8406C195.227 99.8924 195.174 99.9868 195.174 100.089C195.175 100.19 195.229 100.284 195.317 100.335L312.335 168.017Z" fill="url(#paint16_linear_1663_20155)" stroke="#474C59" stroke-width="0.572992" stroke-linecap="round" stroke-linejoin="round"/>
<path d="M312.327 168.055C312.24 168.107 312.186 168.201 312.186 168.302V307.939C312.186 308.042 312.241 308.137 312.331 308.188C312.42 308.239 312.53 308.238 312.619 308.185L318.401 304.762C318.488 304.711 318.542 304.617 318.542 304.516V164.879C318.542 164.776 318.487 164.681 318.397 164.63C318.308 164.579 318.198 164.58 318.109 164.632L312.327 168.055Z" fill="url(#paint17_linear_1663_20155)" stroke="#474C59" stroke-width="0.572992" stroke-linecap="round" stroke-linejoin="round"/>
<path d="M195.93 99.9417C195.357 99.6098 194.639 100.023 194.639 100.685V239.975C194.639 240.281 194.803 240.565 195.068 240.718L311.474 308.139C312.047 308.471 312.764 308.057 312.764 307.395V168.106C312.764 167.799 312.601 167.516 312.336 167.362L195.93 99.9417Z" fill="#FAFAFA" stroke="#474C59" stroke-width="0.572992"/>
<mask id="mask2_1663_20155" style="mask-type:luminance" maskUnits="userSpaceOnUse" x="194" y="99" width="120" height="210">
<path d="M195.93 99.9417C195.357 99.6098 194.639 100.023 194.639 100.685V239.975C194.639 240.281 194.803 240.565 195.068 240.718L311.474 308.139C312.047 308.471 312.764 308.057 312.764 307.395V168.106C312.764 167.799 312.601 167.516 312.336 167.362L195.93 99.9417Z" fill="white" stroke="white" stroke-width="0.572992"/>
</mask>
<g mask="url(#mask2_1663_20155)">
<path fill-rule="evenodd" clip-rule="evenodd" d="M205.078 89.5391H205.612V117.827L215.766 123.686V89.5391H216.3V123.994L226.453 129.854V89.5391H226.987V130.162L237.141 136.021V89.5391H237.675V136.329L247.828 142.188V89.5391H248.362V142.497L258.512 148.353V89.5391H259.046V148.662L269.199 154.521V89.5391H269.734V154.829L279.883 160.686V89.5391H280.417V160.994L290.57 166.853V89.5391H291.105V167.162L301.262 173.023V89.5391H301.796V173.331L312.675 179.61L312.408 180.072L301.796 173.948V185.085L312.675 191.364L312.408 191.826L301.796 185.702V196.843L312.675 203.121L312.408 203.584L301.796 197.46V208.593L312.675 214.871L312.408 215.334L301.796 209.21V220.351L312.675 226.629L312.408 227.092L301.796 220.968V232.109L312.675 238.387L312.408 238.85L301.796 232.726V243.859L312.675 250.137L312.408 250.6L301.796 244.476V255.617L312.675 261.895L312.408 262.358L301.796 256.234V267.371L312.675 273.649L312.408 274.111L301.796 267.987V279.128L312.675 285.406L312.408 285.869L301.796 279.745V290.882L312.675 297.16L312.408 297.623L301.796 291.499V318.72H301.262V291.191L291.105 285.329V318.72H290.57V285.021L280.417 279.162V318.72H279.883V278.854L269.734 272.997V318.72H269.199V272.689L259.046 266.83V318.72H258.512V266.521L248.362 260.664V318.72H247.828V260.356L237.675 254.497V318.72H237.141V254.189L226.987 248.33V318.72H226.453V248.021L216.3 242.162V318.72H215.766V241.854L205.612 235.995V318.72H205.078V235.686L194.523 229.596L194.791 229.133L205.078 235.069V223.932L194.523 217.842L194.791 217.379L205.078 223.316V212.175L194.523 206.084L194.791 205.621L205.078 211.558V200.421L194.523 194.33L194.791 193.867L205.078 199.804V188.663L194.523 182.572L194.791 182.109L205.078 188.046V176.913L194.523 170.822L194.791 170.359L205.078 176.296V165.155L194.523 159.064L194.791 158.602L205.078 164.538V153.397L194.523 147.307L194.791 146.844L205.078 152.78V141.647L194.523 135.557L194.791 135.094L205.078 141.03V129.89L194.523 123.799L194.791 123.336L205.078 129.273V118.136L194.523 112.045L194.791 111.582L205.078 117.519V89.5391ZM205.612 235.378L215.766 241.237V230.1L205.612 224.241V235.378ZM216.3 241.545L226.453 247.404V236.267L216.3 230.408V241.545ZM226.987 247.713L237.141 253.572V242.435L226.987 236.576V247.713ZM237.675 253.88L247.828 259.739V248.602L237.675 242.743V253.88ZM248.362 260.047L258.512 265.904V254.767L248.362 248.91V260.047ZM259.046 266.213L269.199 272.072V260.935L259.046 255.076V266.213ZM269.734 272.38L279.883 278.237V267.1L269.734 261.243V272.38ZM280.417 278.545L290.57 284.404V273.267L280.417 267.408V278.545ZM291.105 284.713L301.262 290.574V279.437L291.105 273.576V284.713ZM301.262 267.679V278.82L291.105 272.959V261.818L301.262 267.679ZM290.57 261.509V272.65L280.417 266.791V255.65L290.57 261.509ZM279.883 255.342V266.483L269.734 260.626V249.485L279.883 255.342ZM269.199 249.177V260.318L259.046 254.459V243.318L269.199 249.177ZM258.512 243.009V254.15L248.362 248.294V237.153L258.512 243.009ZM247.828 236.844V247.985L237.675 242.126V230.985L247.828 236.844ZM237.141 230.677V241.818L226.987 235.959V224.818L237.141 230.677ZM226.453 224.509V235.65L216.3 229.791V218.65L226.453 224.509ZM215.766 218.342V229.483L205.612 223.624V212.483L215.766 218.342ZM205.612 211.866L215.766 217.725V206.588L205.612 200.729V211.866ZM216.3 218.034L226.453 223.893V212.756L216.3 206.897V218.034ZM226.987 224.201L237.141 230.06V218.923L226.987 213.064V224.201ZM237.675 230.368L247.828 236.227V225.09L237.675 219.231V230.368ZM248.362 236.536L258.512 242.393V231.256L248.362 225.399V236.536ZM259.046 242.701L269.199 248.56V237.423L259.046 231.564V242.701ZM269.734 248.868L279.883 254.725V243.588L269.734 237.731V248.868ZM280.417 255.033L290.57 260.893V249.756L280.417 243.896V255.033ZM291.105 261.201L301.262 267.062V255.925L291.105 250.064V261.201ZM301.262 244.167V255.308L291.105 249.447V238.306L301.262 244.167ZM290.57 237.998V249.139L280.417 243.28V232.139L290.57 237.998ZM279.883 231.83V242.971L269.734 237.114V225.973L279.883 231.83ZM269.199 225.665V236.806L259.046 230.947V219.806L269.199 225.665ZM258.512 219.498V230.639L248.362 224.782V213.641L258.512 219.498ZM247.828 213.333V224.473L237.675 218.614V207.474L247.828 213.333ZM237.141 207.165V218.306L226.987 212.447V201.306L237.141 207.165ZM226.453 200.998V212.139L216.3 206.28V195.139L226.453 200.998ZM215.766 194.83V205.971L205.612 200.112V188.971L215.766 194.83ZM205.612 188.354L215.766 194.213V183.08L205.612 177.221V188.354ZM216.3 194.522L226.453 200.381V189.248L216.3 183.389V194.522ZM226.987 200.689L237.141 206.548V195.415L226.987 189.556V200.689ZM237.675 206.857L247.828 212.716V201.583L237.675 195.724V206.857ZM248.362 213.024L258.512 218.881V207.748L248.362 201.891V213.024ZM259.046 219.189L269.199 225.048V213.915L259.046 208.056V219.189ZM269.734 225.357L279.883 231.213V220.08L269.734 214.223V225.357ZM280.417 231.522L290.57 237.381V226.248L280.417 220.389V231.522ZM291.105 237.689L301.262 243.55V232.417L291.105 226.556V237.689ZM301.262 220.66V231.8L291.105 225.939V214.798L301.262 220.66ZM290.57 214.49V225.631L280.417 219.772V208.631L290.57 214.49ZM279.883 208.323V219.463L269.734 213.607V202.466L279.883 208.323ZM269.199 202.157V213.298L259.046 207.439V196.298L269.199 202.157ZM258.512 195.99V207.131L248.362 201.274V190.133L258.512 195.99ZM247.828 189.825V200.966L237.675 195.107V183.966L247.828 189.825ZM237.141 183.657V194.798L226.987 188.939V177.798L237.141 183.657ZM226.453 177.49V188.631L216.3 182.772V171.631L226.453 177.49ZM215.766 171.323V182.463L205.612 176.604V165.463L215.766 171.323ZM205.612 164.847L215.766 170.706V159.565L205.612 153.706V164.847ZM216.3 171.014L226.453 176.873V165.732L216.3 159.873V171.014ZM226.987 177.181L237.141 183.04V171.9L226.987 166.04V177.181ZM237.675 183.349L247.828 189.208V178.067L237.675 172.208V183.349ZM248.362 189.516L258.512 195.373V184.232L248.362 178.375V189.516ZM259.046 195.681L269.199 201.54V190.4L259.046 184.54V195.681ZM269.734 201.849L279.883 207.706V196.565L269.734 190.708V201.849ZM280.417 208.014L290.57 213.873V202.732L280.417 196.873V208.014ZM291.105 214.181L301.262 220.043V208.902L291.105 203.04V214.181ZM301.262 197.152V208.285L291.105 202.424V191.29L301.262 197.152ZM290.57 190.982V202.115L280.417 196.256V185.123L290.57 190.982ZM279.883 184.815V195.948L269.734 190.091V178.958L279.883 184.815ZM269.199 178.65V189.783L259.046 183.924V172.79L269.199 178.65ZM258.512 172.482V183.615L248.362 177.758V166.625L258.512 172.482ZM247.828 166.317V177.45L237.675 171.591V160.458L247.828 166.317ZM237.141 160.15V171.283L226.987 165.424V154.29L237.141 160.15ZM226.453 153.982V165.115L216.3 159.256V148.123L226.453 153.982ZM215.766 147.815V158.948L205.612 153.089V141.956L215.766 147.815ZM205.612 141.339L215.766 147.198V136.057L205.612 130.198V141.339ZM216.3 147.506L226.453 153.365V142.224L216.3 136.365V147.506ZM226.987 153.674L237.141 159.533V148.392L226.987 142.533V153.674ZM237.675 159.841L247.828 165.7V154.559L237.675 148.7V159.841ZM248.362 166.008L258.512 171.865V160.724L248.362 154.868V166.008ZM259.046 172.174L269.199 178.033V166.892L259.046 161.033V172.174ZM269.734 178.341L279.883 184.198V173.057L269.734 167.2V178.341ZM280.417 184.506L290.57 190.365V179.224L280.417 173.365V184.506ZM291.105 190.674L301.262 196.535V185.394L291.105 179.533V190.674ZM301.262 173.64V184.777L291.105 178.916V167.779L301.262 173.64ZM290.57 167.47V178.607L280.417 172.748V161.611L290.57 167.47ZM279.883 161.303V172.44L269.734 166.583V155.446L279.883 161.303ZM269.199 155.138V166.275L259.046 160.416V149.279L269.199 155.138ZM258.512 148.97V160.107L248.362 154.251V143.114L258.512 148.97ZM247.828 142.805V153.942L237.675 148.083V136.946L247.828 142.805ZM237.141 136.638V147.775L226.987 141.916V130.779L237.141 136.638ZM226.453 130.47V141.607L216.3 135.748V124.611L226.453 130.47ZM215.766 124.303V135.44L205.612 129.581V118.444L215.766 124.303Z" fill="#474C59" fill-opacity="0.1"/>
<path fill-rule="evenodd" clip-rule="evenodd" d="M232.959 209.261C247.473 216.518 259.239 210.635 259.239 196.122C259.239 181.608 247.473 163.959 232.959 156.702C218.445 149.445 206.68 155.328 206.68 169.842C206.68 184.356 218.445 202.004 232.959 209.261Z" fill="#4DC6D8" fill-opacity="0.3"/>
<path fill-rule="evenodd" clip-rule="evenodd" d="M232.94 195.882C240.065 199.445 245.841 196.557 245.841 189.432C245.841 182.307 240.065 173.643 232.94 170.081C225.815 166.518 220.039 169.406 220.039 176.531C220.039 183.656 225.815 192.32 232.94 195.882Z" fill="#4DC6D8" fill-opacity="0.3"/>
<path fill-rule="evenodd" clip-rule="evenodd" d="M272.028 263.827C281.264 268.445 288.752 264.702 288.752 255.465C288.752 246.229 281.264 234.998 272.028 230.38C262.792 225.762 255.305 229.506 255.305 238.742C255.305 247.978 262.792 259.209 272.028 263.827Z" fill="#4DC6D8" fill-opacity="0.3"/>
<path fill-rule="evenodd" clip-rule="evenodd" d="M272.018 255.312C276.552 257.579 280.228 255.742 280.228 251.207C280.228 246.673 276.552 241.16 272.018 238.893C267.484 236.626 263.809 238.464 263.809 242.998C263.809 247.532 267.484 253.045 272.018 255.312Z" fill="#4DC6D8" fill-opacity="0.3"/>
<path fill-rule="evenodd" clip-rule="evenodd" d="M305.966 202.153C321.552 209.946 334.186 203.629 334.186 188.043C334.186 172.457 321.552 153.506 305.966 145.713C290.381 137.92 277.746 144.237 277.746 159.823C277.746 175.408 290.381 194.36 305.966 202.153Z" fill="#4DC6D8" fill-opacity="0.3"/>
<path fill-rule="evenodd" clip-rule="evenodd" d="M305.943 187.783C313.594 191.609 319.797 188.507 319.797 180.856C319.797 173.205 313.594 163.902 305.943 160.076C298.292 156.251 292.09 159.352 292.09 167.003C292.09 174.654 298.292 183.958 305.943 187.783Z" fill="#4DC6D8" fill-opacity="0.3"/>
</g>
<path opacity="0.602309" d="M232.876 180.844L184 210.829" stroke="url(#paint18_linear_1663_20155)" stroke-width="4.58394" stroke-linecap="round"/>
<path fill-rule="evenodd" clip-rule="evenodd" d="M232.864 182.982C234.044 182.982 235.001 182.025 235.001 180.844C235.001 179.664 234.044 178.707 232.864 178.707C231.683 178.707 230.727 179.664 230.727 180.844C230.727 182.025 231.683 182.982 232.864 182.982Z" fill="#00AEC7"/>
<path opacity="0.602309" d="M271.88 245.5L201.336 287.023" stroke="url(#paint19_linear_1663_20155)" stroke-width="4.58394" stroke-linecap="round"/>
<path fill-rule="evenodd" clip-rule="evenodd" d="M271.872 247.638C273.052 247.638 274.009 246.681 274.009 245.501C274.009 244.32 273.052 243.363 271.872 243.363C270.691 243.363 269.734 244.32 269.734 245.501C269.734 246.681 270.691 247.638 271.872 247.638Z" fill="#00AEC7"/>
<path opacity="0.602309" d="M280.43 198.48L209.887 240.004" stroke="url(#paint20_linear_1663_20155)" stroke-width="4.58394" stroke-linecap="round"/>
<path fill-rule="evenodd" clip-rule="evenodd" d="M280.422 200.618C281.603 200.618 282.56 199.661 282.56 198.481C282.56 197.301 281.603 196.344 280.422 196.344C279.242 196.344 278.285 197.301 278.285 198.481C278.285 199.661 279.242 200.618 280.422 200.618Z" fill="#00AEC7"/>
</g>
<defs>
<filter id="filter0_d_1663_20155" x="342.739" y="168.364" width="11.6074" height="13.2128" filterUnits="userSpaceOnUse" color-interpolation-filters="sRGB">
<feFlood flood-opacity="0" result="BackgroundImageFix"/>
<feColorMatrix in="SourceAlpha" type="matrix" values="0 0 0 0 0 0 0 0 0 0 0 0 0 0 0 0 0 0 127 0" result="hardAlpha"/>
<feOffset/>
<feGaussianBlur stdDeviation="1.14598"/>
<feColorMatrix type="matrix" values="0 0 0 0 0 0 0 0 0 0 0 0 0 0 0 0 0 0 0.1 0"/>
<feBlend mode="normal" in2="BackgroundImageFix" result="effect1_dropShadow_1663_20155"/>
<feBlend mode="normal" in="SourceGraphic" in2="effect1_dropShadow_1663_20155" result="shape"/>
</filter>
<filter id="filter1_d_1663_20155" x="350.759" y="164.087" width="11.6074" height="13.2128" filterUnits="userSpaceOnUse" color-interpolation-filters="sRGB">
<feFlood flood-opacity="0" result="BackgroundImageFix"/>
<feColorMatrix in="SourceAlpha" type="matrix" values="0 0 0 0 0 0 0 0 0 0 0 0 0 0 0 0 0 0 127 0" result="hardAlpha"/>
<feOffset/>
<feGaussianBlur stdDeviation="1.14598"/>
<feColorMatrix type="matrix" values="0 0 0 0 0 0 0 0 0 0 0 0 0 0 0 0 0 0 0.1 0"/>
<feBlend mode="normal" in2="BackgroundImageFix" result="effect1_dropShadow_1663_20155"/>
<feBlend mode="normal" in="SourceGraphic" in2="effect1_dropShadow_1663_20155" result="shape"/>
</filter>
<filter id="filter2_d_1663_20155" x="354.497" y="168.364" width="11.6074" height="13.2128" filterUnits="userSpaceOnUse" color-interpolation-filters="sRGB">
<feFlood flood-opacity="0" result="BackgroundImageFix"/>
<feColorMatrix in="SourceAlpha" type="matrix" values="0 0 0 0 0 0 0 0 0 0 0 0 0 0 0 0 0 0 127 0" result="hardAlpha"/>
<feOffset/>
<feGaussianBlur stdDeviation="1.14598"/>
<feColorMatrix type="matrix" values="0 0 0 0 0 0 0 0 0 0 0 0 0 0 0 0 0 0 0.1 0"/>
<feBlend mode="normal" in2="BackgroundImageFix" result="effect1_dropShadow_1663_20155"/>
<feBlend mode="normal" in="SourceGraphic" in2="effect1_dropShadow_1663_20155" result="shape"/>
</filter>
<filter id="filter3_d_1663_20155" x="378.001" y="192.942" width="11.6074" height="13.2128" filterUnits="userSpaceOnUse" color-interpolation-filters="sRGB">
<feFlood flood-opacity="0" result="BackgroundImageFix"/>
<feColorMatrix in="SourceAlpha" type="matrix" values="0 0 0 0 0 0 0 0 0 0 0 0 0 0 0 0 0 0 127 0" result="hardAlpha"/>
<feOffset/>
<feGaussianBlur stdDeviation="1.14598"/>
<feColorMatrix type="matrix" values="0 0 0 0 0 0 0 0 0 0 0 0 0 0 0 0 0 0 0.1 0"/>
<feBlend mode="normal" in2="BackgroundImageFix" result="effect1_dropShadow_1663_20155"/>
<feBlend mode="normal" in="SourceGraphic" in2="effect1_dropShadow_1663_20155" result="shape"/>
</filter>
<filter id="filter4_d_1663_20155" x="395.638" y="187.06" width="11.6074" height="13.2128" filterUnits="userSpaceOnUse" color-interpolation-filters="sRGB">
<feFlood flood-opacity="0" result="BackgroundImageFix"/>
<feColorMatrix in="SourceAlpha" type="matrix" values="0 0 0 0 0 0 0 0 0 0 0 0 0 0 0 0 0 0 127 0" result="hardAlpha"/>
<feOffset/>
<feGaussianBlur stdDeviation="1.14598"/>
<feColorMatrix type="matrix" values="0 0 0 0 0 0 0 0 0 0 0 0 0 0 0 0 0 0 0.1 0"/>
<feBlend mode="normal" in2="BackgroundImageFix" result="effect1_dropShadow_1663_20155"/>
<feBlend mode="normal" in="SourceGraphic" in2="effect1_dropShadow_1663_20155" result="shape"/>
</filter>
<filter id="filter5_d_1663_20155" x="392.431" y="189.2" width="11.6074" height="13.2128" filterUnits="userSpaceOnUse" color-interpolation-filters="sRGB">
<feFlood flood-opacity="0" result="BackgroundImageFix"/>
<feColorMatrix in="SourceAlpha" type="matrix" values="0 0 0 0 0 0 0 0 0 0 0 0 0 0 0 0 0 0 127 0" result="hardAlpha"/>
<feOffset/>
<feGaussianBlur stdDeviation="1.14598"/>
<feColorMatrix type="matrix" values="0 0 0 0 0 0 0 0 0 0 0 0 0 0 0 0 0 0 0.1 0"/>
<feBlend mode="normal" in2="BackgroundImageFix" result="effect1_dropShadow_1663_20155"/>
<feBlend mode="normal" in="SourceGraphic" in2="effect1_dropShadow_1663_20155" result="shape"/>
</filter>
<filter id="filter6_d_1663_20155" x="361.974" y="181.72" width="11.6074" height="13.2128" filterUnits="userSpaceOnUse" color-interpolation-filters="sRGB">
<feFlood flood-opacity="0" result="BackgroundImageFix"/>
<feColorMatrix in="SourceAlpha" type="matrix" values="0 0 0 0 0 0 0 0 0 0 0 0 0 0 0 0 0 0 127 0" result="hardAlpha"/>
<feOffset/>
<feGaussianBlur stdDeviation="1.14598"/>
<feColorMatrix type="matrix" values="0 0 0 0 0 0 0 0 0 0 0 0 0 0 0 0 0 0 0.1 0"/>
<feBlend mode="normal" in2="BackgroundImageFix" result="effect1_dropShadow_1663_20155"/>
<feBlend mode="normal" in="SourceGraphic" in2="effect1_dropShadow_1663_20155" result="shape"/>
</filter>
<filter id="filter7_d_1663_20155" x="324.575" y="144.317" width="11.6074" height="13.2128" filterUnits="userSpaceOnUse" color-interpolation-filters="sRGB">
<feFlood flood-opacity="0" result="BackgroundImageFix"/>
<feColorMatrix in="SourceAlpha" type="matrix" values="0 0 0 0 0 0 0 0 0 0 0 0 0 0 0 0 0 0 127 0" result="hardAlpha"/>
<feOffset/>
<feGaussianBlur stdDeviation="1.14598"/>
<feColorMatrix type="matrix" values="0 0 0 0 0 0 0 0 0 0 0 0 0 0 0 0 0 0 0.1 0"/>
<feBlend mode="normal" in2="BackgroundImageFix" result="effect1_dropShadow_1663_20155"/>
<feBlend mode="normal" in="SourceGraphic" in2="effect1_dropShadow_1663_20155" result="shape"/>
</filter>
<filter id="filter8_d_1663_20155" x="361.974" y="181.72" width="11.6074" height="13.2128" filterUnits="userSpaceOnUse" color-interpolation-filters="sRGB">
<feFlood flood-opacity="0" result="BackgroundImageFix"/>
<feColorMatrix in="SourceAlpha" type="matrix" values="0 0 0 0 0 0 0 0 0 0 0 0 0 0 0 0 0 0 127 0" result="hardAlpha"/>
<feOffset/>
<feGaussianBlur stdDeviation="1.14598"/>
<feColorMatrix type="matrix" values="0 0 0 0 0 0 0 0 0 0 0 0 0 0 0 0 0 0 0.1 0"/>
<feBlend mode="normal" in2="BackgroundImageFix" result="effect1_dropShadow_1663_20155"/>
<feBlend mode="normal" in="SourceGraphic" in2="effect1_dropShadow_1663_20155" result="shape"/>
</filter>
<filter id="filter9_d_1663_20155" x="328.849" y="164.087" width="11.6074" height="13.2128" filterUnits="userSpaceOnUse" color-interpolation-filters="sRGB">
<feFlood flood-opacity="0" result="BackgroundImageFix"/>
<feColorMatrix in="SourceAlpha" type="matrix" values="0 0 0 0 0 0 0 0 0 0 0 0 0 0 0 0 0 0 127 0" result="hardAlpha"/>
<feOffset/>
<feGaussianBlur stdDeviation="1.14598"/>
<feColorMatrix type="matrix" values="0 0 0 0 0 0 0 0 0 0 0 0 0 0 0 0 0 0 0.1 0"/>
<feBlend mode="normal" in2="BackgroundImageFix" result="effect1_dropShadow_1663_20155"/>
<feBlend mode="normal" in="SourceGraphic" in2="effect1_dropShadow_1663_20155" result="shape"/>
</filter>
<filter id="filter10_d_1663_20155" x="375.88" y="90.8916" width="11.6074" height="13.2128" filterUnits="userSpaceOnUse" color-interpolation-filters="sRGB">
<feFlood flood-opacity="0" result="BackgroundImageFix"/>
<feColorMatrix in="SourceAlpha" type="matrix" values="0 0 0 0 0 0 0 0 0 0 0 0 0 0 0 0 0 0 127 0" result="hardAlpha"/>
<feOffset/>
<feGaussianBlur stdDeviation="1.14598"/>
<feColorMatrix type="matrix" values="0 0 0 0 0 0 0 0 0 0 0 0 0 0 0 0 0 0 0.1 0"/>
<feBlend mode="normal" in2="BackgroundImageFix" result="effect1_dropShadow_1663_20155"/>
<feBlend mode="normal" in="SourceGraphic" in2="effect1_dropShadow_1663_20155" result="shape"/>
</filter>
<filter id="filter11_d_1663_20155" x="373.208" y="102.646" width="11.6074" height="13.2128" filterUnits="userSpaceOnUse" color-interpolation-filters="sRGB">
<feFlood flood-opacity="0" result="BackgroundImageFix"/>
<feColorMatrix in="SourceAlpha" type="matrix" values="0 0 0 0 0 0 0 0 0 0 0 0 0 0 0 0 0 0 127 0" result="hardAlpha"/>
<feOffset/>
<feGaussianBlur stdDeviation="1.14598"/>
<feColorMatrix type="matrix" values="0 0 0 0 0 0 0 0 0 0 0 0 0 0 0 0 0 0 0.1 0"/>
<feBlend mode="normal" in2="BackgroundImageFix" result="effect1_dropShadow_1663_20155"/>
<feBlend mode="normal" in="SourceGraphic" in2="effect1_dropShadow_1663_20155" result="shape"/>
</filter>
<filter id="filter12_d_1663_20155" x="354.505" y="106.384" width="11.6074" height="13.2128" filterUnits="userSpaceOnUse" color-interpolation-filters="sRGB">
<feFlood flood-opacity="0" result="BackgroundImageFix"/>
<feColorMatrix in="SourceAlpha" type="matrix" values="0 0 0 0 0 0 0 0 0 0 0 0 0 0 0 0 0 0 127 0" result="hardAlpha"/>
<feOffset/>
<feGaussianBlur stdDeviation="1.14598"/>
<feColorMatrix type="matrix" values="0 0 0 0 0 0 0 0 0 0 0 0 0 0 0 0 0 0 0.1 0"/>
<feBlend mode="normal" in2="BackgroundImageFix" result="effect1_dropShadow_1663_20155"/>
<feBlend mode="normal" in="SourceGraphic" in2="effect1_dropShadow_1663_20155" result="shape"/>
</filter>
<filter id="filter13_d_1663_20155" x="341.681" y="75.9307" width="11.6074" height="13.2128" filterUnits="userSpaceOnUse" color-interpolation-filters="sRGB">
<feFlood flood-opacity="0" result="BackgroundImageFix"/>
<feColorMatrix in="SourceAlpha" type="matrix" values="0 0 0 0 0 0 0 0 0 0 0 0 0 0 0 0 0 0 127 0" result="hardAlpha"/>
<feOffset/>
<feGaussianBlur stdDeviation="1.14598"/>
<feColorMatrix type="matrix" values="0 0 0 0 0 0 0 0 0 0 0 0 0 0 0 0 0 0 0.1 0"/>
<feBlend mode="normal" in2="BackgroundImageFix" result="effect1_dropShadow_1663_20155"/>
<feBlend mode="normal" in="SourceGraphic" in2="effect1_dropShadow_1663_20155" result="shape"/>
</filter>
<filter id="filter14_d_1663_20155" x="338.474" y="79.6651" width="11.6074" height="13.2128" filterUnits="userSpaceOnUse" color-interpolation-filters="sRGB">
<feFlood flood-opacity="0" result="BackgroundImageFix"/>
<feColorMatrix in="SourceAlpha" type="matrix" values="0 0 0 0 0 0 0 0 0 0 0 0 0 0 0 0 0 0 127 0" result="hardAlpha"/>
<feOffset/>
<feGaussianBlur stdDeviation="1.14598"/>
<feColorMatrix type="matrix" values="0 0 0 0 0 0 0 0 0 0 0 0 0 0 0 0 0 0 0.1 0"/>
<feBlend mode="normal" in2="BackgroundImageFix" result="effect1_dropShadow_1663_20155"/>
<feBlend mode="normal" in="SourceGraphic" in2="effect1_dropShadow_1663_20155" result="shape"/>
</filter>
<filter id="filter15_d_1663_20155" x="326.724" y="68.4463" width="11.6074" height="13.2128" filterUnits="userSpaceOnUse" color-interpolation-filters="sRGB">
<feFlood flood-opacity="0" result="BackgroundImageFix"/>
<feColorMatrix in="SourceAlpha" type="matrix" values="0 0 0 0 0 0 0 0 0 0 0 0 0 0 0 0 0 0 127 0" result="hardAlpha"/>
<feOffset/>
<feGaussianBlur stdDeviation="1.14598"/>
<feColorMatrix type="matrix" values="0 0 0 0 0 0 0 0 0 0 0 0 0 0 0 0 0 0 0.1 0"/>
<feBlend mode="normal" in2="BackgroundImageFix" result="effect1_dropShadow_1663_20155"/>
<feBlend mode="normal" in="SourceGraphic" in2="effect1_dropShadow_1663_20155" result="shape"/>
</filter>
<filter id="filter16_d_1663_20155" x="357.716" y="87.1494" width="11.6074" height="13.2128" filterUnits="userSpaceOnUse" color-interpolation-filters="sRGB">
<feFlood flood-opacity="0" result="BackgroundImageFix"/>
<feColorMatrix in="SourceAlpha" type="matrix" values="0 0 0 0 0 0 0 0 0 0 0 0 0 0 0 0 0 0 127 0" result="hardAlpha"/>
<feOffset/>
<feGaussianBlur stdDeviation="1.14598"/>
<feColorMatrix type="matrix" values="0 0 0 0 0 0 0 0 0 0 0 0 0 0 0 0 0 0 0.1 0"/>
<feBlend mode="normal" in2="BackgroundImageFix" result="effect1_dropShadow_1663_20155"/>
<feBlend mode="normal" in="SourceGraphic" in2="effect1_dropShadow_1663_20155" result="shape"/>
</filter>
<filter id="filter17_d_1663_20155" x="395.114" y="124.552" width="11.6074" height="13.2128" filterUnits="userSpaceOnUse" color-interpolation-filters="sRGB">
<feFlood flood-opacity="0" result="BackgroundImageFix"/>
<feColorMatrix in="SourceAlpha" type="matrix" values="0 0 0 0 0 0 0 0 0 0 0 0 0 0 0 0 0 0 127 0" result="hardAlpha"/>
<feOffset/>
<feGaussianBlur stdDeviation="1.14598"/>
<feColorMatrix type="matrix" values="0 0 0 0 0 0 0 0 0 0 0 0 0 0 0 0 0 0 0.1 0"/>
<feBlend mode="normal" in2="BackgroundImageFix" result="effect1_dropShadow_1663_20155"/>
<feBlend mode="normal" in="SourceGraphic" in2="effect1_dropShadow_1663_20155" result="shape"/>
</filter>
<filter id="filter18_d_1663_20155" x="357.716" y="87.1494" width="11.6074" height="13.2128" filterUnits="userSpaceOnUse" color-interpolation-filters="sRGB">
<feFlood flood-opacity="0" result="BackgroundImageFix"/>
<feColorMatrix in="SourceAlpha" type="matrix" values="0 0 0 0 0 0 0 0 0 0 0 0 0 0 0 0 0 0 127 0" result="hardAlpha"/>
<feOffset/>
<feGaussianBlur stdDeviation="1.14598"/>
<feColorMatrix type="matrix" values="0 0 0 0 0 0 0 0 0 0 0 0 0 0 0 0 0 0 0.1 0"/>
<feBlend mode="normal" in2="BackgroundImageFix" result="effect1_dropShadow_1663_20155"/>
<feBlend mode="normal" in="SourceGraphic" in2="effect1_dropShadow_1663_20155" result="shape"/>
</filter>
<filter id="filter19_d_1663_20155" x="389.243" y="110.126" width="11.6074" height="13.2128" filterUnits="userSpaceOnUse" color-interpolation-filters="sRGB">
<feFlood flood-opacity="0" result="BackgroundImageFix"/>
<feColorMatrix in="SourceAlpha" type="matrix" values="0 0 0 0 0 0 0 0 0 0 0 0 0 0 0 0 0 0 127 0" result="hardAlpha"/>
<feOffset/>
<feGaussianBlur stdDeviation="1.14598"/>
<feColorMatrix type="matrix" values="0 0 0 0 0 0 0 0 0 0 0 0 0 0 0 0 0 0 0.1 0"/>
<feBlend mode="normal" in2="BackgroundImageFix" result="effect1_dropShadow_1663_20155"/>
<feBlend mode="normal" in="SourceGraphic" in2="effect1_dropShadow_1663_20155" result="shape"/>
</filter>
<linearGradient id="paint0_linear_1663_20155" x1="223.058" y1="85.5833" x2="237.153" y2="126.146" gradientUnits="userSpaceOnUse">
<stop stop-color="#4DC6D8" stop-opacity="0.42"/>
<stop offset="1" stop-color="#4DC6D8" stop-opacity="0"/>
</linearGradient>
<linearGradient id="paint1_linear_1663_20155" x1="286.745" y1="53.6638" x2="293.338" y2="68.1583" gradientUnits="userSpaceOnUse">
<stop stop-color="#80D7E3" stop-opacity="0.53"/>
<stop offset="1" stop-color="#80D7E3" stop-opacity="0"/>
</linearGradient>
<linearGradient id="paint2_linear_1663_20155" x1="286.745" y1="77.6395" x2="299.256" y2="95.6569" gradientUnits="userSpaceOnUse">
<stop stop-color="#80D7E3" stop-opacity="0.53"/>
<stop offset="1" stop-color="#80D7E3" stop-opacity="0"/>
</linearGradient>
<linearGradient id="paint3_linear_1663_20155" x1="415.082" y1="260.24" x2="408.388" y2="222.565" gradientUnits="userSpaceOnUse">
<stop stop-color="#4DC6D8" stop-opacity="0.55"/>
<stop offset="1" stop-color="#4DC6D8" stop-opacity="0"/>
</linearGradient>
<linearGradient id="paint4_linear_1663_20155" x1="400" y1="79.5" x2="419.208" y2="46.9945" gradientUnits="userSpaceOnUse">
<stop stop-color="#4DC6D8" stop-opacity="0.46"/>
<stop offset="1" stop-color="#4DC6D8" stop-opacity="0"/>
</linearGradient>
<linearGradient id="paint5_linear_1663_20155" x1="437.669" y1="216.616" x2="463.76" y2="216.616" gradientUnits="userSpaceOnUse">
<stop stop-color="#4DC6D8" stop-opacity="0.42"/>
<stop offset="1" stop-color="#4DC6D8" stop-opacity="0"/>
</linearGradient>
<linearGradient id="paint6_linear_1663_20155" x1="310.668" y1="32.489" x2="310.668" y2="101.984" gradientUnits="userSpaceOnUse">
<stop stop-color="#6E6E8F"/>
<stop offset="1" stop-color="#4B4C6B"/>
</linearGradient>
<linearGradient id="paint7_linear_1663_20155" x1="426.355" y1="101.814" x2="426.355" y2="242.157" gradientUnits="userSpaceOnUse">
<stop stop-color="#6E6E8F"/>
<stop offset="1" stop-color="#4B4C6B"/>
</linearGradient>
<linearGradient id="paint8_linear_1663_20155" x1="290.234" y1="225.363" x2="415.472" y2="247.661" gradientUnits="userSpaceOnUse">
<stop stop-color="#575772"/>
<stop offset="1" stop-color="#323352"/>
</linearGradient>
<linearGradient id="paint9_linear_1663_20155" x1="327.985" y1="221.697" x2="414.546" y2="175.14" gradientUnits="userSpaceOnUse">
<stop stop-color="#FF9A29"/>
<stop offset="0.51488" stop-color="white"/>
<stop offset="1" stop-color="#00AEC7"/>
</linearGradient>
<linearGradient id="paint10_linear_1663_20155" x1="302.782" y1="70.6685" x2="277.368" y2="113.826" gradientUnits="userSpaceOnUse">
<stop stop-color="#4DC6D8"/>
<stop offset="1" stop-color="white" stop-opacity="0"/>
</linearGradient>
<linearGradient id="paint11_linear_1663_20155" x1="328.431" y1="103.801" x2="303.017" y2="146.959" gradientUnits="userSpaceOnUse">
<stop stop-color="#4DC6D8"/>
<stop offset="1" stop-color="white" stop-opacity="0"/>
</linearGradient>
<linearGradient id="paint12_linear_1663_20155" x1="364.227" y1="107.536" x2="338.813" y2="150.693" gradientUnits="userSpaceOnUse">
<stop stop-color="#4DC6D8"/>
<stop offset="1" stop-color="white" stop-opacity="0"/>
</linearGradient>
<linearGradient id="paint13_linear_1663_20155" x1="375.442" y1="198.376" x2="350.028" y2="241.533" gradientUnits="userSpaceOnUse">
<stop stop-color="#F26E16"/>
<stop offset="1" stop-color="#F26E16" stop-opacity="0.01"/>
</linearGradient>
<linearGradient id="paint14_linear_1663_20155" x1="318.27" y1="147.618" x2="292.856" y2="190.775" gradientUnits="userSpaceOnUse">
<stop stop-color="#F26E16"/>
<stop offset="1" stop-color="#F26E16" stop-opacity="0.01"/>
</linearGradient>
<linearGradient id="paint15_linear_1663_20155" x1="315.063" y1="198.376" x2="289.649" y2="241.533" gradientUnits="userSpaceOnUse">
<stop stop-color="#F26E16"/>
<stop offset="1" stop-color="#F26E16" stop-opacity="0.01"/>
</linearGradient>
<linearGradient id="paint16_linear_1663_20155" x1="379.661" y1="132.217" x2="317.993" y2="25.7141" gradientUnits="userSpaceOnUse">
<stop stop-color="#B3E7EE"/>
<stop offset="1" stop-color="#E1F2F5"/>
</linearGradient>
<linearGradient id="paint17_linear_1663_20155" x1="315.364" y1="343.704" x2="329.727" y2="342.543" gradientUnits="userSpaceOnUse">
<stop stop-color="#B3E7EE"/>
<stop offset="1" stop-color="#E1F2F5"/>
</linearGradient>
<linearGradient id="paint18_linear_1663_20155" x1="215.78" y1="170.351" x2="197.068" y2="200.838" gradientUnits="userSpaceOnUse">
<stop stop-color="#4DC6D8"/>
<stop offset="1" stop-color="white" stop-opacity="0"/>
</linearGradient>
<linearGradient id="paint19_linear_1663_20155" x1="247.204" y1="230.969" x2="221.79" y2="274.127" gradientUnits="userSpaceOnUse">
<stop stop-color="#4DC6D8"/>
<stop offset="1" stop-color="white" stop-opacity="0"/>
</linearGradient>
<linearGradient id="paint20_linear_1663_20155" x1="255.755" y1="183.95" x2="230.341" y2="227.107" gradientUnits="userSpaceOnUse">
<stop stop-color="#4DC6D8"/>
<stop offset="1" stop-color="white" stop-opacity="0"/>
</linearGradient>
<clipPath id="clip0_1663_20155">
<rect width="648" height="320" fill="white"/>
</clipPath>
</defs>
</svg>
