<svg width="32" height="32" viewBox="0 0 32 32" fill="none" xmlns="http://www.w3.org/2000/svg">
<path fill-rule="evenodd" clip-rule="evenodd" d="M17.2727 7C17.2727 6.44772 16.825 6 16.2727 6H3C1.34314 6 0 7.34315 0 9V29C0 30.6569 1.34315 32 3 32H23C24.6569 32 26 30.6569 26 29V15.7273C26 15.175 25.5523 14.7273 25 14.7273C24.4477 14.7273 24 15.175 24 15.7273V29C24 29.5523 23.5523 30 23 30H3C2.44771 30 2 29.5523 2 29V9C2 8.44771 2.44771 8 3 8H16.2727C16.825 8 17.2727 7.55228 17.2727 7Z" fill="#00AEC7"/>
<path fill-rule="evenodd" clip-rule="evenodd" d="M32 1C32 0.447715 31.5523 0 31 0H21C20.4477 0 20 0.447715 20 1C20 1.55228 20.4477 2 21 2H28.5858L12.2929 18.2929C11.9024 18.6834 11.9024 19.3166 12.2929 19.7071C12.6834 20.0976 13.3166 20.0976 13.7071 19.7071L30 3.41421V11C30 11.5523 30.4477 12 31 12C31.5523 12 32 11.5523 32 11V1Z" fill="#00AEC7"/>
</svg>
