<svg width="32" height="32" viewBox="0 0 32 32" fill="none" xmlns="http://www.w3.org/2000/svg">
<path d="M7 0C7.55228 0 8 0.447715 8 1V2H24V1C24 0.447715 24.4477 0 25 0C25.5523 0 26 0.447715 26 1V2H28C30.2091 2 32 3.79086 32 6V28C32 30.2091 30.2091 32 28 32H4C1.79086 32 0 30.2091 0 28V6C0 3.79086 1.79086 2 4 2H6V1C6 0.447715 6.44772 0 7 0ZM26.9091 6H5.09091C4.48842 6 4 6.44772 4 7V9C4 9.55228 4.48842 10 5.09091 10H26.9091C27.5116 10 28 9.55228 28 9V7C28 6.44772 27.5116 6 26.9091 6ZM23 14C22.4477 14 22 14.4477 22 15V17C22 17.5523 22.4477 18 23 18H25C25.5523 18 26 17.5523 26 17V15C26 14.4477 25.5523 14 25 14H23Z" fill="#00AEC7"/>
</svg>