<svg width="40" height="40" viewBox="0 0 40 40" fill="none" xmlns="http://www.w3.org/2000/svg">
<path d="M22.3529 1.08824C20.8824 0.303922 19.1176 0.303921 17.6471 1.08824L2.64706 9.08824C1.01774 9.9572 0 11.6534 0 13.5V14.2838L16.7713 24.1137L20 22.32L23.2287 24.1137L40 14.2837V13.5C40 11.6534 38.9823 9.9572 37.3529 9.08824L22.3529 1.08824Z" fill="#00AEC7"/>
<path d="M40 17.1815L25.7668 25.5238L40 33.4312V17.1815Z" fill="#00AEC7"/>
<path d="M39.8528 36.2093L20 25.1799L0.14722 36.2093C0.687975 38.3864 2.65555 40 5 40H35C37.3444 40 39.312 38.3864 39.8528 36.2093Z" fill="#00AEC7"/>
<path d="M0 33.4312L14.2332 25.5238L0 17.1815V33.4312Z" fill="#00AEC7"/>
</svg>
