<svg width="64" height="64" viewBox="0 0 64 64" fill="none" xmlns="http://www.w3.org/2000/svg">
  <path fill-rule="evenodd" clip-rule="evenodd" d="M16.337 21.8319C16.0532 21.8319 15.8256 21.5949 15.8449 21.3117C16.3613 13.7334 21.6279 8 31.2943 8C40.2943 8 46.3625 13.4426 46.3625 20.8612C46.3625 26.2345 43.7034 30.0132 39.2034 32.7518C34.8057 35.3865 33.5443 37.2238 33.5443 40.7944V42.4091C33.5443 42.6852 33.3204 42.9091 33.0443 42.9091H26.9814C26.7076 42.9091 26.4848 42.689 26.4814 42.4152L26.4534 40.1358C26.2829 35.2478 28.3625 32.1278 33.0329 29.2852C37.1579 26.7545 38.6238 24.7439 38.6238 21.1732C38.6238 17.2559 35.5898 14.3786 30.9193 14.3786C26.3766 14.3786 23.3914 17.0614 22.9151 21.3658C22.8862 21.6273 22.6694 21.8319 22.4062 21.8319H16.337ZM29.9822 56C32.471 56 34.3625 54.1057 34.3625 51.6364C34.3625 49.167 32.471 47.2727 29.9822 47.2727C27.5598 47.2727 25.6352 49.167 25.6352 51.6364C25.6352 54.1057 27.5598 56 29.9822 56Z" fill="#00AEC7"/>
</svg>