<svg width="32" height="32" viewBox="0 0 32 32" fill="none" xmlns="http://www.w3.org/2000/svg">
<path fill-rule="evenodd" clip-rule="evenodd" d="M3.76955 1.02215C5.25377 -0.462077 7.70299 -0.309594 8.99166 1.34727L12.5791 5.95965C13.2374 6.80608 13.47 7.90817 13.21 8.94845L12.1154 13.3266C11.9999 13.7888 12.1353 14.2778 12.4722 14.6146L17.3854 19.5278C17.7223 19.8647 18.2112 20.0001 18.6734 19.8846L23.0515 18.79C24.0918 18.53 25.1939 18.7626 26.0403 19.4209L30.6527 23.0083C32.3096 24.297 32.4621 26.7462 30.9778 28.2305L28.91 30.2983C27.4306 31.7777 25.2178 32.4274 23.1555 31.7023C18.0351 29.9021 13.2288 26.9548 9.13698 22.863C5.04519 18.7712 2.0979 13.9649 0.297676 8.8445C-0.427365 6.78225 0.22226 4.56944 1.7017 3.09L3.76955 1.02215Z" fill="#00AEC7"/>
</svg>
