<?xml version="1.0" encoding="UTF-8" standalone="no"?>
<svg
   xmlns:dc="http://purl.org/dc/elements/1.1/"
   xmlns:cc="http://creativecommons.org/ns#"
   xmlns:rdf="http://www.w3.org/1999/02/22-rdf-syntax-ns#"
   xmlns:svg="http://www.w3.org/2000/svg"
   xmlns="http://www.w3.org/2000/svg"
   xmlns:sodipodi="http://sodipodi.sourceforge.net/DTD/sodipodi-0.dtd"
   xmlns:inkscape="http://www.inkscape.org/namespaces/inkscape"
   id="Layer_1"
   data-name="Layer 1"
   viewBox="0 0 704.56704 249.16756"
   version="1.1"
   sodipodi:docname="logo.svg"
   inkscape:version="1.0.1 (3bc2e813f5, 2020-09-07)"
   width="704.56702"
   height="249.16757">
  <metadata
     id="metadata112">
    <rdf:RDF>
      <cc:Work
         rdf:about="">
        <dc:format>image/svg+xml</dc:format>
        <dc:type
           rdf:resource="http://purl.org/dc/dcmitype/StillImage" />
      </cc:Work>
    </rdf:RDF>
  </metadata>
  <sodipodi:namedview
     pagecolor="#ffffff"
     bordercolor="#666666"
     borderopacity="1"
     objecttolerance="10"
     gridtolerance="10"
     guidetolerance="10"
     inkscape:pageopacity="0"
     inkscape:pageshadow="2"
     inkscape:window-width="2560"
     inkscape:window-height="1380"
     id="namedview110"
     showgrid="false"
     inkscape:zoom="1.8350955"
     inkscape:cx="219.80511"
     inkscape:cy="80.521527"
     inkscape:window-x="0"
     inkscape:window-y="32"
     inkscape:window-maximized="1"
     inkscape:current-layer="fqqZXT" />
  <defs
     id="defs82">
    <style
       id="style80">.cls-1{fill:#00b4c8;}</style>
  </defs>
  <title
     id="title84">Falco horizontal logo_teal2</title>
  <g
     id="fqqZXT"
     transform="translate(-1.8527785,-35.942587)">
    <path
       class="cls-1"
       d="M 176.16169,141.03427 Q 109.1407,208.57188 41.7291,275.66846 a 61.01065,61.01065 0 0 1 -6.640358,6.13636 c -3.213076,2.38145 -6.72856,2.52005 -9.639229,-0.56702 -2.910669,-3.08708 -1.902645,-6.30015 0.516613,-8.89581 5.796137,-6.22455 11.78128,-12.27269 17.804223,-18.27043 Q 109.99752,188.15939 176.24989,122.28502 c 4.22111,-4.20849 22.74355,9.47543 27.19146,13.98633"
       id="path86"
       style="fill:#ffffff;stroke-width:1.26003" />
    <path
       class="cls-1"
       d="m 189.2282,162.40437 c -0.189,2.69647 -1.94044,4.47311 -3.69189,6.22456 L 74.880488,279.24695 c -3.465083,3.45248 -7.56018,6.82936 -11.919883,2.11686 -3.969095,-4.27151 -0.630015,-8.1146 2.595661,-11.34028 Q 120.29197,215.28784 175.04026,160.56473 c 2.78467,-2.79727 5.77094,-5.32992 10.08024,-3.78009 a 5.8087381,5.8087381 0 0 1 4.1077,5.61973 z"
       id="path88"
       style="fill:#ffffff;stroke-width:1.26003" />
    <path
       class="cls-1"
       d="m 7.6200895,35.947772 c 3.0492725,-0.113403 5.1535225,1.65064 7.1065685,3.616286 Q 67.421111,92.22071 120.07776,144.88996 c 3.27609,3.28867 6.30015,7.23257 2.12945,11.34027 -4.1707,4.10769 -8.07679,1.26002 -11.34027,-2.09165 Q 58.10949,101.46932 5.503239,48.800078 C 2.8697767,46.154015 0.8159274,43.268546 2.4161662,39.312052 a 5.46853,5.46853 0 0 1 5.2039233,-3.36428 z"
       id="path90"
       style="fill:#ffffff;stroke-width:1.26003" />
    <path
       class="cls-1"
       d="m 174.56145,284.17367 c -6.30014,1.26003 -11.21426,-1.68844 -15.68737,-6.30015 -8.00118,-8.3288 -16.21658,-16.38039 -24.45718,-24.52018 -4.85112,-4.78812 -5.04012,-9.33682 -0.1764,-14.21314 14.03674,-13.94853 27.98527,-27.98527 42.022,-41.94639 3.08706,-3.07449 6.84195,-5.65754 10.77326,-1.95305 4.38489,4.14549 1.49943,8.07678 -1.75145,11.34026 -11.01266,11.13867 -21.97492,22.34033 -33.26479,33.20179 -4.2841,4.1203 -4.95192,7.20737 -0.23941,11.41588 5.31733,4.76291 10.24404,9.96683 15.12037,15.12035 3.20047,3.37688 6.74116,5.35513 11.56707,5.17872 4.82591,-0.1764 10.43304,-0.1512 10.28185,6.41356 -0.15121,6.30015 -5.97254,6.04815 -10.58425,6.47655 a 26.460629,26.460629 0 0 1 -3.6037,-0.2142 z"
       id="path92"
       style="fill:#ffffff;stroke-width:1.26003" />
    <path
       class="cls-1"
       d="m 105.61262,171.22459 c -0.94502,4.3975 -3.37688,7.05616 -8.101994,5.49372 a 16.38039,16.38039 0 0 1 -5.972542,-4.1707 Q 53.598582,134.74672 15.810285,96.945821 a 29.157093,29.157093 0 0 1 -3.225677,-3.780089 c -2.167252,-3.049273 -2.368857,-6.30015 0.378008,-8.958813 2.746866,-2.658664 6.098545,-2.217653 8.82021,0.327608 4.59911,4.309302 9.034415,8.820209 13.494921,13.268116 Q 67.597514,130.1098 99.892082,162.44218 c 2.469658,2.49486 5.455928,4.7125 5.720538,8.78241 z"
       id="path94"
       style="fill:#ffffff;stroke-width:1.26003" />
    <path
       class="cls-1"
       d="m 86.76257,189.58322 a 6.1741467,6.1741467 0 0 1 -3.187876,5.40553 6.7663608,6.7663608 0 0 1 -8.353998,-1.19703 c -4.2211,-3.90609 -8.278397,-7.98859 -12.348293,-12.05849 Q 44.803573,163.71481 26.822946,145.65858 a 43.181227,43.181227 0 0 1 -5.254325,-6.30015 5.7583368,5.7583368 0 0 1 0.45361,-7.56019 6.3001498,6.3001498 0 0 1 7.56018,-1.41123 14.679349,14.679349 0 0 1 4.662112,3.25088 q 24.494982,24.35638 48.876561,48.83876 c 1.953046,1.96565 3.679287,4.0951 3.641486,7.10657 z"
       id="path96"
       style="fill:#ffffff;stroke-width:1.26003" />
  </g>
  <path
     class="cls-1"
     d="m 432.97476,151.03237 a 32.218966,32.218966 0 0 0 -13.04132,-8.354 58.944201,58.944201 0 0 0 -20.16047,-2.98627 105.0235,105.0235 0 0 0 -18.64844,1.58764 94.703851,94.703851 0 0 0 -13.33112,3.18787 l 2.98627,19.50526 a 67.373801,67.373801 0 0 1 11.34027,-2.78466 91.276569,91.276569 0 0 1 15.38497,-1.15923 28.489277,28.489277 0 0 1 10.24403,1.58764 16.38039,16.38039 0 0 1 6.57736,4.4857 16.670197,16.670197 0 0 1 3.47768,6.66557 30.996737,30.996737 0 0 1 0.99543,7.96339 v 3.98169 a 77.680846,77.680846 0 0 0 -9.34942,-1.68844 72.36352,72.36352 0 0 0 -8.3666,-0.50401 77.42884,77.42884 0 0 0 -16.38039,1.70104 40.648566,40.648566 0 0 0 -13.86033,5.56933 28.60268,28.60268 0 0 0 -9.46282,10.08024 30.354121,30.354121 0 0 0 -3.47769,15.12036 35.772251,35.772251 0 0 0 3.06188,15.66217 27.216646,27.216646 0 0 0 8.55559,10.35745 35.986455,35.986455 0 0 0 13.24293,5.77094 75.904204,75.904204 0 0 0 17.1112,1.78924 172.93911,172.93911 0 0 0 25.3518,-1.68845 c 7.48458,-1.13403 13.10431,-2.09164 16.8214,-2.88546 v -63.1023 a 64.059923,64.059923 0 0 0 -2.09165,-16.8214 31.412546,31.412546 0 0 0 -6.98056,-13.04131 z m -14.23834,77.23984 a 89.966139,89.966139 0 0 1 -16.9222,1.18443 q -9.14783,0 -14.52814,-3.27609 -5.38034,-3.27608 -5.36774,-11.84428 a 12.600299,12.600299 0 0 1 1.97825,-7.27037 13.44452,13.44452 0 0 1 5.27953,-4.47311 25.427405,25.427405 0 0 1 7.37117,-2.19245 54.723101,54.723101 0 0 1 8.05159,-0.59222 53.211064,53.211064 0 0 1 8.3666,0.59222 46.621108,46.621108 0 0 1 5.77094,1.26003 z"
     id="path99"
     style="fill:#ffffff;stroke-width:1.26003" />
  <path
     class="cls-1"
     d="m 493.746,223.58489 a 11.680477,11.680477 0 0 1 -2.52006,-5.04011 32.974984,32.974984 0 0 1 -0.69302,-7.37118 V 91.911773 l -24.09177,3.98169 V 215.7223 a 51.33362,51.33362 0 0 0 1.70105,13.86033 22.138726,22.138726 0 0 0 5.87173,10.15585 27.355251,27.355251 0 0 0 11.23947,6.30015 65.521558,65.521558 0 0 0 17.81682,2.38145 l 3.38949,-19.90848 a 37.523692,37.523692 0 0 1 -7.86259,-1.68843 11.037863,11.037863 0 0 1 -4.85112,-3.23828 z"
     id="path101"
     style="fill:#ffffff;stroke-width:1.26003" />
  <path
     class="cls-1"
     d="m 582.98132,226.87357 a 62.043875,62.043875 0 0 1 -12.14669,1.19702 q -16.51899,0 -23.48695,-9.0596 -6.96797,-9.05962 -6.96797,-24.58319 0,-16.12838 7.37117,-24.9864 7.37118,-8.85801 21.49612,-8.8202 a 50.90521,50.90521 0 0 1 11.23946,1.19702 54.660099,54.660099 0 0 1 9.46283,2.98627 l 5.16612,-19.70686 a 72.930534,72.930534 0 0 0 -27.85926,-5.36773 53.110262,53.110262 0 0 0 -21.49612,4.1707 47.062118,47.062118 0 0 0 -16.22918,11.55448 51.207617,51.207617 0 0 0 -10.25664,17.41361 64.034722,64.034722 0 0 0 -3.57849,21.59691 71.607502,71.607502 0 0 0 3.18787,21.79852 46.898314,46.898314 0 0 0 9.66444,17.275 43.874242,43.874242 0 0 0 16.38039,11.34028 60.267233,60.267233 0 0 0 23.18455,4.0825 85.745038,85.745038 0 0 0 16.61979,-1.60024 50.199593,50.199593 0 0 0 12.04589,-3.57849 l -3.38948,-19.90847 a 56.701348,56.701348 0 0 1 -10.40785,2.99887 z"
     id="path103"
     style="fill:#ffffff;stroke-width:1.26003" />
  <path
     class="cls-1"
     d="m 700.88233,171.83547 a 51.283219,51.283219 0 0 0 -10.25664,-17.22462 44.390855,44.390855 0 0 0 -15.82598,-11.03786 51.573025,51.573025 0 0 0 -20.16048,-3.88089 50.829608,50.829608 0 0 0 -20.16048,3.88089 45.764288,45.764288 0 0 0 -15.82598,11.03786 50.249994,50.249994 0 0 0 -10.34484,17.22462 64.652137,64.652137 0 0 0 -3.69189,22.39072 65.521558,65.521558 0 0 0 3.70448,22.50414 50.993412,50.993412 0 0 0 10.24405,17.32541 46.079296,46.079296 0 0 0 15.72517,11.15127 50.577602,50.577602 0 0 0 20.26129,3.95649 51.270619,51.270619 0 0 0 20.39988,-3.9691 45.764288,45.764288 0 0 0 15.82597,-11.15126 50.023189,50.023189 0 0 0 10.20624,-17.31281 67.373801,67.373801 0 0 0 3.57849,-22.49153 64.954544,64.954544 0 0 0 -3.67928,-22.40333 z m -27.72067,47.27631 q -6.66555,9.17302 -18.61063,9.16043 -11.94509,-0.0126 -18.61065,-9.16043 -6.66555,-9.14781 -6.67816,-24.88559 0,-15.51096 6.67816,-24.58318 6.67816,-9.07221 18.61065,-9.05962 11.94508,0 18.61063,9.05962 6.66557,9.05961 6.66557,24.58318 0.0504,15.72518 -6.61516,24.88559 z"
     id="path105"
     style="fill:#ffffff;stroke-width:1.26003" />
  <path
     class="cls-1"
     d="m 349.92618,185.22959 h -60.22943 v 63.7197 H 264.76076 V 99.547553 h 95.62367 v 20.009267 h -70.68768 v 45.65089 h 60.22943 z"
     id="path107"
     style="fill:#ffffff;stroke-width:1.26003" />
</svg>
