<svg version="1.1" viewBox="0.0 0.0 600.0 371.0" fill="none" stroke="none" stroke-linecap="square" stroke-miterlimit="10" width="600" height="371" xmlns:xlink="http://www.w3.org/1999/xlink" xmlns="http://www.w3.org/2000/svg"><path fill="#ffffff" d="M0 0L600.0 0L600.0 371.0L0 371.0L0 0Z" fill-rule="nonzero"/><path stroke="#333333" stroke-width="1.0" stroke-linecap="butt" d="M91.5 332.5L581.5 332.5" fill-rule="nonzero"/><path stroke="#cccccc" stroke-width="1.0" stroke-linecap="butt" d="M91.5 283.5L581.5 283.5" fill-rule="nonzero"/><path stroke="#cccccc" stroke-width="1.0" stroke-linecap="butt" d="M91.5 234.5L581.5 234.5" fill-rule="nonzero"/><path stroke="#cccccc" stroke-width="1.0" stroke-linecap="butt" d="M91.5 185.5L581.5 185.5" fill-rule="nonzero"/><path stroke="#cccccc" stroke-width="1.0" stroke-linecap="butt" d="M91.5 137.5L581.5 137.5" fill-rule="nonzero"/><path stroke="#cccccc" stroke-width="1.0" stroke-linecap="butt" d="M91.5 88.5L581.5 88.5" fill-rule="nonzero"/><clipPath id="id_0"><path d="M91.55 88.28333L581.45 88.28333L581.45 332.45L91.55 332.45L91.55 88.28333Z" clip-rule="nonzero"/></clipPath><path stroke="#000000" stroke-width="2.0" stroke-linecap="butt" stroke-opacity="0.0" clip-path="url(#id_0)" d="M167.0 332.0L132.0 332.0L132.0 128.0C132.0 126.89543 132.89543 126.0 134.0 126.0L165.0 126.0C166.10457 126.0 167.0 126.89543 167.0 128.0Z" fill-rule="nonzero"/><path fill="#4285f4" clip-path="url(#id_0)" d="M167.0 332.0L132.0 332.0L132.0 128.0C132.0 126.89543 132.89543 126.0 134.0 126.0L165.0 126.0C166.10457 126.0 167.0 126.89543 167.0 128.0Z" fill-rule="nonzero"/><path stroke="#000000" stroke-width="2.0" stroke-linecap="butt" stroke-opacity="0.0" clip-path="url(#id_0)" d="M279.0 332.0L244.0 332.0L244.0 122.0C244.0 120.89543 244.89543 120.0 246.0 120.0L277.0 120.0C278.10458 120.0 279.0 120.89543 279.0 122.0Z" fill-rule="nonzero"/><path fill="#4285f4" clip-path="url(#id_0)" d="M279.0 332.0L244.0 332.0L244.0 122.0C244.0 120.89543 244.89543 120.0 246.0 120.0L277.0 120.0C278.10458 120.0 279.0 120.89543 279.0 122.0Z" fill-rule="nonzero"/><path stroke="#000000" stroke-width="2.0" stroke-linecap="butt" stroke-opacity="0.0" clip-path="url(#id_0)" d="M392.0 332.0L357.0 332.0L357.0 134.0C357.0 132.89543 357.89542 132.0 359.0 132.0L390.0 132.0C391.10458 132.0 392.0 132.89543 392.0 134.0Z" fill-rule="nonzero"/><path fill="#4285f4" clip-path="url(#id_0)" d="M392.0 332.0L357.0 332.0L357.0 134.0C357.0 132.89543 357.89542 132.0 359.0 132.0L390.0 132.0C391.10458 132.0 392.0 132.89543 392.0 134.0Z" fill-rule="nonzero"/><path stroke="#000000" stroke-width="2.0" stroke-linecap="butt" stroke-opacity="0.0" clip-path="url(#id_0)" d="M504.0 332.0L469.0 332.0L469.0 127.0C469.0 125.89543 469.89542 125.0 471.0 125.0L502.0 125.0C503.10458 125.0 504.0 125.89543 504.0 127.0Z" fill-rule="nonzero"/><path fill="#4285f4" clip-path="url(#id_0)" d="M504.0 332.0L469.0 332.0L469.0 127.0C469.0 125.89543 469.89542 125.0 471.0 125.0L502.0 125.0C503.10458 125.0 504.0 125.89543 504.0 127.0Z" fill-rule="nonzero"/><path stroke="#000000" stroke-width="2.0" stroke-linecap="butt" stroke-opacity="0.0" clip-path="url(#id_0)" d="M204.0 332.0L169.0 332.0L169.0 97.0C169.0 95.89543 169.89543 95.0 171.0 95.0L202.0 95.0C203.10457 95.0 204.0 95.89543 204.0 97.0Z" fill-rule="nonzero"/><path fill="#ea4335" clip-path="url(#id_0)" d="M204.0 332.0L169.0 332.0L169.0 97.0C169.0 95.89543 169.89543 95.0 171.0 95.0L202.0 95.0C203.10457 95.0 204.0 95.89543 204.0 97.0Z" fill-rule="nonzero"/><path stroke="#000000" stroke-width="2.0" stroke-linecap="butt" stroke-opacity="0.0" clip-path="url(#id_0)" d="M316.0 332.0L281.0 332.0L281.0 96.0C281.0 94.89543 281.89542 94.0 283.0 94.0L314.0 94.0C315.10458 94.0 316.0 94.89543 316.0 96.0Z" fill-rule="nonzero"/><path fill="#ea4335" clip-path="url(#id_0)" d="M316.0 332.0L281.0 332.0L281.0 96.0C281.0 94.89543 281.89542 94.0 283.0 94.0L314.0 94.0C315.10458 94.0 316.0 94.89543 316.0 96.0Z" fill-rule="nonzero"/><path stroke="#000000" stroke-width="2.0" stroke-linecap="butt" stroke-opacity="0.0" clip-path="url(#id_0)" d="M429.0 332.0L394.0 332.0L394.0 98.0C394.0 96.89543 394.89542 96.0 396.0 96.0L427.0 96.0C428.10458 96.0 429.0 96.89543 429.0 98.0Z" fill-rule="nonzero"/><path fill="#ea4335" clip-path="url(#id_0)" d="M429.0 332.0L394.0 332.0L394.0 98.0C394.0 96.89543 394.89542 96.0 396.0 96.0L427.0 96.0C428.10458 96.0 429.0 96.89543 429.0 98.0Z" fill-rule="nonzero"/><path stroke="#000000" stroke-width="2.0" stroke-linecap="butt" stroke-opacity="0.0" clip-path="url(#id_0)" d="M541.0 332.0L506.0 332.0L506.0 98.0C506.0 96.89543 506.89542 96.0 508.0 96.0L539.0 96.0C540.10455 96.0 541.0 96.89543 541.0 98.0Z" fill-rule="nonzero"/><path fill="#ea4335" clip-path="url(#id_0)" d="M541.0 332.0L506.0 332.0L506.0 98.0C506.0 96.89543 506.89542 96.0 508.0 96.0L539.0 96.0C540.10455 96.0 541.0 96.89543 541.0 98.0Z" fill-rule="nonzero"/><path fill="#000000" d="M29.550013 271.91354L20.956263 271.91354L20.956263 265.71042L21.971888 265.71042L21.971888 270.77292L24.596888 270.77292L24.596888 266.02292L25.612513 266.02292L25.612513 270.77292L28.534388 270.77292L28.534388 265.5073L29.550013 265.5073L29.550013 271.91354ZM29.550013 263.9448L20.956263 263.9448L20.956263 260.6948Q20.956263 259.85104 21.034388 259.39792Q21.143763 258.7573 21.440638 258.33542Q21.737513 257.89792 22.268763 257.64792Q22.800013 257.3823 23.440638 257.3823Q24.534388 257.3823 25.300013 258.08542Q26.050013 258.77292 26.050013 260.60104L26.050013 262.80417L29.550013 262.80417L29.550013 263.9448ZM25.050013 262.80417L25.050013 260.58542Q25.050013 259.47604 24.643763 259.02292Q24.221888 258.55417 23.471888 258.55417Q22.940638 258.55417 22.565638 258.83542Q22.175013 259.10104 22.050013 259.53854Q21.971888 259.83542 21.971888 260.60104L21.971888 262.80417L25.050013 262.80417ZM26.784388 256.3198L26.690638 255.2573Q27.346888 255.17917 27.753138 254.89792Q28.159388 254.61667 28.425013 254.03854Q28.675013 253.4448 28.675013 252.71042Q28.675013 252.0698 28.487513 251.5698Q28.284388 251.0698 27.956263 250.83542Q27.612513 250.58542 27.221888 250.58542Q26.815638 250.58542 26.518763 250.8198Q26.206263 251.05417 26.003138 251.58542Q25.862513 251.9448 25.581263 253.1323Q25.300013 254.30417 25.050013 254.77292Q24.721888 255.39792 24.253138 255.6948Q23.768763 255.99167 23.175013 255.99167Q22.534388 255.99167 21.971888 255.6323Q21.393763 255.2573 21.112513 254.55417Q20.815638 253.83542 20.815638 252.97604Q20.815638 252.02292 21.128138 251.28854Q21.425013 250.55417 22.034388 250.16354Q22.628138 249.77292 23.378138 249.74167L23.456263 250.83542Q22.643763 250.92917 22.237513 251.4448Q21.815638 251.9448 21.815638 252.92917Q21.815638 253.96042 22.190638 254.42917Q22.565638 254.89792 23.096888 254.89792Q23.565638 254.89792 23.862513 254.5698Q24.159388 254.24167 24.471888 252.86667Q24.784388 251.47604 25.018763 250.96042Q25.378138 250.21042 25.909388 249.85104Q26.425013 249.49167 27.128138 249.49167Q27.815638 249.49167 28.425013 249.8823Q29.018763 250.27292 29.362513 251.0073Q29.690638 251.74167 29.690638 252.66354Q29.690638 253.83542 29.362513 254.6323Q29.018763 255.41354 28.331263 255.86667Q27.643763 256.30417 26.784388 256.3198ZM29.550013 247.80417L28.346888 247.80417L28.346888 246.60104L29.550013 246.60104Q30.206263 246.60104 30.612513 246.83542Q31.034388 247.0698 31.253138 247.5698L30.800013 247.86667Q30.659388 247.53854 30.362513 247.3823Q30.081263 247.22604 29.550013 247.1948L29.550013 247.80417ZM29.550013 242.0698L20.956263 242.0698L20.956263 241.02292L24.034388 241.02292Q23.190638 240.28854 23.190638 239.16354Q23.190638 238.46042 23.471888 237.96042Q23.737513 237.4448 24.221888 237.22604Q24.690638 237.0073 25.612513 237.0073L29.550013 237.0073L29.550013 238.05417L25.612513 238.05417Q24.815638 238.05417 24.456263 238.39792Q24.096888 238.74167 24.096888 239.36667Q24.096888 239.83542 24.346888 240.2573Q24.581263 240.66354 25.003138 240.85104Q25.409388 241.02292 26.143763 241.02292L29.550013 241.02292L29.550013 242.0698ZM22.175013 235.0698L20.956263 235.0698L20.956263 234.0073L22.175013 234.0073L22.175013 235.0698ZM29.550013 235.0698L23.331263 235.0698L23.331263 234.0073L29.550013 234.0073L29.550013 235.0698ZM30.065638 232.27292L30.221888 231.24167Q30.690638 231.17917 30.909388 230.8823Q31.206263 230.49167 31.206263 229.8198Q31.206263 229.08542 30.909388 228.6948Q30.612513 228.28854 30.096888 228.14792Q29.768763 228.05417 28.737513 228.0698Q29.550013 228.7573 29.550013 229.78854Q29.550013 231.0698 28.628138 231.77292Q27.690638 232.47604 26.409388 232.47604Q25.518763 232.47604 24.768763 232.16354Q24.003138 231.83542 23.596888 231.22604Q23.190638 230.61667 23.190638 229.78854Q23.190638 228.67917 24.081263 227.96042L23.331263 227.96042L23.331263 226.99167L28.706263 226.99167Q30.159388 226.99167 30.768763 227.28854Q31.378138 227.58542 31.721888 228.22604Q32.08126 228.86667 32.08126 229.80417Q32.08126 230.91354 31.581263 231.60104Q31.081263 232.28854 30.065638 232.27292ZM26.331263 231.39792Q27.550013 231.39792 28.112513 230.91354Q28.675013 230.42917 28.675013 229.6948Q28.675013 228.96042 28.112513 228.47604Q27.550013 227.97604 26.362513 227.97604Q25.221888 227.97604 24.643763 228.49167Q24.065638 228.99167 24.065638 229.71042Q24.065638 230.41354 24.643763 230.91354Q25.206263 231.39792 26.331263 231.39792ZM29.550013 225.0698L20.956263 225.0698L20.956263 224.02292L24.034388 224.02292Q23.190638 223.28854 23.190638 222.16354Q23.190638 221.46042 23.471888 220.96042Q23.737513 220.4448 24.221888 220.22604Q24.690638 220.0073 25.612513 220.0073L29.550013 220.0073L29.550013 221.05417L25.612513 221.05417Q24.815638 221.05417 24.456263 221.39792Q24.096888 221.74167 24.096888 222.36667Q24.096888 222.83542 24.346888 223.2573Q24.581263 223.66354 25.003138 223.85104Q25.409388 224.02292 26.143763 224.02292L29.550013 224.02292L29.550013 225.0698ZM27.550013 213.8198L27.675013 212.72604Q28.628138 212.97604 29.159388 213.67917Q29.690638 214.3823 29.690638 215.46042Q29.690638 216.8198 28.846888 217.6323Q28.003138 218.42917 26.487513 218.42917Q24.925013 218.42917 24.065638 217.61667Q23.190638 216.80417 23.190638 215.52292Q23.190638 214.27292 24.034388 213.49167Q24.878138 212.6948 26.425013 212.6948Q26.518763 212.6948 26.706263 212.6948L26.706263 217.33542Q27.737513 217.27292 28.284388 216.7573Q28.815638 216.24167 28.815638 215.46042Q28.815638 214.8823 28.518763 214.47604Q28.206263 214.05417 27.550013 213.8198ZM25.846888 217.27292L25.846888 213.80417Q25.050013 213.86667 24.659388 214.1948Q24.050013 214.71042 24.050013 215.5073Q24.050013 216.24167 24.534388 216.74167Q25.018763 217.22604 25.846888 217.27292ZM29.550013 211.08542L23.331263 211.08542L23.331263 210.1323L24.268763 210.1323Q23.612513 209.77292 23.409388 209.47604Q23.190638 209.16354 23.190638 208.78854Q23.190638 208.2573 23.518763 207.71042L24.503138 208.0698Q24.268763 208.46042 24.268763 208.83542Q24.268763 209.1948 24.487513 209.47604Q24.690638 209.74167 25.065638 209.85104Q25.628138 210.03854 26.284388 210.03854L29.550013 210.03854L29.550013 211.08542ZM22.175013 204.0698L20.956263 204.0698L20.956263 203.0073L22.175013 203.0073L22.175013 204.0698ZM29.550013 204.0698L23.331263 204.0698L23.331263 203.0073L29.550013 203.0073L29.550013 204.0698ZM27.690638 201.49167L27.534388 200.46042Q28.159388 200.36667 28.487513 199.97604Q28.815638 199.5698 28.815638 198.83542Q28.815638 198.11667 28.534388 197.77292Q28.237513 197.41354 27.831263 197.41354Q27.471888 197.41354 27.268763 197.72604Q27.128138 197.9448 26.909388 198.80417Q26.612513 199.96042 26.409388 200.41354Q26.190638 200.85104 25.815638 201.08542Q25.440638 201.3198 24.971888 201.3198Q24.565638 201.3198 24.206263 201.1323Q23.846888 200.9448 23.612513 200.61667Q23.440638 200.36667 23.315638 199.9448Q23.190638 199.52292 23.190638 199.02292Q23.190638 198.30417 23.409388 197.7573Q23.612513 197.1948 23.971888 196.92917Q24.331263 196.66354 24.925013 196.5698L25.065638 197.60104Q24.596888 197.66354 24.331263 198.0073Q24.050013 198.33542 24.050013 198.96042Q24.050013 199.67917 24.300013 199.99167Q24.534388 200.30417 24.862513 200.30417Q25.065638 200.30417 25.221888 200.17917Q25.393763 200.03854 25.503138 199.77292Q25.565638 199.61667 25.768763 198.83542Q26.081263 197.71042 26.268763 197.27292Q26.456263 196.83542 26.815638 196.58542Q27.175013 196.33542 27.721888 196.33542Q28.253138 196.33542 28.721888 196.64792Q29.175013 196.9448 29.440638 197.52292Q29.690638 198.10104 29.690638 198.83542Q29.690638 200.05417 29.190638 200.6948Q28.675013 201.3198 27.690638 201.49167ZM29.550013 190.10104L29.550013 191.08542L20.956263 191.08542L20.956263 190.02292L24.018763 190.02292Q23.190638 189.35104 23.190638 188.3198Q23.190638 187.74167 23.425013 187.24167Q23.643763 186.72604 24.065638 186.39792Q24.487513 186.05417 25.081263 185.86667Q25.675013 185.67917 26.346888 185.67917Q27.940638 185.67917 28.815638 186.47604Q29.690638 187.27292 29.690638 188.36667Q29.690638 189.47604 28.768763 190.10104L29.550013 190.10104ZM26.393763 190.11667Q27.503138 190.11667 28.003138 189.80417Q28.815638 189.30417 28.815638 188.46042Q28.815638 187.77292 28.221888 187.27292Q27.628138 186.7573 26.425013 186.7573Q25.206263 186.7573 24.628138 187.24167Q24.050013 187.72604 24.050013 188.41354Q24.050013 189.10104 24.659388 189.61667Q25.253138 190.11667 26.393763 190.11667ZM27.550013 179.8198L27.675013 178.72604Q28.628138 178.97604 29.159388 179.67917Q29.690638 180.3823 29.690638 181.46042Q29.690638 182.8198 28.846888 183.6323Q28.003138 184.42917 26.487513 184.42917Q24.925013 184.42917 24.065638 183.61667Q23.190638 182.80417 23.190638 181.52292Q23.190638 180.27292 24.034388 179.49167Q24.878138 178.6948 26.425013 178.6948Q26.518763 178.6948 26.706263 178.6948L26.706263 183.33542Q27.737513 183.27292 28.284388 182.7573Q28.815638 182.24167 28.815638 181.46042Q28.815638 180.8823 28.518763 180.47604Q28.206263 180.05417 27.550013 179.8198ZM25.846888 183.27292L25.846888 179.80417Q25.050013 179.86667 24.659388 180.1948Q24.050013 180.71042 24.050013 181.5073Q24.050013 182.24167 24.534388 182.74167Q25.018763 183.22604 25.846888 183.27292ZM28.612513 174.77292L29.534388 174.61667Q29.628138 175.0698 29.628138 175.41354Q29.628138 175.99167 29.456263 176.30417Q29.268763 176.61667 28.971888 176.7573Q28.675013 176.8823 27.721888 176.8823L24.143763 176.8823L24.143763 177.64792L23.331263 177.64792L23.331263 176.8823L21.784388 176.8823L21.159388 175.83542L23.331263 175.83542L23.331263 174.77292L24.143763 174.77292L24.143763 175.83542L27.784388 175.83542Q28.237513 175.83542 28.362513 175.78854Q28.487513 175.72604 28.565638 175.60104Q28.643763 175.47604 28.643763 175.24167Q28.643763 175.05417 28.612513 174.77292ZM28.612513 171.77292L29.534388 171.61667Q29.628138 172.0698 29.628138 172.41354Q29.628138 172.99167 29.456263 173.30417Q29.268763 173.61667 28.971888 173.7573Q28.675013 173.8823 27.721888 173.8823L24.143763 173.8823L24.143763 174.64792L23.331263 174.64792L23.331263 173.8823L21.784388 173.8823L21.159388 172.83542L23.331263 172.83542L23.331263 171.77292L24.143763 171.77292L24.143763 172.83542L27.784388 172.83542Q28.237513 172.83542 28.362513 172.78854Q28.487513 172.72604 28.565638 172.60104Q28.643763 172.47604 28.643763 172.24167Q28.643763 172.05417 28.612513 171.77292ZM27.550013 166.8198L27.675013 165.72604Q28.628138 165.97604 29.159388 166.67917Q29.690638 167.3823 29.690638 168.46042Q29.690638 169.8198 28.846888 170.6323Q28.003138 171.42917 26.487513 171.42917Q24.925013 171.42917 24.065638 170.61667Q23.190638 169.80417 23.190638 168.52292Q23.190638 167.27292 24.034388 166.49167Q24.878138 165.6948 26.425013 165.6948Q26.518763 165.6948 26.706263 165.6948L26.706263 170.33542Q27.737513 170.27292 28.284388 169.7573Q28.815638 169.24167 28.815638 168.46042Q28.815638 167.8823 28.518763 167.47604Q28.206263 167.05417 27.550013 166.8198ZM25.846888 170.27292L25.846888 166.80417Q25.050013 166.86667 24.659388 167.1948Q24.050013 167.71042 24.050013 168.5073Q24.050013 169.24167 24.534388 169.74167Q25.018763 170.22604 25.846888 170.27292ZM29.550013 164.08542L23.331263 164.08542L23.331263 163.1323L24.268763 163.1323Q23.612513 162.77292 23.409388 162.47604Q23.190638 162.16354 23.190638 161.78854Q23.190638 161.2573 23.518763 160.71042L24.503138 161.0698Q24.268763 161.46042 24.268763 161.83542Q24.268763 162.1948 24.487513 162.47604Q24.690638 162.74167 25.065638 162.85104Q25.628138 163.03854 26.284388 163.03854L29.550013 163.03854L29.550013 164.08542Z" fill-rule="nonzero"/><path fill="#000000" d="M79.05 332.21564Q79.05 330.6844 79.3625 329.7625Q79.675 328.825 80.28438 328.325Q80.90938 327.825 81.84688 327.825Q82.53438 327.825 83.05 328.10626Q83.58125 328.3875 83.925 328.91876Q84.26875 329.4344 84.45625 330.1844Q84.64375 330.9344 84.64375 332.21564Q84.64375 333.73126 84.33125 334.65314Q84.03438 335.575 83.40938 336.09064Q82.8 336.59064 81.84688 336.59064Q80.6125 336.59064 79.89375 335.7Q79.05 334.6375 79.05 332.21564ZM80.12813 332.21564Q80.12813 334.325 80.62813 335.02814Q81.12813 335.73126 81.84688 335.73126Q82.58125 335.73126 83.06563 335.02814Q83.56563 334.325 83.56563 332.21564Q83.56563 330.09064 83.06563 329.40314Q82.58125 328.7 81.83125 328.7Q81.1125 328.7 80.675 329.3094Q80.12813 330.09064 80.12813 332.21564Z" fill-rule="nonzero"/><path fill="#000000" d="M55.01875 287.61667L53.971874 287.61667L53.971874 280.89792Q53.58125 281.2573 52.95625 281.6323Q52.346874 281.99167 51.8625 282.16354L51.8625 281.14792Q52.7375 280.72604 53.39375 280.14792Q54.065624 279.55417 54.346874 278.99167L55.01875 278.99167L55.01875 287.61667ZM58.05 283.3823Q58.05 281.85104 58.3625 280.92917Q58.675 279.99167 59.284374 279.49167Q59.909374 278.99167 60.846874 278.99167Q61.534374 278.99167 62.05 279.27292Q62.58125 279.55417 62.925 280.08542Q63.26875 280.60104 63.45625 281.35104Q63.64375 282.10104 63.64375 283.3823Q63.64375 284.89792 63.33125 285.8198Q63.034374 286.74167 62.409374 287.2573Q61.8 287.7573 60.846874 287.7573Q59.6125 287.7573 58.89375 286.86667Q58.05 285.80417 58.05 283.3823ZM59.128124 283.3823Q59.128124 285.49167 59.628124 286.1948Q60.128124 286.89792 60.846874 286.89792Q61.58125 286.89792 62.065624 286.1948Q62.565624 285.49167 62.565624 283.3823Q62.565624 281.2573 62.065624 280.5698Q61.58125 279.86667 60.83125 279.86667Q60.1125 279.86667 59.675 280.47604Q59.128124 281.2573 59.128124 283.3823ZM65.05 283.3823Q65.05 281.85104 65.3625 280.92917Q65.675 279.99167 66.28438 279.49167Q66.90938 278.99167 67.84688 278.99167Q68.53438 278.99167 69.05 279.27292Q69.58125 279.55417 69.925 280.08542Q70.26875 280.60104 70.45625 281.35104Q70.64375 282.10104 70.64375 283.3823Q70.64375 284.89792 70.33125 285.8198Q70.03438 286.74167 69.40938 287.2573Q68.8 287.7573 67.84688 287.7573Q66.6125 287.7573 65.89375 286.86667Q65.05 285.80417 65.05 283.3823ZM66.12813 283.3823Q66.12813 285.49167 66.62813 286.1948Q67.12813 286.89792 67.84688 286.89792Q68.58125 286.89792 69.06563 286.1948Q69.56563 285.49167 69.56563 283.3823Q69.56563 281.2573 69.06563 280.5698Q68.58125 279.86667 67.83125 279.86667Q67.1125 279.86667 66.675 280.47604Q66.12813 281.2573 66.12813 283.3823ZM72.05 283.3823Q72.05 281.85104 72.3625 280.92917Q72.675 279.99167 73.28438 279.49167Q73.90938 278.99167 74.84688 278.99167Q75.53438 278.99167 76.05 279.27292Q76.58125 279.55417 76.925 280.08542Q77.26875 280.60104 77.45625 281.35104Q77.64375 282.10104 77.64375 283.3823Q77.64375 284.89792 77.33125 285.8198Q77.03438 286.74167 76.40938 287.2573Q75.8 287.7573 74.84688 287.7573Q73.6125 287.7573 72.89375 286.86667Q72.05 285.80417 72.05 283.3823ZM73.12813 283.3823Q73.12813 285.49167 73.62813 286.1948Q74.12813 286.89792 74.84688 286.89792Q75.58125 286.89792 76.06563 286.1948Q76.56563 285.49167 76.56563 283.3823Q76.56563 281.2573 76.06563 280.5698Q75.58125 279.86667 74.83125 279.86667Q74.1125 279.86667 73.675 280.47604Q73.12813 281.2573 73.12813 283.3823ZM79.05 283.3823Q79.05 281.85104 79.3625 280.92917Q79.675 279.99167 80.28438 279.49167Q80.90938 278.99167 81.84688 278.99167Q82.53438 278.99167 83.05 279.27292Q83.58125 279.55417 83.925 280.08542Q84.26875 280.60104 84.45625 281.35104Q84.64375 282.10104 84.64375 283.3823Q84.64375 284.89792 84.33125 285.8198Q84.03438 286.74167 83.40938 287.2573Q82.8 287.7573 81.84688 287.7573Q80.6125 287.7573 79.89375 286.86667Q79.05 285.80417 79.05 283.3823ZM80.12813 283.3823Q80.12813 285.49167 80.62813 286.1948Q81.12813 286.89792 81.84688 286.89792Q82.58125 286.89792 83.06563 286.1948Q83.56563 285.49167 83.56563 283.3823Q83.56563 281.2573 83.06563 280.5698Q82.58125 279.86667 81.83125 279.86667Q81.1125 279.86667 80.675 280.47604Q80.12813 281.2573 80.12813 283.3823Z" fill-rule="nonzero"/><path fill="#000000" d="M56.596874 237.76772L56.596874 238.78334L50.909374 238.78334Q50.909374 238.40834 51.034374 238.04897Q51.253124 237.47084 51.721874 236.90834Q52.20625 236.34584 53.1125 235.61147Q54.51875 234.45522 55.003124 233.78334Q55.503124 233.11147 55.503124 232.51772Q55.503124 231.89272 55.05 231.47084Q54.596874 231.03334 53.878124 231.03334Q53.1125 231.03334 52.659374 231.48647Q52.20625 231.93959 52.190624 232.75209L51.1125 232.64272Q51.221874 231.42397 51.940624 230.79897Q52.675 230.15834 53.909374 230.15834Q55.14375 230.15834 55.8625 230.84584Q56.58125 231.53334 56.58125 232.54897Q56.58125 233.06459 56.3625 233.56459Q56.159374 234.04897 55.659374 234.61147Q55.175 235.15834 54.05 236.11147Q53.096874 236.90834 52.815624 237.20522Q52.55 237.48647 52.378124 237.76772L56.596874 237.76772ZM58.05 234.54897Q58.05 233.01772 58.3625 232.09584Q58.675 231.15834 59.284374 230.65834Q59.909374 230.15834 60.846874 230.15834Q61.534374 230.15834 62.05 230.43959Q62.58125 230.72084 62.925 231.25209Q63.26875 231.76772 63.45625 232.51772Q63.64375 233.26772 63.64375 234.54897Q63.64375 236.06459 63.33125 236.98647Q63.034374 237.90834 62.409374 238.42397Q61.8 238.92397 60.846874 238.92397Q59.6125 238.92397 58.89375 238.03334Q58.05 236.97084 58.05 234.54897ZM59.128124 234.54897Q59.128124 236.65834 59.628124 237.36147Q60.128124 238.06459 60.846874 238.06459Q61.58125 238.06459 62.065624 237.36147Q62.565624 236.65834 62.565624 234.54897Q62.565624 232.42397 62.065624 231.73647Q61.58125 231.03334 60.83125 231.03334Q60.1125 231.03334 59.675 231.64272Q59.128124 232.42397 59.128124 234.54897ZM65.05 234.54897Q65.05 233.01772 65.3625 232.09584Q65.675 231.15834 66.28438 230.65834Q66.90938 230.15834 67.84688 230.15834Q68.53438 230.15834 69.05 230.43959Q69.58125 230.72084 69.925 231.25209Q70.26875 231.76772 70.45625 232.51772Q70.64375 233.26772 70.64375 234.54897Q70.64375 236.06459 70.33125 236.98647Q70.03438 237.90834 69.40938 238.42397Q68.8 238.92397 67.84688 238.92397Q66.6125 238.92397 65.89375 238.03334Q65.05 236.97084 65.05 234.54897ZM66.12813 234.54897Q66.12813 236.65834 66.62813 237.36147Q67.12813 238.06459 67.84688 238.06459Q68.58125 238.06459 69.06563 237.36147Q69.56563 236.65834 69.56563 234.54897Q69.56563 232.42397 69.06563 231.73647Q68.58125 231.03334 67.83125 231.03334Q67.1125 231.03334 66.675 231.64272Q66.12813 232.42397 66.12813 234.54897ZM72.05 234.54897Q72.05 233.01772 72.3625 232.09584Q72.675 231.15834 73.28438 230.65834Q73.90938 230.15834 74.84688 230.15834Q75.53438 230.15834 76.05 230.43959Q76.58125 230.72084 76.925 231.25209Q77.26875 231.76772 77.45625 232.51772Q77.64375 233.26772 77.64375 234.54897Q77.64375 236.06459 77.33125 236.98647Q77.03438 237.90834 76.40938 238.42397Q75.8 238.92397 74.84688 238.92397Q73.6125 238.92397 72.89375 238.03334Q72.05 236.97084 72.05 234.54897ZM73.12813 234.54897Q73.12813 236.65834 73.62813 237.36147Q74.12813 238.06459 74.84688 238.06459Q75.58125 238.06459 76.06563 237.36147Q76.56563 236.65834 76.56563 234.54897Q76.56563 232.42397 76.06563 231.73647Q75.58125 231.03334 74.83125 231.03334Q74.1125 231.03334 73.675 231.64272Q73.12813 232.42397 73.12813 234.54897ZM79.05 234.54897Q79.05 233.01772 79.3625 232.09584Q79.675 231.15834 80.28438 230.65834Q80.90938 230.15834 81.84688 230.15834Q82.53438 230.15834 83.05 230.43959Q83.58125 230.72084 83.925 231.25209Q84.26875 231.76772 84.45625 232.51772Q84.64375 233.26772 84.64375 234.54897Q84.64375 236.06459 84.33125 236.98647Q84.03438 237.90834 83.40938 238.42397Q82.8 238.92397 81.84688 238.92397Q80.6125 238.92397 79.89375 238.03334Q79.05 236.97084 79.05 234.54897ZM80.12813 234.54897Q80.12813 236.65834 80.62813 237.36147Q81.12813 238.06459 81.84688 238.06459Q82.58125 238.06459 83.06563 237.36147Q83.56563 236.65834 83.56563 234.54897Q83.56563 232.42397 83.06563 231.73647Q82.58125 231.03334 81.83125 231.03334Q81.1125 231.03334 80.675 231.64272Q80.12813 232.42397 80.12813 234.54897Z" fill-rule="nonzero"/><path fill="#000000" d="M51.05 187.68437L52.1125 187.54375Q52.284374 188.43437 52.721874 188.84062Q53.159374 189.23125 53.784374 189.23125Q54.534374 189.23125 55.05 188.71562Q55.565624 188.2 55.565624 187.43437Q55.565624 186.71562 55.08125 186.24687Q54.6125 185.7625 53.878124 185.7625Q53.58125 185.7625 53.128124 185.8875L53.253124 184.95Q53.3625 184.96562 53.425 184.96562Q54.096874 184.96562 54.628124 184.62187Q55.175 184.2625 55.175 183.52812Q55.175 182.95 54.784374 182.575Q54.39375 182.18437 53.76875 182.18437Q53.159374 182.18437 52.7375 182.575Q52.33125 182.96562 52.221874 183.73125L51.159374 183.54375Q51.346874 182.49687 52.034374 181.91875Q52.721874 181.325 53.7375 181.325Q54.440624 181.325 55.034374 181.6375Q55.628124 181.93437 55.940624 182.45Q56.253124 182.96562 56.253124 183.55937Q56.253124 184.10625 55.95625 184.575Q55.659374 185.02812 55.08125 185.29375Q55.83125 185.46562 56.253124 186.02812Q56.675 186.575 56.675 187.41875Q56.675 188.54375 55.846874 189.325Q55.034374 190.10625 53.784374 190.10625Q52.659374 190.10625 51.909374 189.43437Q51.159374 188.74687 51.05 187.68437ZM58.05 185.71562Q58.05 184.18437 58.3625 183.2625Q58.675 182.325 59.284374 181.825Q59.909374 181.325 60.846874 181.325Q61.534374 181.325 62.05 181.60625Q62.58125 181.8875 62.925 182.41875Q63.26875 182.93437 63.45625 183.68437Q63.64375 184.43437 63.64375 185.71562Q63.64375 187.23125 63.33125 188.15312Q63.034374 189.075 62.409374 189.59062Q61.8 190.09062 60.846874 190.09062Q59.6125 190.09062 58.89375 189.2Q58.05 188.1375 58.05 185.71562ZM59.128124 185.71562Q59.128124 187.825 59.628124 188.52812Q60.128124 189.23125 60.846874 189.23125Q61.58125 189.23125 62.065624 188.52812Q62.565624 187.825 62.565624 185.71562Q62.565624 183.59062 62.065624 182.90312Q61.58125 182.2 60.83125 182.2Q60.1125 182.2 59.675 182.80937Q59.128124 183.59062 59.128124 185.71562ZM65.05 185.71562Q65.05 184.18437 65.3625 183.2625Q65.675 182.325 66.28438 181.825Q66.90938 181.325 67.84688 181.325Q68.53438 181.325 69.05 181.60625Q69.58125 181.8875 69.925 182.41875Q70.26875 182.93437 70.45625 183.68437Q70.64375 184.43437 70.64375 185.71562Q70.64375 187.23125 70.33125 188.15312Q70.03438 189.075 69.40938 189.59062Q68.8 190.09062 67.84688 190.09062Q66.6125 190.09062 65.89375 189.2Q65.05 188.1375 65.05 185.71562ZM66.12813 185.71562Q66.12813 187.825 66.62813 188.52812Q67.12813 189.23125 67.84688 189.23125Q68.58125 189.23125 69.06563 188.52812Q69.56563 187.825 69.56563 185.71562Q69.56563 183.59062 69.06563 182.90312Q68.58125 182.2 67.83125 182.2Q67.1125 182.2 66.675 182.80937Q66.12813 183.59062 66.12813 185.71562ZM72.05 185.71562Q72.05 184.18437 72.3625 183.2625Q72.675 182.325 73.28438 181.825Q73.90938 181.325 74.84688 181.325Q75.53438 181.325 76.05 181.60625Q76.58125 181.8875 76.925 182.41875Q77.26875 182.93437 77.45625 183.68437Q77.64375 184.43437 77.64375 185.71562Q77.64375 187.23125 77.33125 188.15312Q77.03438 189.075 76.40938 189.59062Q75.8 190.09062 74.84688 190.09062Q73.6125 190.09062 72.89375 189.2Q72.05 188.1375 72.05 185.71562ZM73.12813 185.71562Q73.12813 187.825 73.62813 188.52812Q74.12813 189.23125 74.84688 189.23125Q75.58125 189.23125 76.06563 188.52812Q76.56563 187.825 76.56563 185.71562Q76.56563 183.59062 76.06563 182.90312Q75.58125 182.2 74.83125 182.2Q74.1125 182.2 73.675 182.80937Q73.12813 183.59062 73.12813 185.71562ZM79.05 185.71562Q79.05 184.18437 79.3625 183.2625Q79.675 182.325 80.28438 181.825Q80.90938 181.325 81.84688 181.325Q82.53438 181.325 83.05 181.60625Q83.58125 181.8875 83.925 182.41875Q84.26875 182.93437 84.45625 183.68437Q84.64375 184.43437 84.64375 185.71562Q84.64375 187.23125 84.33125 188.15312Q84.03438 189.075 83.40938 189.59062Q82.8 190.09062 81.84688 190.09062Q80.6125 190.09062 79.89375 189.2Q79.05 188.1375 79.05 185.71562ZM80.12813 185.71562Q80.12813 187.825 80.62813 188.52812Q81.12813 189.23125 81.84688 189.23125Q82.58125 189.23125 83.06563 188.52812Q83.56563 187.825 83.56563 185.71562Q83.56563 183.59062 83.06563 182.90312Q82.58125 182.2 81.83125 182.2Q81.1125 182.2 80.675 182.80937Q80.12813 183.59062 80.12813 185.71562Z" fill-rule="nonzero"/><path fill="#000000" d="M54.425 141.11667L54.425 139.05417L50.70625 139.05417L50.70625 138.08542L54.628124 132.52292L55.4875 132.52292L55.4875 138.08542L56.64375 138.08542L56.64375 139.05417L55.4875 139.05417L55.4875 141.11667L54.425 141.11667ZM54.425 138.08542L54.425 134.22604L51.7375 138.08542L54.425 138.08542ZM58.05 136.8823Q58.05 135.35104 58.3625 134.42917Q58.675 133.49167 59.284374 132.99167Q59.909374 132.49167 60.846874 132.49167Q61.534374 132.49167 62.05 132.77292Q62.58125 133.05417 62.925 133.58542Q63.26875 134.10104 63.45625 134.85104Q63.64375 135.60104 63.64375 136.8823Q63.64375 138.39792 63.33125 139.3198Q63.034374 140.24167 62.409374 140.7573Q61.8 141.2573 60.846874 141.2573Q59.6125 141.2573 58.89375 140.36667Q58.05 139.30417 58.05 136.8823ZM59.128124 136.8823Q59.128124 138.99167 59.628124 139.6948Q60.128124 140.39792 60.846874 140.39792Q61.58125 140.39792 62.065624 139.6948Q62.565624 138.99167 62.565624 136.8823Q62.565624 134.7573 62.065624 134.0698Q61.58125 133.36667 60.83125 133.36667Q60.1125 133.36667 59.675 133.97604Q59.128124 134.7573 59.128124 136.8823ZM65.05 136.8823Q65.05 135.35104 65.3625 134.42917Q65.675 133.49167 66.28438 132.99167Q66.90938 132.49167 67.84688 132.49167Q68.53438 132.49167 69.05 132.77292Q69.58125 133.05417 69.925 133.58542Q70.26875 134.10104 70.45625 134.85104Q70.64375 135.60104 70.64375 136.8823Q70.64375 138.39792 70.33125 139.3198Q70.03438 140.24167 69.40938 140.7573Q68.8 141.2573 67.84688 141.2573Q66.6125 141.2573 65.89375 140.36667Q65.05 139.30417 65.05 136.8823ZM66.12813 136.8823Q66.12813 138.99167 66.62813 139.6948Q67.12813 140.39792 67.84688 140.39792Q68.58125 140.39792 69.06563 139.6948Q69.56563 138.99167 69.56563 136.8823Q69.56563 134.7573 69.06563 134.0698Q68.58125 133.36667 67.83125 133.36667Q67.1125 133.36667 66.675 133.97604Q66.12813 134.7573 66.12813 136.8823ZM72.05 136.8823Q72.05 135.35104 72.3625 134.42917Q72.675 133.49167 73.28438 132.99167Q73.90938 132.49167 74.84688 132.49167Q75.53438 132.49167 76.05 132.77292Q76.58125 133.05417 76.925 133.58542Q77.26875 134.10104 77.45625 134.85104Q77.64375 135.60104 77.64375 136.8823Q77.64375 138.39792 77.33125 139.3198Q77.03438 140.24167 76.40938 140.7573Q75.8 141.2573 74.84688 141.2573Q73.6125 141.2573 72.89375 140.36667Q72.05 139.30417 72.05 136.8823ZM73.12813 136.8823Q73.12813 138.99167 73.62813 139.6948Q74.12813 140.39792 74.84688 140.39792Q75.58125 140.39792 76.06563 139.6948Q76.56563 138.99167 76.56563 136.8823Q76.56563 134.7573 76.06563 134.0698Q75.58125 133.36667 74.83125 133.36667Q74.1125 133.36667 73.675 133.97604Q73.12813 134.7573 73.12813 136.8823ZM79.05 136.8823Q79.05 135.35104 79.3625 134.42917Q79.675 133.49167 80.28438 132.99167Q80.90938 132.49167 81.84688 132.49167Q82.53438 132.49167 83.05 132.77292Q83.58125 133.05417 83.925 133.58542Q84.26875 134.10104 84.45625 134.85104Q84.64375 135.60104 84.64375 136.8823Q84.64375 138.39792 84.33125 139.3198Q84.03438 140.24167 83.40938 140.7573Q82.8 141.2573 81.84688 141.2573Q80.6125 141.2573 79.89375 140.36667Q79.05 139.30417 79.05 136.8823ZM80.12813 136.8823Q80.12813 138.99167 80.62813 139.6948Q81.12813 140.39792 81.84688 140.39792Q82.58125 140.39792 83.06563 139.6948Q83.56563 138.99167 83.56563 136.8823Q83.56563 134.7573 83.06563 134.0698Q82.58125 133.36667 81.83125 133.36667Q81.1125 133.36667 80.675 133.97604Q80.12813 134.7573 80.12813 136.8823Z" fill-rule="nonzero"/><path fill="#000000" d="M51.05 90.03333L52.159374 89.93958Q52.284374 90.75208 52.721874 91.15833Q53.175 91.56458 53.815624 91.56458Q54.565624 91.56458 55.096874 90.98646Q55.628124 90.40833 55.628124 89.47083Q55.628124 88.56458 55.1125 88.04896Q54.6125 87.51771 53.784374 87.51771Q53.284374 87.51771 52.8625 87.75208Q52.45625 87.98646 52.221874 88.34583L51.2375 88.22083L52.065624 83.81458L56.346874 83.81458L56.346874 84.81458L52.909374 84.81458L52.45625 87.12708Q53.221874 86.58021 54.065624 86.58021Q55.190624 86.58021 55.95625 87.36146Q56.7375 88.14271 56.7375 89.37708Q56.7375 90.53333 56.065624 91.39271Q55.2375 92.42396 53.815624 92.42396Q52.64375 92.42396 51.89375 91.76771Q51.159374 91.11146 51.05 90.03333ZM58.05 88.04896Q58.05 86.51771 58.3625 85.59583Q58.675 84.65833 59.284374 84.15833Q59.909374 83.65833 60.846874 83.65833Q61.534374 83.65833 62.05 83.93958Q62.58125 84.22083 62.925 84.75208Q63.26875 85.26771 63.45625 86.01771Q63.64375 86.76771 63.64375 88.04896Q63.64375 89.56458 63.33125 90.48646Q63.034374 91.40833 62.409374 91.92396Q61.8 92.42396 60.846874 92.42396Q59.6125 92.42396 58.89375 91.53333Q58.05 90.47083 58.05 88.04896ZM59.128124 88.04896Q59.128124 90.15833 59.628124 90.86146Q60.128124 91.56458 60.846874 91.56458Q61.58125 91.56458 62.065624 90.86146Q62.565624 90.15833 62.565624 88.04896Q62.565624 85.92396 62.065624 85.23646Q61.58125 84.53333 60.83125 84.53333Q60.1125 84.53333 59.675 85.14271Q59.128124 85.92396 59.128124 88.04896ZM65.05 88.04896Q65.05 86.51771 65.3625 85.59583Q65.675 84.65833 66.28438 84.15833Q66.90938 83.65833 67.84688 83.65833Q68.53438 83.65833 69.05 83.93958Q69.58125 84.22083 69.925 84.75208Q70.26875 85.26771 70.45625 86.01771Q70.64375 86.76771 70.64375 88.04896Q70.64375 89.56458 70.33125 90.48646Q70.03438 91.40833 69.40938 91.92396Q68.8 92.42396 67.84688 92.42396Q66.6125 92.42396 65.89375 91.53333Q65.05 90.47083 65.05 88.04896ZM66.12813 88.04896Q66.12813 90.15833 66.62813 90.86146Q67.12813 91.56458 67.84688 91.56458Q68.58125 91.56458 69.06563 90.86146Q69.56563 90.15833 69.56563 88.04896Q69.56563 85.92396 69.06563 85.23646Q68.58125 84.53333 67.83125 84.53333Q67.1125 84.53333 66.675 85.14271Q66.12813 85.92396 66.12813 88.04896ZM72.05 88.04896Q72.05 86.51771 72.3625 85.59583Q72.675 84.65833 73.28438 84.15833Q73.90938 83.65833 74.84688 83.65833Q75.53438 83.65833 76.05 83.93958Q76.58125 84.22083 76.925 84.75208Q77.26875 85.26771 77.45625 86.01771Q77.64375 86.76771 77.64375 88.04896Q77.64375 89.56458 77.33125 90.48646Q77.03438 91.40833 76.40938 91.92396Q75.8 92.42396 74.84688 92.42396Q73.6125 92.42396 72.89375 91.53333Q72.05 90.47083 72.05 88.04896ZM73.12813 88.04896Q73.12813 90.15833 73.62813 90.86146Q74.12813 91.56458 74.84688 91.56458Q75.58125 91.56458 76.06563 90.86146Q76.56563 90.15833 76.56563 88.04896Q76.56563 85.92396 76.06563 85.23646Q75.58125 84.53333 74.83125 84.53333Q74.1125 84.53333 73.675 85.14271Q73.12813 85.92396 73.12813 88.04896ZM79.05 88.04896Q79.05 86.51771 79.3625 85.59583Q79.675 84.65833 80.28438 84.15833Q80.90938 83.65833 81.84688 83.65833Q82.53438 83.65833 83.05 83.93958Q83.58125 84.22083 83.925 84.75208Q84.26875 85.26771 84.45625 86.01771Q84.64375 86.76771 84.64375 88.04896Q84.64375 89.56458 84.33125 90.48646Q84.03438 91.40833 83.40938 91.92396Q82.8 92.42396 81.84688 92.42396Q80.6125 92.42396 79.89375 91.53333Q79.05 90.47083 79.05 88.04896ZM80.12813 88.04896Q80.12813 90.15833 80.62813 90.86146Q81.12813 91.56458 81.84688 91.56458Q82.58125 91.56458 83.06563 90.86146Q83.56563 90.15833 83.56563 88.04896Q83.56563 85.92396 83.06563 85.23646Q82.58125 84.53333 81.83125 84.53333Q81.1125 84.53333 80.675 85.14271Q80.12813 85.92396 80.12813 88.04896Z" fill-rule="nonzero"/><path fill="#000000" d="M145.00647 349.45L145.00647 340.85626L148.81897 340.85626Q149.97522 340.85626 150.56897 341.09064Q151.16272 341.325 151.5221 341.91876Q151.88147 342.4969 151.88147 343.2Q151.88147 344.1219 151.28772 344.7469Q150.69397 345.3719 149.4596 345.54376Q149.91272 345.7625 150.1471 345.96564Q150.6471 346.41876 151.0846 347.10626L152.5846 349.45L151.1471 349.45L150.0221 347.66876Q149.5221 346.8875 149.19397 346.48126Q148.88147 346.075 148.61584 345.91876Q148.36584 345.7469 148.10022 345.66876Q147.91272 345.6375 147.47522 345.6375L146.1471 345.6375L146.1471 349.45L145.00647 349.45ZM146.1471 344.65314L148.60022 344.65314Q149.36584 344.65314 149.80334 344.4969Q150.25647 344.325 150.47522 343.98126Q150.7096 343.6219 150.7096 343.2Q150.7096 342.59064 150.25647 342.2Q149.81897 341.8094 148.86584 341.8094L146.1471 341.8094L146.1471 344.65314ZM153.47522 346.34064Q153.47522 344.60626 154.42834 343.77814Q155.22522 343.09064 156.38147 343.09064Q157.66272 343.09064 158.47522 343.9344Q159.30334 344.7625 159.30334 346.2469Q159.30334 347.45 158.94397 348.1375Q158.5846 348.825 157.88147 349.21564Q157.19397 349.59064 156.38147 349.59064Q155.0846 349.59064 154.2721 348.7625Q153.47522 347.91876 153.47522 346.34064ZM154.55334 346.34064Q154.55334 347.52814 155.06897 348.1219Q155.60022 348.71564 156.38147 348.71564Q157.17834 348.71564 157.69397 348.1219Q158.2096 347.52814 158.2096 346.3094Q158.2096 345.15314 157.67834 344.5594Q157.16272 343.96564 156.38147 343.96564Q155.60022 343.96564 155.06897 344.5594Q154.55334 345.1375 154.55334 346.34064ZM164.94397 349.45L164.94397 348.52814Q164.2096 349.59064 162.9596 349.59064Q162.41272 349.59064 161.92834 349.3875Q161.4596 349.16876 161.22522 348.85626Q160.99084 348.52814 160.8971 348.0594Q160.8346 347.7625 160.8346 347.075L160.8346 343.23126L161.8971 343.23126L161.8971 346.6844Q161.8971 347.4969 161.9596 347.79376Q162.05334 348.2 162.36584 348.45Q162.69397 348.6844 163.17834 348.6844Q163.6471 348.6844 164.05334 348.45Q164.47522 348.2 164.6471 347.77814Q164.8346 347.35626 164.8346 346.5594L164.8346 343.23126L165.88147 343.23126L165.88147 349.45L164.94397 349.45ZM167.86584 349.45L167.86584 343.23126L168.80334 343.23126L168.80334 344.10626Q169.49084 343.09064 170.78772 343.09064Q171.35022 343.09064 171.81897 343.29376Q172.30334 343.4969 172.53772 343.825Q172.7721 344.15314 172.86584 344.59064Q172.91272 344.8875 172.91272 345.6219L172.91272 349.45L171.86584 349.45L171.86584 345.66876Q171.86584 345.0125 171.74084 344.7Q171.61584 344.3875 171.30334 344.2Q170.99084 343.9969 170.56897 343.9969Q169.8971 343.9969 169.3971 344.4344Q168.91272 344.85626 168.91272 346.04376L168.91272 349.45L167.86584 349.45ZM178.8971 349.45L178.8971 348.66876Q178.30334 349.59064 177.16272 349.59064Q176.41272 349.59064 175.78772 349.1844Q175.16272 348.7625 174.81897 348.02814Q174.47522 347.29376 174.47522 346.34064Q174.47522 345.41876 174.78772 344.65314Q175.10022 343.8875 175.72522 343.4969Q176.35022 343.09064 177.11584 343.09064Q177.67834 343.09064 178.11584 343.325Q178.55334 343.5594 178.8346 343.9344L178.8346 340.85626L179.88147 340.85626L179.88147 349.45L178.8971 349.45ZM175.56897 346.34064Q175.56897 347.54376 176.06897 348.1375Q176.56897 348.71564 177.25647 348.71564Q177.94397 348.71564 178.42834 348.15314Q178.91272 347.59064 178.91272 346.4344Q178.91272 345.15314 178.41272 344.5594Q177.92834 343.96564 177.2096 343.96564Q176.50647 343.96564 176.03772 344.54376Q175.56897 345.10626 175.56897 346.34064ZM188.53772 349.45L187.49084 349.45L187.49084 342.73126Q187.10022 343.09064 186.47522 343.46564Q185.86584 343.825 185.38147 343.9969L185.38147 342.98126Q186.25647 342.5594 186.91272 341.98126Q187.5846 341.3875 187.86584 340.825L188.53772 340.825L188.53772 349.45Z" fill-rule="nonzero"/><path fill="#000000" d="M257.62717 349.45L257.62717 340.85626L261.43967 340.85626Q262.59592 340.85626 263.18967 341.09064Q263.78342 341.325 264.1428 341.91876Q264.50217 342.4969 264.50217 343.2Q264.50217 344.1219 263.90842 344.7469Q263.31467 345.3719 262.0803 345.54376Q262.53342 345.7625 262.7678 345.96564Q263.2678 346.41876 263.7053 347.10626L265.2053 349.45L263.7678 349.45L262.6428 347.66876Q262.1428 346.8875 261.81467 346.48126Q261.50217 346.075 261.23654 345.91876Q260.98654 345.7469 260.72092 345.66876Q260.53342 345.6375 260.09592 345.6375L258.7678 345.6375L258.7678 349.45L257.62717 349.45ZM258.7678 344.65314L261.22092 344.65314Q261.98654 344.65314 262.42404 344.4969Q262.87717 344.325 263.09592 343.98126Q263.3303 343.6219 263.3303 343.2Q263.3303 342.59064 262.87717 342.2Q262.43967 341.8094 261.48654 341.8094L258.7678 341.8094L258.7678 344.65314ZM266.09592 346.34064Q266.09592 344.60626 267.04904 343.77814Q267.84592 343.09064 269.00217 343.09064Q270.28342 343.09064 271.09592 343.9344Q271.92404 344.7625 271.92404 346.2469Q271.92404 347.45 271.56467 348.1375Q271.2053 348.825 270.50217 349.21564Q269.81467 349.59064 269.00217 349.59064Q267.7053 349.59064 266.8928 348.7625Q266.09592 347.91876 266.09592 346.34064ZM267.17404 346.34064Q267.17404 347.52814 267.68967 348.1219Q268.22092 348.71564 269.00217 348.71564Q269.79904 348.71564 270.31467 348.1219Q270.8303 347.52814 270.8303 346.3094Q270.8303 345.15314 270.29904 344.5594Q269.78342 343.96564 269.00217 343.96564Q268.22092 343.96564 267.68967 344.5594Q267.17404 345.1375 267.17404 346.34064ZM277.56467 349.45L277.56467 348.52814Q276.8303 349.59064 275.5803 349.59064Q275.03342 349.59064 274.54904 349.3875Q274.0803 349.16876 273.84592 348.85626Q273.61154 348.52814 273.5178 348.0594Q273.4553 347.7625 273.4553 347.075L273.4553 343.23126L274.5178 343.23126L274.5178 346.6844Q274.5178 347.4969 274.5803 347.79376Q274.67404 348.2 274.98654 348.45Q275.31467 348.6844 275.79904 348.6844Q276.2678 348.6844 276.67404 348.45Q277.09592 348.2 277.2678 347.77814Q277.4553 347.35626 277.4553 346.5594L277.4553 343.23126L278.50217 343.23126L278.50217 349.45L277.56467 349.45ZM280.48654 349.45L280.48654 343.23126L281.42404 343.23126L281.42404 344.10626Q282.11154 343.09064 283.40842 343.09064Q283.97092 343.09064 284.43967 343.29376Q284.92404 343.4969 285.15842 343.825Q285.3928 344.15314 285.48654 344.59064Q285.53342 344.8875 285.53342 345.6219L285.53342 349.45L284.48654 349.45L284.48654 345.66876Q284.48654 345.0125 284.36154 344.7Q284.23654 344.3875 283.92404 344.2Q283.61154 343.9969 283.18967 343.9969Q282.5178 343.9969 282.0178 344.4344Q281.53342 344.85626 281.53342 346.04376L281.53342 349.45L280.48654 349.45ZM291.5178 349.45L291.5178 348.66876Q290.92404 349.59064 289.78342 349.59064Q289.03342 349.59064 288.40842 349.1844Q287.78342 348.7625 287.43967 348.02814Q287.09592 347.29376 287.09592 346.34064Q287.09592 345.41876 287.40842 344.65314Q287.72092 343.8875 288.34592 343.4969Q288.97092 343.09064 289.73654 343.09064Q290.29904 343.09064 290.73654 343.325Q291.17404 343.5594 291.4553 343.9344L291.4553 340.85626L292.50217 340.85626L292.50217 349.45L291.5178 349.45ZM288.18967 346.34064Q288.18967 347.54376 288.68967 348.1375Q289.18967 348.71564 289.87717 348.71564Q290.56467 348.71564 291.04904 348.15314Q291.53342 347.59064 291.53342 346.4344Q291.53342 345.15314 291.03342 344.5594Q290.54904 343.96564 289.8303 343.96564Q289.12717 343.96564 288.65842 344.54376Q288.18967 345.10626 288.18967 346.34064ZM302.73654 348.4344L302.73654 349.45L297.04904 349.45Q297.04904 349.075 297.17404 348.71564Q297.3928 348.1375 297.86154 347.575Q298.34592 347.0125 299.25217 346.27814Q300.65842 345.1219 301.1428 344.45Q301.6428 343.77814 301.6428 343.1844Q301.6428 342.5594 301.18967 342.1375Q300.73654 341.7 300.0178 341.7Q299.25217 341.7 298.79904 342.15314Q298.34592 342.60626 298.3303 343.41876L297.25217 343.3094Q297.36154 342.09064 298.0803 341.46564Q298.81467 340.825 300.04904 340.825Q301.28342 340.825 302.00217 341.5125Q302.72092 342.2 302.72092 343.21564Q302.72092 343.73126 302.50217 344.23126Q302.29904 344.71564 301.79904 345.27814Q301.31467 345.825 300.18967 346.77814Q299.23654 347.575 298.9553 347.8719Q298.68967 348.15314 298.5178 348.4344L302.73654 348.4344Z" fill-rule="nonzero"/><path fill="#000000" d="M371.74783 349.45L371.74783 340.85626L375.56033 340.85626Q376.71658 340.85626 377.31033 341.09064Q377.90408 341.325 378.26346 341.91876Q378.62283 342.4969 378.62283 343.2Q378.62283 344.1219 378.02908 344.7469Q377.43533 345.3719 376.20096 345.54376Q376.65408 345.7625 376.88846 345.96564Q377.38846 346.41876 377.82596 347.10626L379.32596 349.45L377.88846 349.45L376.76346 347.66876Q376.26346 346.8875 375.93533 346.48126Q375.62283 346.075 375.3572 345.91876Q375.1072 345.7469 374.84158 345.66876Q374.65408 345.6375 374.21658 345.6375L372.88846 345.6375L372.88846 349.45L371.74783 349.45ZM372.88846 344.65314L375.34158 344.65314Q376.1072 344.65314 376.5447 344.4969Q376.99783 344.325 377.21658 343.98126Q377.45096 343.6219 377.45096 343.2Q377.45096 342.59064 376.99783 342.2Q376.56033 341.8094 375.6072 341.8094L372.88846 341.8094L372.88846 344.65314ZM380.21658 346.34064Q380.21658 344.60626 381.1697 343.77814Q381.96658 343.09064 383.12283 343.09064Q384.40408 343.09064 385.21658 343.9344Q386.0447 344.7625 386.0447 346.2469Q386.0447 347.45 385.68533 348.1375Q385.32596 348.825 384.62283 349.21564Q383.93533 349.59064 383.12283 349.59064Q381.82596 349.59064 381.01346 348.7625Q380.21658 347.91876 380.21658 346.34064ZM381.2947 346.34064Q381.2947 347.52814 381.81033 348.1219Q382.34158 348.71564 383.12283 348.71564Q383.9197 348.71564 384.43533 348.1219Q384.95096 347.52814 384.95096 346.3094Q384.95096 345.15314 384.4197 344.5594Q383.90408 343.96564 383.12283 343.96564Q382.34158 343.96564 381.81033 344.5594Q381.2947 345.1375 381.2947 346.34064ZM391.68533 349.45L391.68533 348.52814Q390.95096 349.59064 389.70096 349.59064Q389.15408 349.59064 388.6697 349.3875Q388.20096 349.16876 387.96658 348.85626Q387.7322 348.52814 387.63846 348.0594Q387.57596 347.7625 387.57596 347.075L387.57596 343.23126L388.63846 343.23126L388.63846 346.6844Q388.63846 347.4969 388.70096 347.79376Q388.7947 348.2 389.1072 348.45Q389.43533 348.6844 389.9197 348.6844Q390.38846 348.6844 390.7947 348.45Q391.21658 348.2 391.38846 347.77814Q391.57596 347.35626 391.57596 346.5594L391.57596 343.23126L392.62283 343.23126L392.62283 349.45L391.68533 349.45ZM394.6072 349.45L394.6072 343.23126L395.5447 343.23126L395.5447 344.10626Q396.2322 343.09064 397.52908 343.09064Q398.09158 343.09064 398.56033 343.29376Q399.0447 343.4969 399.27908 343.825Q399.51346 344.15314 399.6072 344.59064Q399.65408 344.8875 399.65408 345.6219L399.65408 349.45L398.6072 349.45L398.6072 345.66876Q398.6072 345.0125 398.4822 344.7Q398.3572 344.3875 398.0447 344.2Q397.7322 343.9969 397.31033 343.9969Q396.63846 343.9969 396.13846 344.4344Q395.65408 344.85626 395.65408 346.04376L395.65408 349.45L394.6072 349.45ZM405.63846 349.45L405.63846 348.66876Q405.0447 349.59064 403.90408 349.59064Q403.15408 349.59064 402.52908 349.1844Q401.90408 348.7625 401.56033 348.02814Q401.21658 347.29376 401.21658 346.34064Q401.21658 345.41876 401.52908 344.65314Q401.84158 343.8875 402.46658 343.4969Q403.09158 343.09064 403.8572 343.09064Q404.4197 343.09064 404.8572 343.325Q405.2947 343.5594 405.57596 343.9344L405.57596 340.85626L406.62283 340.85626L406.62283 349.45L405.63846 349.45ZM402.31033 346.34064Q402.31033 347.54376 402.81033 348.1375Q403.31033 348.71564 403.99783 348.71564Q404.68533 348.71564 405.1697 348.15314Q405.65408 347.59064 405.65408 346.4344Q405.65408 345.15314 405.15408 344.5594Q404.6697 343.96564 403.95096 343.96564Q403.24783 343.96564 402.77908 344.54376Q402.31033 345.10626 402.31033 346.34064ZM411.31033 347.1844L412.37283 347.04376Q412.5447 347.9344 412.9822 348.34064Q413.4197 348.73126 414.0447 348.73126Q414.7947 348.73126 415.31033 348.21564Q415.82596 347.7 415.82596 346.9344Q415.82596 346.21564 415.34158 345.7469Q414.87283 345.2625 414.13846 345.2625Q413.84158 345.2625 413.38846 345.3875L413.51346 344.45Q413.62283 344.46564 413.68533 344.46564Q414.3572 344.46564 414.88846 344.1219Q415.43533 343.7625 415.43533 343.02814Q415.43533 342.45 415.0447 342.075Q414.65408 341.6844 414.02908 341.6844Q413.4197 341.6844 412.99783 342.075Q412.59158 342.46564 412.4822 343.23126L411.4197 343.04376Q411.6072 341.9969 412.2947 341.41876Q412.9822 340.825 413.99783 340.825Q414.70096 340.825 415.2947 341.1375Q415.88846 341.4344 416.20096 341.95Q416.51346 342.46564 416.51346 343.0594Q416.51346 343.60626 416.21658 344.075Q415.9197 344.52814 415.34158 344.79376Q416.09158 344.96564 416.51346 345.52814Q416.93533 346.075 416.93533 346.91876Q416.93533 348.04376 416.1072 348.825Q415.2947 349.60626 414.0447 349.60626Q412.9197 349.60626 412.1697 348.9344Q411.4197 348.2469 411.31033 347.1844Z" fill-rule="nonzero"/><path fill="#000000" d="M484.36853 349.45L484.36853 340.85626L488.18103 340.85626Q489.33728 340.85626 489.93103 341.09064Q490.52478 341.325 490.88416 341.91876Q491.24353 342.4969 491.24353 343.2Q491.24353 344.1219 490.64978 344.7469Q490.05603 345.3719 488.82166 345.54376Q489.27478 345.7625 489.50916 345.96564Q490.00916 346.41876 490.44666 347.10626L491.94666 349.45L490.50916 349.45L489.38416 347.66876Q488.88416 346.8875 488.55603 346.48126Q488.24353 346.075 487.9779 345.91876Q487.7279 345.7469 487.46228 345.66876Q487.27478 345.6375 486.83728 345.6375L485.50916 345.6375L485.50916 349.45L484.36853 349.45ZM485.50916 344.65314L487.96228 344.65314Q488.7279 344.65314 489.1654 344.4969Q489.61853 344.325 489.83728 343.98126Q490.07166 343.6219 490.07166 343.2Q490.07166 342.59064 489.61853 342.2Q489.18103 341.8094 488.2279 341.8094L485.50916 341.8094L485.50916 344.65314ZM492.83728 346.34064Q492.83728 344.60626 493.7904 343.77814Q494.58728 343.09064 495.74353 343.09064Q497.02478 343.09064 497.83728 343.9344Q498.6654 344.7625 498.6654 346.2469Q498.6654 347.45 498.30603 348.1375Q497.94666 348.825 497.24353 349.21564Q496.55603 349.59064 495.74353 349.59064Q494.44666 349.59064 493.63416 348.7625Q492.83728 347.91876 492.83728 346.34064ZM493.9154 346.34064Q493.9154 347.52814 494.43103 348.1219Q494.96228 348.71564 495.74353 348.71564Q496.5404 348.71564 497.05603 348.1219Q497.57166 347.52814 497.57166 346.3094Q497.57166 345.15314 497.0404 344.5594Q496.52478 343.96564 495.74353 343.96564Q494.96228 343.96564 494.43103 344.5594Q493.9154 345.1375 493.9154 346.34064ZM504.30603 349.45L504.30603 348.52814Q503.57166 349.59064 502.32166 349.59064Q501.77478 349.59064 501.2904 349.3875Q500.82166 349.16876 500.58728 348.85626Q500.3529 348.52814 500.25916 348.0594Q500.19666 347.7625 500.19666 347.075L500.19666 343.23126L501.25916 343.23126L501.25916 346.6844Q501.25916 347.4969 501.32166 347.79376Q501.4154 348.2 501.7279 348.45Q502.05603 348.6844 502.5404 348.6844Q503.00916 348.6844 503.4154 348.45Q503.83728 348.2 504.00916 347.77814Q504.19666 347.35626 504.19666 346.5594L504.19666 343.23126L505.24353 343.23126L505.24353 349.45L504.30603 349.45ZM507.2279 349.45L507.2279 343.23126L508.1654 343.23126L508.1654 344.10626Q508.8529 343.09064 510.14978 343.09064Q510.71228 343.09064 511.18103 343.29376Q511.6654 343.4969 511.89978 343.825Q512.13416 344.15314 512.2279 344.59064Q512.2748 344.8875 512.2748 345.6219L512.2748 349.45L511.2279 349.45L511.2279 345.66876Q511.2279 345.0125 511.1029 344.7Q510.9779 344.3875 510.6654 344.2Q510.3529 343.9969 509.93103 343.9969Q509.25916 343.9969 508.75916 344.4344Q508.27478 344.85626 508.27478 346.04376L508.27478 349.45L507.2279 349.45ZM518.25916 349.45L518.25916 348.66876Q517.6654 349.59064 516.5248 349.59064Q515.7748 349.59064 515.1498 349.1844Q514.5248 348.7625 514.181 348.02814Q513.8373 347.29376 513.8373 346.34064Q513.8373 345.41876 514.1498 344.65314Q514.4623 343.8875 515.0873 343.4969Q515.7123 343.09064 516.4779 343.09064Q517.0404 343.09064 517.4779 343.325Q517.9154 343.5594 518.19666 343.9344L518.19666 340.85626L519.2435 340.85626L519.2435 349.45L518.25916 349.45ZM514.931 346.34064Q514.931 347.54376 515.431 348.1375Q515.931 348.71564 516.6185 348.71564Q517.306 348.71564 517.7904 348.15314Q518.2748 347.59064 518.2748 346.4344Q518.2748 345.15314 517.7748 344.5594Q517.2904 343.96564 516.57166 343.96564Q515.8685 343.96564 515.3998 344.54376Q514.931 345.10626 514.931 346.34064ZM527.306 349.45L527.306 347.3875L523.5873 347.3875L523.5873 346.41876L527.50916 340.85626L528.3685 340.85626L528.3685 346.41876L529.5248 346.41876L529.5248 347.3875L528.3685 347.3875L528.3685 349.45L527.306 349.45ZM527.306 346.41876L527.306 342.5594L524.6185 346.41876L527.306 346.41876Z" fill-rule="nonzero"/><path fill="#4285f4" d="M250.0 56.916668C250.0 56.364384 250.44771 55.916668 251.0 55.916668L261.0 55.916668C261.55228 55.916668 262.0 56.364384 262.0 56.916668L262.0 66.916664C262.0 67.46895 261.55228 67.916664 261.0 67.916664L251.0 67.916664C250.44771 67.916664 250.0 67.46895 250.0 66.916664Z" fill-rule="nonzero"/><path fill="#1a1a1a" d="M274.95312 62.541664L274.95312 61.541664L278.57812 61.52604L278.57812 64.71354Q277.75 65.385414 276.85938 65.729164Q275.96875 66.05729 275.03125 66.05729Q273.76562 66.05729 272.71875 65.52604Q271.6875 64.979164 271.15625 63.96354Q270.64062 62.93229 270.64062 61.666664Q270.64062 60.40104 271.15625 59.322914Q271.6875 58.229164 272.67188 57.71354Q273.65625 57.18229 274.9375 57.18229Q275.875 57.18229 276.625 57.479164Q277.375 57.77604 277.79688 58.322914Q278.23438 58.854164 278.45312 59.729164L277.4375 60.010414Q277.23438 59.354164 276.9375 58.979164Q276.65625 58.604164 276.125 58.385414Q275.59375 58.15104 274.95312 58.15104Q274.17188 58.15104 273.59375 58.385414Q273.03125 58.61979 272.67188 59.010414Q272.32812 59.40104 272.14062 59.86979Q271.8125 60.666664 271.8125 61.58854Q271.8125 62.74479 272.20312 63.52604Q272.60938 64.291664 273.35938 64.666664Q274.10938 65.041664 274.96875 65.041664Q275.70312 65.041664 276.40625 64.760414Q277.10938 64.46354 277.46875 64.15104L277.46875 62.541664L274.95312 62.541664ZM286.0625 62.90104L287.1875 63.197914Q286.82812 64.58854 285.90625 65.322914Q284.98438 66.05729 283.64062 66.05729Q282.25 66.05729 281.375 65.49479Q280.5 64.93229 280.04688 63.86979Q279.59375 62.791664 279.59375 61.55729Q279.59375 60.21354 280.10938 59.21354Q280.625 58.21354 281.5625 57.697914Q282.51562 57.18229 283.65625 57.18229Q284.9375 57.18229 285.8125 57.83854Q286.70312 58.49479 287.04688 59.68229L285.92188 59.947914Q285.625 59.010414 285.04688 58.58854Q284.48438 58.15104 283.625 58.15104Q282.64062 58.15104 281.96875 58.635414Q281.3125 59.104164 281.03125 59.90104Q280.76562 60.697914 280.76562 61.55729Q280.76562 62.65104 281.07812 63.46354Q281.40625 64.27604 282.07812 64.68229Q282.75 65.08854 283.54688 65.08854Q284.5 65.08854 285.15625 64.541664Q285.82812 63.99479 286.0625 62.90104ZM295.0625 62.90104L296.1875 63.197914Q295.82812 64.58854 294.90625 65.322914Q293.98438 66.05729 292.64062 66.05729Q291.25 66.05729 290.375 65.49479Q289.5 64.93229 289.04688 63.86979Q288.59375 62.791664 288.59375 61.55729Q288.59375 60.21354 289.10938 59.21354Q289.625 58.21354 290.5625 57.697914Q291.51562 57.18229 292.65625 57.18229Q293.9375 57.18229 294.8125 57.83854Q295.70312 58.49479 296.04688 59.68229L294.92188 59.947914Q294.625 59.010414 294.04688 58.58854Q293.48438 58.15104 292.625 58.15104Q291.64062 58.15104 290.96875 58.635414Q290.3125 59.104164 290.03125 59.90104Q289.76562 60.697914 289.76562 61.55729Q289.76562 62.65104 290.07812 63.46354Q290.40625 64.27604 291.07812 64.68229Q291.75 65.08854 292.54688 65.08854Q293.5 65.08854 294.15625 64.541664Q294.82812 63.99479 295.0625 62.90104Z" fill-rule="nonzero"/><path fill="#ea4335" d="M313.0 56.916668C313.0 56.364384 313.44772 55.916668 314.0 55.916668L324.0 55.916668C324.55228 55.916668 325.0 56.364384 325.0 56.916668L325.0 66.916664C325.0 67.46895 324.55228 67.916664 324.0 67.916664L314.0 67.916664C313.44772 67.916664 313.0 67.46895 313.0 66.916664Z" fill-rule="nonzero"/><path fill="#1a1a1a" d="M333.23438 65.916664L333.23438 64.854164L337.64062 59.354164Q338.10938 58.77604 338.53125 58.33854L333.73438 58.33854L333.73438 57.322914L339.89062 57.322914L339.89062 58.33854L335.0625 64.291664L334.54688 64.90104L340.03125 64.90104L340.03125 65.916664L333.23438 65.916664ZM340.79688 58.541664L340.79688 57.322914L341.85938 57.322914L341.85938 58.541664L340.79688 58.541664ZM340.79688 65.916664L340.79688 59.697914L341.85938 59.697914L341.85938 65.916664L340.79688 65.916664ZM343.59375 66.43229L344.625 66.58854Q344.6875 67.05729 344.98438 67.27604Q345.375 67.572914 346.04688 67.572914Q346.78125 67.572914 347.17188 67.27604Q347.57812 66.979164 347.71875 66.46354Q347.8125 66.135414 347.79688 65.104164Q347.10938 65.916664 346.07812 65.916664Q344.79688 65.916664 344.09375 64.99479Q343.39062 64.05729 343.39062 62.77604Q343.39062 61.885414 343.70312 61.135414Q344.03125 60.36979 344.64062 59.96354Q345.25 59.55729 346.07812 59.55729Q347.1875 59.55729 347.90625 60.447914L347.90625 59.697914L348.875 59.697914L348.875 65.072914Q348.875 66.52604 348.57812 67.135414Q348.28125 67.74479 347.64062 68.08854Q347.0 68.447914 346.0625 68.447914Q344.95312 68.447914 344.26562 67.947914Q343.57812 67.447914 343.59375 66.43229ZM344.46875 62.697914Q344.46875 63.916664 344.95312 64.479164Q345.4375 65.041664 346.17188 65.041664Q346.90625 65.041664 347.39062 64.479164Q347.89062 63.916664 347.89062 62.729164Q347.89062 61.58854 347.375 61.010414Q346.875 60.43229 346.15625 60.43229Q345.45312 60.43229 344.95312 61.010414Q344.46875 61.572914 344.46875 62.697914Z" fill-rule="nonzero"/><path fill="#757575" d="M20.01875 37.55L20.01875 23.2375L25.39375 23.2375Q27.034374 23.2375 28.01875 23.675Q29.003124 24.096874 29.565624 25.003124Q30.128124 25.909374 30.128124 26.89375Q30.128124 27.815624 29.628124 28.628124Q29.14375 29.440624 28.128124 29.925Q29.425 30.315624 30.128124 31.2375Q30.83125 32.14375 30.83125 33.39375Q30.83125 34.409374 30.39375 35.26875Q29.971874 36.128124 29.346874 36.596874Q28.721874 37.065624 27.784374 37.315624Q26.846874 37.55 25.471874 37.55L20.01875 37.55ZM21.909374 29.253124L25.003124 29.253124Q26.26875 29.253124 26.815624 29.08125Q27.534374 28.8625 27.89375 28.378124Q28.26875 27.878124 28.26875 27.1125Q28.26875 26.409374 27.925 25.8625Q27.58125 25.315624 26.940624 25.128124Q26.315624 24.925 24.76875 24.925L21.909374 24.925L21.909374 29.253124ZM21.909374 35.8625L25.471874 35.8625Q26.39375 35.8625 26.76875 35.784374Q27.425 35.675 27.8625 35.409374Q28.3 35.128124 28.58125 34.6125Q28.8625 34.08125 28.8625 33.39375Q28.8625 32.596874 28.45625 32.003124Q28.05 31.409374 27.315624 31.175Q26.58125 30.940624 25.221874 30.940624L21.909374 30.940624L21.909374 35.8625ZM39.971874 34.20625L41.784374 34.440624Q41.3625 36.01875 40.190624 36.909374Q39.034374 37.784374 37.221874 37.784374Q34.95625 37.784374 33.6125 36.39375Q32.284374 34.9875 32.284374 32.45625Q32.284374 29.83125 33.628124 28.39375Q34.971874 26.940624 37.128124 26.940624Q39.20625 26.940624 40.51875 28.3625Q41.846874 29.76875 41.846874 32.346874Q41.846874 32.503124 41.83125 32.815624L34.096874 32.815624Q34.190624 34.51875 35.065624 35.425Q35.940624 36.33125 37.2375 36.33125Q38.20625 36.33125 38.878124 35.83125Q39.565624 35.315624 39.971874 34.20625ZM34.190624 31.3625L39.9875 31.3625Q39.878124 30.065624 39.33125 29.409374Q38.4875 28.39375 37.14375 28.39375Q35.940624 28.39375 35.1125 29.20625Q34.284374 30.003124 34.190624 31.3625ZM43.8625 37.55L43.8625 27.175L45.45625 27.175L45.45625 28.659374Q46.596874 26.940624 48.753124 26.940624Q49.690624 26.940624 50.471874 27.284374Q51.26875 27.6125 51.659374 28.159374Q52.05 28.70625 52.20625 29.45625Q52.3 29.95625 52.3 31.175L52.3 37.55L50.534374 37.55L50.534374 31.2375Q50.534374 30.159374 50.33125 29.628124Q50.128124 29.096874 49.596874 28.784374Q49.08125 28.471874 48.378124 28.471874Q47.253124 28.471874 46.440624 29.190624Q45.628124 29.89375 45.628124 31.878124L45.628124 37.55L43.8625 37.55ZM60.64375 33.753124L62.3625 33.971874Q62.08125 35.76875 60.909374 36.784374Q59.753124 37.784374 58.05 37.784374Q55.925 37.784374 54.628124 36.39375Q53.33125 35.003124 53.33125 32.409374Q53.33125 30.721874 53.878124 29.471874Q54.440624 28.20625 55.58125 27.58125Q56.721874 26.940624 58.065624 26.940624Q59.753124 26.940624 60.815624 27.8Q61.89375 28.659374 62.20625 30.221874L60.4875 30.4875Q60.253124 29.440624 59.628124 28.925Q59.003124 28.39375 58.128124 28.39375Q56.8 28.39375 55.971874 29.346874Q55.14375 30.3 55.14375 32.346874Q55.14375 34.440624 55.940624 35.39375Q56.7375 36.33125 58.034374 36.33125Q59.065624 36.33125 59.753124 35.70625Q60.45625 35.065624 60.64375 33.753124ZM63.8625 37.55L63.8625 23.2375L65.62813 23.2375L65.62813 28.3625Q66.8625 26.940624 68.7375 26.940624Q69.87813 26.940624 70.72188 27.39375Q71.58125 27.846874 71.94063 28.659374Q72.31563 29.45625 72.31563 30.971874L72.31563 37.55L70.56563 37.55L70.56563 30.971874Q70.56563 29.659374 69.9875 29.065624Q69.40938 28.45625 68.37813 28.45625Q67.59688 28.45625 66.89375 28.8625Q66.20625 29.26875 65.90938 29.971874Q65.62813 30.659374 65.62813 31.878124L65.62813 37.55L63.8625 37.55ZM73.8625 37.55L73.8625 27.175L75.44063 27.175L75.44063 28.628124Q75.925 27.878124 76.7375 27.409374Q77.55 26.940624 78.58125 26.940624Q79.7375 26.940624 80.47188 27.425Q81.20625 27.89375 81.51875 28.753124Q82.75313 26.940624 84.72188 26.940624Q86.26875 26.940624 87.09688 27.8Q87.925 28.659374 87.925 30.425L87.925 37.55L86.175 37.55L86.175 31.01875Q86.175 29.95625 86.00313 29.503124Q85.83125 29.034374 85.37813 28.753124Q84.94063 28.471874 84.33125 28.471874Q83.2375 28.471874 82.50313 29.20625Q81.78438 29.925 81.78438 31.51875L81.78438 37.55L80.03438 37.55L80.03438 30.815624Q80.03438 29.64375 79.59688 29.065624Q79.175 28.471874 78.19063 28.471874Q77.45625 28.471874 76.81563 28.8625Q76.19063 29.253124 75.90938 30.003124Q75.62813 30.753124 75.62813 32.175L75.62813 37.55L73.8625 37.55ZM96.64375 36.26875Q95.65938 37.096874 94.75313 37.440624Q93.84688 37.784374 92.81563 37.784374Q91.1125 37.784374 90.19063 36.95625Q89.26875 36.1125 89.26875 34.815624Q89.26875 34.05 89.6125 33.425Q89.97188 32.8 90.53438 32.425Q91.09688 32.034374 91.8 31.83125Q92.31563 31.70625 93.3625 31.565624Q95.4875 31.315624 96.4875 30.971874Q96.50313 30.6125 96.50313 30.503124Q96.50313 29.440624 96.00313 28.9875Q95.33125 28.39375 94.00313 28.39375Q92.75313 28.39375 92.15938 28.83125Q91.58125 29.26875 91.3 30.378124L89.58125 30.14375Q89.81563 29.034374 90.34688 28.3625Q90.87813 27.675 91.89375 27.315624Q92.90938 26.940624 94.25313 26.940624Q95.58125 26.940624 96.40938 27.253124Q97.2375 27.565624 97.62813 28.05Q98.01875 28.51875 98.175 29.2375Q98.26875 29.690624 98.26875 30.8625L98.26875 33.20625Q98.26875 35.659374 98.37813 36.315624Q98.4875 36.95625 98.83125 37.55L96.9875 37.55Q96.72188 37.003124 96.64375 36.26875ZM96.4875 32.346874Q95.53438 32.7375 93.6125 33.003124Q92.53438 33.159374 92.08125 33.3625Q91.64375 33.55 91.39375 33.925Q91.14375 34.3 91.14375 34.76875Q91.14375 35.471874 91.675 35.940624Q92.20625 36.409374 93.2375 36.409374Q94.25313 36.409374 95.03438 35.971874Q95.83125 35.51875 96.20625 34.753124Q96.4875 34.14375 96.4875 32.9875L96.4875 32.346874ZM100.84688 37.55L100.84688 27.175L102.425 27.175L102.425 28.753124Q103.03438 27.64375 103.55 27.3Q104.06563 26.940624 104.675 26.940624Q105.56563 26.940624 106.4875 27.503124L105.87813 29.14375Q105.2375 28.753124 104.59688 28.753124Q104.01875 28.753124 103.55 29.1125Q103.09688 29.45625 102.89375 30.065624Q102.6125 31.003124 102.6125 32.1125L102.6125 37.55L100.84688 37.55ZM107.87813 37.55L107.87813 23.2375L109.64375 23.2375L109.64375 31.39375L113.8 27.175L116.06563 27.175L112.1125 31.01875L116.47188 37.55L114.3 37.55L110.87813 32.253124L109.64375 33.440624L109.64375 37.55L107.87813 37.55ZM124.12813 37.55L124.12813 23.2375L134.4875 23.2375L134.4875 24.925L126.03438 24.925L126.03438 29.3L133.94063 29.3L133.94063 30.9875L126.03438 30.9875L126.03438 35.8625L134.81563 35.8625L134.81563 37.55L124.12813 37.55ZM137.09688 37.55L137.09688 23.2375L142.4875 23.2375Q143.925 23.2375 144.675 23.3625Q145.72188 23.55 146.44063 24.05Q147.15938 24.534374 147.58125 25.425Q148.01875 26.315624 148.01875 27.378124Q148.01875 29.20625 146.84688 30.471874Q145.69063 31.721874 142.65938 31.721874L138.9875 31.721874L138.9875 37.55L137.09688 37.55ZM138.9875 30.034374L142.69063 30.034374Q144.51875 30.034374 145.28438 29.3625Q146.06563 28.675 146.06563 27.425Q146.06563 26.534374 145.6125 25.89375Q145.15938 25.253124 144.425 25.05Q143.94063 24.925 142.64375 24.925L138.9875 24.925L138.9875 30.034374ZM149.45625 32.95625L151.2375 32.8Q151.3625 33.8625 151.81563 34.55Q152.28438 35.2375 153.25313 35.675Q154.2375 36.096874 155.47188 36.096874Q156.55 36.096874 157.37813 35.784374Q158.20625 35.45625 158.6125 34.89375Q159.01875 34.33125 159.01875 33.659374Q159.01875 32.9875 158.62813 32.4875Q158.2375 31.9875 157.34688 31.64375Q156.76875 31.409374 154.78438 30.940624Q152.81563 30.471874 152.03438 30.05Q151.00313 29.51875 150.50313 28.721874Q150.00313 27.925 150.00313 26.940624Q150.00313 25.846874 150.6125 24.909374Q151.22188 23.971874 152.40938 23.4875Q153.59688 22.9875 155.03438 22.9875Q156.62813 22.9875 157.84688 23.503124Q159.06563 24.01875 159.70625 25.01875Q160.3625 26.003124 160.40938 27.26875L158.59688 27.409374Q158.45625 26.05 157.6125 25.3625Q156.76875 24.659374 155.1125 24.659374Q153.39375 24.659374 152.59688 25.3Q151.81563 25.925 151.81563 26.8Q151.81563 27.58125 152.37813 28.08125Q152.925 28.58125 155.2375 29.096874Q157.55 29.6125 158.40938 30.003124Q159.65938 30.58125 160.25313 31.471874Q160.84688 32.346874 160.84688 33.503124Q160.84688 34.64375 160.19063 35.659374Q159.53438 36.675 158.3 37.2375Q157.08125 37.8 155.55 37.8Q153.6125 37.8 152.3 37.2375Q150.9875 36.659374 150.2375 35.51875Q149.4875 34.378124 149.45625 32.95625ZM168.15938 34.45625L169.90938 34.175Q170.05 35.221874 170.72188 35.784374Q171.39375 36.33125 172.59688 36.33125Q173.8 36.33125 174.37813 35.846874Q174.97188 35.346874 174.97188 34.690624Q174.97188 34.096874 174.45625 33.753124Q174.09688 33.51875 172.65938 33.159374Q170.72188 32.659374 169.97188 32.315624Q169.2375 31.95625 168.84688 31.33125Q168.45625 30.690624 168.45625 29.925Q168.45625 29.2375 168.76875 28.64375Q169.09688 28.05 169.64375 27.659374Q170.05 27.3625 170.75313 27.159374Q171.47188 26.940624 172.28438 26.940624Q173.50313 26.940624 174.425 27.3Q175.34688 27.64375 175.78438 28.253124Q176.22188 28.846874 176.39375 29.846874L174.675 30.08125Q174.55 29.284374 173.9875 28.846874Q173.425 28.39375 172.40938 28.39375Q171.19063 28.39375 170.675 28.8Q170.15938 29.190624 170.15938 29.721874Q170.15938 30.065624 170.37813 30.346874Q170.58125 30.628124 171.05 30.815624Q171.31563 30.909374 172.59688 31.253124Q174.47188 31.753124 175.20625 32.08125Q175.94063 32.39375 176.3625 33.003124Q176.78438 33.596874 176.78438 34.503124Q176.78438 35.378124 176.26875 36.159374Q175.75313 36.940624 174.78438 37.3625Q173.81563 37.784374 172.59688 37.784374Q170.58125 37.784374 169.51875 36.940624Q168.45625 36.096874 168.15938 34.45625ZM178.83125 37.55L178.83125 23.2375L180.58125 23.2375L180.58125 37.55L178.83125 37.55ZM189.97188 34.20625L191.78438 34.440624Q191.3625 36.01875 190.19063 36.909374Q189.03438 37.784374 187.22188 37.784374Q184.95625 37.784374 183.6125 36.39375Q182.28438 34.9875 182.28438 32.45625Q182.28438 29.83125 183.62813 28.39375Q184.97188 26.940624 187.12813 26.940624Q189.20625 26.940624 190.51875 28.3625Q191.84688 29.76875 191.84688 32.346874Q191.84688 32.503124 191.83125 32.815624L184.09688 32.815624Q184.19063 34.51875 185.06563 35.425Q185.94063 36.33125 187.2375 36.33125Q188.20625 36.33125 188.87813 35.83125Q189.56563 35.315624 189.97188 34.20625ZM184.19063 31.3625L189.9875 31.3625Q189.87813 30.065624 189.33125 29.409374Q188.4875 28.39375 187.14375 28.39375Q185.94063 28.39375 185.1125 29.20625Q184.28438 30.003124 184.19063 31.3625ZM200.97188 34.20625L202.78438 34.440624Q202.3625 36.01875 201.19063 36.909374Q200.03438 37.784374 198.22188 37.784374Q195.95625 37.784374 194.6125 36.39375Q193.28438 34.9875 193.28438 32.45625Q193.28438 29.83125 194.62813 28.39375Q195.97188 26.940624 198.12813 26.940624Q200.20625 26.940624 201.51875 28.3625Q202.84688 29.76875 202.84688 32.346874Q202.84688 32.503124 202.83125 32.815624L195.09688 32.815624Q195.19063 34.51875 196.06563 35.425Q196.94063 36.33125 198.2375 36.33125Q199.20625 36.33125 199.87813 35.83125Q200.56563 35.315624 200.97188 34.20625ZM195.19063 31.3625L200.9875 31.3625Q200.87813 30.065624 200.33125 29.409374Q199.4875 28.39375 198.14375 28.39375Q196.94063 28.39375 196.1125 29.20625Q195.28438 30.003124 195.19063 31.3625ZM204.8625 41.51875L204.8625 27.175L206.47188 27.175L206.47188 28.51875Q207.03438 27.7375 207.7375 27.346874Q208.45625 26.940624 209.47188 26.940624Q210.8 26.940624 211.81563 27.628124Q212.83125 28.315624 213.34688 29.565624Q213.87813 30.8 213.87813 32.284374Q213.87813 33.878124 213.3 35.159374Q212.7375 36.425 211.64375 37.1125Q210.55 37.784374 209.34688 37.784374Q208.47188 37.784374 207.76875 37.409374Q207.08125 37.034374 206.62813 36.471874L206.62813 41.51875L204.8625 41.51875ZM206.45625 32.425Q206.45625 34.425 207.26875 35.378124Q208.08125 36.33125 209.2375 36.33125Q210.40938 36.33125 211.2375 35.346874Q212.08125 34.3625 212.08125 32.26875Q212.08125 30.3 211.25313 29.315624Q210.44063 28.315624 209.31563 28.315624Q208.19063 28.315624 207.31563 29.378124Q206.45625 30.425 206.45625 32.425ZM221.39375 33.76875L223.14375 33.534374Q223.45625 35.034374 224.175 35.690624Q224.90938 36.346874 225.95625 36.346874Q227.19063 36.346874 228.03438 35.4875Q228.89375 34.628124 228.89375 33.3625Q228.89375 32.14375 228.09688 31.3625Q227.31563 30.58125 226.09688 30.58125Q225.59688 30.58125 224.8625 30.76875L225.05 29.221874Q225.22188 29.253124 225.33125 29.253124Q226.45625 29.253124 227.34688 28.675Q228.25313 28.08125 228.25313 26.8625Q228.25313 25.89375 227.59688 25.253124Q226.94063 24.6125 225.90938 24.6125Q224.89375 24.6125 224.20625 25.26875Q223.51875 25.909374 223.33125 27.190624L221.56563 26.878124Q221.89375 25.1125 223.03438 24.14375Q224.175 23.175 225.87813 23.175Q227.05 23.175 228.03438 23.675Q229.01875 24.175 229.53438 25.05Q230.06563 25.925 230.06563 26.89375Q230.06563 27.815624 229.56563 28.58125Q229.06563 29.346874 228.09688 29.8Q229.3625 30.08125 230.06563 31.01875Q230.76875 31.940624 230.76875 33.315624Q230.76875 35.190624 229.39375 36.503124Q228.03438 37.8 225.94063 37.8Q224.05 37.8 222.8 36.675Q221.56563 35.55 221.39375 33.76875ZM239.00313 37.55L237.2375 37.55L237.2375 26.346874Q236.6125 26.95625 235.58125 27.565624Q234.55 28.159374 233.72188 28.471874L233.72188 26.76875Q235.20625 26.08125 236.3 25.096874Q237.40938 24.096874 237.8625 23.175L239.00313 23.175L239.00313 37.55ZM243.37813 30.4875Q243.37813 27.95625 243.89375 26.409374Q244.425 24.846874 245.45625 24.01875Q246.4875 23.175 248.05 23.175Q249.20625 23.175 250.06563 23.64375Q250.94063 24.096874 251.50313 24.971874Q252.06563 25.846874 252.39375 27.1125Q252.72188 28.3625 252.72188 30.4875Q252.72188 33.003124 252.19063 34.55Q251.675 36.096874 250.64375 36.95625Q249.62813 37.8 248.05 37.8Q245.97188 37.8 244.8 36.315624Q243.37813 34.51875 243.37813 30.4875ZM245.19063 30.4875Q245.19063 34.01875 246.00313 35.190624Q246.83125 36.346874 248.05 36.346874Q249.25313 36.346874 250.08125 35.175Q250.90938 34.003124 250.90938 30.4875Q250.90938 26.95625 250.08125 25.8Q249.25313 24.628124 248.03438 24.628124Q246.81563 24.628124 246.09688 25.659374Q245.19063 26.95625 245.19063 30.4875ZM254.8625 37.55L254.8625 27.175L256.45624 27.175L256.45624 28.659374Q257.59686 26.940624 259.7531 26.940624Q260.6906 26.940624 261.47186 27.284374Q262.26874 27.6125 262.65936 28.159374Q263.05 28.70625 263.20624 29.45625Q263.3 29.95625 263.3 31.175L263.3 37.55L261.53436 37.55L261.53436 31.2375Q261.53436 30.159374 261.33124 29.628124Q261.1281 29.096874 260.59686 28.784374Q260.08124 28.471874 259.3781 28.471874Q258.2531 28.471874 257.4406 29.190624Q256.6281 29.89375 256.6281 31.878124L256.6281 37.55L254.8625 37.55ZM264.15936 34.45625L265.90936 34.175Q266.05 35.221874 266.72186 35.784374Q267.39374 36.33125 268.59686 36.33125Q269.8 36.33125 270.3781 35.846874Q270.97186 35.346874 270.97186 34.690624Q270.97186 34.096874 270.45624 33.753124Q270.09686 33.51875 268.65936 33.159374Q266.72186 32.659374 265.97186 32.315624Q265.2375 31.95625 264.84686 31.33125Q264.45624 30.690624 264.45624 29.925Q264.45624 29.2375 264.76874 28.64375Q265.09686 28.05 265.64374 27.659374Q266.05 27.3625 266.7531 27.159374Q267.47186 26.940624 268.28436 26.940624Q269.5031 26.940624 270.425 27.3Q271.34686 27.64375 271.78436 28.253124Q272.22186 28.846874 272.39374 29.846874L270.675 30.08125Q270.55 29.284374 269.9875 28.846874Q269.425 28.39375 268.40936 28.39375Q267.1906 28.39375 266.675 28.8Q266.15936 29.190624 266.15936 29.721874Q266.15936 30.065624 266.3781 30.346874Q266.58124 30.628124 267.05 30.815624Q267.3156 30.909374 268.59686 31.253124Q270.47186 31.753124 271.20624 32.08125Q271.9406 32.39375 272.3625 33.003124Q272.78436 33.596874 272.78436 34.503124Q272.78436 35.378124 272.26874 36.159374Q271.7531 36.940624 270.78436 37.3625Q269.8156 37.784374 268.59686 37.784374Q266.58124 37.784374 265.51874 36.940624Q264.45624 36.096874 264.15936 34.45625Z" fill-rule="nonzero"/></svg>