<svg version="1.1" viewBox="0.0 0.0 600.0 371.0" fill="none" stroke="none" stroke-linecap="square" stroke-miterlimit="10" width="600" height="371" xmlns:xlink="http://www.w3.org/1999/xlink" xmlns="http://www.w3.org/2000/svg"><path fill="#ffffff" d="M0 0L600.0 0L600.0 371.0L0 371.0L0 0Z" fill-rule="nonzero"/><path stroke="#333333" stroke-width="1.0" stroke-linecap="butt" d="M77.5 278.5L581.5 278.5" fill-rule="nonzero"/><path stroke="#cccccc" stroke-width="1.0" stroke-linecap="butt" d="M77.5 215.5L581.5 215.5" fill-rule="nonzero"/><path stroke="#cccccc" stroke-width="1.0" stroke-linecap="butt" d="M77.5 151.5L581.5 151.5" fill-rule="nonzero"/><path stroke="#cccccc" stroke-width="1.0" stroke-linecap="butt" d="M77.5 88.5L581.5 88.5" fill-rule="nonzero"/><clipPath id="id_0"><path d="M77.55 88.28333L581.45 88.28333L581.45 278.65833L77.55 278.65833L77.55 88.28333Z" clip-rule="nonzero"/></clipPath><path stroke="#000000" stroke-width="2.0" stroke-linecap="butt" stroke-opacity="0.0" clip-path="url(#id_0)" d="M140.0 279.0L111.0 279.0L111.0 196.0C111.0 194.89543 111.89543 194.0 113.0 194.0L138.0 194.0C139.10457 194.0 140.0 194.89543 140.0 196.0Z" fill-rule="nonzero"/><path fill="#4285f4" clip-path="url(#id_0)" d="M140.0 279.0L111.0 279.0L111.0 196.0C111.0 194.89543 111.89543 194.0 113.0 194.0L138.0 194.0C139.10457 194.0 140.0 194.89543 140.0 196.0Z" fill-rule="nonzero"/><path stroke="#000000" stroke-width="2.0" stroke-linecap="butt" stroke-opacity="0.0" clip-path="url(#id_0)" d="M234.0 279.0L205.0 279.0L205.0 225.0C205.0 223.89543 205.89543 223.0 207.0 223.0L232.0 223.0C233.10457 223.0 234.0 223.89543 234.0 225.0Z" fill-rule="nonzero"/><path fill="#4285f4" clip-path="url(#id_0)" d="M234.0 279.0L205.0 279.0L205.0 225.0C205.0 223.89543 205.89543 223.0 207.0 223.0L232.0 223.0C233.10457 223.0 234.0 223.89543 234.0 225.0Z" fill-rule="nonzero"/><path stroke="#000000" stroke-width="2.0" stroke-linecap="butt" stroke-opacity="0.0" clip-path="url(#id_0)" d="M329.0 279.0L300.0 279.0L300.0 267.0C300.0 265.89542 300.89542 265.0 302.0 265.0L327.0 265.0C328.10458 265.0 329.0 265.89542 329.0 267.0Z" fill-rule="nonzero"/><path fill="#4285f4" clip-path="url(#id_0)" d="M329.0 279.0L300.0 279.0L300.0 267.0C300.0 265.89542 300.89542 265.0 302.0 265.0L327.0 265.0C328.10458 265.0 329.0 265.89542 329.0 267.0Z" fill-rule="nonzero"/><path stroke="#000000" stroke-width="2.0" stroke-linecap="butt" stroke-opacity="0.0" clip-path="url(#id_0)" d="M423.0 279.0L394.0 279.0L394.0 219.0C394.0 217.89543 394.89542 217.0 396.0 217.0L421.0 217.0C422.10458 217.0 423.0 217.89543 423.0 219.0Z" fill-rule="nonzero"/><path fill="#4285f4" clip-path="url(#id_0)" d="M423.0 279.0L394.0 279.0L394.0 219.0C394.0 217.89543 394.89542 217.0 396.0 217.0L421.0 217.0C422.10458 217.0 423.0 217.89543 423.0 219.0Z" fill-rule="nonzero"/><path stroke="#000000" stroke-width="2.0" stroke-linecap="butt" stroke-opacity="0.0" clip-path="url(#id_0)" d="M517.0 279.0L488.0 279.0L488.0 98.0C488.0 96.89543 488.89542 96.0 490.0 96.0L515.0 96.0C516.10455 96.0 517.0 96.89543 517.0 98.0Z" fill-rule="nonzero"/><path fill="#4285f4" clip-path="url(#id_0)" d="M517.0 279.0L488.0 279.0L488.0 98.0C488.0 96.89543 488.89542 96.0 490.0 96.0L515.0 96.0C516.10455 96.0 517.0 96.89543 517.0 98.0Z" fill-rule="nonzero"/><path stroke="#000000" stroke-width="2.0" stroke-linecap="butt" stroke-opacity="0.0" clip-path="url(#id_0)" d="M171.0 279.0L142.0 279.0L142.0 220.0C142.0 218.89543 142.89543 218.0 144.0 218.0L169.0 218.0C170.10457 218.0 171.0 218.89543 171.0 220.0Z" fill-rule="nonzero"/><path fill="#ea4335" clip-path="url(#id_0)" d="M171.0 279.0L142.0 279.0L142.0 220.0C142.0 218.89543 142.89543 218.0 144.0 218.0L169.0 218.0C170.10457 218.0 171.0 218.89543 171.0 220.0Z" fill-rule="nonzero"/><path stroke="#000000" stroke-width="2.0" stroke-linecap="butt" stroke-opacity="0.0" clip-path="url(#id_0)" d="M265.0 279.0L236.0 279.0L236.0 259.0C236.0 257.89542 236.89543 257.0 238.0 257.0L263.0 257.0C264.10458 257.0 265.0 257.89542 265.0 259.0Z" fill-rule="nonzero"/><path fill="#ea4335" clip-path="url(#id_0)" d="M265.0 279.0L236.0 279.0L236.0 259.0C236.0 257.89542 236.89543 257.0 238.0 257.0L263.0 257.0C264.10458 257.0 265.0 257.89542 265.0 259.0Z" fill-rule="nonzero"/><path stroke="#000000" stroke-width="2.0" stroke-linecap="butt" stroke-opacity="0.0" clip-path="url(#id_0)" d="M360.0 279.0L331.0 279.0L331.0 267.0C331.0 265.89542 331.89542 265.0 333.0 265.0L358.0 265.0C359.10458 265.0 360.0 265.89542 360.0 267.0Z" fill-rule="nonzero"/><path fill="#ea4335" clip-path="url(#id_0)" d="M360.0 279.0L331.0 279.0L331.0 267.0C331.0 265.89542 331.89542 265.0 333.0 265.0L358.0 265.0C359.10458 265.0 360.0 265.89542 360.0 267.0Z" fill-rule="nonzero"/><path stroke="#000000" stroke-width="2.0" stroke-linecap="butt" stroke-opacity="0.0" clip-path="url(#id_0)" d="M454.0 279.0L425.0 279.0L425.0 262.0C425.0 260.89542 425.89542 260.0 427.0 260.0L452.0 260.0C453.10458 260.0 454.0 260.89542 454.0 262.0Z" fill-rule="nonzero"/><path fill="#ea4335" clip-path="url(#id_0)" d="M454.0 279.0L425.0 279.0L425.0 262.0C425.0 260.89542 425.89542 260.0 427.0 260.0L452.0 260.0C453.10458 260.0 454.0 260.89542 454.0 262.0Z" fill-rule="nonzero"/><path stroke="#000000" stroke-width="2.0" stroke-linecap="butt" stroke-opacity="0.0" clip-path="url(#id_0)" d="M548.0 279.0L519.0 279.0L519.0 152.0C519.0 150.89543 519.89545 150.0 521.0 150.0L546.0 150.0C547.10455 150.0 548.0 150.89543 548.0 152.0Z" fill-rule="nonzero"/><path fill="#ea4335" clip-path="url(#id_0)" d="M548.0 279.0L519.0 279.0L519.0 152.0C519.0 150.89543 519.89545 150.0 521.0 150.0L546.0 150.0C547.10455 150.0 548.0 150.89543 548.0 152.0Z" fill-rule="nonzero"/><path fill="#000000" d="M29.550013 296.4448L20.956263 296.4448L20.956263 295.28854L27.706263 290.77292L20.956263 290.77292L20.956263 289.67917L29.550013 289.67917L29.550013 290.85104L22.800013 295.36667L29.550013 295.36667L29.550013 296.4448ZM28.784388 283.5073Q29.284388 284.10104 29.487513 284.64792Q29.690638 285.17917 29.690638 285.80417Q29.690638 286.83542 29.190638 287.3823Q28.690638 287.92917 27.909388 287.92917Q27.456263 287.92917 27.081263 287.72604Q26.690638 287.52292 26.471888 287.17917Q26.237513 286.83542 26.128138 286.41354Q26.034388 286.11667 25.956263 285.47604Q25.815638 284.21042 25.596888 283.60104Q25.378138 283.60104 25.331263 283.60104Q24.675013 283.60104 24.409388 283.89792Q24.065638 284.30417 24.065638 285.10104Q24.065638 285.83542 24.331263 286.1948Q24.581263 286.55417 25.237513 286.72604L25.096888 287.7573Q24.440638 287.61667 24.034388 287.28854Q23.628138 286.96042 23.409388 286.35104Q23.190638 285.74167 23.190638 284.9448Q23.190638 284.14792 23.378138 283.64792Q23.565638 283.14792 23.846888 282.91354Q24.128138 282.67917 24.565638 282.58542Q24.831263 282.53854 25.534388 282.53854L26.940638 282.53854Q28.409388 282.53854 28.800013 282.47604Q29.190638 282.39792 29.550013 282.1948L29.550013 283.30417Q29.221888 283.46042 28.784388 283.5073ZM26.425013 283.60104Q26.659388 284.17917 26.831263 285.3198Q26.925013 285.97604 27.050013 286.24167Q27.159388 286.5073 27.378138 286.66354Q27.596888 286.80417 27.878138 286.80417Q28.300013 286.80417 28.581263 286.49167Q28.862513 286.16354 28.862513 285.55417Q28.862513 284.9448 28.596888 284.47604Q28.331263 283.99167 27.862513 283.77292Q27.503138 283.60104 26.815638 283.60104L26.425013 283.60104ZM29.550013 280.5698L23.331263 280.5698L23.331263 279.6323L24.206263 279.6323Q23.190638 278.9448 23.190638 277.64792Q23.190638 277.08542 23.393763 276.61667Q23.596888 276.1323 23.925013 275.89792Q24.253138 275.66354 24.690638 275.5698Q24.987513 275.52292 25.721888 275.52292L29.550013 275.52292L29.550013 276.5698L25.768763 276.5698Q25.112513 276.5698 24.800013 276.6948Q24.487513 276.8198 24.300013 277.1323Q24.096888 277.4448 24.096888 277.86667Q24.096888 278.53854 24.534388 279.03854Q24.956263 279.52292 26.143763 279.52292L29.550013 279.52292L29.550013 280.5698ZM26.440638 273.96042Q24.706263 273.96042 23.878138 273.0073Q23.190638 272.21042 23.190638 271.05417Q23.190638 269.77292 24.034388 268.96042Q24.862513 268.1323 26.346888 268.1323Q27.550013 268.1323 28.237513 268.49167Q28.925013 268.85104 29.315638 269.55417Q29.690638 270.24167 29.690638 271.05417Q29.690638 272.35104 28.862513 273.16354Q28.018763 273.96042 26.440638 273.96042ZM26.440638 272.8823Q27.628138 272.8823 28.221888 272.36667Q28.815638 271.83542 28.815638 271.05417Q28.815638 270.2573 28.221888 269.74167Q27.628138 269.22604 26.409388 269.22604Q25.253138 269.22604 24.659388 269.7573Q24.065638 270.27292 24.065638 271.05417Q24.065638 271.83542 24.659388 272.36667Q25.237513 272.8823 26.440638 272.8823ZM27.690638 266.99167L27.534388 265.96042Q28.159388 265.86667 28.487513 265.47604Q28.815638 265.0698 28.815638 264.33542Q28.815638 263.61667 28.534388 263.27292Q28.237513 262.91354 27.831263 262.91354Q27.471888 262.91354 27.268763 263.22604Q27.128138 263.4448 26.909388 264.30417Q26.612513 265.46042 26.409388 265.91354Q26.190638 266.35104 25.815638 266.58542Q25.440638 266.8198 24.971888 266.8198Q24.565638 266.8198 24.206263 266.6323Q23.846888 266.4448 23.612513 266.11667Q23.440638 265.86667 23.315638 265.4448Q23.190638 265.02292 23.190638 264.52292Q23.190638 263.80417 23.409388 263.2573Q23.612513 262.6948 23.971888 262.42917Q24.331263 262.16354 24.925013 262.0698L25.065638 263.10104Q24.596888 263.16354 24.331263 263.5073Q24.050013 263.83542 24.050013 264.46042Q24.050013 265.17917 24.300013 265.49167Q24.534388 265.80417 24.862513 265.80417Q25.065638 265.80417 25.221888 265.67917Q25.393763 265.53854 25.503138 265.27292Q25.565638 265.11667 25.768763 264.33542Q26.081263 263.21042 26.268763 262.77292Q26.456263 262.33542 26.815638 262.08542Q27.175013 261.83542 27.721888 261.83542Q28.253138 261.83542 28.721888 262.14792Q29.175013 262.4448 29.440638 263.02292Q29.690638 263.60104 29.690638 264.33542Q29.690638 265.55417 29.190638 266.1948Q28.675013 266.8198 27.690638 266.99167ZM27.550013 255.3198L27.675013 254.22604Q28.628138 254.47604 29.159388 255.17917Q29.690638 255.8823 29.690638 256.96042Q29.690638 258.3198 28.846888 259.1323Q28.003138 259.92917 26.487513 259.92917Q24.925013 259.92917 24.065638 259.11667Q23.190638 258.30417 23.190638 257.02292Q23.190638 255.77292 24.034388 254.99167Q24.878138 254.1948 26.425013 254.1948Q26.518763 254.1948 26.706263 254.1948L26.706263 258.83542Q27.737513 258.77292 28.284388 258.2573Q28.815638 257.74167 28.815638 256.96042Q28.815638 256.3823 28.518763 255.97604Q28.206263 255.55417 27.550013 255.3198ZM25.846888 258.77292L25.846888 255.30417Q25.050013 255.36667 24.659388 255.6948Q24.050013 256.21042 24.050013 257.0073Q24.050013 257.74167 24.534388 258.24167Q25.018763 258.72604 25.846888 258.77292ZM27.268763 248.5073L27.409388 247.47604Q28.471888 247.64792 29.081263 248.35104Q29.690638 249.05417 29.690638 250.0698Q29.690638 251.35104 28.862513 252.1323Q28.018763 252.89792 26.456263 252.89792Q25.456263 252.89792 24.706263 252.5698Q23.940638 252.22604 23.565638 251.55417Q23.190638 250.86667 23.190638 250.05417Q23.190638 249.05417 23.706263 248.41354Q24.206263 247.7573 25.159388 247.5698L25.315638 248.60104Q24.690638 248.74167 24.378138 249.11667Q24.050013 249.49167 24.050013 250.02292Q24.050013 250.8198 24.628138 251.3198Q25.190638 251.8198 26.425013 251.8198Q27.690638 251.8198 28.253138 251.33542Q28.815638 250.85104 28.815638 250.08542Q28.815638 249.46042 28.440638 249.05417Q28.065638 248.6323 27.268763 248.5073ZM26.440638 246.96042Q24.706263 246.96042 23.878138 246.0073Q23.190638 245.21042 23.190638 244.05417Q23.190638 242.77292 24.034388 241.96042Q24.862513 241.1323 26.346888 241.1323Q27.550013 241.1323 28.237513 241.49167Q28.925013 241.85104 29.315638 242.55417Q29.690638 243.24167 29.690638 244.05417Q29.690638 245.35104 28.862513 246.16354Q28.018763 246.96042 26.440638 246.96042ZM26.440638 245.8823Q27.628138 245.8823 28.221888 245.36667Q28.815638 244.83542 28.815638 244.05417Q28.815638 243.2573 28.221888 242.74167Q27.628138 242.22604 26.409388 242.22604Q25.253138 242.22604 24.659388 242.7573Q24.065638 243.27292 24.065638 244.05417Q24.065638 244.83542 24.659388 245.36667Q25.237513 245.8823 26.440638 245.8823ZM29.550013 239.5698L23.331263 239.5698L23.331263 238.6323L24.206263 238.6323Q23.190638 237.9448 23.190638 236.64792Q23.190638 236.08542 23.393763 235.61667Q23.596888 235.1323 23.925013 234.89792Q24.253138 234.66354 24.690638 234.5698Q24.987513 234.52292 25.721888 234.52292L29.550013 234.52292L29.550013 235.5698L25.768763 235.5698Q25.112513 235.5698 24.800013 235.6948Q24.487513 235.8198 24.300013 236.1323Q24.096888 236.4448 24.096888 236.86667Q24.096888 237.53854 24.534388 238.03854Q24.956263 238.52292 26.143763 238.52292L29.550013 238.52292L29.550013 239.5698ZM29.550013 228.53854L28.768763 228.53854Q29.690638 229.1323 29.690638 230.27292Q29.690638 231.02292 29.284388 231.64792Q28.862513 232.27292 28.128138 232.61667Q27.393763 232.96042 26.440638 232.96042Q25.518763 232.96042 24.753138 232.64792Q23.987513 232.33542 23.596888 231.71042Q23.190638 231.08542 23.190638 230.3198Q23.190638 229.7573 23.425013 229.3198Q23.659388 228.8823 24.034388 228.60104L20.956263 228.60104L20.956263 227.55417L29.550013 227.55417L29.550013 228.53854ZM26.440638 231.86667Q27.643763 231.86667 28.237513 231.36667Q28.815638 230.86667 28.815638 230.17917Q28.815638 229.49167 28.253138 229.0073Q27.690638 228.52292 26.534388 228.52292Q25.253138 228.52292 24.659388 229.02292Q24.065638 229.5073 24.065638 230.22604Q24.065638 230.92917 24.643763 231.39792Q25.206263 231.86667 26.440638 231.86667ZM27.690638 225.99167L27.534388 224.96042Q28.159388 224.86667 28.487513 224.47604Q28.815638 224.0698 28.815638 223.33542Q28.815638 222.61667 28.534388 222.27292Q28.237513 221.91354 27.831263 221.91354Q27.471888 221.91354 27.268763 222.22604Q27.128138 222.4448 26.909388 223.30417Q26.612513 224.46042 26.409388 224.91354Q26.190638 225.35104 25.815638 225.58542Q25.440638 225.8198 24.971888 225.8198Q24.565638 225.8198 24.206263 225.6323Q23.846888 225.4448 23.612513 225.11667Q23.440638 224.86667 23.315638 224.4448Q23.190638 224.02292 23.190638 223.52292Q23.190638 222.80417 23.409388 222.2573Q23.612513 221.6948 23.971888 221.42917Q24.331263 221.16354 24.925013 221.0698L25.065638 222.10104Q24.596888 222.16354 24.331263 222.5073Q24.050013 222.83542 24.050013 223.46042Q24.050013 224.17917 24.300013 224.49167Q24.534388 224.80417 24.862513 224.80417Q25.065638 224.80417 25.221888 224.67917Q25.393763 224.53854 25.503138 224.27292Q25.565638 224.11667 25.768763 223.33542Q26.081263 222.21042 26.268763 221.77292Q26.456263 221.33542 26.815638 221.08542Q27.175013 220.83542 27.721888 220.83542Q28.253138 220.83542 28.721888 221.14792Q29.175013 221.4448 29.440638 222.02292Q29.690638 222.60104 29.690638 223.33542Q29.690638 224.55417 29.190638 225.1948Q28.675013 225.8198 27.690638 225.99167ZM29.550013 218.30417L28.346888 218.30417L28.346888 217.10104L29.550013 217.10104Q30.206263 217.10104 30.612513 217.33542Q31.034388 217.5698 31.253138 218.0698L30.800013 218.36667Q30.659388 218.03854 30.362513 217.8823Q30.081263 217.72604 29.550013 217.6948L29.550013 218.30417ZM29.550013 212.60104L20.956263 212.60104L20.956263 211.53854L29.550013 211.53854L29.550013 212.60104ZM26.440638 209.96042Q24.706263 209.96042 23.878138 209.0073Q23.190638 208.21042 23.190638 207.05417Q23.190638 205.77292 24.034388 204.96042Q24.862513 204.1323 26.346888 204.1323Q27.550013 204.1323 28.237513 204.49167Q28.925013 204.85104 29.315638 205.55417Q29.690638 206.24167 29.690638 207.05417Q29.690638 208.35104 28.862513 209.16354Q28.018763 209.96042 26.440638 209.96042ZM26.440638 208.8823Q27.628138 208.8823 28.221888 208.36667Q28.815638 207.83542 28.815638 207.05417Q28.815638 206.2573 28.221888 205.74167Q27.628138 205.22604 26.409388 205.22604Q25.253138 205.22604 24.659388 205.7573Q24.065638 206.27292 24.065638 207.05417Q24.065638 207.83542 24.659388 208.36667Q25.237513 208.8823 26.440638 208.8823ZM29.550013 201.42917L23.331263 203.33542L23.331263 202.24167L26.925013 201.2573L28.253138 200.8823Q28.159388 200.85104 26.971888 200.55417L23.331263 199.5698L23.331263 198.49167L26.940638 197.55417L28.128138 197.24167L26.925013 196.8823L23.331263 195.8198L23.331263 194.78854L29.550013 196.74167L29.550013 197.83542L25.815638 198.8198L24.768763 199.0698L29.550013 200.3198L29.550013 201.42917ZM27.550013 189.3198L27.675013 188.22604Q28.628138 188.47604 29.159388 189.17917Q29.690638 189.8823 29.690638 190.96042Q29.690638 192.3198 28.846888 193.1323Q28.003138 193.92917 26.487513 193.92917Q24.925013 193.92917 24.065638 193.11667Q23.190638 192.30417 23.190638 191.02292Q23.190638 189.77292 24.034388 188.99167Q24.878138 188.1948 26.425013 188.1948Q26.518763 188.1948 26.706263 188.1948L26.706263 192.83542Q27.737513 192.77292 28.284388 192.2573Q28.815638 191.74167 28.815638 190.96042Q28.815638 190.3823 28.518763 189.97604Q28.206263 189.55417 27.550013 189.3198ZM25.846888 192.77292L25.846888 189.30417Q25.050013 189.36667 24.659388 189.6948Q24.050013 190.21042 24.050013 191.0073Q24.050013 191.74167 24.534388 192.24167Q25.018763 192.72604 25.846888 192.77292ZM29.550013 186.58542L23.331263 186.58542L23.331263 185.6323L24.268763 185.6323Q23.612513 185.27292 23.409388 184.97604Q23.190638 184.66354 23.190638 184.28854Q23.190638 183.7573 23.518763 183.21042L24.503138 183.5698Q24.268763 183.96042 24.268763 184.33542Q24.268763 184.6948 24.487513 184.97604Q24.690638 185.24167 25.065638 185.35104Q25.628138 185.53854 26.284388 185.53854L29.550013 185.53854L29.550013 186.58542ZM22.175013 179.5698L20.956263 179.5698L20.956263 178.5073L22.175013 178.5073L22.175013 179.5698ZM29.550013 179.5698L23.331263 179.5698L23.331263 178.5073L29.550013 178.5073L29.550013 179.5698ZM27.690638 176.99167L27.534388 175.96042Q28.159388 175.86667 28.487513 175.47604Q28.815638 175.0698 28.815638 174.33542Q28.815638 173.61667 28.534388 173.27292Q28.237513 172.91354 27.831263 172.91354Q27.471888 172.91354 27.268763 173.22604Q27.128138 173.4448 26.909388 174.30417Q26.612513 175.46042 26.409388 175.91354Q26.190638 176.35104 25.815638 176.58542Q25.440638 176.8198 24.971888 176.8198Q24.565638 176.8198 24.206263 176.6323Q23.846888 176.4448 23.612513 176.11667Q23.440638 175.86667 23.315638 175.4448Q23.190638 175.02292 23.190638 174.52292Q23.190638 173.80417 23.409388 173.2573Q23.612513 172.6948 23.971888 172.42917Q24.331263 172.16354 24.925013 172.0698L25.065638 173.10104Q24.596888 173.16354 24.331263 173.5073Q24.050013 173.83542 24.050013 174.46042Q24.050013 175.17917 24.300013 175.49167Q24.534388 175.80417 24.862513 175.80417Q25.065638 175.80417 25.221888 175.67917Q25.393763 175.53854 25.503138 175.27292Q25.565638 175.11667 25.768763 174.33542Q26.081263 173.21042 26.268763 172.77292Q26.456263 172.33542 26.815638 172.08542Q27.175013 171.83542 27.721888 171.83542Q28.253138 171.83542 28.721888 172.14792Q29.175013 172.4448 29.440638 173.02292Q29.690638 173.60104 29.690638 174.33542Q29.690638 175.55417 29.190638 176.1948Q28.675013 176.8198 27.690638 176.99167ZM29.550013 165.60104L29.550013 166.58542L20.956263 166.58542L20.956263 165.52292L24.018763 165.52292Q23.190638 164.85104 23.190638 163.8198Q23.190638 163.24167 23.425013 162.74167Q23.643763 162.22604 24.065638 161.89792Q24.487513 161.55417 25.081263 161.36667Q25.675013 161.17917 26.346888 161.17917Q27.940638 161.17917 28.815638 161.97604Q29.690638 162.77292 29.690638 163.86667Q29.690638 164.97604 28.768763 165.60104L29.550013 165.60104ZM26.393763 165.61667Q27.503138 165.61667 28.003138 165.30417Q28.815638 164.80417 28.815638 163.96042Q28.815638 163.27292 28.221888 162.77292Q27.628138 162.2573 26.425013 162.2573Q25.206263 162.2573 24.628138 162.74167Q24.050013 163.22604 24.050013 163.91354Q24.050013 164.60104 24.659388 165.11667Q25.253138 165.61667 26.393763 165.61667ZM27.550013 155.3198L27.675013 154.22604Q28.628138 154.47604 29.159388 155.17917Q29.690638 155.8823 29.690638 156.96042Q29.690638 158.3198 28.846888 159.1323Q28.003138 159.92917 26.487513 159.92917Q24.925013 159.92917 24.065638 159.11667Q23.190638 158.30417 23.190638 157.02292Q23.190638 155.77292 24.034388 154.99167Q24.878138 154.1948 26.425013 154.1948Q26.518763 154.1948 26.706263 154.1948L26.706263 158.83542Q27.737513 158.77292 28.284388 158.2573Q28.815638 157.74167 28.815638 156.96042Q28.815638 156.3823 28.518763 155.97604Q28.206263 155.55417 27.550013 155.3198ZM25.846888 158.77292L25.846888 155.30417Q25.050013 155.36667 24.659388 155.6948Q24.050013 156.21042 24.050013 157.0073Q24.050013 157.74167 24.534388 158.24167Q25.018763 158.72604 25.846888 158.77292ZM28.612513 150.27292L29.534388 150.11667Q29.628138 150.5698 29.628138 150.91354Q29.628138 151.49167 29.456263 151.80417Q29.268763 152.11667 28.971888 152.2573Q28.675013 152.3823 27.721888 152.3823L24.143763 152.3823L24.143763 153.14792L23.331263 153.14792L23.331263 152.3823L21.784388 152.3823L21.159388 151.33542L23.331263 151.33542L23.331263 150.27292L24.143763 150.27292L24.143763 151.33542L27.784388 151.33542Q28.237513 151.33542 28.362513 151.28854Q28.487513 151.22604 28.565638 151.10104Q28.643763 150.97604 28.643763 150.74167Q28.643763 150.55417 28.612513 150.27292ZM28.612513 147.27292L29.534388 147.11667Q29.628138 147.5698 29.628138 147.91354Q29.628138 148.49167 29.456263 148.80417Q29.268763 149.11667 28.971888 149.2573Q28.675013 149.3823 27.721888 149.3823L24.143763 149.3823L24.143763 150.14792L23.331263 150.14792L23.331263 149.3823L21.784388 149.3823L21.159388 148.33542L23.331263 148.33542L23.331263 147.27292L24.143763 147.27292L24.143763 148.33542L27.784388 148.33542Q28.237513 148.33542 28.362513 148.28854Q28.487513 148.22604 28.565638 148.10104Q28.643763 147.97604 28.643763 147.74167Q28.643763 147.55417 28.612513 147.27292ZM27.550013 142.3198L27.675013 141.22604Q28.628138 141.47604 29.159388 142.17917Q29.690638 142.8823 29.690638 143.96042Q29.690638 145.3198 28.846888 146.1323Q28.003138 146.92917 26.487513 146.92917Q24.925013 146.92917 24.065638 146.11667Q23.190638 145.30417 23.190638 144.02292Q23.190638 142.77292 24.034388 141.99167Q24.878138 141.1948 26.425013 141.1948Q26.518763 141.1948 26.706263 141.1948L26.706263 145.83542Q27.737513 145.77292 28.284388 145.2573Q28.815638 144.74167 28.815638 143.96042Q28.815638 143.3823 28.518763 142.97604Q28.206263 142.55417 27.550013 142.3198ZM25.846888 145.77292L25.846888 142.30417Q25.050013 142.36667 24.659388 142.6948Q24.050013 143.21042 24.050013 144.0073Q24.050013 144.74167 24.534388 145.24167Q25.018763 145.72604 25.846888 145.77292ZM29.550013 139.58542L23.331263 139.58542L23.331263 138.6323L24.268763 138.6323Q23.612513 138.27292 23.409388 137.97604Q23.190638 137.66354 23.190638 137.28854Q23.190638 136.7573 23.518763 136.21042L24.503138 136.5698Q24.268763 136.96042 24.268763 137.33542Q24.268763 137.6948 24.487513 137.97604Q24.690638 138.24167 25.065638 138.35104Q25.628138 138.53854 26.284388 138.53854L29.550013 138.53854L29.550013 139.58542Z" fill-rule="nonzero"/><path fill="#000000" d="M65.05 278.42395Q65.05 276.8927 65.3625 275.97083Q65.675 275.03333 66.28438 274.53333Q66.90938 274.03333 67.84688 274.03333Q68.53438 274.03333 69.05 274.31458Q69.58125 274.59583 69.925 275.12708Q70.26875 275.6427 70.45625 276.3927Q70.64375 277.1427 70.64375 278.42395Q70.64375 279.93958 70.33125 280.86145Q70.03438 281.78333 69.40938 282.29895Q68.8 282.79895 67.84688 282.79895Q66.6125 282.79895 65.89375 281.90833Q65.05 280.84583 65.05 278.42395ZM66.12813 278.42395Q66.12813 280.53333 66.62813 281.23645Q67.12813 281.93958 67.84688 281.93958Q68.58125 281.93958 69.06563 281.23645Q69.56563 280.53333 69.56563 278.42395Q69.56563 276.29895 69.06563 275.61145Q68.58125 274.90833 67.83125 274.90833Q67.1125 274.90833 66.675 275.5177Q66.12813 276.29895 66.12813 278.42395Z" fill-rule="nonzero"/><path fill="#000000" d="M58.05 216.95L59.159374 216.85625Q59.284374 217.66875 59.721874 218.075Q60.175 218.48125 60.815624 218.48125Q61.565624 218.48125 62.096874 217.90312Q62.628124 217.325 62.628124 216.3875Q62.628124 215.48125 62.1125 214.96562Q61.6125 214.43437 60.784374 214.43437Q60.284374 214.43437 59.8625 214.66875Q59.45625 214.90312 59.221874 215.2625L58.2375 215.1375L59.065624 210.73125L63.346874 210.73125L63.346874 211.73125L59.909374 211.73125L59.45625 214.04375Q60.221874 213.49687 61.065624 213.49687Q62.190624 213.49687 62.95625 214.27812Q63.7375 215.05937 63.7375 216.29375Q63.7375 217.45 63.065624 218.30937Q62.2375 219.34062 60.815624 219.34062Q59.64375 219.34062 58.89375 218.68437Q58.159374 218.02812 58.05 216.95ZM65.05 214.96562Q65.05 213.43437 65.3625 212.5125Q65.675 211.575 66.28438 211.075Q66.90938 210.575 67.84688 210.575Q68.53438 210.575 69.05 210.85625Q69.58125 211.1375 69.925 211.66875Q70.26875 212.18437 70.45625 212.93437Q70.64375 213.68437 70.64375 214.96562Q70.64375 216.48125 70.33125 217.40312Q70.03438 218.325 69.40938 218.84062Q68.8 219.34062 67.84688 219.34062Q66.6125 219.34062 65.89375 218.45Q65.05 217.3875 65.05 214.96562ZM66.12813 214.96562Q66.12813 217.075 66.62813 217.77812Q67.12813 218.48125 67.84688 218.48125Q68.58125 218.48125 69.06563 217.77812Q69.56563 217.075 69.56563 214.96562Q69.56563 212.84062 69.06563 212.15312Q68.58125 211.45 67.83125 211.45Q67.1125 211.45 66.675 212.05937Q66.12813 212.84062 66.12813 214.96562Z" fill-rule="nonzero"/><path fill="#000000" d="M55.01875 155.74167L53.971874 155.74167L53.971874 149.02292Q53.58125 149.3823 52.95625 149.7573Q52.346874 150.11667 51.8625 150.28854L51.8625 149.27292Q52.7375 148.85104 53.39375 148.27292Q54.065624 147.67917 54.346874 147.11667L55.01875 147.11667L55.01875 155.74167ZM58.05 151.5073Q58.05 149.97604 58.3625 149.05417Q58.675 148.11667 59.284374 147.61667Q59.909374 147.11667 60.846874 147.11667Q61.534374 147.11667 62.05 147.39792Q62.58125 147.67917 62.925 148.21042Q63.26875 148.72604 63.45625 149.47604Q63.64375 150.22604 63.64375 151.5073Q63.64375 153.02292 63.33125 153.9448Q63.034374 154.86667 62.409374 155.3823Q61.8 155.8823 60.846874 155.8823Q59.6125 155.8823 58.89375 154.99167Q58.05 153.92917 58.05 151.5073ZM59.128124 151.5073Q59.128124 153.61667 59.628124 154.3198Q60.128124 155.02292 60.846874 155.02292Q61.58125 155.02292 62.065624 154.3198Q62.565624 153.61667 62.565624 151.5073Q62.565624 149.3823 62.065624 148.6948Q61.58125 147.99167 60.83125 147.99167Q60.1125 147.99167 59.675 148.60104Q59.128124 149.3823 59.128124 151.5073ZM65.05 151.5073Q65.05 149.97604 65.3625 149.05417Q65.675 148.11667 66.28438 147.61667Q66.90938 147.11667 67.84688 147.11667Q68.53438 147.11667 69.05 147.39792Q69.58125 147.67917 69.925 148.21042Q70.26875 148.72604 70.45625 149.47604Q70.64375 150.22604 70.64375 151.5073Q70.64375 153.02292 70.33125 153.9448Q70.03438 154.86667 69.40938 155.3823Q68.8 155.8823 67.84688 155.8823Q66.6125 155.8823 65.89375 154.99167Q65.05 153.92917 65.05 151.5073ZM66.12813 151.5073Q66.12813 153.61667 66.62813 154.3198Q67.12813 155.02292 67.84688 155.02292Q68.58125 155.02292 69.06563 154.3198Q69.56563 153.61667 69.56563 151.5073Q69.56563 149.3823 69.06563 148.6948Q68.58125 147.99167 67.83125 147.99167Q67.1125 147.99167 66.675 148.60104Q66.12813 149.3823 66.12813 151.5073Z" fill-rule="nonzero"/><path fill="#000000" d="M55.01875 92.28333L53.971874 92.28333L53.971874 85.56458Q53.58125 85.92396 52.95625 86.29896Q52.346874 86.65833 51.8625 86.83021L51.8625 85.81458Q52.7375 85.39271 53.39375 84.81458Q54.065624 84.22083 54.346874 83.65833L55.01875 83.65833L55.01875 92.28333ZM58.05 90.03333L59.159374 89.93958Q59.284374 90.75208 59.721874 91.15833Q60.175 91.56458 60.815624 91.56458Q61.565624 91.56458 62.096874 90.98646Q62.628124 90.40833 62.628124 89.47083Q62.628124 88.56458 62.1125 88.04896Q61.6125 87.51771 60.784374 87.51771Q60.284374 87.51771 59.8625 87.75208Q59.45625 87.98646 59.221874 88.34583L58.2375 88.22083L59.065624 83.81458L63.346874 83.81458L63.346874 84.81458L59.909374 84.81458L59.45625 87.12708Q60.221874 86.58021 61.065624 86.58021Q62.190624 86.58021 62.95625 87.36146Q63.7375 88.14271 63.7375 89.37708Q63.7375 90.53333 63.065624 91.39271Q62.2375 92.42396 60.815624 92.42396Q59.64375 92.42396 58.89375 91.76771Q58.159374 91.11146 58.05 90.03333ZM65.05 88.04896Q65.05 86.51771 65.3625 85.59583Q65.675 84.65833 66.28438 84.15833Q66.90938 83.65833 67.84688 83.65833Q68.53438 83.65833 69.05 83.93958Q69.58125 84.22083 69.925 84.75208Q70.26875 85.26771 70.45625 86.01771Q70.64375 86.76771 70.64375 88.04896Q70.64375 89.56458 70.33125 90.48646Q70.03438 91.40833 69.40938 91.92396Q68.8 92.42396 67.84688 92.42396Q66.6125 92.42396 65.89375 91.53333Q65.05 90.47083 65.05 88.04896ZM66.12813 88.04896Q66.12813 90.15833 66.62813 90.86146Q67.12813 91.56458 67.84688 91.56458Q68.58125 91.56458 69.06563 90.86146Q69.56563 90.15833 69.56563 88.04896Q69.56563 85.92396 69.06563 85.23646Q68.58125 84.53333 67.83125 84.53333Q67.1125 84.53333 66.675 85.14271Q66.12813 85.92396 66.12813 88.04896Z" fill-rule="nonzero"/><path fill="#000000" d="M104.721214 333.99008L105.33993 333.1504Q105.84816 333.52603 106.3564 333.48184Q106.87568 333.4266 107.39496 332.90732Q107.90319 332.39908 107.94739 331.95715Q107.99158 331.4931 107.704315 331.20584Q107.4502 330.95172 107.0856 331.02905Q106.83148 331.08432 106.06913 331.5373Q105.04162 332.14496 104.57758 332.32175Q104.11354 332.4764 103.68265 332.37698Q103.251755 332.27756 102.920296 331.9461Q102.63303 331.65884 102.511505 331.27213Q102.38997 330.88544 102.45626 330.48767Q102.511505 330.18936 102.72143 329.80267Q102.93135 329.416 103.284904 329.06244Q103.79314 328.5542 104.33451 328.32217Q104.87589 328.06805 105.31783 328.13434Q105.75977 328.20062 106.24591 328.5542L105.61614 329.38284Q105.24049 329.09558 104.8096 329.15082Q104.37871 329.18396 103.93677 329.6259Q103.428535 330.13412 103.38434 330.5319Q103.329094 330.91858 103.56111 331.1506Q103.70474 331.29422 103.90362 331.3163Q104.12459 331.3384 104.389755 331.22794Q104.54443 331.16165 105.24049 330.75284Q106.25696 330.1783 106.6989 330.00156Q107.14085 329.82477 107.57174 329.9021Q108.00263 329.97946 108.38933 330.36615Q108.76498 330.7418 108.875465 331.29422Q108.98595 331.82455 108.76498 332.42117Q108.53296 333.00674 108.01368 333.52603Q107.15189 334.38782 106.345345 334.48724Q105.5388 334.5646 104.721214 333.99008ZM106.06913 324.8419L105.207344 323.9801L105.95865 323.2288L106.820435 324.09058L106.06913 324.8419ZM111.28405 330.0568L106.88673 325.6595L107.63802 324.90817L112.03535 329.30548L111.28405 330.0568ZM113.405365 327.9355L109.00805 323.53815L109.67096 322.87524L110.28968 323.49396Q110.057655 322.28967 110.974686 321.37265Q111.37244 320.97488 111.84752 320.78708Q112.33366 320.5882 112.73141 320.65448Q113.12915 320.72076 113.50481 320.96384Q113.74787 321.14062 114.26715 321.6599L116.974045 324.3668L116.233795 325.10706L113.56004 322.4333Q113.09601 321.96927 112.78665 321.83667Q112.47729 321.7041 112.12373 321.79248Q111.75913 321.8698 111.46082 322.16812Q110.98573 322.64322 110.94154 323.30612Q110.89735 323.94696 111.73704 324.78665L114.14562 327.19522L113.405365 327.9355ZM116.74203 321.96927L117.36075 321.12958Q117.86898 321.50522 118.37721 321.46103Q118.89649 321.4058 119.41577 320.8865Q119.924 320.37827 119.9682 319.93634Q120.0124 319.4723 119.725136 319.18503Q119.471016 318.9309 119.106415 319.00824Q118.852295 319.0635 118.08995 319.51648Q117.06243 320.12415 116.5984 320.30093Q116.13435 320.4556 115.70346 320.35617Q115.27257 320.25674 114.94112 319.9253Q114.653854 319.63803 114.53232 319.2513Q114.41078 318.86462 114.47707 318.46686Q114.53232 318.16855 114.74224 317.78186Q114.95216 317.39517 115.30572 317.0416Q115.81395 316.5334 116.35533 316.30136Q116.896706 316.04724 117.338646 316.11353Q117.78059 316.1798 118.26672 316.5334L117.636955 317.36203Q117.26131 317.07477 116.830414 317.13Q116.39952 317.16315 115.95758 317.60507Q115.44935 318.1133 115.40515 318.51108Q115.34991 318.89777 115.58193 319.1298Q115.72556 319.2734 115.92443 319.2955Q116.14541 319.3176 116.41057 319.20712Q116.56525 319.14084 117.26131 318.73203Q118.27777 318.1575 118.71972 317.98074Q119.16166 317.80396 119.59255 317.8813Q120.023445 317.95865 120.41014 318.34534Q120.7858 318.72098 120.89628 319.2734Q121.00677 319.80374 120.7858 320.40036Q120.55377 320.98593 120.03449 321.50522Q119.17271 322.367 118.366165 322.46643Q117.559616 322.5438 116.74203 321.96927ZM124.995285 319.7264L118.90754 313.63867L119.581505 312.9647L120.14498 313.52817Q120.05659 312.95364 120.18917 312.4896Q120.3328 312.01453 120.763695 311.58362Q121.32717 311.02014 122.04533 310.87653Q122.76348 310.73288 123.50374 311.05328Q124.255035 311.36267 124.8848 311.99243Q125.55876 312.66638 125.85708 313.45084Q126.166435 314.22424 125.989655 314.97552Q125.81288 315.72684 125.30465 316.23508Q124.929 316.61072 124.476006 316.75433Q124.01197 316.88693 123.592125 316.84274L125.73554 318.98615L124.995285 319.7264ZM121.80226 315.18546Q122.653 316.0362 123.4043 316.10248Q124.144554 316.1577 124.630684 315.6716Q125.12787 315.1744 125.06158 314.401Q124.995285 313.6276 124.111404 312.7437Q123.27171 311.90402 122.52042 311.83774Q121.758064 311.7604 121.27193 312.24655Q120.796844 312.72162 120.87418 313.52817Q120.95152 314.33472 121.80226 315.18546ZM129.24898 315.47272L128.7076 314.93134L133.65735 309.9816L134.19873 310.52298L129.24898 315.47272ZM131.59126 307.12003L132.20999 306.28033Q132.71822 306.65598 133.22646 306.6118Q133.74573 306.55655 134.26501 306.03726Q134.77325 305.52902 134.81744 305.0871Q134.86163 304.62305 134.57437 304.3358Q134.32027 304.08167 133.95566 304.159Q133.70154 304.21426 132.9392 304.66724Q131.91168 305.2749 131.44763 305.4517Q130.9836 305.60635 130.5527 305.50693Q130.12181 305.4075 129.79036 305.07605Q129.5031 304.7888 129.38156 304.40207Q129.26003 304.01538 129.32632 303.6176Q129.38156 303.3193 129.59148 302.93262Q129.8014 302.54593 130.15495 302.19235Q130.6632 301.68414 131.20457 301.45212Q131.74594 301.198 132.1879 301.26428Q132.62984 301.33057 133.11597 301.68414L132.4862 302.5128Q132.11055 302.22552 131.67966 302.28076Q131.24876 302.3139 130.80682 302.75583Q130.29858 303.26407 130.2544 303.66183Q130.19916 304.04852 130.43117 304.28055Q130.5748 304.42416 130.77368 304.44626Q130.99464 304.46835 131.25981 304.35788Q131.41449 304.2916 132.11055 303.88278Q133.12701 303.30826 133.56895 303.1315Q134.0109 302.9547 134.44179 303.03204Q134.87268 303.1094 135.25938 303.4961Q135.63504 303.87173 135.74551 304.42416Q135.856 304.9545 135.63504 305.55112Q135.40302 306.1367 134.88373 306.65598Q134.02194 307.51776 133.21541 307.6172Q132.40886 307.69455 131.59126 307.12003ZM139.84453 304.87717L133.75679 298.78943L134.43074 298.11545L134.99422 298.67892Q134.90584 298.1044 135.03842 297.64038Q135.18205 297.16528 135.61295 296.73438Q136.17642 296.1709 136.89458 296.02728Q137.61273 295.88364 138.35298 296.20404Q139.10428 296.51343 139.73404 297.1432Q140.408 297.81714 140.70631 298.6016Q141.01567 299.375 140.8389 300.12628Q140.66212 300.8776 140.15388 301.38583Q139.77824 301.76147 139.32526 301.9051Q138.8612 302.0377 138.44136 301.9935L140.58478 304.1369L139.84453 304.87717ZM136.6515 300.3362Q137.50224 301.18695 138.25354 301.25323Q138.99379 301.30847 139.47993 300.82236Q139.97711 300.32516 139.91083 299.55176Q139.84453 298.77838 138.96065 297.89447Q138.12096 297.05478 137.36966 296.9885Q136.60732 296.91116 136.12117 297.3973Q135.64609 297.87238 135.72342 298.67892Q135.80077 299.48547 136.6515 300.3362ZM143.08176 298.2591L137.00505 292.18237L137.75636 291.4311L143.83305 297.50778L143.08176 298.2591ZM140.01025 290.90076L139.14847 290.03897L139.89978 289.28766L140.76157 290.14944L140.01025 290.90076ZM145.22517 296.11566L140.82785 291.71835L141.57915 290.96704L145.97647 295.36438L145.22517 296.11566ZM148.30771 291.7073L149.07007 292.2487Q148.81595 292.63538 148.57288 292.87845Q148.16408 293.28723 147.82158 293.3867Q147.46803 293.47507 147.15866 293.3646Q146.86035 293.24304 146.1864 292.5691L143.65628 290.03897L143.1149 290.58035L142.54037 290.00583L143.08176 289.46445L141.98795 288.37064L142.28625 287.18845L143.822 288.72418L144.5733 287.9729L145.14783 288.54742L144.39653 289.2987L146.97084 291.87302Q147.29124 292.19342 147.41278 292.2487Q147.54536 292.29288 147.689 292.25974Q147.83263 292.2266 147.99835 292.06085Q148.13094 291.92828 148.30771 291.7073Z" fill-rule="nonzero"/><path fill="#000000" d="M179.81625 353.08194L180.43497 352.24228Q180.94319 352.61792 181.45143 352.57373Q181.97072 352.5185 182.48999 351.9992Q182.99823 351.49097 183.04242 351.049Q183.08661 350.585 182.79935 350.29773Q182.54524 350.0436 182.18063 350.12094Q181.92651 350.17618 181.16417 350.62918Q180.13666 351.23685 179.67262 351.41364Q179.20857 351.5683 178.77768 351.46887Q178.34679 351.36942 178.01534 351.03796Q177.72807 350.7507 177.60654 350.364Q177.485 349.97733 177.5513 349.57956Q177.60654 349.28125 177.81647 348.89456Q178.02638 348.50784 178.37994 348.1543Q178.88817 347.64606 179.42955 347.41406Q179.97093 347.15994 180.41287 347.22623Q180.85481 347.2925 181.34094 347.64606L180.71118 348.4747Q180.33553 348.18744 179.90463 348.2427Q179.47374 348.27585 179.0318 348.71777Q178.52357 349.226 178.47937 349.62375Q178.42413 350.01047 178.65614 350.2425Q178.79977 350.3861 178.99866 350.4082Q179.21962 350.4303 179.48479 350.31982Q179.63947 350.25354 180.33553 349.84473Q181.35199 349.2702 181.79393 349.09344Q182.23589 348.91666 182.66678 348.994Q183.09767 349.07132 183.48436 349.45804Q183.86002 349.83368 183.9705 350.3861Q184.08098 350.91644 183.86002 351.51306Q183.62799 352.09863 183.10872 352.61792Q182.24693 353.4797 181.44038 353.57913Q180.63383 353.65646 179.81625 353.08194ZM181.16417 343.93375L180.30238 343.07196L181.05368 342.32068L181.91547 343.18246L181.16417 343.93375ZM186.37909 349.14868L181.98177 344.75134L182.73306 344.00006L187.13039 348.39737L186.37909 349.14868ZM188.5004 347.02734L184.10309 342.63004L184.76599 341.96713L185.38472 342.58585Q185.1527 341.38156 186.06972 340.4645Q186.46747 340.06677 186.94255 339.87894Q187.4287 339.68008 187.82645 339.74637Q188.22418 339.81265 188.59984 340.05573Q188.84291 340.23248 189.36218 340.75177L192.06908 343.45868L191.32883 344.1989L188.65508 341.52518Q188.19104 341.06113 187.88168 340.92856Q187.57233 340.79596 187.21877 340.88437Q186.85417 340.9617 186.55586 341.26Q186.08076 341.7351 186.03658 342.398Q185.99239 343.03882 186.83208 343.8785L189.24066 346.2871L188.5004 347.02734ZM191.83707 341.06113L192.45578 340.22144Q192.96402 340.5971 193.47224 340.55292Q193.99153 340.49765 194.5108 339.9784Q195.01904 339.47015 195.06323 339.0282Q195.10744 338.56418 194.82018 338.27692Q194.56606 338.0228 194.20145 338.10013Q193.94734 338.15536 193.18498 338.60837Q192.15747 339.21603 191.69344 339.39282Q191.22939 339.5475 190.7985 339.44806Q190.3676 339.3486 190.03615 339.01715Q189.74889 338.7299 189.62735 338.3432Q189.50581 337.9565 189.57211 337.55875Q189.62735 337.26044 189.83728 336.87375Q190.0472 336.48703 190.40076 336.13348Q190.90898 335.62524 191.45036 335.39325Q191.99174 335.13913 192.43369 335.2054Q192.87563 335.2717 193.36176 335.62524L192.732 336.4539Q192.35634 336.16663 191.92545 336.22186Q191.49455 336.25504 191.05261 336.69696Q190.54439 337.2052 190.50018 337.60294Q190.44495 337.98965 190.67697 338.22165Q190.8206 338.3653 191.01947 338.3874Q191.24045 338.4095 191.5056 338.299Q191.66028 338.2327 192.35634 337.8239Q193.3728 337.2494 193.81476 337.0726Q194.2567 336.89584 194.68759 336.97318Q195.11848 337.0505 195.50517 337.43723Q195.88083 337.81287 195.99132 338.3653Q196.1018 338.89563 195.88083 339.49225Q195.6488 340.07782 195.12953 340.5971Q194.26775 341.4589 193.4612 341.55832Q192.65465 341.63565 191.83707 341.06113ZM200.09033 338.8183L194.00258 332.73053L194.67654 332.05658L195.24002 332.62006Q195.15163 332.04553 195.28421 331.58148Q195.42784 331.1064 195.85873 330.6755Q196.42221 330.11203 197.14037 329.9684Q197.85852 329.82477 198.59877 330.14517Q199.35007 330.45453 199.97984 331.0843Q200.6538 331.75827 200.95212 332.54272Q201.26147 333.3161 201.08469 334.0674Q200.90791 334.81873 200.39969 335.32693Q200.02403 335.7026 199.57104 335.84622Q199.10701 335.97882 198.68716 335.9346L200.83058 338.07803L200.09033 338.8183ZM196.8973 334.27734Q197.74803 335.12808 198.49933 335.19437Q199.2396 335.2496 199.72572 334.76346Q200.2229 334.2663 200.15662 333.4929Q200.09033 332.71948 199.20644 331.8356Q198.36674 330.9959 197.61545 330.92963Q196.8531 330.8523 196.36696 331.3384Q195.89188 331.8135 195.96922 332.62006Q196.04655 333.4266 196.8973 334.27734ZM204.34401 334.5646L203.80263 334.02322L208.75238 329.07346L209.29376 329.61484L204.34401 334.5646ZM209.55893 322.74265L210.38757 322.11288Q211.01733 322.98572 210.95105 323.9138Q210.88475 324.8419 210.1666 325.56003Q209.26062 326.466 208.12262 326.43286Q206.98462 326.37762 205.87976 325.27277Q205.17265 324.56567 204.87434 323.8033Q204.57603 323.01886 204.78595 322.27863Q205.00693 321.5273 205.58145 320.9528Q206.28856 320.2457 207.10616 320.1573Q207.92374 320.0468 208.73029 320.5882L208.11157 321.4279Q207.57019 321.08536 207.08405 321.12958Q206.58687 321.16272 206.21121 321.53836Q205.64774 322.10184 205.70299 322.8642Q205.74718 323.61548 206.62001 324.4883Q207.51494 325.38327 208.2552 325.4385Q208.99545 325.49374 209.53683 324.95236Q209.97878 324.5104 210.00087 323.958Q210.03401 323.39453 209.55893 322.74265ZM210.06715 321.06326Q208.84077 319.83688 208.92915 318.57736Q209.0065 317.52774 209.8241 316.71014Q210.73007 315.80417 211.90121 315.82626Q213.07236 315.82626 214.12198 316.8759Q214.97272 317.72662 215.20473 318.46686Q215.43675 319.20712 215.21577 319.98053Q214.99481 320.7318 214.42029 321.30634Q213.50325 322.22336 212.34315 322.2123Q211.18306 322.17917 210.06715 321.06326ZM210.82951 320.30093Q211.6692 321.14062 212.45364 321.19586Q213.24915 321.24005 213.80156 320.68762Q214.36504 320.12415 214.3098 319.3397Q214.25456 318.55527 213.39278 317.69348Q212.57518 316.8759 211.77968 316.8317Q210.99524 316.77643 210.44281 317.32886Q209.89038 317.8813 209.93457 318.6768Q209.97878 319.4502 210.82951 320.30093ZM217.49178 318.03598L213.09447 313.63864L213.75737 312.97574L214.3761 313.59445Q214.14407 312.39017 215.0611 311.47314Q215.45885 311.07538 215.93393 310.88757Q216.42007 310.6887 216.81783 310.75497Q217.21556 310.8213 217.59122 311.06433Q217.83429 311.24112 218.35356 311.7604L221.06046 314.4673L220.3202 315.20755L217.64645 312.5338Q217.18242 312.06976 216.87306 311.93716Q216.5637 311.8046 216.21014 311.89297Q215.84555 311.97034 215.54724 312.26865Q215.07214 312.7437 215.02795 313.40665Q214.98376 314.04745 215.82346 314.88715L218.23204 317.29572L217.49178 318.03598ZM223.70107 308.60052L224.52971 307.97076Q225.15947 308.8436 225.09319 309.77167Q225.02689 310.69974 224.30873 311.4179Q223.40276 312.32388 222.26476 312.29074Q221.12675 312.2355 220.0219 311.13065Q219.31479 310.42352 219.01648 309.66116Q218.71817 308.87674 218.92809 308.13647Q219.14906 307.3852 219.72359 306.81067Q220.4307 306.10355 221.24829 306.01517Q222.06587 305.90466 222.87242 306.44604L222.25371 307.28574Q221.71233 306.94324 221.22618 306.98743Q220.729 307.02057 220.35335 307.39624Q219.78987 307.95972 219.84512 308.72205Q219.88931 309.47336 220.76215 310.3462Q221.65707 311.24112 222.39734 311.29636Q223.13759 311.3516 223.67897 310.81024Q224.12091 310.3683 224.143 309.81586Q224.17615 309.25238 223.70107 308.60052ZM229.01541 305.4296Q228.94913 306.20297 228.70605 306.7333Q228.47403 307.2526 228.03209 307.69455Q227.30289 308.42374 226.56264 308.45688Q225.82239 308.49002 225.26996 307.9376Q224.94955 307.6172 224.82802 307.2084Q224.69543 306.78854 224.78381 306.3908Q224.86116 305.98203 225.08212 305.60635Q225.22575 305.33014 225.6235 304.82193Q226.419 303.82755 226.69522 303.24197Q226.54054 303.08728 226.50739 303.05414Q226.04335 302.59012 225.6456 302.6122Q225.11528 302.6564 224.5518 303.21988Q224.03252 303.73917 223.96623 304.1811Q223.88889 304.612 224.2314 305.19757L223.40276 305.82733Q223.03815 305.26385 222.98291 304.74457Q222.92766 304.22528 223.20387 303.6397Q223.48009 303.05414 224.04356 302.49066Q224.60704 301.9272 225.09319 301.70624Q225.57932 301.48526 225.94391 301.5184Q226.30852 301.55154 226.68417 301.79462Q226.90514 301.9493 227.40233 302.44647L228.3967 303.44086Q229.43526 304.4794 229.75566 304.71143Q230.08711 304.9324 230.48486 305.04288L229.70042 305.82733Q229.35791 305.7058 229.01541 305.4296ZM227.28079 303.82755Q227.03772 304.40207 226.3527 305.33014Q225.95497 305.86047 225.85553 306.1367Q225.74504 306.40186 225.78923 306.66702Q225.84448 306.92114 226.04335 307.12003Q226.34166 307.41833 226.7615 307.39624Q227.1924 307.36307 227.62329 306.9322Q228.05418 306.50128 228.19781 305.98203Q228.3525 305.4517 228.17572 304.96555Q228.04314 304.5899 227.557 304.10376L227.28079 303.82755ZM232.59514 301.60678L233.35748 302.14816Q233.10338 302.53488 232.8603 302.77792Q232.4515 303.18674 232.10901 303.28616Q231.75545 303.37454 231.44609 303.26407Q231.14778 303.14255 230.47382 302.46857L227.9437 299.93845L227.40233 300.47983L226.8278 299.9053L227.36917 299.36392L226.27538 298.27014L226.57368 297.08792L228.10944 298.6237L228.86073 297.87238L229.43526 298.4469L228.68396 299.1982L231.25827 301.77252Q231.57867 302.09293 231.70021 302.14816Q231.8328 302.19235 231.97643 302.1592Q232.12006 302.12607 232.28578 301.96036Q232.41837 301.82776 232.59514 301.60678ZM235.34622 297.3531L236.20801 296.6681Q236.7052 297.51883 236.58366 298.39166Q236.46213 299.2645 235.69978 300.02686Q234.73856 300.98807 233.56741 300.96597Q232.40732 300.93283 231.3356 299.8611Q230.23074 298.75626 230.1976 297.57407Q230.15341 296.38083 231.05939 295.47485Q231.94327 294.59097 233.09233 294.63516Q234.25243 294.6683 235.34622 295.76212Q235.41252 295.8284 235.5451 295.961L232.26369 299.2424Q233.03708 299.9274 233.78838 299.94952Q234.52864 299.96057 235.08105 299.40814Q235.48985 298.99933 235.5672 298.50214Q235.64453 297.98288 235.34622 297.3531ZM231.70021 298.59055L234.15298 296.13776Q233.54532 295.61847 233.03708 295.57428Q232.2416 295.508 231.67812 296.07147Q231.15883 296.59076 231.14778 297.2868Q231.14778 297.97183 231.70021 298.59055ZM238.70499 296.82278L234.30766 292.42545L234.97058 291.7625L235.58931 292.38126Q235.35728 291.17694 236.27432 290.25992Q236.67206 289.86218 237.14716 289.67435Q237.63329 289.47546 238.03104 289.54178Q238.42879 289.60806 238.80443 289.85114Q239.0475 290.0279 239.56679 290.54718L242.27368 293.2541L241.53342 293.99432L238.85968 291.3206Q238.39563 290.85654 238.08627 290.72397Q237.77692 290.59137 237.42337 290.67978Q237.05876 290.7571 236.76045 291.05542Q236.28537 291.53052 236.24117 292.19342Q236.19698 292.83423 237.03667 293.67392L239.44525 296.08252L238.70499 296.82278Z" fill-rule="nonzero"/><path fill="#000000" d="M274.00314 353.08197L274.6219 352.24228Q275.1301 352.61792 275.63834 352.57373Q276.15762 352.5185 276.6769 351.9992Q277.18515 351.49097 277.22934 351.04904Q277.27353 350.585 276.98627 350.29773Q276.73215 350.0436 276.36755 350.12094Q276.11343 350.1762 275.35107 350.62918Q274.32358 351.23685 273.85953 351.41364Q273.39548 351.5683 272.9646 351.46887Q272.5337 351.36945 272.20224 351.038Q271.91498 350.75073 271.79346 350.364Q271.6719 349.97733 271.7382 349.57956Q271.79346 349.28125 272.00336 348.89456Q272.2133 348.50787 272.56683 348.1543Q273.07507 347.6461 273.61646 347.41406Q274.15784 347.15994 274.59976 347.22623Q275.04172 347.2925 275.52786 347.6461L274.8981 348.47473Q274.52243 348.18747 274.09155 348.2427Q273.66064 348.27585 273.21872 348.71777Q272.71048 349.226 272.6663 349.62378Q272.61105 350.01047 272.84305 350.2425Q272.9867 350.3861 273.18558 350.4082Q273.40652 350.4303 273.6717 350.31982Q273.8264 350.25354 274.52243 349.84473Q275.5389 349.2702 275.98083 349.09344Q276.4228 348.91666 276.85367 348.994Q277.28458 349.07135 277.67126 349.45804Q278.04694 349.83368 278.1574 350.3861Q278.26788 350.91644 278.04694 351.51306Q277.8149 352.09863 277.29562 352.61792Q276.43384 353.4797 275.6273 353.57913Q274.82074 353.6565 274.00314 353.08197ZM275.35107 343.93378L274.4893 343.072L275.2406 342.32068L276.1024 343.18246L275.35107 343.93378ZM280.56598 349.14868L276.16867 344.75137L276.91998 344.00006L281.3173 348.39737L280.56598 349.14868ZM282.68732 347.02737L278.28998 342.63004L278.9529 341.96713L279.57162 342.58585Q279.3396 341.38156 280.25662 340.46454Q280.6544 340.06677 281.12946 339.87897Q281.6156 339.68008 282.01334 339.74637Q282.4111 339.81265 282.78674 340.05573Q283.02982 340.2325 283.5491 340.7518L286.25598 343.45868L285.51575 344.19894L282.84198 341.52518Q282.37796 341.06116 282.0686 340.92856Q281.75925 340.796 281.40567 340.88437Q281.04108 340.9617 280.74277 341.26Q280.26767 341.7351 280.22348 342.398Q280.1793 343.03885 281.01898 343.87854L283.42755 346.2871L282.68732 347.02737ZM286.02396 341.06116L286.6427 340.22147Q287.1509 340.5971 287.65915 340.55292Q288.17844 340.49768 288.69772 339.9784Q289.20596 339.47015 289.25015 339.02823Q289.29434 338.56418 289.00708 338.27692Q288.75296 338.0228 288.38837 338.10013Q288.13425 338.15536 287.3719 338.60837Q286.3444 339.21603 285.88034 339.39282Q285.4163 339.5475 284.9854 339.44806Q284.5545 339.34863 284.22305 339.01715Q283.9358 338.7299 283.81427 338.3432Q283.69272 337.9565 283.75903 337.55875Q283.81427 337.26044 284.02417 336.87375Q284.2341 336.48706 284.58765 336.13348Q285.0959 335.62527 285.63727 335.39325Q286.17865 335.13913 286.6206 335.2054Q287.06253 335.2717 287.54868 335.62527L286.9189 336.45392Q286.54324 336.16666 286.11237 336.2219Q285.68146 336.25504 285.23953 336.69696Q284.7313 337.2052 284.6871 337.60297Q284.63187 337.98965 284.86386 338.22168Q285.0075 338.3653 285.2064 338.3874Q285.42734 338.4095 285.6925 338.299Q285.8472 338.23273 286.54324 337.8239Q287.55972 337.2494 288.00165 337.07263Q288.4436 336.89584 288.87448 336.97318Q289.3054 337.05054 289.69208 337.43723Q290.06775 337.81287 290.17822 338.3653Q290.2887 338.89563 290.06775 339.49225Q289.83572 340.07782 289.31644 340.5971Q288.45465 341.4589 287.6481 341.55832Q286.84155 341.63568 286.02396 341.06116ZM294.27722 338.8183L288.18948 332.73053L288.86343 332.05658L289.4269 332.62006Q289.33853 332.04553 289.47113 331.58148Q289.61475 331.1064 290.04565 330.6755Q290.60913 330.11203 291.32727 329.9684Q292.04544 329.82477 292.78568 330.14517Q293.537 330.45456 294.16675 331.08432Q294.8407 331.75827 295.139 332.54272Q295.44836 333.31613 295.2716 334.0674Q295.09482 334.81873 294.58658 335.32697Q294.21094 335.7026 293.75797 335.84622Q293.2939 335.97882 292.87405 335.93463L295.0175 338.07803L294.27722 338.8183ZM291.0842 334.27734Q291.93494 335.12808 292.68625 335.19437Q293.42648 335.2496 293.91263 334.7635Q294.40982 334.2663 294.34354 333.4929Q294.27722 332.71948 293.39334 331.8356Q292.55365 330.9959 291.80237 330.92963Q291.04 330.8523 290.55386 331.33844Q290.0788 331.8135 290.15613 332.62006Q290.23346 333.4266 291.0842 334.27734ZM298.5309 334.5646L297.98953 334.02322L302.9393 329.0735L303.48068 329.61487L298.5309 334.5646ZM303.74585 322.74268L304.57446 322.11288Q305.20425 322.98572 305.13794 323.91382Q305.07166 324.8419 304.35352 325.56003Q303.4475 326.46603 302.3095 326.43286Q301.1715 326.37762 300.06668 325.27277Q299.35956 324.56567 299.06125 323.8033Q298.76294 323.0189 298.97287 322.27863Q299.19385 321.5273 299.76837 320.9528Q300.47546 320.2457 301.29306 320.1573Q302.11066 320.0468 302.9172 320.5882L302.29846 321.4279Q301.7571 321.0854 301.27097 321.12958Q300.77377 321.16272 300.39813 321.53836Q299.83466 322.10184 299.8899 322.8642Q299.93408 323.6155 300.80692 324.48834Q301.70184 325.38327 302.4421 325.4385Q303.18237 325.49374 303.72372 324.95236Q304.16568 324.51044 304.18777 323.958Q304.22092 323.39453 303.74585 322.74268ZM304.25406 321.0633Q303.02768 319.83688 303.11606 318.57736Q303.19342 317.52774 304.011 316.71014Q304.917 315.80417 306.08813 315.82626Q307.25928 315.82626 308.30887 316.8759Q309.1596 317.72662 309.39163 318.4669Q309.62366 319.20712 309.40268 319.98053Q309.18173 320.7318 308.6072 321.30637Q307.69016 322.2234 306.53006 322.21234Q305.36996 322.1792 304.25406 321.0633ZM305.01642 320.30093Q305.8561 321.14062 306.64056 321.19586Q307.43604 321.24005 307.98846 320.68762Q308.55194 320.12415 308.4967 319.33972Q308.44147 318.55527 307.57968 317.69348Q306.7621 316.8759 305.96658 316.8317Q305.18216 316.77646 304.62973 317.3289Q304.0773 317.88132 304.1215 318.6768Q304.16568 319.4502 305.01642 320.30093ZM311.67868 318.03598L307.28137 313.63867L307.94427 312.97574L308.563 313.59448Q308.331 312.39017 309.24802 311.47314Q309.64575 311.0754 310.12085 310.88757Q310.607 310.6887 311.00473 310.755Q311.40247 310.8213 311.77814 311.06436Q312.02118 311.24112 312.54047 311.7604L315.24738 314.46732L314.5071 315.20755L311.83337 312.5338Q311.36932 312.06976 311.05997 311.9372Q310.7506 311.8046 310.39706 311.893Q310.03247 311.97034 309.73413 312.26865Q309.25906 312.74374 309.21487 313.40665Q309.17065 314.04745 310.01035 314.88715L312.41895 317.29572L311.67868 318.03598ZM317.88797 308.60052L318.7166 307.97076Q319.34637 308.8436 319.2801 309.77167Q319.2138 310.69974 318.49564 311.4179Q317.58966 312.32388 316.45166 312.29074Q315.31366 312.2355 314.2088 311.13065Q313.5017 310.42352 313.2034 309.6612Q312.9051 308.87674 313.115 308.13647Q313.33597 307.3852 313.9105 306.81067Q314.6176 306.10355 315.43518 306.01517Q316.25278 305.9047 317.05933 306.44604L316.4406 307.28574Q315.89923 306.94324 315.4131 306.98743Q314.91592 307.0206 314.54025 307.39624Q313.97678 307.95972 314.03204 308.72205Q314.07623 309.47336 314.94907 310.3462Q315.844 311.24112 316.58423 311.29636Q317.3245 311.35162 317.86588 310.81024Q318.3078 310.3683 318.32993 309.81586Q318.36307 309.25238 317.88797 308.60052ZM323.20233 305.4296Q323.13602 306.203 322.89297 306.73334Q322.66095 307.2526 322.219 307.69455Q321.4898 308.42374 320.74954 308.4569Q320.00928 308.49005 319.45685 307.93762Q319.13644 307.61722 319.01492 307.2084Q318.88232 306.78857 318.97073 306.3908Q319.04807 305.98203 319.26904 305.60638Q319.41266 305.33017 319.81042 304.82193Q320.60593 303.82755 320.8821 303.24197Q320.72745 303.0873 320.6943 303.05417Q320.23026 302.59012 319.83252 302.6122Q319.3022 302.6564 318.7387 303.21988Q318.21942 303.73917 318.15314 304.18112Q318.0758 304.612 318.4183 305.19757L317.58966 305.82733Q317.22507 305.26385 317.1698 304.7446Q317.11456 304.2253 317.39078 303.63974Q317.667 303.05417 318.23047 302.4907Q318.79395 301.92722 319.2801 301.70624Q319.76624 301.48526 320.13083 301.5184Q320.49542 301.55154 320.87106 301.79462Q321.09204 301.9493 321.58923 302.44647L322.5836 303.44086Q323.62216 304.47943 323.94257 304.71143Q324.27402 304.9324 324.67178 305.0429L323.88733 305.82733Q323.54483 305.7058 323.20233 305.4296ZM321.4677 303.82755Q321.22464 304.40207 320.5396 305.33017Q320.14188 305.86047 320.04245 306.1367Q319.93195 306.40186 319.97614 306.66702Q320.0314 306.92114 320.23026 307.12003Q320.52856 307.41833 320.94843 307.39624Q321.3793 307.3631 321.8102 306.9322Q322.2411 306.5013 322.38474 305.98203Q322.5394 305.4517 322.36264 304.96555Q322.23004 304.5899 321.7439 304.10376L321.4677 303.82755ZM326.78204 301.6068L327.5444 302.14816Q327.29028 302.53488 327.0472 302.77795Q326.63843 303.18674 326.2959 303.28616Q325.94235 303.37457 325.633 303.26407Q325.3347 303.14255 324.66074 302.4686L322.1306 299.93848L321.58923 300.47986L321.0147 299.90533L321.5561 299.36395L320.46228 298.27014L320.7606 297.08795L322.29633 298.6237L323.04764 297.87238L323.62216 298.4469L322.87085 299.1982L325.44516 301.77252Q325.7656 302.09293 325.88712 302.14816Q326.01968 302.19238 326.16333 302.1592Q326.30695 302.12607 326.4727 301.96036Q326.6053 301.82776 326.78204 301.6068ZM329.53314 297.35312L330.39493 296.6681Q330.89212 297.51883 330.77057 298.39166Q330.64905 299.2645 329.8867 300.02686Q328.92548 300.98807 327.75433 300.96597Q326.5942 300.93283 325.52252 299.8611Q324.41766 298.7563 324.38452 297.57407Q324.34033 296.38083 325.2463 295.47485Q326.1302 294.59097 327.27924 294.63516Q328.43933 294.6683 329.53314 295.76212Q329.59943 295.8284 329.732 295.961L326.4506 299.2424Q327.224 299.92743 327.97528 299.94952Q328.71555 299.96057 329.26797 299.40814Q329.67676 298.99933 329.75412 298.50217Q329.83145 297.98288 329.53314 297.35312ZM325.88712 298.59055L328.3399 296.13776Q327.7322 295.6185 327.224 295.57428Q326.4285 295.508 325.86502 296.07147Q325.34573 296.59076 325.3347 297.2868Q325.3347 297.97183 325.88712 298.59055ZM332.8919 296.82278L328.49457 292.42545L329.15747 291.76254L329.7762 292.38126Q329.5442 291.17697 330.4612 290.25995Q330.85895 289.86218 331.33405 289.67438Q331.8202 289.4755 332.21793 289.54178Q332.6157 289.6081 332.99133 289.85114Q333.2344 290.02792 333.7537 290.5472L336.46057 293.2541L335.7203 293.99435L333.04657 291.32062Q332.58252 290.85657 332.27316 290.72397Q331.9638 290.5914 331.61026 290.67978Q331.24567 290.75714 330.94736 291.05545Q330.47226 291.53052 330.42807 292.19345Q330.38388 292.83426 331.22357 293.67395L333.63214 296.08252L332.8919 296.82278Z" fill-rule="nonzero"/><path fill="#000000" d="M368.19006 353.08197L368.8088 352.24228Q369.31702 352.61792 369.82526 352.57373Q370.34454 352.5185 370.86383 351.9992Q371.37204 351.49097 371.41626 351.04904Q371.46045 350.585 371.1732 350.29773Q370.91907 350.0436 370.55447 350.12094Q370.30035 350.17618 369.538 350.62918Q368.51047 351.23685 368.04645 351.41364Q367.5824 351.5683 367.15152 351.46887Q366.7206 351.36945 366.38916 351.03796Q366.1019 350.7507 365.98038 350.364Q365.85883 349.97733 365.9251 349.57956Q365.98038 349.28125 366.19028 348.89456Q366.4002 348.50787 366.75375 348.1543Q367.262 347.6461 367.80338 347.41406Q368.34476 347.15994 368.78668 347.22623Q369.22864 347.2925 369.71478 347.6461L369.085 348.47473Q368.70935 348.18744 368.27847 348.2427Q367.84756 348.27585 367.40564 348.71777Q366.8974 349.226 366.8532 349.62378Q366.79794 350.01047 367.02997 350.2425Q367.1736 350.3861 367.37247 350.4082Q367.59344 350.4303 367.8586 350.31982Q368.0133 350.25354 368.70935 349.84473Q369.72583 349.2702 370.16776 349.09344Q370.6097 348.91666 371.0406 348.994Q371.4715 349.07135 371.8582 349.45804Q372.23386 349.83368 372.34433 350.3861Q372.4548 350.91644 372.23386 351.51306Q372.00183 352.09863 371.48254 352.61792Q370.62076 353.4797 369.8142 353.57913Q369.00766 353.6565 368.19006 353.08197ZM369.538 343.93378L368.6762 343.072L369.42752 342.32068L370.2893 343.18246L369.538 343.93378ZM374.7529 349.14868L370.3556 344.75134L371.1069 344.00006L375.5042 348.39737L374.7529 349.14868ZM376.87424 347.02734L372.4769 342.63004L373.13983 341.96713L373.75854 342.58585Q373.52652 341.38156 374.44354 340.4645Q374.8413 340.06677 375.31638 339.87894Q375.80252 339.68008 376.20026 339.74637Q376.59802 339.81265 376.97366 340.05573Q377.21674 340.2325 377.73602 340.75177L380.4429 343.45868L379.70267 344.19894L377.0289 341.52518Q376.56488 341.06116 376.25552 340.92856Q375.94617 340.796 375.5926 340.88437Q375.228 340.9617 374.9297 341.26Q374.4546 341.7351 374.4104 342.398Q374.3662 343.03882 375.2059 343.8785L377.61447 346.2871L376.87424 347.02734ZM380.21088 341.06116L380.82962 340.22147Q381.33783 340.5971 381.84607 340.55292Q382.36536 340.49768 382.88464 339.9784Q383.39288 339.47015 383.43707 339.0282Q383.48126 338.56418 383.194 338.27692Q382.93988 338.0228 382.5753 338.10013Q382.32117 338.15536 381.5588 338.60837Q380.5313 339.21603 380.06726 339.39282Q379.6032 339.5475 379.17233 339.44806Q378.74142 339.34863 378.40997 339.01715Q378.1227 338.7299 378.0012 338.3432Q377.87964 337.9565 377.94595 337.55875Q378.0012 337.26044 378.2111 336.87375Q378.42102 336.48706 378.77457 336.13348Q379.2828 335.62527 379.8242 335.39325Q380.36557 335.13913 380.80753 335.2054Q381.24945 335.2717 381.7356 335.62527L381.10583 336.4539Q380.73016 336.16663 380.2993 336.2219Q379.86838 336.25504 379.42645 336.69696Q378.9182 337.2052 378.87402 337.60294Q378.8188 337.98965 379.05078 338.22168Q379.19443 338.3653 379.3933 338.3874Q379.61426 338.4095 379.87943 338.299Q380.03412 338.23273 380.73016 337.8239Q381.74664 337.2494 382.18857 337.07263Q382.63052 336.89584 383.0614 336.97318Q383.4923 337.05054 383.879 337.43723Q384.25467 337.81287 384.36514 338.3653Q384.47562 338.89563 384.25467 339.49225Q384.02264 340.07782 383.50336 340.5971Q382.64157 341.4589 381.83502 341.55832Q381.02847 341.63568 380.21088 341.06116ZM388.46414 338.8183L382.3764 332.73053L383.05035 332.05658L383.61383 332.62006Q383.52545 332.04553 383.65802 331.58148Q383.80167 331.1064 384.23257 330.6755Q384.79602 330.11203 385.5142 329.9684Q386.23236 329.82477 386.9726 330.14517Q387.7239 330.45453 388.35367 331.08432Q389.02762 331.75827 389.32593 332.54272Q389.63528 333.3161 389.45853 334.0674Q389.28174 334.81873 388.7735 335.32693Q388.39786 335.7026 387.94485 335.84622Q387.48083 335.97882 387.06097 335.93463L389.2044 338.07803L388.46414 338.8183ZM385.27112 334.27734Q386.12186 335.12808 386.87317 335.19437Q387.6134 335.2496 388.09955 334.7635Q388.59674 334.2663 388.53046 333.4929Q388.46414 332.71948 387.58026 331.8356Q386.74057 330.9959 385.9893 330.92963Q385.22693 330.8523 384.74078 331.33844Q384.26572 331.8135 384.34305 332.62006Q384.42038 333.4266 385.27112 334.27734ZM392.71783 334.5646L392.17645 334.02322L397.12622 329.0735L397.6676 329.61484L392.71783 334.5646ZM397.93274 322.74265L398.76138 322.11288Q399.39117 322.98572 399.32486 323.91382Q399.25858 324.8419 398.54044 325.56003Q397.63443 326.466 396.49643 326.43286Q395.35843 326.37762 394.2536 325.27277Q393.54648 324.56567 393.24817 323.8033Q392.94986 323.01886 393.1598 322.27863Q393.38077 321.5273 393.9553 320.9528Q394.66238 320.2457 395.47998 320.1573Q396.29758 320.0468 397.10413 320.5882L396.48538 321.4279Q395.944 321.0854 395.4579 321.12958Q394.9607 321.16272 394.58505 321.53836Q394.02158 322.10184 394.0768 322.8642Q394.121 323.61548 394.99384 324.48834Q395.88876 325.38327 396.62903 325.4385Q397.36926 325.49374 397.91064 324.95236Q398.3526 324.51044 398.3747 323.958Q398.40784 323.39453 397.93274 322.74265ZM398.44098 321.0633Q397.2146 319.83688 397.30298 318.57736Q397.38034 317.52774 398.1979 316.71014Q399.1039 315.80417 400.27505 315.82626Q401.4462 315.82626 402.4958 316.8759Q403.34653 317.72662 403.57855 318.46686Q403.81058 319.20712 403.5896 319.98053Q403.36862 320.7318 402.7941 321.30634Q401.87708 322.2234 400.71698 322.21234Q399.5569 322.17917 398.44098 321.0633ZM399.20334 320.30093Q400.04303 321.14062 400.82748 321.19586Q401.62296 321.24005 402.17538 320.68762Q402.73886 320.12415 402.68362 319.33972Q402.6284 318.55527 401.7666 317.69348Q400.949 316.8759 400.1535 316.8317Q399.36905 316.77646 398.81665 317.32886Q398.26422 317.8813 398.3084 318.6768Q398.3526 319.4502 399.20334 320.30093ZM405.8656 318.03598L401.4683 313.63867L402.1312 312.97574L402.7499 313.59445Q402.5179 312.39017 403.43494 311.47314Q403.83267 311.0754 404.30777 310.88757Q404.79388 310.6887 405.19165 310.75497Q405.5894 310.8213 405.96506 311.06436Q406.2081 311.24112 406.7274 311.7604L409.4343 314.4673L408.69403 315.20755L406.0203 312.5338Q405.55624 312.06976 405.2469 311.9372Q404.93753 311.8046 404.58398 311.89297Q404.21936 311.97034 403.92105 312.26865Q403.44598 312.7437 403.4018 313.40665Q403.35757 314.04745 404.19727 314.88715L406.60587 317.29572L405.8656 318.03598ZM412.0749 308.60052L412.90353 307.97076Q413.5333 308.8436 413.467 309.77167Q413.40073 310.69974 412.68256 311.4179Q411.77658 312.32388 410.63858 312.29074Q409.50058 312.2355 408.39572 311.13065Q407.68863 310.42352 407.39032 309.6612Q407.092 308.87674 407.3019 308.13647Q407.5229 307.3852 408.0974 306.81067Q408.80453 306.10355 409.6221 306.01517Q410.4397 305.9047 411.24625 306.44604L410.62753 307.28574Q410.08615 306.94324 409.6 306.98743Q409.10284 307.02057 408.72717 307.39624Q408.1637 307.95972 408.21893 308.72205Q408.26315 309.47336 409.136 310.3462Q410.0309 311.24112 410.77115 311.29636Q411.5114 311.35162 412.0528 310.81024Q412.49472 310.3683 412.51685 309.81586Q412.55 309.25238 412.0749 308.60052ZM417.38925 305.4296Q417.32294 306.203 417.07986 306.7333Q416.84787 307.2526 416.4059 307.69455Q415.67673 308.42374 414.93646 308.45688Q414.1962 308.49005 413.64377 307.93762Q413.32336 307.6172 413.20184 307.2084Q413.06924 306.78857 413.15765 306.3908Q413.235 305.98203 413.45596 305.60635Q413.59958 305.33014 413.99734 304.82193Q414.79282 303.82755 415.06903 303.24197Q414.91437 303.0873 414.88123 303.05417Q414.41718 302.59012 414.01944 302.6122Q413.4891 302.6564 412.92563 303.21988Q412.40634 303.73917 412.34006 304.1811Q412.26273 304.612 412.60522 305.19757L411.77658 305.82733Q411.412 305.26385 411.35672 304.74457Q411.30148 304.2253 411.5777 303.63974Q411.8539 303.05417 412.4174 302.4907Q412.98087 301.92722 413.467 301.70624Q413.95316 301.48526 414.31775 301.5184Q414.68234 301.55154 415.05798 301.79462Q415.27896 301.9493 415.77615 302.44647L416.7705 303.44086Q417.80908 304.47943 418.1295 304.71143Q418.46094 304.9324 418.8587 305.04288L418.07425 305.82733Q417.73175 305.7058 417.38925 305.4296ZM415.6546 303.82755Q415.41156 304.40207 414.72653 305.33014Q414.3288 305.86047 414.22937 306.1367Q414.11887 306.40186 414.16306 306.66702Q414.2183 306.92114 414.41718 307.12003Q414.71548 307.41833 415.13535 307.39624Q415.56622 307.3631 415.99713 306.9322Q416.428 306.5013 416.57166 305.98203Q416.72632 305.4517 416.54956 304.96555Q416.41696 304.5899 415.93082 304.10376L415.6546 303.82755ZM420.96896 301.60678L421.73132 302.14816Q421.4772 302.53488 421.23413 302.77795Q420.82535 303.18674 420.48282 303.28616Q420.12927 303.37457 419.81992 303.26407Q419.5216 303.14255 418.84766 302.46857L416.31754 299.93848L415.77615 300.47986L415.20163 299.90533L415.743 299.36395L414.6492 298.27014L414.9475 297.08795L416.48325 298.6237L417.23456 297.87238L417.80908 298.4469L417.05777 299.1982L419.63208 301.77252Q419.9525 302.09293 420.07404 302.14816Q420.2066 302.19238 420.35025 302.1592Q420.49387 302.12607 420.6596 301.96036Q420.79218 301.82776 420.96896 301.60678ZM423.72006 297.35312L424.58185 296.6681Q425.079 297.51883 424.9575 298.39166Q424.83597 299.2645 424.0736 300.02686Q423.1124 300.98807 421.94122 300.96597Q420.78113 300.93283 419.70944 299.8611Q418.60458 298.75626 418.57144 297.57407Q418.52725 296.38083 419.43323 295.47485Q420.3171 294.59097 421.46616 294.63516Q422.62625 294.6683 423.72006 295.76212Q423.78635 295.8284 423.9189 295.961L420.6375 299.2424Q421.41092 299.92743 422.1622 299.94952Q422.90247 299.96057 423.4549 299.40814Q423.86368 298.99933 423.941 298.50217Q424.01837 297.98288 423.72006 297.35312ZM420.07404 298.59055L422.52682 296.13776Q421.91913 295.61847 421.41092 295.57428Q420.61542 295.508 420.05194 296.07147Q419.53265 296.59076 419.5216 297.2868Q419.5216 297.97183 420.07404 298.59055ZM427.0788 296.82278L422.6815 292.42545L423.3444 291.76254L423.96313 292.38126Q423.7311 291.17697 424.64813 290.25995Q425.04587 289.86218 425.52097 289.67438Q426.0071 289.4755 426.40485 289.54178Q426.8026 289.60806 427.17825 289.85114Q427.42133 290.02792 427.94058 290.5472L430.6475 293.2541L429.90723 293.99435L427.2335 291.3206Q426.76944 290.85657 426.46008 290.72397Q426.15073 290.5914 425.79718 290.67978Q425.4326 290.7571 425.13428 291.05545Q424.65918 291.53052 424.615 292.19345Q424.5708 292.83426 425.4105 293.67395L427.81906 296.08252L427.0788 296.82278Z" fill-rule="nonzero"/><path fill="#000000" d="M462.37698 353.08197L462.9957 352.24228Q463.50394 352.61792 464.01218 352.57373Q464.53146 352.5185 465.05075 351.9992Q465.55896 351.49097 465.60318 351.049Q465.64737 350.585 465.3601 350.29773Q465.106 350.0436 464.7414 350.12094Q464.48727 350.17618 463.7249 350.62918Q462.6974 351.23685 462.23337 351.41364Q461.76932 351.5683 461.33844 351.46887Q460.90753 351.36945 460.57608 351.03796Q460.28882 350.7507 460.1673 350.364Q460.04575 349.97733 460.11203 349.57956Q460.1673 349.28125 460.3772 348.89456Q460.58713 348.50787 460.94067 348.1543Q461.4489 347.6461 461.9903 347.41406Q462.53168 347.15994 462.9736 347.22623Q463.41556 347.2925 463.9017 347.6461L463.2719 348.4747Q462.89627 348.18744 462.4654 348.2427Q462.0345 348.27585 461.59256 348.71777Q461.08432 349.226 461.04013 349.62375Q460.98486 350.01047 461.2169 350.2425Q461.36053 350.3861 461.5594 350.4082Q461.78036 350.4303 462.04553 350.31982Q462.20023 350.25354 462.89627 349.84473Q463.91275 349.2702 464.35468 349.09344Q464.79663 348.91666 465.2275 348.994Q465.65842 349.07132 466.0451 349.45804Q466.42075 349.83368 466.53125 350.3861Q466.64172 350.91644 466.42075 351.51306Q466.18875 352.09863 465.66946 352.61792Q464.80768 353.4797 464.00113 353.57913Q463.19458 353.6565 462.37698 353.08197ZM463.7249 343.93378L462.86313 343.07196L463.61444 342.32068L464.47623 343.18246L463.7249 343.93378ZM468.93982 349.14868L464.5425 344.75134L465.29382 344.00006L469.69113 348.39737L468.93982 349.14868ZM471.06116 347.02734L466.66382 342.63004L467.32675 341.96713L467.94547 342.58585Q467.71344 341.38156 468.63046 340.4645Q469.02823 340.06677 469.5033 339.87894Q469.98944 339.68008 470.38718 339.74637Q470.78494 339.81265 471.16058 340.05573Q471.40366 340.2325 471.92294 340.75177L474.62982 343.45868L473.8896 344.1989L471.21582 341.52518Q470.7518 341.06113 470.44244 340.92856Q470.13306 340.796 469.7795 340.88437Q469.41492 340.9617 469.1166 341.26Q468.6415 341.7351 468.59732 342.398Q468.55313 343.03882 469.39282 343.8785L471.8014 346.2871L471.06116 347.02734ZM474.3978 341.06113L475.01654 340.22147Q475.52475 340.5971 476.033 340.55292Q476.55228 340.49765 477.07156 339.9784Q477.5798 339.47015 477.624 339.0282Q477.66818 338.56418 477.38092 338.27692Q477.1268 338.0228 476.7622 338.10013Q476.5081 338.15536 475.74573 338.60837Q474.71823 339.21603 474.25418 339.39282Q473.79013 339.5475 473.35925 339.44806Q472.92834 339.3486 472.5969 339.01715Q472.30963 338.7299 472.1881 338.3432Q472.06656 337.9565 472.13284 337.55875Q472.1881 337.26044 472.398 336.87375Q472.60794 336.48703 472.9615 336.13348Q473.46973 335.62524 474.0111 335.39325Q474.5525 335.13913 474.99442 335.2054Q475.43637 335.2717 475.92252 335.62524L475.29276 336.4539Q474.91708 336.16663 474.4862 336.2219Q474.0553 336.25504 473.61337 336.69696Q473.10513 337.2052 473.06094 337.60294Q473.0057 337.98965 473.2377 338.22168Q473.38135 338.3653 473.58023 338.3874Q473.80118 338.4095 474.06635 338.299Q474.22104 338.23273 474.91708 337.8239Q475.93356 337.2494 476.3755 337.0726Q476.81744 336.89584 477.24832 336.97318Q477.67923 337.0505 478.06592 337.43723Q478.4416 337.81287 478.55206 338.3653Q478.66254 338.89563 478.4416 339.49225Q478.20956 340.07782 477.69028 340.5971Q476.8285 341.4589 476.02194 341.55832Q475.2154 341.63565 474.3978 341.06113ZM482.65106 338.8183L476.56332 332.73053L477.23727 332.05658L477.80075 332.62006Q477.71237 332.04553 477.84494 331.58148Q477.9886 331.1064 478.41946 330.6755Q478.98294 330.11203 479.7011 329.9684Q480.41925 329.82477 481.15952 330.14517Q481.91083 330.45453 482.5406 331.08432Q483.21454 331.75827 483.51285 332.54272Q483.8222 333.3161 483.64545 334.0674Q483.46866 334.81873 482.96042 335.32693Q482.58478 335.7026 482.13177 335.84622Q481.66776 335.97882 481.2479 335.93463L483.39133 338.07803L482.65106 338.8183ZM479.45804 334.27734Q480.30878 335.12808 481.0601 335.19437Q481.80032 335.2496 482.28647 334.76346Q482.78366 334.2663 482.71738 333.4929Q482.65106 332.71948 481.76718 331.8356Q480.9275 330.9959 480.1762 330.92963Q479.41385 330.8523 478.9277 331.3384Q478.45264 331.8135 478.52997 332.62006Q478.6073 333.4266 479.45804 334.27734ZM486.90475 334.5646L486.36337 334.02322L491.31314 329.07346L491.8545 329.61484L486.90475 334.5646ZM489.24704 326.21188L489.86578 325.37222Q490.374 325.74786 490.88223 325.70367Q491.40152 325.64844 491.9208 325.12915Q492.42905 324.6209 492.47324 324.17896Q492.51743 323.71494 492.23016 323.42767Q491.97604 323.17355 491.61145 323.2509Q491.35733 323.30612 490.59497 323.75912Q489.56744 324.3668 489.10342 324.54358Q488.63937 324.69824 488.2085 324.59882Q487.7776 324.49936 487.44614 324.1679Q487.15887 323.88065 487.03735 323.49396Q486.9158 323.10727 486.9821 322.7095Q487.03735 322.4112 487.24725 322.0245Q487.45718 321.6378 487.81073 321.28424Q488.31897 320.776 488.86035 320.544Q489.40173 320.2899 489.84366 320.35617Q490.2856 320.42245 490.77176 320.776L490.14197 321.60464Q489.76633 321.31738 489.33545 321.37265Q488.90454 321.4058 488.46262 321.84772Q487.95438 322.35596 487.9102 322.7537Q487.85492 323.1404 488.08694 323.37244Q488.2306 323.51605 488.42947 323.53815Q488.65042 323.56024 488.9156 323.44977Q489.07028 323.38348 489.76633 322.97467Q490.7828 322.40015 491.22473 322.2234Q491.6667 322.0466 492.09756 322.12393Q492.52847 322.20126 492.91516 322.58798Q493.29083 322.96362 493.4013 323.51605Q493.51178 324.0464 493.29083 324.643Q493.0588 325.22858 492.53952 325.74786Q491.67773 326.60965 490.8712 326.70908Q490.06464 326.7864 489.24704 326.21188ZM497.5003 323.96906L491.41257 317.8813L492.08652 317.20734L492.65 317.7708Q492.5616 317.1963 492.69418 316.73224Q492.83783 316.25717 493.2687 315.82626Q493.83218 315.2628 494.55035 315.11917Q495.2685 314.97552 496.00876 315.29593Q496.76007 315.6053 497.38983 316.23508Q498.06378 316.90903 498.3621 317.69348Q498.67145 318.46686 498.4947 319.21817Q498.3179 319.96948 497.80966 320.4777Q497.43402 320.85336 496.98102 320.99698Q496.517 321.12958 496.09714 321.0854L498.24057 323.2288L497.5003 323.96906ZM494.30728 319.4281Q495.15802 320.27884 495.90933 320.34512Q496.64957 320.40036 497.1357 319.9142Q497.6329 319.41705 497.5666 318.64365Q497.5003 317.87024 496.61642 316.98636Q495.77673 316.14667 495.02545 316.08038Q494.2631 316.00305 493.77695 316.48917Q493.30188 316.96426 493.3792 317.7708Q493.45654 318.57736 494.30728 319.4281ZM500.73755 317.35095L494.66083 311.27426L495.41214 310.52298L501.48883 316.59967L500.73755 317.35095ZM497.66605 309.99265L496.80426 309.13086L497.55554 308.37955L498.41733 309.24133L497.66605 309.99265ZM502.88095 315.20755L498.48364 310.81024L499.23492 310.05893L503.63226 314.45624L502.88095 315.20755ZM505.9635 310.7992L506.72586 311.34055Q506.47174 311.72726 506.22867 311.97034Q505.81985 312.37912 505.47736 312.47855Q505.1238 312.56696 504.81445 312.45645Q504.51614 312.33493 503.84216 311.66098L501.31207 309.13086L500.7707 309.67224L500.19617 309.09772L500.73755 308.55634L499.64374 307.46252L499.94205 306.28033L501.47778 307.81607L502.2291 307.06476L502.80362 307.63928L502.0523 308.3906L504.62662 310.9649Q504.94702 311.2853 505.06857 311.34055Q505.20114 311.38477 505.3448 311.3516Q505.4884 311.31845 505.65414 311.15274Q505.7867 311.02014 505.9635 310.7992ZM508.11795 313.35138L507.5766 312.81003L512.5263 307.86026L513.0677 308.40164L508.11795 313.35138ZM513.3329 301.52945L514.1615 300.8997Q514.79126 301.77252 514.725 302.7006Q514.6587 303.62866 513.94055 304.34683Q513.03455 305.2528 511.89658 305.21967Q510.75858 305.16443 509.65372 304.05957Q508.9466 303.35245 508.6483 302.59012Q508.34998 301.80566 508.5599 301.0654Q508.78088 300.31412 509.3554 299.7396Q510.0625 299.03247 510.8801 298.9441Q511.6977 298.83362 512.5042 299.375L511.88553 300.21466Q511.34415 299.87216 510.858 299.91635Q510.3608 299.94952 509.98517 300.32516Q509.4217 300.88864 509.47693 301.651Q509.52112 302.40228 510.39395 303.27512Q511.2889 304.17004 512.0292 304.2253Q512.7694 304.28055 513.3108 303.73917Q513.75275 303.2972 513.77484 302.74478Q513.808 302.1813 513.3329 301.52945ZM513.8411 299.85007Q512.61475 298.6237 512.7031 297.36417Q512.78046 296.31454 513.598 295.49695Q514.504 294.59097 515.6752 294.61307Q516.8463 294.61307 517.89594 295.6627Q518.74664 296.51343 518.9787 297.25366Q519.2107 297.99393 518.98975 298.7673Q518.76874 299.51862 518.1942 300.09314Q517.2772 301.01016 516.1171 300.9991Q514.95703 300.96597 513.8411 299.85007ZM514.60345 299.08774Q515.4432 299.9274 516.2276 299.98267Q517.0231 300.02686 517.5755 299.47443Q518.139 298.91095 518.08374 298.1265Q518.0285 297.34204 517.16675 296.48026Q516.3491 295.6627 515.55365 295.61847Q514.76917 295.56323 514.21674 296.11566Q513.6643 296.6681 513.7085 297.4636Q513.75275 298.237 514.60345 299.08774ZM521.26575 296.82278L516.8684 292.42545L517.5313 291.76254L518.15 292.38126Q517.918 291.17697 518.835 290.25995Q519.2328 289.86218 519.7079 289.67438Q520.19403 289.4755 520.5918 289.54178Q520.9895 289.60806 521.3652 289.85114Q521.6082 290.02792 522.1275 290.5472L524.8344 293.2541L524.0942 293.99435L521.4204 291.3206Q520.95636 290.85657 520.64703 290.72397Q520.33765 290.5914 519.9841 290.67978Q519.6195 290.7571 519.32117 291.05542Q518.84607 291.53052 518.8019 292.19342Q518.7577 292.83426 519.5974 293.67395L522.006 296.08252L521.26575 296.82278Z" fill-rule="nonzero"/><path fill="#4285f4" d="M250.0 56.916668C250.0 56.364384 250.44771 55.916668 251.0 55.916668L261.0 55.916668C261.55228 55.916668 262.0 56.364384 262.0 56.916668L262.0 66.916664C262.0 67.46895 261.55228 67.916664 261.0 67.916664L251.0 67.916664C250.44771 67.916664 250.0 67.46895 250.0 66.916664Z" fill-rule="nonzero"/><path fill="#1a1a1a" d="M274.95312 62.541664L274.95312 61.541664L278.57812 61.52604L278.57812 64.71354Q277.75 65.385414 276.85938 65.729164Q275.96875 66.05729 275.03125 66.05729Q273.76562 66.05729 272.71875 65.52604Q271.6875 64.979164 271.15625 63.96354Q270.64062 62.93229 270.64062 61.666664Q270.64062 60.40104 271.15625 59.322914Q271.6875 58.229164 272.67188 57.71354Q273.65625 57.18229 274.9375 57.18229Q275.875 57.18229 276.625 57.479164Q277.375 57.77604 277.79688 58.322914Q278.23438 58.854164 278.45312 59.729164L277.4375 60.010414Q277.23438 59.354164 276.9375 58.979164Q276.65625 58.604164 276.125 58.385414Q275.59375 58.15104 274.95312 58.15104Q274.17188 58.15104 273.59375 58.385414Q273.03125 58.61979 272.67188 59.010414Q272.32812 59.40104 272.14062 59.86979Q271.8125 60.666664 271.8125 61.58854Q271.8125 62.74479 272.20312 63.52604Q272.60938 64.291664 273.35938 64.666664Q274.10938 65.041664 274.96875 65.041664Q275.70312 65.041664 276.40625 64.760414Q277.10938 64.46354 277.46875 64.15104L277.46875 62.541664L274.95312 62.541664ZM286.0625 62.90104L287.1875 63.197914Q286.82812 64.58854 285.90625 65.322914Q284.98438 66.05729 283.64062 66.05729Q282.25 66.05729 281.375 65.49479Q280.5 64.93229 280.04688 63.86979Q279.59375 62.791664 279.59375 61.55729Q279.59375 60.21354 280.10938 59.21354Q280.625 58.21354 281.5625 57.697914Q282.51562 57.18229 283.65625 57.18229Q284.9375 57.18229 285.8125 57.83854Q286.70312 58.49479 287.04688 59.68229L285.92188 59.947914Q285.625 59.010414 285.04688 58.58854Q284.48438 58.15104 283.625 58.15104Q282.64062 58.15104 281.96875 58.635414Q281.3125 59.104164 281.03125 59.90104Q280.76562 60.697914 280.76562 61.55729Q280.76562 62.65104 281.07812 63.46354Q281.40625 64.27604 282.07812 64.68229Q282.75 65.08854 283.54688 65.08854Q284.5 65.08854 285.15625 64.541664Q285.82812 63.99479 286.0625 62.90104ZM295.0625 62.90104L296.1875 63.197914Q295.82812 64.58854 294.90625 65.322914Q293.98438 66.05729 292.64062 66.05729Q291.25 66.05729 290.375 65.49479Q289.5 64.93229 289.04688 63.86979Q288.59375 62.791664 288.59375 61.55729Q288.59375 60.21354 289.10938 59.21354Q289.625 58.21354 290.5625 57.697914Q291.51562 57.18229 292.65625 57.18229Q293.9375 57.18229 294.8125 57.83854Q295.70312 58.49479 296.04688 59.68229L294.92188 59.947914Q294.625 59.010414 294.04688 58.58854Q293.48438 58.15104 292.625 58.15104Q291.64062 58.15104 290.96875 58.635414Q290.3125 59.104164 290.03125 59.90104Q289.76562 60.697914 289.76562 61.55729Q289.76562 62.65104 290.07812 63.46354Q290.40625 64.27604 291.07812 64.68229Q291.75 65.08854 292.54688 65.08854Q293.5 65.08854 294.15625 64.541664Q294.82812 63.99479 295.0625 62.90104Z" fill-rule="nonzero"/><path fill="#ea4335" d="M313.0 56.916668C313.0 56.364384 313.44772 55.916668 314.0 55.916668L324.0 55.916668C324.55228 55.916668 325.0 56.364384 325.0 56.916668L325.0 66.916664C325.0 67.46895 324.55228 67.916664 324.0 67.916664L314.0 67.916664C313.44772 67.916664 313.0 67.46895 313.0 66.916664Z" fill-rule="nonzero"/><path fill="#1a1a1a" d="M333.23438 65.916664L333.23438 64.854164L337.64062 59.354164Q338.10938 58.77604 338.53125 58.33854L333.73438 58.33854L333.73438 57.322914L339.89062 57.322914L339.89062 58.33854L335.0625 64.291664L334.54688 64.90104L340.03125 64.90104L340.03125 65.916664L333.23438 65.916664ZM340.79688 58.541664L340.79688 57.322914L341.85938 57.322914L341.85938 58.541664L340.79688 58.541664ZM340.79688 65.916664L340.79688 59.697914L341.85938 59.697914L341.85938 65.916664L340.79688 65.916664ZM343.59375 66.43229L344.625 66.58854Q344.6875 67.05729 344.98438 67.27604Q345.375 67.572914 346.04688 67.572914Q346.78125 67.572914 347.17188 67.27604Q347.57812 66.979164 347.71875 66.46354Q347.8125 66.135414 347.79688 65.104164Q347.10938 65.916664 346.07812 65.916664Q344.79688 65.916664 344.09375 64.99479Q343.39062 64.05729 343.39062 62.77604Q343.39062 61.885414 343.70312 61.135414Q344.03125 60.36979 344.64062 59.96354Q345.25 59.55729 346.07812 59.55729Q347.1875 59.55729 347.90625 60.447914L347.90625 59.697914L348.875 59.697914L348.875 65.072914Q348.875 66.52604 348.57812 67.135414Q348.28125 67.74479 347.64062 68.08854Q347.0 68.447914 346.0625 68.447914Q344.95312 68.447914 344.26562 67.947914Q343.57812 67.447914 343.59375 66.43229ZM344.46875 62.697914Q344.46875 63.916664 344.95312 64.479164Q345.4375 65.041664 346.17188 65.041664Q346.90625 65.041664 347.39062 64.479164Q347.89062 63.916664 347.89062 62.729164Q347.89062 61.58854 347.375 61.010414Q346.875 60.43229 346.15625 60.43229Q345.45312 60.43229 344.95312 61.010414Q344.46875 61.572914 344.46875 62.697914Z" fill-rule="nonzero"/><path fill="#757575" d="M26.8 31.940624L26.8 30.253124L32.8625 30.2375L32.8625 35.55Q31.45625 36.675 29.971874 37.2375Q28.4875 37.8 26.925 37.8Q24.815624 37.8 23.096874 36.89375Q21.378124 35.9875 20.4875 34.284374Q19.6125 32.565624 19.6125 30.45625Q19.6125 28.3625 20.4875 26.565624Q21.3625 24.753124 23.003124 23.878124Q24.64375 22.9875 26.784374 22.9875Q28.33125 22.9875 29.58125 23.4875Q30.846874 23.9875 31.55 24.89375Q32.26875 25.784374 32.64375 27.2375L30.940624 27.70625Q30.6125 26.6125 30.128124 25.9875Q29.659374 25.3625 28.76875 24.9875Q27.878124 24.6125 26.8 24.6125Q25.4875 24.6125 24.534374 25.003124Q23.596874 25.39375 23.01875 26.05Q22.440624 26.690624 22.1125 27.45625Q21.565624 28.784374 21.565624 30.346874Q21.565624 32.253124 22.221874 33.55Q22.89375 34.83125 24.14375 35.45625Q25.409374 36.08125 26.815624 36.08125Q28.05 36.08125 29.221874 35.6125Q30.39375 35.14375 31.003124 34.596874L31.003124 31.940624L26.8 31.940624ZM35.221874 32.3625Q35.221874 29.4875 36.815624 28.096874Q38.159374 26.940624 40.08125 26.940624Q42.221874 26.940624 43.565624 28.346874Q44.925 29.753124 44.925 32.221874Q44.925 34.221874 44.33125 35.378124Q43.7375 36.51875 42.58125 37.159374Q41.440624 37.784374 40.08125 37.784374Q37.89375 37.784374 36.55 36.39375Q35.221874 34.9875 35.221874 32.3625ZM37.01875 32.3625Q37.01875 34.3625 37.878124 35.346874Q38.753124 36.33125 40.08125 36.33125Q41.39375 36.33125 42.253124 35.346874Q43.128124 34.346874 43.128124 32.3Q43.128124 30.378124 42.253124 29.39375Q41.378124 28.39375 40.08125 28.39375Q38.753124 28.39375 37.878124 29.39375Q37.01875 30.378124 37.01875 32.3625ZM46.221874 32.3625Q46.221874 29.4875 47.815624 28.096874Q49.159374 26.940624 51.08125 26.940624Q53.221874 26.940624 54.565624 28.346874Q55.925 29.753124 55.925 32.221874Q55.925 34.221874 55.33125 35.378124Q54.7375 36.51875 53.58125 37.159374Q52.440624 37.784374 51.08125 37.784374Q48.89375 37.784374 47.55 36.39375Q46.221874 34.9875 46.221874 32.3625ZM48.01875 32.3625Q48.01875 34.3625 48.878124 35.346874Q49.753124 36.33125 51.08125 36.33125Q52.39375 36.33125 53.253124 35.346874Q54.128124 34.346874 54.128124 32.3Q54.128124 30.378124 53.253124 29.39375Q52.378124 28.39375 51.08125 28.39375Q49.753124 28.39375 48.878124 29.39375Q48.01875 30.378124 48.01875 32.3625ZM57.55 38.409374L59.253124 38.659374Q59.3625 39.45625 59.846874 39.815624Q60.503124 40.3 61.64375 40.3Q62.8625 40.3 63.51875 39.815624Q64.19063 39.33125 64.425 38.45625Q64.56563 37.909374 64.55 36.190624Q63.39375 37.55 61.675 37.55Q59.534374 37.55 58.3625 36.003124Q57.190624 34.45625 57.190624 32.3Q57.190624 30.815624 57.721874 29.565624Q58.26875 28.315624 59.284374 27.628124Q60.315624 26.940624 61.690624 26.940624Q63.51875 26.940624 64.72188 28.425L64.72188 27.175L66.33125 27.175L66.33125 36.14375Q66.33125 38.565624 65.83125 39.565624Q65.34688 40.58125 64.26875 41.159374Q63.20625 41.753124 61.64375 41.753124Q59.8 41.753124 58.64375 40.925Q57.503124 40.096874 57.55 38.409374ZM59.003124 32.175Q59.003124 34.221874 59.815624 35.159374Q60.628124 36.096874 61.846874 36.096874Q63.05 36.096874 63.8625 35.159374Q64.69063 34.221874 64.69063 32.2375Q64.69063 30.33125 63.846874 29.3625Q63.003124 28.39375 61.815624 28.39375Q60.64375 28.39375 59.815624 29.346874Q59.003124 30.3 59.003124 32.175ZM68.83125 37.55L68.83125 23.2375L70.58125 23.2375L70.58125 37.55L68.83125 37.55ZM79.97188 34.20625L81.78438 34.440624Q81.3625 36.01875 80.19063 36.909374Q79.03438 37.784374 77.22188 37.784374Q74.95625 37.784374 73.6125 36.39375Q72.28438 34.9875 72.28438 32.45625Q72.28438 29.83125 73.62813 28.39375Q74.97188 26.940624 77.12813 26.940624Q79.20625 26.940624 80.51875 28.3625Q81.84688 29.76875 81.84688 32.346874Q81.84688 32.503124 81.83125 32.815624L74.09688 32.815624Q74.19063 34.51875 75.06563 35.425Q75.94063 36.33125 77.2375 36.33125Q78.20625 36.33125 78.87813 35.83125Q79.56563 35.315624 79.97188 34.20625ZM74.19063 31.3625L79.9875 31.3625Q79.87813 30.065624 79.33125 29.409374Q78.4875 28.39375 77.14375 28.39375Q75.94063 28.39375 75.1125 29.20625Q74.28438 30.003124 74.19063 31.3625ZM90.01875 37.55L90.01875 23.2375L95.39375 23.2375Q97.03438 23.2375 98.01875 23.675Q99.00313 24.096874 99.56563 25.003124Q100.12813 25.909374 100.12813 26.89375Q100.12813 27.815624 99.62813 28.628124Q99.14375 29.440624 98.12813 29.925Q99.425 30.315624 100.12813 31.2375Q100.83125 32.14375 100.83125 33.39375Q100.83125 34.409374 100.39375 35.26875Q99.97188 36.128124 99.34688 36.596874Q98.72188 37.065624 97.78438 37.315624Q96.84688 37.55 95.47188 37.55L90.01875 37.55ZM91.90938 29.253124L95.00313 29.253124Q96.26875 29.253124 96.81563 29.08125Q97.53438 28.8625 97.89375 28.378124Q98.26875 27.878124 98.26875 27.1125Q98.26875 26.409374 97.925 25.8625Q97.58125 25.315624 96.94063 25.128124Q96.31563 24.925 94.76875 24.925L91.90938 24.925L91.90938 29.253124ZM91.90938 35.8625L95.47188 35.8625Q96.39375 35.8625 96.76875 35.784374Q97.425 35.675 97.8625 35.409374Q98.3 35.128124 98.58125 34.6125Q98.8625 34.08125 98.8625 33.39375Q98.8625 32.596874 98.45625 32.003124Q98.05 31.409374 97.31563 31.175Q96.58125 30.940624 95.22188 30.940624L91.90938 30.940624L91.90938 35.8625ZM109.97188 34.20625L111.78438 34.440624Q111.3625 36.01875 110.19063 36.909374Q109.03438 37.784374 107.22188 37.784374Q104.95625 37.784374 103.6125 36.39375Q102.28438 34.9875 102.28438 32.45625Q102.28438 29.83125 103.62813 28.39375Q104.97188 26.940624 107.12813 26.940624Q109.20625 26.940624 110.51875 28.3625Q111.84688 29.76875 111.84688 32.346874Q111.84688 32.503124 111.83125 32.815624L104.09688 32.815624Q104.19063 34.51875 105.06563 35.425Q105.94063 36.33125 107.2375 36.33125Q108.20625 36.33125 108.87813 35.83125Q109.56563 35.315624 109.97188 34.20625ZM104.19063 31.3625L109.9875 31.3625Q109.87813 30.065624 109.33125 29.409374Q108.4875 28.39375 107.14375 28.39375Q105.94063 28.39375 105.1125 29.20625Q104.28438 30.003124 104.19063 31.3625ZM113.8625 37.55L113.8625 27.175L115.45625 27.175L115.45625 28.659374Q116.59688 26.940624 118.75313 26.940624Q119.69063 26.940624 120.47188 27.284374Q121.26875 27.6125 121.65938 28.159374Q122.05 28.70625 122.20625 29.45625Q122.3 29.95625 122.3 31.175L122.3 37.55L120.53438 37.55L120.53438 31.2375Q120.53438 30.159374 120.33125 29.628124Q120.12813 29.096874 119.59688 28.784374Q119.08125 28.471874 118.37813 28.471874Q117.25313 28.471874 116.44063 29.190624Q115.62813 29.89375 115.62813 31.878124L115.62813 37.55L113.8625 37.55ZM130.64375 33.753124L132.3625 33.971874Q132.08125 35.76875 130.90938 36.784374Q129.75313 37.784374 128.05 37.784374Q125.925 37.784374 124.62813 36.39375Q123.33125 35.003124 123.33125 32.409374Q123.33125 30.721874 123.87813 29.471874Q124.44063 28.20625 125.58125 27.58125Q126.72188 26.940624 128.06563 26.940624Q129.75313 26.940624 130.81563 27.8Q131.89375 28.659374 132.20625 30.221874L130.4875 30.4875Q130.25313 29.440624 129.62813 28.925Q129.00313 28.39375 128.12813 28.39375Q126.8 28.39375 125.97188 29.346874Q125.14375 30.3 125.14375 32.346874Q125.14375 34.440624 125.94063 35.39375Q126.7375 36.33125 128.03438 36.33125Q129.06563 36.33125 129.75313 35.70625Q130.45625 35.065624 130.64375 33.753124ZM133.8625 37.55L133.8625 23.2375L135.62813 23.2375L135.62813 28.3625Q136.8625 26.940624 138.7375 26.940624Q139.87813 26.940624 140.72188 27.39375Q141.58125 27.846874 141.94063 28.659374Q142.31563 29.45625 142.31563 30.971874L142.31563 37.55L140.56563 37.55L140.56563 30.971874Q140.56563 29.659374 139.9875 29.065624Q139.40938 28.45625 138.37813 28.45625Q137.59688 28.45625 136.89375 28.8625Q136.20625 29.26875 135.90938 29.971874Q135.62813 30.659374 135.62813 31.878124L135.62813 37.55L133.8625 37.55ZM143.8625 37.55L143.8625 27.175L145.44063 27.175L145.44063 28.628124Q145.925 27.878124 146.7375 27.409374Q147.55 26.940624 148.58125 26.940624Q149.7375 26.940624 150.47188 27.425Q151.20625 27.89375 151.51875 28.753124Q152.75313 26.940624 154.72188 26.940624Q156.26875 26.940624 157.09688 27.8Q157.925 28.659374 157.925 30.425L157.925 37.55L156.175 37.55L156.175 31.01875Q156.175 29.95625 156.00313 29.503124Q155.83125 29.034374 155.37813 28.753124Q154.94063 28.471874 154.33125 28.471874Q153.2375 28.471874 152.50313 29.20625Q151.78438 29.925 151.78438 31.51875L151.78438 37.55L150.03438 37.55L150.03438 30.815624Q150.03438 29.64375 149.59688 29.065624Q149.175 28.471874 148.19063 28.471874Q147.45625 28.471874 146.81563 28.8625Q146.19063 29.253124 145.90938 30.003124Q145.62813 30.753124 145.62813 32.175L145.62813 37.55L143.8625 37.55ZM166.64375 36.26875Q165.65938 37.096874 164.75313 37.440624Q163.84688 37.784374 162.81563 37.784374Q161.1125 37.784374 160.19063 36.95625Q159.26875 36.1125 159.26875 34.815624Q159.26875 34.05 159.6125 33.425Q159.97188 32.8 160.53438 32.425Q161.09688 32.034374 161.8 31.83125Q162.31563 31.70625 163.3625 31.565624Q165.4875 31.315624 166.4875 30.971874Q166.50313 30.6125 166.50313 30.503124Q166.50313 29.440624 166.00313 28.9875Q165.33125 28.39375 164.00313 28.39375Q162.75313 28.39375 162.15938 28.83125Q161.58125 29.26875 161.3 30.378124L159.58125 30.14375Q159.81563 29.034374 160.34688 28.3625Q160.87813 27.675 161.89375 27.315624Q162.90938 26.940624 164.25313 26.940624Q165.58125 26.940624 166.40938 27.253124Q167.2375 27.565624 167.62813 28.05Q168.01875 28.51875 168.175 29.2375Q168.26875 29.690624 168.26875 30.8625L168.26875 33.20625Q168.26875 35.659374 168.37813 36.315624Q168.4875 36.95625 168.83125 37.55L166.9875 37.55Q166.72188 37.003124 166.64375 36.26875ZM166.4875 32.346874Q165.53438 32.7375 163.6125 33.003124Q162.53438 33.159374 162.08125 33.3625Q161.64375 33.55 161.39375 33.925Q161.14375 34.3 161.14375 34.76875Q161.14375 35.471874 161.675 35.940624Q162.20625 36.409374 163.2375 36.409374Q164.25313 36.409374 165.03438 35.971874Q165.83125 35.51875 166.20625 34.753124Q166.4875 34.14375 166.4875 32.9875L166.4875 32.346874ZM170.84688 37.55L170.84688 27.175L172.425 27.175L172.425 28.753124Q173.03438 27.64375 173.55 27.3Q174.06563 26.940624 174.675 26.940624Q175.56563 26.940624 176.4875 27.503124L175.87813 29.14375Q175.2375 28.753124 174.59688 28.753124Q174.01875 28.753124 173.55 29.1125Q173.09688 29.45625 172.89375 30.065624Q172.6125 31.003124 172.6125 32.1125L172.6125 37.55L170.84688 37.55ZM177.87813 37.55L177.87813 23.2375L179.64375 23.2375L179.64375 31.39375L183.8 27.175L186.06563 27.175L182.1125 31.01875L186.47188 37.55L184.3 37.55L180.87813 32.253124L179.64375 33.440624L179.64375 37.55L177.87813 37.55ZM187.15938 34.45625L188.90938 34.175Q189.05 35.221874 189.72188 35.784374Q190.39375 36.33125 191.59688 36.33125Q192.8 36.33125 193.37813 35.846874Q193.97188 35.346874 193.97188 34.690624Q193.97188 34.096874 193.45625 33.753124Q193.09688 33.51875 191.65938 33.159374Q189.72188 32.659374 188.97188 32.315624Q188.2375 31.95625 187.84688 31.33125Q187.45625 30.690624 187.45625 29.925Q187.45625 29.2375 187.76875 28.64375Q188.09688 28.05 188.64375 27.659374Q189.05 27.3625 189.75313 27.159374Q190.47188 26.940624 191.28438 26.940624Q192.50313 26.940624 193.425 27.3Q194.34688 27.64375 194.78438 28.253124Q195.22188 28.846874 195.39375 29.846874L193.675 30.08125Q193.55 29.284374 192.9875 28.846874Q192.425 28.39375 191.40938 28.39375Q190.19063 28.39375 189.675 28.8Q189.15938 29.190624 189.15938 29.721874Q189.15938 30.065624 189.37813 30.346874Q189.58125 30.628124 190.05 30.815624Q190.31563 30.909374 191.59688 31.253124Q193.47188 31.753124 194.20625 32.08125Q194.94063 32.39375 195.3625 33.003124Q195.78438 33.596874 195.78438 34.503124Q195.78438 35.378124 195.26875 36.159374Q194.75313 36.940624 193.78438 37.3625Q192.81563 37.784374 191.59688 37.784374Q189.58125 37.784374 188.51875 36.940624Q187.45625 36.096874 187.15938 34.45625ZM203.37813 33.8L205.22188 33.64375Q205.425 34.9875 206.175 35.675Q206.925 36.346874 207.9875 36.346874Q209.25313 36.346874 210.12813 35.39375Q211.00313 34.440624 211.00313 32.846874Q211.00313 31.346874 210.15938 30.4875Q209.31563 29.6125 207.95625 29.6125Q207.09688 29.6125 206.40938 30.003124Q205.7375 30.378124 205.34688 31.003124L203.69063 30.784374L205.08125 23.425L212.20625 23.425L212.20625 25.1125L206.4875 25.1125L205.72188 28.95625Q207.00313 28.05 208.425 28.05Q210.3 28.05 211.58125 29.3625Q212.87813 30.659374 212.87813 32.690624Q212.87813 34.64375 211.7375 36.05Q210.3625 37.8 207.9875 37.8Q206.03438 37.8 204.78438 36.70625Q203.55 35.6125 203.37813 33.8ZM214.37813 30.4875Q214.37813 27.95625 214.89375 26.409374Q215.425 24.846874 216.45625 24.01875Q217.4875 23.175 219.05 23.175Q220.20625 23.175 221.06563 23.64375Q221.94063 24.096874 222.50313 24.971874Q223.06563 25.846874 223.39375 27.1125Q223.72188 28.3625 223.72188 30.4875Q223.72188 33.003124 223.19063 34.55Q222.675 36.096874 221.64375 36.95625Q220.62813 37.8 219.05 37.8Q216.97188 37.8 215.8 36.315624Q214.37813 34.51875 214.37813 30.4875ZM216.19063 30.4875Q216.19063 34.01875 217.00313 35.190624Q217.83125 36.346874 219.05 36.346874Q220.25313 36.346874 221.08125 35.175Q221.90938 34.003124 221.90938 30.4875Q221.90938 26.95625 221.08125 25.8Q220.25313 24.628124 219.03438 24.628124Q217.81563 24.628124 217.09688 25.659374Q216.19063 26.95625 216.19063 30.4875ZM231.84688 37.55L231.84688 27.175L233.425 27.175L233.425 28.753124Q234.03438 27.64375 234.55 27.3Q235.06563 26.940624 235.675 26.940624Q236.56563 26.940624 237.4875 27.503124L236.87813 29.14375Q236.2375 28.753124 235.59688 28.753124Q235.01875 28.753124 234.55 29.1125Q234.09688 29.45625 233.89375 30.065624Q233.6125 31.003124 233.6125 32.1125L233.6125 37.55L231.84688 37.55ZM245.97188 34.20625L247.78438 34.440624Q247.3625 36.01875 246.19063 36.909374Q245.03438 37.784374 243.22188 37.784374Q240.95625 37.784374 239.6125 36.39375Q238.28438 34.9875 238.28438 32.45625Q238.28438 29.83125 239.62813 28.39375Q240.97188 26.940624 243.12813 26.940624Q245.20625 26.940624 246.51875 28.3625Q247.84688 29.76875 247.84688 32.346874Q247.84688 32.503124 247.83125 32.815624L240.09688 32.815624Q240.19063 34.51875 241.06563 35.425Q241.94063 36.33125 243.2375 36.33125Q244.20625 36.33125 244.87813 35.83125Q245.56563 35.315624 245.97188 34.20625ZM240.19063 31.3625L245.9875 31.3625Q245.87813 30.065624 245.33125 29.409374Q244.4875 28.39375 243.14375 28.39375Q241.94063 28.39375 241.1125 29.20625Q240.28438 30.003124 240.19063 31.3625ZM249.8625 41.51875L249.8625 27.175L251.47188 27.175L251.47188 28.51875Q252.03438 27.7375 252.7375 27.346874Q253.45625 26.940624 254.47188 26.940624Q255.8 26.940624 256.8156 27.628124Q257.83124 28.315624 258.34686 29.565624Q258.8781 30.8 258.8781 32.284374Q258.8781 33.878124 258.3 35.159374Q257.7375 36.425 256.64374 37.1125Q255.55 37.784374 254.34688 37.784374Q253.47188 37.784374 252.76875 37.409374Q252.08125 37.034374 251.62813 36.471874L251.62813 41.51875L249.8625 41.51875ZM251.45625 32.425Q251.45625 34.425 252.26875 35.378124Q253.08125 36.33125 254.2375 36.33125Q255.40938 36.33125 256.2375 35.346874Q257.08124 34.3625 257.08124 32.26875Q257.08124 30.3 256.2531 29.315624Q255.44063 28.315624 254.31563 28.315624Q253.19063 28.315624 252.31563 29.378124Q251.45625 30.425 251.45625 32.425ZM260.15936 34.45625L261.90936 34.175Q262.05 35.221874 262.72186 35.784374Q263.39374 36.33125 264.59686 36.33125Q265.8 36.33125 266.3781 35.846874Q266.97186 35.346874 266.97186 34.690624Q266.97186 34.096874 266.45624 33.753124Q266.09686 33.51875 264.65936 33.159374Q262.72186 32.659374 261.97186 32.315624Q261.2375 31.95625 260.84686 31.33125Q260.45624 30.690624 260.45624 29.925Q260.45624 29.2375 260.76874 28.64375Q261.09686 28.05 261.64374 27.659374Q262.05 27.3625 262.7531 27.159374Q263.47186 26.940624 264.28436 26.940624Q265.5031 26.940624 266.425 27.3Q267.34686 27.64375 267.78436 28.253124Q268.22186 28.846874 268.39374 29.846874L266.675 30.08125Q266.55 29.284374 265.9875 28.846874Q265.425 28.39375 264.40936 28.39375Q263.1906 28.39375 262.675 28.8Q262.15936 29.190624 262.15936 29.721874Q262.15936 30.065624 262.3781 30.346874Q262.58124 30.628124 263.05 30.815624Q263.3156 30.909374 264.59686 31.253124Q266.47186 31.753124 267.20624 32.08125Q267.9406 32.39375 268.3625 33.003124Q268.78436 33.596874 268.78436 34.503124Q268.78436 35.378124 268.26874 36.159374Q267.7531 36.940624 266.78436 37.3625Q265.8156 37.784374 264.59686 37.784374Q262.58124 37.784374 261.51874 36.940624Q260.45624 36.096874 260.15936 34.45625Z" fill-rule="nonzero"/></svg>