<svg width="153" height="79" viewBox="0 0 153 79" fill="none" xmlns="http://www.w3.org/2000/svg">
<path d="M151.856 33.7153C152.407 33.6726 152.819 33.1917 152.776 32.6411L152.081 23.6679C152.039 23.1173 151.558 22.7054 151.007 22.7481C150.457 22.7907 150.045 23.2716 150.087 23.8222L150.705 31.7984L142.729 32.4158C142.178 32.4584 141.766 32.9393 141.809 33.4899C141.851 34.0406 142.332 34.4524 142.883 34.4098L151.856 33.7153ZM1.95888 78.7506C10.1839 50.9632 21.3812 32.3774 34.0452 20.5729C46.6943 8.78233 60.859 3.70694 75.1396 3.02094C103.776 1.64532 132.968 17.9267 151.129 33.4778L152.429 31.9587C134.094 16.2581 104.414 -0.387627 75.0436 1.02324C60.3207 1.73049 45.6981 6.97675 32.6816 19.1099C19.68 31.229 8.33323 50.169 0.0411242 78.183L1.95888 78.7506Z" fill="#404040"/>
</svg>
