<svg width="146" height="56" viewBox="0 0 146 56" fill="none" xmlns="http://www.w3.org/2000/svg">
<path d="M4.43998 54.972C4.69792 55.4603 5.3029 55.6471 5.79125 55.3892L13.7494 51.1859C14.2378 50.9279 14.4245 50.323 14.1666 49.8346C13.9087 49.3463 13.3037 49.1595 12.8153 49.4174L5.74142 53.1537L2.00514 46.0798C1.7472 45.5914 1.14222 45.4046 0.653865 45.6626C0.165514 45.9205 -0.0212747 46.5255 0.236662 47.0138L4.43998 54.972ZM145.05 34.2628C120.832 3.50708 89.5143 -4.07775 62.3057 2.35016C35.1626 8.76261 12.1137 29.1248 4.36872 54.2099L6.27971 54.8C13.7948 30.4594 36.2411 10.5629 62.7656 4.29658C89.2246 -1.95425 119.747 5.36205 143.479 35.5001L145.05 34.2628Z" fill="#404040"/>
</svg>
